<svg id="Layer_1" data-name="Layer 1" xmlns="http://www.w3.org/2000/svg" viewBox="0 0 47.91 47.91"><defs><style>.cls-1{fill:#23324E;}</style></defs><title>Facebook-Button</title><path class="cls-1" d="M13,24H8.85V14h-2V10.84H8.92c0-1,0-1.94,0-2.88A6.2,6.2,0,0,1,9,7.09a3.29,3.29,0,0,1,2.81-2.88,10.9,10.9,0,0,1,4.91.2l-.52,3.16-1.66-.22c-1-.14-1.61.34-1.61,1.37q0,1,0,2a.92.92,0,0,0,0,.14h3.33L16,14H13Z" transform="translate(12.21 9.83)"/><path class="cls-1" d="M11.75,38.08a24,24,0,1,1,24-24A24,24,0,0,1,11.75,38.08Zm0-46.31A22.36,22.36,0,1,0,34.1,14.12,22.38,22.38,0,0,0,11.75-8.24Z" transform="translate(12.21 9.83)"/></svg>