<svg id="Layer_1" data-name="Layer 1" xmlns="http://www.w3.org/2000/svg" viewBox="0 0 47.91 47.91"><defs><style>.cls-1{fill:#23324E;}</style></defs><title>Instagram-Button</title><path class="cls-1" d="M11.21,3.06c2,.05,3.6.06,5.16.13A5.69,5.69,0,0,1,22.15,9c.08,3.11.06,6.23,0,9.35a5.75,5.75,0,0,1-1.8,4.24,5.49,5.49,0,0,1-3.63,1.53c-2.52.1-5,.1-7.56.1a23.2,23.2,0,0,1-3-.16,5.47,5.47,0,0,1-5-5.24c-.13-2.53-.12-5.06-.12-7.59A22,22,0,0,1,1.3,8.12a5.42,5.42,0,0,1,5-4.84C8.07,3.1,9.87,3.11,11.21,3.06Zm9.15,10.59c0-1.53-.05-3.1-.13-4.66a3.78,3.78,0,0,0-3.82-3.87C15.59,5.07,14.77,5,14,5c-2.4,0-4.79,0-7.19.1a3.69,3.69,0,0,0-2.4,1A4,4,0,0,0,3.1,9.2q-.06,4.49,0,9A4.08,4.08,0,0,0,4.16,21a4.16,4.16,0,0,0,3.14,1.22c2.9,0,5.81,0,8.71,0a4.37,4.37,0,0,0,2.85-.92,4,4,0,0,0,1.36-3C20.3,16.76,20.32,15.22,20.36,13.65Z" transform="translate(12.71 9.83)"/><path class="cls-1" d="M11.69,8.25a5.43,5.43,0,1,1-5.47,5.46A5.4,5.4,0,0,1,11.69,8.25Zm3.48,5.44a3.51,3.51,0,1,0-7,0,3.51,3.51,0,1,0,7,0Z" transform="translate(12.71 9.83)"/><path class="cls-1" d="M17.32,9.3a1.27,1.27,0,0,1,0-2.55,1.27,1.27,0,1,1,0,2.55Z" transform="translate(12.71 9.83)"/><path class="cls-1" d="M11.25,38.08a24,24,0,1,1,24-24A24,24,0,0,1,11.25,38.08Zm0-46.31A22.36,22.36,0,1,0,33.61,14.12,22.38,22.38,0,0,0,11.25-8.24Z" transform="translate(12.71 9.83)"/></svg>