<svg  data-name="Layer 1"
    xmlns="http://www.w3.org/2000/svg" viewBox="0 0 135.78 136.04">
    <defs>
            <style>.cls-1logocyclesvg{fill:#f4efe6;}</style>
    </defs>
    <path class="cls-1logocyclesvg" d="M-55.77,7.83a1.14,1.14,0,0,1-1-1.37l.39-3.56C-56-.29-53.8-2.08-51-1.78a4.75,4.75,0,0,1,4.25,5.56l-.27,2.51,3.58.39a1.12,1.12,0,0,1,1,1.37,1.12,1.12,0,0,1-1.27,1.1Zm1.27-4.52-.23,2.14,5.79.63.23-2.14A2.81,2.81,0,0,0-51.28.64,2.83,2.83,0,0,0-54.5,3.31Z" transform="translate(56.78 57.57)"/>
    <path class="cls-1logocyclesvg" d="M-43-8.53a1.33,1.33,0,0,0,2-.85l1.85-4.72a1,1,0,0,1,1.31-.46c.62.24.86.71.65,1.23l-2,5.22c-1,2.55-2.79,2.61-4.53,1.93l-6.73-2.64c-1.75-.69-3-2.09-2-4.5l1.93-4.92a1,1,0,0,1,1.31-.44c.62.24.84.7.64,1.2l-1.73,4.42a1.31,1.31,0,0,0,.83,1.95l2,.8,2.11-5.38a.87.87,0,0,1,1.23-.42c.6.24.79.64.6,1.14l-2.11,5.38Z" transform="translate(56.78 57.57)"/>
    <path class="cls-1logocyclesvg" d="M-45.33-25.68c-.33-.24-.8-.77-.14-1.68a1,1,0,0,1,1.58-.34l7.8,5.71A1.35,1.35,0,0,0-34-22.3l2.8-3.83a1,1,0,0,1,1.38-.14,1,1,0,0,1,.3,1.37l-3.12,4.26c-1.62,2.21-3.34,1.83-4.88.71Z" transform="translate(56.78 57.57)"/>
    <path class="cls-1logocyclesvg" d="M-31.65-33.31A7.36,7.36,0,0,1-30.1-43.75a7.25,7.25,0,0,1,10.42,1.34A7.22,7.22,0,0,1-21.2-32C-24.95-29.17-29.13-30-31.65-33.31Zm2.06-1.57c1.8,2.37,4.65,3,7.11,1.15a4.91,4.91,0,0,0,.77-7.14A4.92,4.92,0,0,0-28.79-42,5,5,0,0,0-29.59-34.87Z" transform="translate(56.78 57.57)"/>
    <path class="cls-1logocyclesvg" d="M-15.32-51a1.14,1.14,0,0,1,.81-1.49l3.38-1.18c3-1.06,5.62.19,6.53,2.82a4.76,4.76,0,0,1-3.19,6.23l-2.38.83L-9-40.35a1.12,1.12,0,0,1-.8,1.49,1.12,1.12,0,0,1-1.54-.67Zm4.64-.79-2,.71,1.92,5.5,2-.71A2.81,2.81,0,0,0-6.89-50,2.83,2.83,0,0,0-10.68-51.76Z" transform="translate(56.78 57.57)"/>
    <path class="cls-1logocyclesvg" d="M2-50a7.36,7.36,0,0,1,7.36-7.57A7.25,7.25,0,0,1,17-50.39a7.21,7.21,0,0,1-7.31,7.54C5-42.72,2.11-45.84,2-50Zm2.59-.07c.08,3,2,5.17,5.09,5.09a4.91,4.91,0,0,0,4.8-5.34,4.92,4.92,0,0,0-5.07-5.07A5,5,0,0,0,4.59-50.07Z" transform="translate(56.78 57.57)"/>
    <path class="cls-1logocyclesvg" d="M27-50.6l-2.6,8c-.21.66-.72.9-1.5.65s-1-.75-.85-1.36l4-12.37c.09-.29.27-.41.45-.35a.67.67,0,0,1,.34.36c1.91,3.89,3.86,7.69,5.78,11.56l.08,0,2.54-7.84a1.1,1.1,0,0,1,1.54-.68,1.06,1.06,0,0,1,.82,1.4l-4,12.37c-.08.25-.23.36-.41.3a.84.84,0,0,1-.39-.4c-1.89-3.9-3.8-7.72-5.71-11.62Z" transform="translate(56.78 57.57)"/>
    <path class="cls-1logocyclesvg" d="M45.85-42.19l-5.06,6.74c-.41.55-1,.62-1.63.12s-.75-1-.36-1.57l7.8-10.4c.18-.24.39-.3.54-.19a.67.67,0,0,1,.2.45c.55,4.3,1.15,8.52,1.72,12.8l.07.05,4.95-6.59a1.1,1.1,0,0,1,1.67-.15,1.06,1.06,0,0,1,.32,1.59l-7.81,10.4c-.15.21-.33.26-.49.15a.85.85,0,0,1-.24-.5c-.52-4.3-1.09-8.53-1.63-12.85Z" transform="translate(56.78 57.57)"/>
    <path class="cls-1logocyclesvg" d="M56.12-24.85a1.33,1.33,0,0,0-.33,2.11l3,4.09a1,1,0,0,1-.32,1.35.91.91,0,0,1-1.39-.11l-3.31-4.53c-1.62-2.21-.71-3.75.8-4.86l5.83-4.27c1.51-1.11,3.35-1.38,4.87.71l3.12,4.26a1,1,0,0,1-.33,1.34.89.89,0,0,1-1.36-.1l-2.8-3.83A1.31,1.31,0,0,0,61.81-29l-1.76,1.29,3.41,4.66a.87.87,0,0,1-.3,1.26c-.52.38-1,.33-1.28-.11l-3.41-4.67Z" transform="translate(56.78 57.57)"/>
    <path class="cls-1logocyclesvg" d="M74.6-9.44a1,1,0,0,1-1.37-.49.68.68,0,0,1-.07-.3A7.79,7.79,0,0,0,72.72-13c-.39-1-1.23-1.93-2.36-1.5-2.13.82.67,7.16-3.9,8.92-2.54,1-4.58-.5-5.61-3.18-.59-1.53-1.31-4.79,0-5.29a1.06,1.06,0,0,1,1.43.47,1,1,0,0,1,.07.37,7.63,7.63,0,0,0,.33,3.34c.55,1.43,1.51,2.42,2.74,2,3.1-1.19.16-7.46,4-8.95,2.23-.86,4.29.59,5.17,2.87C75.38-12.1,75.69-9.86,74.6-9.44Z" transform="translate(56.78 57.57)"/>
    <path class="cls-1logocyclesvg" d="M67.74,2.24a1.33,1.33,0,0,0-1.34,1.67l.55,5a1,1,0,0,1-1,1c-.66.07-1.09-.23-1.15-.78L64.25,3.6C63.95.88,65.5,0,67.37-.21L74.55-1c1.87-.21,3.59.47,3.87,3L79,7.3a1,1,0,0,1-1,1c-.66.07-1.07-.23-1.13-.77L76.4,2.81a1.31,1.31,0,0,0-1.64-1.34l-2.17.24.63,5.75c.06.51-.32.88-.89.94s-1-.19-1.06-.73l-.63-5.75Z" transform="translate(56.78 57.57)"/>
    <path class="cls-1logocyclesvg" d="M67.21,28.11l7,6.36c.25.24.33.45.27.61s-.26.27-.57.27c-3.15,0-6.3,0-9.44,0l0,.06c2.25,2,4.52,4,6.77,6a1,1,0,0,1,.32,1.21c-.3.76-.91,1-1.41.84a1.69,1.69,0,0,1-.44-.29c-3.37-3-6.71-6-10.07-9.05-.2-.19-.29-.39-.22-.57s.31-.27.55-.29h9.78a.08.08,0,0,0,0-.05l-7.25-6.65a.6.6,0,0,1-.22-.57c.07-.18.26-.27.55-.27q6.8,0,13.59,0a1.23,1.23,0,0,1,.52.09,1.13,1.13,0,0,1,.48,1.57,1,1,0,0,1-1,.68c-3.06,0-6.14,0-9.21,0Z" transform="translate(56.78 57.57)"/>
    <path class="cls-1logocyclesvg" d="M65.29,49.75a1.08,1.08,0,0,1,.12,1.63c-.51.67-1,.75-1.6.33L54,44.29c-.55-.42-.6-1-.1-1.62s1.07-.74,1.58-.35Z" transform="translate(56.78 57.57)"/>
    <path class="cls-1logocyclesvg" d="M53.79,57,48.46,50.5c-.44-.54-.36-1.09.27-1.61a1,1,0,0,1,1.61,0L58.56,59c.19.23.2.45,0,.57a.67.67,0,0,1-.48.09c-4.3-.5-8.55-.93-12.84-1.41l-.07.05,5.21,6.38a1.1,1.1,0,0,1-.26,1.66,1.06,1.06,0,0,1-1.62-.07L40.32,56.2c-.16-.2-.18-.39,0-.51a.85.85,0,0,1,.55-.11c4.3.53,8.55,1,12.86,1.5Z" transform="translate(56.78 57.57)"/>
    <path class="cls-1logocyclesvg" d="M34.47,62.82a1.33,1.33,0,0,0-2-.83l-4.7,1.91a1,1,0,0,1-1.24-.64A.91.91,0,0,1,27,61.93l5.2-2.11c2.54-1,3.81.22,4.52,2l2.72,6.7c.7,1.74.52,3.58-1.88,4.55l-4.9,2a1,1,0,0,1-1.22-.65.89.89,0,0,1,.43-1.29l4.4-1.78a1.31,1.31,0,0,0,.84-1.95l-.82-2-5.36,2.17a.87.87,0,0,1-1.15-.6c-.24-.6-.09-1,.41-1.22l5.36-2.17Z" transform="translate(56.78 57.57)"/>
    <path class="cls-1logocyclesvg" d="M11.55,65.15q0-1,1.27-1c.82,0,1.21.44,1.19,1.08l-.42,11.12c-.05,1.34-.19,2.15-1.61,2.1l-3.49-.13c-2.82-.11-5.19-1.88-5.08-4.88a4.66,4.66,0,0,1,2.81-4.12L4.09,65.49a1.5,1.5,0,0,1-.17-.7,1.09,1.09,0,0,1,1.14-.95c.62,0,1.12.15,1.36.63l2.48,5.1a.5.5,0,0,1,.06.24.34.34,0,0,1-.25.34c-2.07.59-2.8,1.66-2.86,3.11A3,3,0,0,0,9,76.43l2.13.08Z" transform="translate(56.78 57.57)"/>
    <path class="cls-1logocyclesvg" d="M-2.77,70.15a7.36,7.36,0,0,1-9.62,4.33A7.25,7.25,0,0,1-16.88,65a7.21,7.21,0,0,1,9.58-4.33C-2.89,62.28-1.34,66.24-2.77,70.15Zm-2.43-.89c1-2.8,0-5.55-2.86-6.61a4.91,4.91,0,0,0-6.43,3.2,4.92,4.92,0,0,0,2.85,6.58A5,5,0,0,0-5.2,69.26Z" transform="translate(56.78 57.57)"/>
    <path class="cls-1logocyclesvg" d="M-30,64.28c-.24.14-.45.23-.64.08s-.13-.4-.08-.61l3.35-13.53A.89.89,0,0,1-26,49.56c.69.37,1,.87.86,1.54l-.55,2.22,4.66,3.6,2-1.1a1.32,1.32,0,0,1,1.7.44.9.9,0,0,1-.29,1.5Zm7.17-6.37-3.38-2.61-1.32,5.12.07.05Z" transform="translate(56.78 57.57)"/>
    <path class="cls-1logocyclesvg" d="M-30,45.28a1.09,1.09,0,0,1-.2,1.65L-40,53.85a1.14,1.14,0,0,1-1.66-.36l-2.19-3.1c-2.64-3.73-1.75-7.59,1.61-10s7.26-2.13,9.84,1.51Zm-12.15,3.85,1.53,2.16,8.2-5.81L-34,43.34c-1.68-2.38-4.21-2.78-6.85-.91C-43.13,44.07-44,46.51-42.19,49.13Z" transform="translate(56.78 57.57)"/>
    <path class="cls-1logocyclesvg" d="M-53,28.57a1,1,0,0,1,1.35.53.68.68,0,0,1,.06.3,7.79,7.79,0,0,0,.36,2.78c.36,1,1.17,2,2.31,1.57,2.16-.76-.45-7.18,4.17-8.79,2.57-.9,4.57.64,5.51,3.35.54,1.55,1.16,4.83-.16,5.29a1.06,1.06,0,0,1-1.41-.51,1,1,0,0,1-.06-.37,7.61,7.61,0,0,0-.23-3.35c-.51-1.45-1.44-2.47-2.68-2-3.14,1.1-.39,7.45-4.32,8.82-2.26.79-4.28-.72-5.08-3C-53.9,31.2-54.14,29-53,28.57Z" transform="translate(56.78 57.57)"/>
    <path class="cls-1logocyclesvg" d="M-1.58,31.46H11a1.35,1.35,0,0,0,1.35-1.35V23.55A18,18,0,0,0,29.05,5.62V-17a1.35,1.35,0,0,0-1.35-1.35H2.79A1.35,1.35,0,0,0,1.44-17V6.09a9.65,9.65,0,0,0,8.34,9.55v5.3A15.4,15.4,0,0,1-4.3,5.62V-17a1.3,1.3,0,0,0-1.3-1.3h0A1.3,1.3,0,0,0-6.9-17V5.62A18,18,0,0,0,9.78,23.55v4a1.35,1.35,0,0,1-1.35,1.35H-1.52a5.33,5.33,0,0,0-5.36,4.73,5.24,5.24,0,0,0,5.21,5.74H23.61l3.7-3.7.32-.32a5.43,5.43,0,1,0-8,0q.16.18.34.34L21,36.72H-1.67a2.64,2.64,0,0,1-2.61-3A2.69,2.69,0,0,1-1.58,31.46ZM4,6.09V-14.37a1.35,1.35,0,0,1,1.35-1.35H25.1a1.35,1.35,0,0,1,1.35,1.35v20A15.4,15.4,0,0,1,12.37,20.94v-5.3a9.65,9.65,0,0,0,8.34-9.55V-9.11a1.35,1.35,0,0,0-1.35-1.35H11.13A1.35,1.35,0,0,0,9.78-9.11V13A7.05,7.05,0,0,1,4,6.09ZM12.37,13V-6.51a1.35,1.35,0,0,1,1.35-1.35h3a1.35,1.35,0,0,1,1.35,1.35V6.09A7.05,7.05,0,0,1,12.37,13Zm11.23,15.8a2.83,2.83,0,0,1,2.11,4.71l-2.11,2.11-1.86-1.86,0,0-.19-.19a2.83,2.83,0,0,1,2.1-4.73Z" transform="translate(56.78 57.57)"/>
</svg>