<svg id="Layer_1" data-name="Layer 1"
    xmlns="http://www.w3.org/2000/svg" viewBox="0 0 225.05 68.13">
    <defs>
        <style>.cls-1{fill:#23324E;}</style>
    </defs>
    <title>Logo-Menu</title>
    <path class="cls-1" d="M578.83,408.77h14.79a1.59,1.59,0,0,0,1.59-1.59v-7.7a21.13,21.13,0,0,0,19.57-21v-26.5a1.59,1.59,0,0,0-1.59-1.59H584a1.59,1.59,0,0,0-1.59,1.59V379a11.33,11.33,0,0,0,9.79,11.21v6.22a18.07,18.07,0,0,1-16.52-18V351.88a1.53,1.53,0,0,0-1.53-1.53h0a1.53,1.53,0,0,0-1.53,1.53v26.56a21.13,21.13,0,0,0,19.57,21v4.65a1.59,1.59,0,0,1-1.59,1.59H578.9a6.26,6.26,0,0,0-6.29,5.55,6.15,6.15,0,0,0,6.11,6.73h29.67l4.34-4.34.38-.38a6.38,6.38,0,1,0-9.43,0q.19.21.4.4l1.26,1.26H578.72a3.09,3.09,0,0,1-3.06-3.5A3.16,3.16,0,0,1,578.83,408.77ZM585.42,379V355A1.59,1.59,0,0,1,587,353.4h23.14a1.59,1.59,0,0,1,1.59,1.59v23.45a18.08,18.08,0,0,1-16.52,18v-6.22A11.33,11.33,0,0,0,605,379V361.17a1.59,1.59,0,0,0-1.59-1.59h-9.67a1.59,1.59,0,0,0-1.59,1.59v26A8.28,8.28,0,0,1,585.42,379Zm9.79,8.12V364.22a1.59,1.59,0,0,1,1.59-1.59h3.57a1.59,1.59,0,0,1,1.59,1.59V379A8.28,8.28,0,0,1,595.21,387.12Zm13.18,18.55a3.32,3.32,0,0,1,2.48,5.53l-2.48,2.48-2.18-2.18-.05-.05-.23-.22a3.32,3.32,0,0,1,2.46-5.56Z" transform="translate(-572.58 -349.99)"/>
    <path class="cls-1" d="M631.12,399.57h4.55v1.1h-3.32v2H635v1.1h-2.69v1.93h3.54v1.1h-4.77Z" transform="translate(-572.58 -349.99)"/>
    <path class="cls-1" d="M640.68,404.14h0l-1.77,2.67h-1.44l2.41-3.63-2.35-3.61h1.42l1.74,2.65h0l1.73-2.65h1.41l-2.34,3.61,2.4,3.63h-1.44Z" transform="translate(-572.58 -349.99)"/>
    <path class="cls-1" d="M645.65,399.57h2.62a2.19,2.19,0,0,1,2.47,2.35c0,1.57-1.05,2.31-2.62,2.31h-1.25v2.58h-1.23Zm2.36,3.55c1,0,1.46-.51,1.46-1.22s-.49-1.22-1.38-1.22h-1.21v2.44Z" transform="translate(-572.58 -349.99)"/>
    <path class="cls-1" d="M652.61,399.57h4.55v1.1h-3.32v2h2.69v1.1h-2.69v1.93h3.54v1.1h-4.77Z" transform="translate(-572.58 -349.99)"/>
    <path class="cls-1" d="M663.3,406.8l-1.73-2.58h-1v2.58h-1.23v-7.24H662a2.19,2.19,0,0,1,2.47,2.35,2.07,2.07,0,0,1-1.59,2.18v0l1.85,2.69Zm-2.7-3.69h1.17c1,0,1.47-.51,1.47-1.23s-.5-1.22-1.38-1.22H660.6Z" transform="translate(-572.58 -349.99)"/>
    <path class="cls-1" d="M666.74,399.57H668v7.24h-1.23Z" transform="translate(-572.58 -349.99)"/>
    <path class="cls-1" d="M670.46,399.57H675v1.1h-3.32v2h2.69v1.1h-2.69v1.93h3.54v1.1h-4.77Z" transform="translate(-572.58 -349.99)"/>
    <path class="cls-1" d="M683.22,399.57v7.24H682l-3.5-5.12h0v5.12h-1.23v-7.24h1.22l3.53,5.19h0v-5.19Z" transform="translate(-572.58 -349.99)"/>
    <path class="cls-1" d="M685.32,403.21a3.49,3.49,0,0,1,3.65-3.73,3.65,3.65,0,0,1,2.85,1.39l-.9.77a2.55,2.55,0,0,0-1.95-1,2.53,2.53,0,0,0,0,5.06,2.49,2.49,0,0,0,1.95-1l.9.77a3.55,3.55,0,0,1-2.85,1.37A3.47,3.47,0,0,1,685.32,403.21Z" transform="translate(-572.58 -349.99)"/>
    <path class="cls-1" d="M693.7,399.57h1.23v7.24H693.7Z" transform="translate(-572.58 -349.99)"/>
    <path class="cls-1" d="M703.43,399.57v7.24h-1.25l-3.5-5.12h0v5.12h-1.23v-7.24h1.22l3.53,5.19h0v-5.19Z" transform="translate(-572.58 -349.99)"/>
    <path class="cls-1" d="M709.18,406.87a3.69,3.69,0,0,1,0-7.38,3.82,3.82,0,0,1,2.82,1.2l-.87.75a2.71,2.71,0,0,0-2-.79,2.56,2.56,0,0,0,.05,5.1,2.84,2.84,0,0,0,1.61-.48V404H709v-1.1h3v3a4.58,4.58,0,0,1-2.83.91Z" transform="translate(-572.58 -349.99)"/>
    <path class="cls-1" d="M630.79,414.45a3.48,3.48,0,0,1,3.61-3.71,3.83,3.83,0,0,1,2.83,1.2l-.87.75a2.71,2.71,0,0,0-2-.79,2.56,2.56,0,0,0,0,5.1,2.83,2.83,0,0,0,1.61-.48V415.3h-1.77v-1.1h3v3a4.59,4.59,0,0,1-2.84.91A3.47,3.47,0,0,1,630.79,414.45Z" transform="translate(-572.58 -349.99)"/>
    <path class="cls-1" d="M643.5,418.06l-1.73-2.58h-1v2.58h-1.23v-7.24h2.67a2.19,2.19,0,0,1,2.47,2.35,2.07,2.07,0,0,1-1.59,2.18v0l1.85,2.69Zm-2.7-3.69H642c1,0,1.47-.51,1.47-1.23s-.5-1.22-1.38-1.22H640.8Z" transform="translate(-572.58 -349.99)"/>
    <path class="cls-1" d="M646.92,410.82h4.55v1.1h-3.32v2h2.69V415h-2.69V417h3.54v1.1h-4.77Z" transform="translate(-572.58 -349.99)"/>
    <path class="cls-1" d="M653.68,410.82h4.55v1.1h-3.32v2h2.69V415h-2.69V417h3.54v1.1h-4.77Z" transform="translate(-572.58 -349.99)"/>
    <path class="cls-1" d="M659.92,414.47a3.49,3.49,0,0,1,3.65-3.73,3.65,3.65,0,0,1,2.85,1.39l-.91.77a2.55,2.55,0,0,0-1.95-1,2.53,2.53,0,0,0,0,5.06,2.48,2.48,0,0,0,1.95-1l.91.77a3.56,3.56,0,0,1-2.85,1.37A3.47,3.47,0,0,1,659.92,414.47Z" transform="translate(-572.58 -349.99)"/>
    <path class="cls-1" d="M668.29,410.82h4.55v1.1h-3.32v2h2.69V415h-2.69V417h3.54v1.1h-4.77Z" transform="translate(-572.58 -349.99)"/>
    <path class="cls-1" d="M631,351.59a1.3,1.3,0,0,1,1.43-1.31h4.09c3.67,0,6,2.32,6,5.5a5.44,5.44,0,0,1-5.79,5.52h-2.88v4.12a1.42,1.42,0,0,1-2.84,0Zm5.3.89h-2.47v6.66h2.47a3.33,3.33,0,1,0,0-6.66Z" transform="translate(-572.58 -349.99)"/>
    <path class="cls-1" d="M647.69,362.44a1.52,1.52,0,0,0,1.73,1.73h5.79a1.11,1.11,0,0,1,1,1.21c0,.76-.39,1.21-1,1.21H648.8c-3.13,0-3.95-1.87-3.95-4v-8.26c0-2.14,1-4,3.95-4h6a1.09,1.09,0,0,1,1,1.21c0,.76-.39,1.18-1,1.18h-5.42a1.5,1.5,0,0,0-1.73,1.7v2.49h6.61c.59,0,1,.47,1,1.13s-.35,1.11-1,1.11h-6.61Z" transform="translate(-572.58 -349.99)"/>
    <path class="cls-1" d="M658.57,351.42c0-.47.17-1.26,1.46-1.26.91,0,1.38.47,1.38,1.23v11a1.54,1.54,0,0,0,1.73,1.75h5.42a1.1,1.1,0,0,1,1.06,1.18,1.08,1.08,0,0,1-1.06,1.21h-6c-3.13,0-3.95-1.85-3.95-4Z" transform="translate(-572.58 -349.99)"/>
    <path class="cls-1" d="M670,358.45a8.41,8.41,0,0,1,8.63-8.43,8.42,8.42,0,1,1,0,16.84C673.25,366.86,670,363.21,670,358.45Zm3,0c0,3.4,2.15,6,5.67,6s5.65-2.69,5.65-6a5.67,5.67,0,1,0-11.32,0Z" transform="translate(-572.58 -349.99)"/>
    <path class="cls-1" d="M690.18,351.59a1.3,1.3,0,0,1,1.43-1.31h4.09c3.67,0,6,2.32,6,5.5a5.44,5.44,0,0,1-5.79,5.52H693v4.12a1.42,1.42,0,0,1-2.83,0Zm5.3.89H693v6.66h2.47a3.33,3.33,0,1,0,0-6.66Z" transform="translate(-572.58 -349.99)"/>
    <path class="cls-1" d="M703.59,358.45a8.41,8.41,0,0,1,8.63-8.43,8.42,8.42,0,1,1,0,16.84C706.82,366.86,703.59,363.21,703.59,358.45Zm3,0c0,3.4,2.15,6,5.67,6s5.65-2.69,5.65-6a5.67,5.67,0,1,0-11.32,0Z" transform="translate(-572.58 -349.99)"/>
    <path class="cls-1" d="M726.52,355.81v9.64c0,.79-.47,1.23-1.41,1.23s-1.41-.44-1.41-1.18V350.63c0-.34.15-.54.37-.54a.77.77,0,0,1,.49.27c3.45,3.55,6.9,7,10.36,10.53h.1v-9.42a1.26,1.26,0,0,1,1.43-1.28,1.21,1.21,0,0,1,1.38,1.23v14.87c0,.3-.12.47-.34.47a1,1,0,0,1-.57-.3c-3.43-3.58-6.85-7.05-10.31-10.63Z" transform="translate(-572.58 -349.99)"/>
    <path class="cls-1" d="M744.38,355.81v9.64c0,.79-.47,1.23-1.41,1.23s-1.41-.44-1.41-1.18V350.63c0-.34.15-.54.37-.54a.77.77,0,0,1,.49.27c3.45,3.55,6.9,7,10.36,10.53h.1v-9.42a1.26,1.26,0,0,1,1.43-1.28,1.21,1.21,0,0,1,1.38,1.23v14.87c0,.3-.12.47-.35.47a1,1,0,0,1-.57-.3c-3.43-3.58-6.86-7.05-10.31-10.63Z" transform="translate(-572.58 -349.99)"/>
    <path class="cls-1" d="M762.24,362.44a1.52,1.52,0,0,0,1.73,1.73h5.79a1.11,1.11,0,0,1,1,1.21c0,.76-.39,1.21-1,1.21h-6.41c-3.13,0-3.95-1.87-3.95-4v-8.26c0-2.14,1-4,3.95-4h6a1.09,1.09,0,0,1,1,1.21c0,.76-.39,1.18-1,1.18H764a1.5,1.5,0,0,0-1.73,1.7v2.49h6.61c.59,0,1,.47,1,1.13s-.34,1.11-1,1.11h-6.61Z" transform="translate(-572.58 -349.99)"/>
    <path class="cls-1" d="M782.91,351.91a1.11,1.11,0,0,1-1.09,1.26.78.78,0,0,1-.34,0,8.91,8.91,0,0,0-3.13-.67c-1.26,0-2.56.52-2.56,1.9,0,2.61,7.92,2.22,7.92,7.82,0,3.11-2.42,4.69-5.7,4.69-1.87,0-5.65-.57-5.65-2.17a1.22,1.22,0,0,1,1.09-1.33,1.14,1.14,0,0,1,.42.07,8.71,8.71,0,0,0,3.7,1c1.75,0,3.21-.62,3.21-2.12,0-3.8-7.89-3.23-7.89-8,0-2.74,2.39-4.34,5.18-4.34C780.39,350,782.91,350.58,782.91,351.91Z" transform="translate(-572.58 -349.99)"/>
    <path class="cls-1" d="M789.07,362.44a1.52,1.52,0,0,0,1.73,1.73h5.79a1.11,1.11,0,0,1,1,1.21c0,.76-.39,1.21-1,1.21h-6.41c-3.13,0-3.95-1.87-3.95-4v-8.26c0-2.14,1-4,3.95-4h6a1.09,1.09,0,0,1,1,1.21c0,.76-.39,1.18-1,1.18H790.8a1.5,1.5,0,0,0-1.73,1.7v2.49h6.61c.59,0,1,.47,1,1.13s-.35,1.11-1,1.11h-6.61Z" transform="translate(-572.58 -349.99)"/>
    <path class="cls-1" d="M635.89,382.23l3.87-10.13c.15-.37.35-.54.54-.54s.39.17.52.49c1.31,3.35,2.61,6.71,3.9,10.06h.07c1.23-3.23,2.44-6.48,3.65-9.71a1.18,1.18,0,0,1,1.16-.84c.94,0,1.48.54,1.48,1.16a2,2,0,0,1-.12.59c-1.83,4.83-3.65,9.64-5.5,14.47-.12.3-.3.47-.52.47s-.42-.22-.54-.47l-4-10.43a.09.09,0,0,0-.07,0l-4.09,10.48c-.12.27-.32.47-.52.47s-.39-.17-.52-.47q-2.81-7.25-5.6-14.5a1.43,1.43,0,0,1-.12-.59c0-.62.54-1.16,1.48-1.16a1.18,1.18,0,0,1,1.16.84c1.23,3.28,2.49,6.56,3.75,9.84Z" transform="translate(-572.58 -349.99)"/>
    <path class="cls-1" d="M653.29,372.83c0-.74.52-1.23,1.41-1.23s1.41.44,1.41,1.23v14.1c0,.79-.47,1.21-1.41,1.21s-1.41-.47-1.41-1.21Z" transform="translate(-572.58 -349.99)"/>
    <path class="cls-1" d="M662.69,377.24v9.64c0,.79-.47,1.23-1.41,1.23s-1.41-.44-1.41-1.18V372.07c0-.35.15-.54.37-.54a.77.77,0,0,1,.49.27c3.45,3.55,6.9,7,10.36,10.53h.1v-9.42a1.26,1.26,0,0,1,1.43-1.28,1.21,1.21,0,0,1,1.38,1.23v14.87c0,.3-.12.47-.34.47a1,1,0,0,1-.57-.3c-3.43-3.58-6.85-7.05-10.31-10.63Z" transform="translate(-572.58 -349.99)"/>
    <path class="cls-1" d="M680.54,383.88a1.52,1.52,0,0,0,1.73,1.73h5.79a1.11,1.11,0,0,1,1,1.21c0,.76-.39,1.21-1,1.21h-6.41c-3.13,0-3.95-1.87-3.95-4v-8.26c0-2.15,1-4,3.95-4h6a1.09,1.09,0,0,1,1,1.21c0,.76-.39,1.18-1,1.18h-5.42a1.5,1.5,0,0,0-1.73,1.7v2.49h6.61c.59,0,1,.47,1,1.13s-.35,1.11-1,1.11h-6.61Z" transform="translate(-572.58 -349.99)"/>
    <path class="cls-1" d="M694.38,386.94q0,1.18-1.41,1.18c-.94,0-1.41-.44-1.41-1.18V374.21c0-1.53.12-2.47,1.75-2.47h4c3.23,0,6,1.92,6,5.35a5.33,5.33,0,0,1-3,4.83l2.59,4.29a1.72,1.72,0,0,1,.22.79,1.24,1.24,0,0,1-1.26,1.13c-.72,0-1.28-.12-1.58-.67l-3.06-5.72a.57.57,0,0,1-.07-.27.39.39,0,0,1,.27-.39c2.34-.76,3.13-2,3.13-3.67a3.41,3.41,0,0,0-3.72-3.48h-2.44Z" transform="translate(-572.58 -349.99)"/>
    <path class="cls-1" d="M705.59,379.88a8.41,8.41,0,0,1,8.63-8.43,8.42,8.42,0,1,1,0,16.84C708.82,388.29,705.59,384.64,705.59,379.88Zm3,0c0,3.4,2.14,6,5.67,6s5.65-2.69,5.65-6a5.67,5.67,0,1,0-11.32,0Z" transform="translate(-572.58 -349.99)"/>
    <path class="cls-1" d="M730.19,372c.12-.3.25-.52.52-.52s.39.27.49.49l6.44,14.57a1,1,0,0,1-.76,1.55,1.51,1.51,0,0,1-1.85-.79L734,384.94h-6.73l-1,2.39a1.51,1.51,0,0,1-1.85.79,1,1,0,0,1-.79-1.55Zm-2,10.78h4.88l-2.39-5.55h-.1Z" transform="translate(-572.58 -349.99)"/>
    <path class="cls-1" d="M741.19,388a1.24,1.24,0,0,1-1.41-1.28V373.05a1.3,1.3,0,0,1,1.43-1.31h4.34c5.23,0,8.24,3.38,8.24,8.09S751,388,745.88,388Zm4.44-13.88h-3v11.49h3c3.33,0,5.38-2.1,5.38-5.79C751,376.6,749.3,374.14,745.63,374.14Z" transform="translate(-572.58 -349.99)"/>
    <path class="cls-1" d="M765.87,373.35a1.11,1.11,0,0,1-1.08,1.26.79.79,0,0,1-.35,0,8.91,8.91,0,0,0-3.13-.67c-1.26,0-2.56.52-2.56,1.9,0,2.61,7.92,2.22,7.92,7.82,0,3.11-2.42,4.68-5.7,4.68-1.87,0-5.65-.57-5.65-2.17a1.21,1.21,0,0,1,1.08-1.33,1.16,1.16,0,0,1,.42.07,8.71,8.71,0,0,0,3.7,1c1.75,0,3.21-.62,3.21-2.12,0-3.8-7.89-3.23-7.89-8,0-2.74,2.39-4.34,5.18-4.34C763.36,371.43,765.87,372,765.87,373.35Z" transform="translate(-572.58 -349.99)"/>
</svg>