<svg id="logo" xmlns="http://www.w3.org/2000/svg" version="1.1" viewBox="0 0 2551.18 2267.72">
  <path d="M786.43,1499.25c-8.53-4.5-32.54-22.01-37.69-29.75-1.36-2.04-4.06-6.2-1.02-7.83,32.11,32.56,76.32,35.82,116.65,51.4,22.36,8.64,51.52,28.8,72.39,33.74,5.31,1.26,10.11,1.46,15.51,1.06-9.55-24.51-22.47-51.92-24.41-78.39-3.62-49.26,20.93-88.99,32.17-136.05,15.49-64.86,17.81-166.24,52.36-219.62,47.63-73.58,126.09-112.51,207.95-137,14.54-4.35,30.96-10.5,45.91-9.37-7.89,10.99-30.81,10.03-30.96,25.43,13.52.75,29.83,4.26,43.03,4.52,25.9.51,51.64-5.45,77.4-6.81,71-3.75,141.47,3.28,212.35-4.35,11.81-1.27,66.59-8.06,70.85-17.66,1.61-2.42-3.01-5.1-4.56-6.58-32.4-30.86-76.99-55.42-123.15-50.31l-194.08,41.38,25.93-12.73c50.99-17.82,104.8-25.26,157.57-35.92.31-3.4-5.58-3.75-7.95-4.17-78.56-14-121.69-.02-194.52,17.3-78.04,18.56-153.45,14.69-229.58,26.92-9.79,1.57-18.54,5.75-27.87,8.59,8.15-13.96,23.07-16.11,37.54-18.82,49.1-9.21,103.3-9.42,153.41-16.85,70.29-10.42,129.4-36.58,201.63-32.94,40.03,2.01,69.17,10.7,106.57,19.47,11.3,2.65,24.02,1.86,36.43,5.58,17.84,5.35,83.59,43.7,94.61,57.97,3.73,4.82,5.03,10.77,8.82,15.51,85.7,6.07,130.04,34.17,147.53,120.03,6.52,32.01,2.59,58.4,17.51,88.63,1.87,3.8,15.45,23.04,14.08,24.6-31.73-19.17-39.94-43.15-47.6-77.31-2.26-10.1-1.93-21.86-4.2-31.18-3.28-13.51-15.77-29.25-18.71-43.24-.91-4.33,2.73-4.04,5.22-2.98,4.73,2.01,3.34,10.15,7.8,10.97-25.51-94.52-146.51-74.02-221.1-72.94l6.62,4.44c-1.12,11.39-18.07,4.42-27.87,8.39-5.03,2.04-2.92,6.89-10.75,7.27-9.4.46-27.83-4.03-26.74-15.83-35.36.07-70.73.3-106.09.22-71.73-.16-252.33,3.62-310.39,43.22-7.12,4.86-37.23,29.37-30.97,38.31,19.92,6.15,41.05,7.32,61.75,6.83l-.02,6.58-83.39,19.47c-29.77,23.67-46.15,63.31-55.28,99.5-5.5,21.81-14.75,64.45-15.88,85.95-.83,15.75,7.32,38.53,25.15,40.62,7.22.84,54.11.72,56.16-2.53-1.34-33.38-24.87-69.17-21.81-102.53,4.83-52.6,106.11-145.5,150.5-172.32,46.07-27.83,117.6-41.87,171.12-43.39,2.48-.07,8.38-1.41,7.8,2.28-64.4,10.92-131.35,17.22-185.5,56.64-36.39,26.49-120.1,103.2-126.08,148.11-2.97,22.3,6.78,55.75,11.95,78.33,2.8,12.23,12.27,24.63,5.55,37.55,1.54,1.07,29.24-1.85,34-2.46,35.11-4.49,82.17-10.65,115.97-18.91,42.45-10.38,59.77-38.98,111.44-33.28,13.42,1.48,32.25,11.41,40.79,12.15,3.96.34,8.89-4.34,13.52-5.51,38.93-9.83,98.05,24.46,138.59,28.22,32.35,3,68.43-.04,98.45-12.29,4.78-1.95,28.94-16.2,30.98-14.32-2.49,15.21-25.24,14.63-24.21,29.52.98,14.34,9.01,24.91,19.94,33.36,4.99,3.86,15.36,4.55,15.33,12.29-7.03-.27-13.62-2.63-19.97-5.44-21.69-9.61-35.85-34.83-61.17-21.52-18.08,9.51-6.59,20.94-7.51,36.59-.84,14.21-8.63,26-13.05,39.01,18.01-6.7,37,2.63,54.05,2.3,34.34-.66,46.63-47.36,80.82-50.96-9.43-20.33-14.37-44.09-1.1-64.09.97,18.62-7.01,31.42,9.9,45.36,10.24,8.45,51.91,21.35,65.51,22.94,30.71,3.6,89.53-7.46,100.37-41.78h-54.17c-8.39,0-26.2,13.87-25.41,24.32l14.36-17.68c2.39,28.4-45.15,26.73-20.99,1.12,32.01-33.93,85.92-4.41,114.97-30.97,4.18-3.82,9.9-7.86,8.82-14.38-16.41.48-32.42.57-47.59-6.62-21.1,18.45-45.59,22.41-71.83,12.16-4.74-5.34-1-2.84,2.46-2.48,26.69,2.8,60.99,1.07,63.7-33.22,2.44-30.89-25.29-54.69-54.22-58.07-47.65-5.56-75.31,27.35-115.85,41.75l22.1-17.64c-17.41,3.49-39.75,1.71-55.12,10.07-5.66,3.08-14.04,12.91-17.2,13.83-6.19,1.8-11.23-1.96-14.75-1.3-2.87.54-6.15,6.59-11.77,7.87-10.31,2.33-27.89,1.15-39.32,2.69-24.55,3.32-46.84,7.84-70.25,15.99-16.79,5.84-25.26,14.19-46.52,7.87-3.19-.95-8.84-8.11-13.65-10.67-20.47-10.91-39.72-.2-60.04,2.01-2.43.26-7.98,1.98-7.45-1.92,23.1-8.83,42.4-12.66,67.41-11.06,15.4.98,16.99,7.68,35.15-.27,5.93-2.59,16.38-12.63,20.18-13.03,6.05-.64,23.81,6.1,33.05,6.72,16.94,1.15,32.95-3.45,49.83-2.31l-15.48-11.01c10.8-.21,21.09-.75,31.48,2.76,3.46,1.17,5.1,5.69,8.99,5.67,6.73-.05,14.57-9.53,18.49-10.13,4.14-.63,8.17,4.02,11.86,2.74,4.95-1.73,14.93-12.93,23.75-15.95,19.42-6.66,44.19-3.73,64.68-10.5,17.95-5.93,31.92-19.01,52.92-22.26,52.71-8.15,105.7,26.37,88.56,83.01,8.38.74,17.18,3.67,25.47,4.41,7.08.63,29.7-2.72,31.8,3.68,2.16,12.65-8.24,23.46-17.66,30.44-5.82,4.32-14.68,6.92-18.49,10.26-4.4,3.85-7.07,14.23-11.88,18.71,19.44,16.8,23.56,29.63,21.69,55.22-1.18,16.15-8.99,37.74-8.8,53.11.18,14.86,13.17,32.52,13.24,46.42.03,6.69-4.3,28.67-6.49,35.51-6.49,20.24-18.55,24.3-37.3,29.04-79.1,19.98-155.48,24.79-235.88,31.67-37.05,3.17-71.1,18.04-107.19,25.48-93.22,19.22-202.02,17-297.59,14.4-80.63-2.19-122.61-14.55-194.86-48.37-13-6.08-50.75-31.1-57.59-33.09-7.78-2.27-17.34,2.18-26.07,1.89-24.38-.8-56.25-27.53-79.21-38.11-24.84-11.45-52.41-15.56-76.66-28.37.92,7.25-6.34,12.07-11.02,16.62-15.37,14.91-41.46,36.64-58.72,49.63-2.64,1.98-16.54,13.48-18.69,11.14-.96-4.46.98-5.91,3.21-8.93,6.78-9.22,26.97-25.96,36.55-34.2,4.84-4.17,45.05-38.09,48.68-34.24ZM1460.83,1344.44c-13.65.75-24.1,2.65-37.68-.99-22.21-5.95-36.19-25.3-56.82-33.84-38.78-16.05-95.5-6.15-125.6,23.7-6.26,6.21-27.76,40.76-31.79,41.14-15.08-6.78-29.13-22.19-46.04-25.05-40.66-6.86-80.89,12.51-82.42,56.96-7.66-4.55-3.49-16.63-4.93-24.9-2.99-17.17-26.81-21.49-41.47-20.44,19.33,15.78,22.96,59.85,35.3,75.26,18.04,22.51,83.27,48.83,111.71,51.91,28.84,3.13,60.95-4.12,90.78-2.34,60.07,3.59,110.52,37.68,170.24,33.36,29.92-2.16,80.47-18.17,97.03-44.49,13.84-22.01,14.26-35.69-.02-57.11-29.32-43.96-81.01-44.93-129.15-44.45,2.04-8.98,16.07-.5,17.68-2.2,4.72-9.1-33.5-27.98-28.71-33.16,28.97,20.57,49.89,40.63,88.36,27.57,18.92-6.42,35.66-29.81,57.55-20.85.04,17.24-3.36,32.2-8.87,48.55-5.71.87-4.59-.89-4.38-5.48.59-12.6,5.77-26.54,8.82-38.73l-13.28,2.21c4.64,9.87-1.35,23.14-7.73,30.93l3.32-26.51-30.93,17.65c30.2,7.7,50.11,30.26,63,57.48,16.2-18.52,25.84-54.3,11.8-75.88-1.94-2.98-20.73-19.73-23.42-20.8-11.87-4.72-67.83-16.67-81.51-17.99-8.15-.79-22.75-1.31-30.55-.13-3.76.57-24.74,8.02-21.13,13.09l20.38,9.5,30.45,6ZM1768.2,1561.17c.11-2.2-.1-4.44,0-6.63,6.89-.95,13.36,2.25,18.82,3.26,2.62.48,5.71-1.47,9.97-.18,5.33,1.62,8.41,8.48,12.56,9.75,12.49,3.81,68.66-11.73,74.17-24.44,2.11-4.86,5.45-27.77,5.24-33.37-.51-13.98-10.51-28.05-10.41-44.57.15-24.34,12.05-54.14,9.12-77.49-1.27-10.16-10.72-16.14-18.85-20.96-8.58,4.73-15.97,9.11-25.45,12.22-12.96,4.25-41.08,9.86-54.31,10.01-14.78.17-37.96-10.67-48.42-8.97-3.82.62-10.84,7.56-16.72,9.96-11.46,4.68-25.69,6.2-36.85,11.79-17.45,8.74-29.94,28.15-51.44,32.59-21.8,4.49-45.87-7.86-64.69-.56-19.21,7.46-19.85,31.07-30.88,46.51-26.88,37.61-79.66,53.62-124.29,49.83-30.47-2.59-56.37-18.19-84.88-23.47-14.19-2.63-29.58-1.63-43.71-5.04l-5.44,3.37,4.35,4.42-8.8,5.51,19.93,1.09c5.89,3.27-5.35,7.22-7.91,7.63-2.79.44-24.51,1.15-19.81-4.3l5.56-4.37c-11.59,3.55-20.67-5.53-29.74-6.75-14.88-2-48.97,1.02-60.16,11.9-18.08,17.58-13.56,67.72-19.01,92.66-5.06,23.17-11.23,4.14-12.41-8.56l-7.93-84.94c-5.88-17.08-66.04-45.61-83.75-53.35-29.46-12.87-69.08-32.66-97.65-6.24-20.54,18.99-11.17,64.63,2.86,85.55,6.61,9.86,9.95,6.3,18.14,10.61,56.02,29.49,113.88,50.87,173.57,71.9,3.64.18,7.31.33,10.94-.13,16.35-2.05,34.74-.52,53.28.01,94.77,2.73,200.29,7.77,293.35-11.62,29.09-6.06,54.92-16.29,84.96-21.17,62.39-10.14,126.24-13.08,188.76-22.41.76-9.41-11.64-6.25-15.47-7.62-2.38-.85-4.4-2.61-6.63-3.42-.08,1.47.08,2.95-.01,4.41-2.27,1.7-14.92-2.84-13.25-8.82,5.3-1.04,8.93,2.83,13.26,4.41ZM1023.02,1424.06c1.38-1.26-15.07-25.44-17.19-28.12-2.1-2.64-2.5-6.04-7.11-5.03l15.76,29.55,8.54,3.6ZM1040.71,1428.48c1.41-1.4-18.09-32.72-19.79-34.36-2.87-2.77-4.82-3.85-8.94-3.2,2.22,4.12,21.87,44.37,28.73,37.56ZM1007.55,1419.63l-17.67-24.3c.81,4.89,10.73,29.71,17.67,24.3ZM996.49,1419.63l-12.16-19.84c-5.32,3.77-1.78,3.82-.68,7.26,2.03,6.34,4.97,13.13,12.84,12.58ZM1051.75,1428.49c-3.33-10.2-8.17-22.98-17.65-28.74,3.31,6.89,7.28,16.77,11.4,22.85,1.53,2.26,3.42,5.28,6.24,5.9ZM983.21,1417.43c1.71-2.79-5.52-9.7-6.6-8.83l-2.23,8.83h8.82Z"/>
  <path d="M1991.5,621.4c.58-13.72,34.96-37.52,35.52-14.48-18.33,60.73-31.51,122.57-37.68,185.87-3.85,39.48-10.03,107.88,1.05,144.85,7.42,24.77,17.06,15.32,27.73-1.09,11.45-17.6,21.98-58.88,19.83-79.67-2.37-23.02-14.2-13.06-15.45-14.37l.95-8.97c16.89-9.25,23.29,9.44,23.54,23.37.34,19.35-16.54,78.02-28.98,92.79-14.54,17.25-28.89,12.63-37.07-7.04-13.38-32.17-15.97-70.34-20.39-104.56l-15.9,38.24c-17.02,31.86-54.21,25.55-69.92-4.37l-11.42-27.23c-7.41,42.23-34.99,105.95-65.22,33.12-18.86-45.44-19.4-101.77-23.28-150.32-12.19,11.86-19.75,27-39.51,26.81-3.88,24.7-12.59,49.51-25.03,71.16-23.91,41.65-51.15,66.13-82.53,12.63-15.79-26.93-19.08-55.56-20.99-86.27l-32.01,55.3c-47.86,57.8-98.61,37.61-113.93-30.98-17.7,22.34-36.05,65.75-69.75,66.42-30.49.61-61.85-67.74-60.71-95.17-3.37.34-3.4,3.3-4.28,5.65-8.01,21.33-15.69,95.02-49.66,91.64-26.01-2.59-37.46-71.27-38.88-91.78-2.9-41.96,4.27-159.98,36.47-189.02,22.69-20.47,36.81-3.12,33.69,22.64-3.22,26.55-15.66,59.67-20.84,87.5-6.92,37.19-13.61,85.42-9.31,122.89,5.24,45.66,24.72,5.22,32.62-13.35,29.85-70.15,2.11-190.51,55.5-245.22,24.44-25.05,76.76-23.95,91.19,10.71,8.2,19.7,7.9,86.17-19.74,91.83-32.01,6.55-4.55-50.87-24.02-63.53-19.79-12.87-39.79,26.1-45.16,40.63-19.56,52.85-24.05,142.45,7.97,191.13,4.36,6.63,10.73,15.24,19.67,15.43,17.5.36,60.36-48.46,61-65.03.19-5.07-2.4-10.03-2.45-15.35-.63-63.72,3-149.15,56.53-193.52,65.45-54.26,117.37,23.93,83.25,89.89-5.61,10.85-21.83,32.25-33.22,16.93-1.06-19.39,18.84-47.51,3.08-64.94-17.11-18.92-41.06,14.18-49.41,28.17-27.15,45.45-32.1,118.11-16.49,168.19,13.26,42.55,31.56,50.5,64.77,17.18,63.65-63.88,31.66-158.01,85.26-226.52,45.13-57.68,114.54-21.22,107.06,45.14-.91,8.11-5.52,13.55-6.5,20.04-1.07,7.07.74,14.9-.18,21.94-3.26,25.02-8.08,50.08-11.06,75.18,11.66,5.62,21.13-6.35,27.08-14.94,15.54-22.46,8.89-35.52,10.57-60.19,3.27-47.93,9.12-183.82,52.31-210.81,22.64-14.15,31.48,5.88,29.23,27.03-2.81,26.49-21.38,70.48-27.81,100.42-17.24,80.24-21.42,180.34-16.14,262.42.68,10.61,5.61,47.24,12.11,54.23,2.01,2.17,3.37,2.76,6.31,1.96,9.63-2.62,30.85-59.32,32.02-70.02,1.05-9.58-3.78-26.53-4.12-36.91-.73-22.36-.22-46.22,2.59-68.36,8.04-63.47,54.63-193.27,130.14-105.32ZM1730.47,619.02c-2.91-25.51-28.76-19.76-43.88-7.37-42.06,34.47-51.93,161.52-35.09,209.38,3.26,9.25,8.9,20.07,18.8,23.36,11.9,1.88,28.39-25.01,33.38-34.32,5.61-10.47,21.12-47.32,22.18-57.68.64-6.26-10-14.78-13.37-21.09-12.85-24.05-12.39-64.71-2.85-89.95,3.72-9.84,9.45-20.32,20.83-22.32ZM1930.3,646.41c-2.41,2.21-9.53,14.63-11.46,18.38-23.7,46.11-27.91,125.85-14.66,175.53,13.91,52.13,31.3,38.17,45.42-3.25,12.24-35.89,9.35-63.44,13.2-99.57,2.02-18.92,11.63-54.78,10.89-70.62-1.08-23.17-26.98-35.52-43.4-20.48ZM1737.03,648.19c-6.29-2.91-6.84-1.96-10.48,3.42-13.03,19.22-13.44,64.32,2.97,82.55l7.51-85.97Z"/>
  <path d="M1115.91,683.33c-1.93,46.85-6.15,93.48-4.53,140.49.38,11.1,7.68,59.18,3.52,65.24-10.02,14.61-21.9-21.21-23.61-27.47-25.62-93.9-15.54-251.2,5.79-346.35,3.77-16.82,9.92-42.91,17.09-58.09,11.21-23.71,35.79-16.05,48.15,1.72,10.79,15.51-3.15,29.88-8.32,44.75-4.82,13.88-9.21,27.96-13.16,42.12-4.54,16.27-16.44,57.64-16.16,72.41.2,10.55,13.98,23.29,24.91,22.63,32.86-1.96,54.93-36.83,62.95-65.35,18.97-67.37,17.62-163.97-77.63-152.81-37.89,4.44-74.23,50.26-90.19,82.29-8,16.04-22.87,78.8-47.61,68.43-20.35-8.53-14.35-54.99-8.96-71.93,15.75-49.48,80.57-109.24,133.26-114.39,106.29-10.38,134.54,100.48,114.14,184.9-11.74,48.58-57.12,140.8-119.68,111.39Z"/>
  <path d="M1149.08,1841.98c4.48,4.62,21.33-13.15,24.37-16.52,22-24.39,46.28-59.78,37.53-94.02,32.41-3.84,15.46,36.92,13.29,55.27,12.53-12.18,39.2-57.53,60.95-42.17,15.74,11.12-2.81,42.41-7.88,55.44,11.94-15.52,42.52-60.45,64.73-57.1,22.39,3.38,1.94,31.88-1.69,41.66-6.01,16.17-11.35,33.42-12.19,50.81,4.17,4.31,32.25-20.5,35.39-25.39,4.49-6.99,6.03-19.12,9.96-27.63,8.83-19.09,45.27-60.5,68.03-42.16,26.89,21.68-33.02,78.57-60.31,66.45-7.89,45.1,23.74,39.7,51.5,21.66,20.64-13.41,39.25-50.83,36.76-75.65-1-9.96-6.68-10.38-.26-22.75,11-21.17,39.43-12.65,34.36.95-3.23,8.68-14.76.27-20.69,3.84-4.21,3.22-4.77,10.49,0,13.37,12.16,7.32,35.4-17.17,53.04-4.41,17.71,12.81-2.93,16.67-8.8,22.07-14.9,13.74-29.78,56.44-23.18,76.31,14.12-5.16,28.38-14.66,37.37-26.76,10.88-14.64,26.42-66.93,39.51-73.4,9.41-4.64,11.46,6.9,10.33,14.83-1.83,12.86-38.63,75.31-30.84,83.08,19.33-.56,37.77-26.82,46.85-42.69,6.14-10.72,9.19-24.55,16.3-34.56,12.01-16.9,37.73-36.53,55.14-15.66,3.05-.03,15.75-36.55,27.48-20.68-7.94,25.63-21.66,48.77-28.62,74.86-3.26,12.24-8.36,26.56-4.36,38.72,7.6,5.3,30.68-24.61,30.96-33.15l4.04,2.92c-11.25,41.08-58.64,59.88-48.32-.72-19.39,30.03-51.74,51.16-54.15-2.23-13.72,25.66-58.29,79.47-63.04,17.71-50.48,62.42-76.16,14.51-47.61-44.32,5.87-12.1,16.29-20.81,21.08-33.07-14.6,2.84-27.09,15.11-41.98,8.85-1.02,41.98-41.55,107.49-89.45,99.37-15.64-2.65-21.34-23.75-21.15-37.46-9.52,8.67-31.87,42.74-46.55,27.77-17.02-17.36,7.11-67.73,13.39-87.47-24.54,12.89-46.73,42.18-57.15,67.76-3.36,8.25-5.91,33.51-15.78,28.57-20.25-28.28,7.51-64.4,12.71-91.35.78-4.06,2.9-9.74-2.81-9.48-19.13.88-47.59,49.05-53.61,65.83-4.03,11.22-3.12,24.91-10.87,31.29-16.13,4.13-8-42.17-5.16-50.62-12.28,11.49-33.77,58.45-53.66,52.69-12.43-3.6-11.42-30.5-13.76-30.6-24.64,41.3-47.15,41.74-50.86-11.06-16.31,45.66-54.4,63.7-53.07-2.21-16.9,32.7-62.92,73.23-58.62,4.46-4.29,2.84-6.13,8.96-9.91,13.28-9.62,10.99-26.09,26.44-37.52,8.74-9.17-14.21-.51-46.59,7.25-61.12,11.22-21.01,41.3-48.1,62.29-22.82,3.79-11.8,9.28-27.29,24.34-24.32,3.94,3.89-16.97,45.94-19.93,54.13-6.96,19.2-14.32,40.26-13.22,60.84,17.23-2.7,30.91-20.22,39.36-34.7,18.22-31.2,19.13-79.78,43.53-106.83,7.56-8.38,21.91-18.06,25.11-1.6-19.73,31.84-39.14,74.61-45.51,111.67-1.71,9.96-5.84,24.35,2.67,31.17,15.15-6.15,29.18-25.96,33.7-41.23,5-16.89,3.14-30.25,11.95-47.76,5.8-11.54,19.25-30.02,28.41-11.39-11.95,27.19-25.62,60.5-22.16,90.82,1.23,10.75,5.34,8.15,12.25,3.19,25.9-18.61,22.09-34.46,32.05-60.82,4.33-11.47,18.44-45.84,32.95-32.79,2.24,6.8-13.58,37.09-16.87,46.65-6.21,17.99-11.75,33.98-9.39,53.61ZM1434.31,1753.53c-16.32-8.4-55.25,41.92-48.63,48.64,23.71-3.65,50.64-22.37,48.63-48.64ZM1657.01,1753.99c-12.72,2.87-26.68,25.55-31.39,37.18-5.44,13.44-17.08,54.69,9.76,36.29,12.65-8.67,28.15-34.84,32.22-49.59,3.47-12.6,9.19-28.34-10.59-23.88ZM967.17,1756.09c-18.47,3.42-37.89,45.47-39.2,62.71-2.17,28.73,15.01,15.01,26.44,2.12,9.64-10.86,18.07-25.88,22.06-39.86,3.14-11,9.03-28.36-9.3-24.97Z"/>
  <path d="M625.03,919.92c-2.96,32.41-29.95,77.4-60.63,37.39-32.47-42.35-14.61-122.23,47.32-72.77l-.07-144.92c3.72-80.93,18.6-160.79,57.2-232.46l22.47-33.89c-73.86,20.37-113.23,103.03-108.29,175.75,1.23,18.06,12.11,35.99-5.22,51.23-24.51,21.55-32.89-8.75-34.58-29.12-6.07-73.04,37.39-144.88,97.45-183.31,22.16-14.18,55.25-30.65,82.24-25.12,42.59,8.72-2.01,48.11-13.44,67.37-65.07,109.64-63.04,243.75-80.11,366.52,1.41,10.96,43.79,28.97,54.91,31.51,23.71,5.43,58.83,4.48,73.1-18.45,3.89-6.26,5.95-25.37,18.12-13.05,10.4,10.52,2.36,32.73-5.84,43.02-25.64,32.16-83.59,20.78-114.39,2.02-3.86-2.35-28.44-23.41-30.23-21.71ZM572.99,881.21c-33.94,1.73-16.21,84.54,13.15,82.9,23.09-1.29,21.74-40.04,25.61-56.32-6.97-12.14-23.8-27.34-38.77-26.58Z"/>
  <path d="M848.3,579.44c-4.59,22.17-15.83,42.62-22.66,64.59-11.89,38.29-34.77,155.72-18.24,189.67,2.01,4.12,3.84,7.33,8.85,7.93,2.7-.24,5.23-1.21,7.55-2.6,12.47-7.48,33.71-50.8,38.44-65.54,3.24-10.12,15.86-60.33,2.49-63.27l-11.95,1.82c-.32-27.18,27.89-25.58,30.94,1.11,3.54,30.95-26.28,102.04-47.48,124.99-17.23,18.64-36.28,14.29-43.03-10.14-2.46-8.9-.13-20.53-6.74-25.29-15.16,53.72-64.95,101.4-86.55,19.07-15.06-57.4-6.01-128.2,25.04-178.96,14.94-24.42,47.76-57.17,78.11-39.45,9.82-14.88,26.43-27.83,45.23-23.96ZM770.32,652.67c-14.66,4.1-33.1,52.12-37.55,66.55-9.56,31.01-20.91,94.41-7.67,123.83,12.85,28.56,38.25-9.71,45.46-24.12,14.11-28.19,19.57-72.27,20.26-103.56.26-11.51.61-68.59-20.5-62.69Z"/>
  <path d="M905.31,1687.73c-1.8-1.79-6.84-2.72-9.47-2.82-29.24-1.16-55.41,51.67-58.31,76.61-5.43,46.66,16.4,13.83,36.27,13.9,28.15.1,15.03,50,5.93,65.89-13.04,22.76-31.93,36.74-59.03,33.85-41.53-4.42-31.44-66.07-6.68-62.02,14.96,2.45,0,16.28-2.06,20.1-11.88,22.05-2.91,32.64,21.52,28.13,23.69-4.37,58.5-55.58,44.44-79.25-21.13-.51-41.01,38.44-58.32,12.35-24.42-36.81,34.66-121.8,76.55-124.86,46.21-3.38,49.01,67.84,10.6,83.72-5.57,2.3-16.75,4.87-18.25-3.4-.9-4.98,16.47-25.96,18.57-36.05,1.25-5.97,2.56-21.84-1.75-26.14Z"/>
  <path d="M761.03,1048.18c11.06-2.32,18.08,26.48,18.73,34.3,7.35,88.37-57.97,169.26-57.64,258.68.07,19.46,13.51,42.88,1.29,60.76-10.38-.25-18.03-51.37-18.76-60.8-7.57-98.49,63.11-183.51,57.53-260.97-.45-6.25-8.93-30.33-1.14-31.96Z"/>
  <path d="M1314.27,440.76c9.34,7.88,12.79,34.48,11.11,46.3-5.59,39.15-44.27,51.4-43.81,2.74.13-13.23,12.29-66.25,32.7-49.04Z"/>
  <path d="M1020.8,937.63l-155.35,38.1c-12.71,6.03-30.63,11.43-41.31,20.6-4.57,3.93-23.4,32.99-28.86,27.5,5.05-33.1,42.06-52.88,70.84-62.92,47.99-16.74,103.98-24.32,154.68-23.29Z"/>
  <path d="M969.94,981.84l-1.36,6.79c-28.15,13.94-75.04,27.89-94.66,53.06-19.22,24.66-28.28,57.57-53.65,81.13-2.46,2.29-1.43,4-7.31,2.72,12.51-17.47,22.07-36.6,31.35-55.97,6.79-14.19,13.93-42.54,25.01-52.39,8.25-7.33,97.11-39.37,100.63-35.34Z"/>
  <path d="M1779.26,1233.91c-5.58,3.27-28.61,9.84-26.31,18.43,1.21,4.51,22.33,13.94,28.32,18.25,4.11,2.96,12.81,8.83,13.45,14.16-7.95-.47-13.23-6.24-20.92-8.91-25.51-8.87-44.57-9.22-69.65,1.27-14.74,6.16-26.59,18.26-42.1,20.9.58-2.92,3.75-4.52,5.91-6.23,26.4-20.83,67.41-47.85,98.05-61.16,9-3.91,23.18-9.34,32.55-11.71,1.78-.45,7.42-1.46,3.88,1.72-9.18,1.65-16.55,9.38-23.2,13.27,4.15-.89,5.24,2.28,7.75,4.41,5.32,4.52,15.01,16.2,19.92,22.09,5.9,7.07,14.67,15.66,16.53,24.35-6.17-4.07-48.92-45.96-44.2-50.86Z"/>
  <path d="M885.95,1417.43c9-31.36,4.87-61.73-.62-93.37-4.09-23.53-12.66-38.95-10.54-64.81.51-6.17,11.1-54.21,14.45-54.12,4.72,21.74-4.72,43.4-3.27,65.23,3.02,45.35,20.83,70.89,10,122.85-1.43,6.84-4.57,20.03-10.03,24.22Z"/>
  <path d="M963.31,1090.19c1.83,6.73-4.4,8.73-9.57,11.41-39.51,20.48-82.6,34.37-123.08,52.69-.77-4.48,2.85-6.3,5.88-8.47,12.41-8.87,42.3-21.75,57.44-28.8,8.41-3.92,65.74-30.5,69.33-26.84Z"/>
  <path d="M872.03,1539.48c2.82-.71,7.11.57,7.22,2.88.13,2.81-30.3,30.9-35.29,35.42-6.84,6.21-40.85,36.21-46.3,37.77-2.75.79-6.14.62-6.79-2.45-.96-4.55,54.99-54.47,63.07-60.71,3.59-2.77,15.05-12.14,18.1-12.91Z"/>
  <path d="M839.49,1530.22c.96,4.47-.98,5.9-3.21,8.93-6.72,9.16-64.48,62.47-73.83,67.68-3.06,1.7-5.13,3.85-9.17,2.97-5.03-4.62,39.55-45.69,44.18-49.77,4.57-4.02,38.18-33.74,42.03-29.81Z"/>
  <path d="M810.74,1512.53c.96,4.46-.98,5.91-3.21,8.93-6.51,8.85-31.26,29.96-40.98,38.63-8.29,7.39-28.88,27.72-36.4,32.14-3.52,2.07-5.97,2.67-10.05,2.09-4.07-3.91,16.42-22.19,19.86-25.45,14.79-14.01,36.03-33.03,52.06-45.24,2.61-1.99,16.62-13.39,18.72-11.11Z"/>
  <path d="M879.32,1105.66c-.98-4.59,2.21-5.14,5.07-7.07,13.99-9.4,76.64-36.88,92.7-40.01,2.14-.42,8.56-2.54,8.3,1.75-.4,6.86-93.46,39.9-106.07,45.33Z"/>
  <path d="M910.24,1561.18c4.93,4.95-23.53,27.51-27.68,30.89-11.38,9.25-24.49,20.12-38.63,24.37-2.62-2.53,18.26-21.73,21.05-24.25,4.85-4.39,41.61-34.67,45.26-31Z"/>
  <path d="M1606.42,1698.65c6.55,4.05,3.64,18.63.03,24.71-12.84,21.65-28.28,4.72-20.09-15.69,2.73-6.8,13.56-13.04,20.06-9.02Z"/>
  <path d="M932.38,1625.28c-.96-4.47.99-5.9,3.21-8.93,3.91-5.35,35.6-30.85,40.9-32.18,6.13-1.53,7.21,6.04,2.35,11.3-4.65,5.02-41.84,34.44-46.45,29.81Z"/>
  <path d="M938.99,1574.44c.57,4.08-.03,6.53-2.09,10.05-3.2,5.48-44.98,40.34-48.75,36.36-.96-4.47.98-5.91,3.21-8.93,3.7-5.05,44.06-41.39,47.63-37.48Z"/>
  <path d="M1264.06,1174.19c-3.04-2.76,20.25-26.08,23.27-28.67,5.49-4.7,17.41-13.66,23.89-15.97,2.61-.93,6.02-1.45,5.85,1.53s-38.36,36.2-44.13,39.86c-2.92,1.86-4.21,4.46-8.89,3.25Z"/>
  <path d="M1456.42,970.75c-3.44-2.88,36.2-35.58,40.03-38.45,1.71-1.27,22.19-18.63,21.84-9.07-.14,3.92-58.14,50.64-61.87,47.52Z"/>
  <path d="M1476.32,928.78c3,2.33-29.75,27.79-32.12,30.88l-32,22.16c-2.52-2.59,14.17-17.61,16.63-19.83,7.91-7.14,29.74-26.11,37.83-30.72,3.05-1.74,6.04-2.99,9.65-2.49Z"/>
  <path d="M1405.55,937.62c4,4.2-18.18,22.14-22.07,25.44-4.41,3.75-32.16,25.75-35.41,23.17,1.76-4.97,5.14-8.55,8.8-12.19,8.26-8.22,30.43-26.7,40.04-32.93,2.71-1.76,5.01-4.13,8.65-3.49Z"/>
  <path d="M1551.49,1032.67c-8.35,1.79-55.17-8.59-55.22-16.57-.02-2.7,5.12-3.17,7.41-3.15,8.2.07,33.92,9.31,42.21,13.19,3.27,1.53,6.56,1.46,5.61,6.53Z"/>
  <path d="M1436.51,935.41c.92,4.12-2.27,5.24-4.4,7.74-4.5,5.27-15.25,13.96-21.07,18.73-10.97,8.98-23.36,18.65-36.43,24.36,13-14.7,29.62-30.18,45.39-41.93,2.76-2.06,13.67-11.62,16.51-8.89Z"/>
  <path d="M1686.4,1149.87c-3.97-9.96,30.28-40.62,34.23-39.78,12.44,2.64-14.26,25.72-17.72,28.68-1.97,1.69-15.09,12.7-16.51,11.1Z"/>
  <path d="M987.65,1032.7c-.21,2.59,1.19,4.76-1.37,6.78-11.64,9.18-40.13,15.92-53.89,24.16-.82-5.45-.35-4.62,2.68-7.33,5.62-5.02,48.14-28.09,52.57-23.62Z"/>
  <path d="M877.07,1390.9c-13.05-14.13-28.34-37.6-36.52-55.22-2.01-4.34-5.62-7.23.06-11.07,5.48.3,34.07,57.07,36.46,66.29Z"/>
  <path d="M1695.22,1114.51c6.66,6.94-33.61,41.79-36.47,41.96-2.51.15-2.78-2.94-1.53-5.87,2.03-4.74,24.27-29.37,29.07-32.89,3.03-2.22,4.46-4.17,8.93-3.21Z"/>
  <path d="M872.68,1154.28l45.28-22.13c2.32-.2,23.67-10.27,23.21-3.28-.34,5.3-59.12,25.05-68.49,25.41Z"/>
  <path d="M731.14,1519.16c.97,4.18-2.37,5.23-4.41,7.73-4.55,5.55-36.65,34-42.01,29.83,1.44-8.93,41.64-41.9,46.42-37.56Z"/>
  <path d="M1551.49,1041.54c-.86,13.76-36.7,2.66-43.65-1.64-6.09-3.77-3.21-9.16,3.91-8.56,13.16,1.09,26.17,11.39,39.74,10.2Z"/>
  <path d="M1239.74,1174.19c-1.76-1.82,6.05-11.29,7.7-13.29,5.09-6.18,22.79-24.58,28.74-28.75,3-2.1,3.4-4.01,6.69.03,2.29,3.91-18.17,23.09-22.08,26.59-2.22,2-19.5,17.01-21.05,15.41Z"/>
  <path d="M1401.13,1165.37c.93,4.25-2.17,5.28-4.62,7.52-4.67,4.25-40.64,28.72-44,25.63-.79-3.9,2-5.45,4.38-7.76,4.89-4.75,40.58-28.69,44.24-25.39Z"/>
  <path d="M1549.28,922.14c2.54,2.21-9.13,12.6-11.01,14.39-8.89,8.46-20.76,16.29-30.97,23.19-6.38-8.31,37.42-41.56,41.98-37.58Z"/>
  <path d="M1421.03,1169.79c6.7,6.04-33.89,25.84-38.36,26.9-11.52,2.74.21-8.35,4.1-11.44,4.35-3.45,31.22-18.21,34.26-15.47Z"/>
  <path d="M1013.47,1596.87c3.01-.24,5.75,2.37,5.13,5.17-1.73,4.98-34.89,30.55-35.31,17.74-.15-4.42,25.38-22.52,30.19-22.91Z"/>
  <path d="M1807.98,1134.4c-7.32-4.44-27.22-51.92-24.29-55.27,4.54-.95,5.13,2.25,7.05,5.09,8.94,13.22,14.01,34.53,17.24,50.18Z"/>
  <path d="M1838.96,1278.11c-4.15.97-5.26-2.31-7.74-4.4-6.13-5.15-14.55-13.8-19.93-19.88-3.01-3.4-19.34-21.2-16.54-24.34,5.11-.13,8.97,5.45,12.18,8.8,11.27,11.77,22.37,26.6,32.03,39.81Z"/>
  <path d="M1195.5,1247.15l-13.25,4.47c-.73,3.45,4.02,2.34,5.58,4.28,5.62,6.95-13.81,10.13-16.64,3.41-.68-8.02,7.52-3.7,2.46-13.09l1.94-2.27c7.76-4.38,17.44-9.21,19.9,3.19Z"/>
  <path d="M1365.76,948.68c2.8,2.56-40.93,39.43-48.65,37.55,8.77-11.16,20.68-20.3,32.15-28.63,2.85-2.07,13.5-11.64,16.49-8.91Z"/>
  <path d="M1726.18,1129.99c1.59,7.55-6.21,9.95-8.83,15.43,10.15,1.9,13.58,12.42,1.43,12.88l-5.87-10.66-6.6,2.23c-.76-10.36,9.77-19.37,19.87-19.88Z"/>
  <path d="M1423.24,1183.06l-4.42,11.02,6.66.03c4.45,3.85-16.58,12.13-17.7,11.04l4.41-8.81-15.48,2.17c1.7-5.8,22.42-19.34,26.52-15.44Z"/>
  <path d="M1429.89,1092.39c-3.63.66-.35,6.26-6.62,4.41-3.56-4.59,5.1-39.27,17.67-35.36,1.5,12.14-8.21,20.17-11.04,30.95h6.62s-4.44,19.9-4.44,19.9c-6.68-1.82-3.51-14.88-2.19-19.9Z"/>
  <path d="M1330.37,957.52c.79,4.52-.49,5.86-3.27,8.87-4.5,4.87-18.78,15.38-24.82,19.41-3.06,2.04-5.47,5.42-9.48,4.87l11.01-14.39,26.55-18.75Z"/>
  <path d="M1409.97,1138.82l1.14-4.45,2.17.04c3.15,10.94,13.37-.4,12.17,13.25-5.63,2.32-3.64-3.03-4.9-3.96-.86-.63-7.71,1.8-10.55-2.66l-1.1,8.83c-6.25-7.94-13.37-15.89-14.39-26.51,9.32-.2,8.58,12.19,15.45,15.46Z"/>
  <path d="M1421.03,1061.43c.56,10.93-3.19,23.2-13.23,28.75-.16-10.5-2.1-31.8,13.23-28.75Z"/>
  <path d="M1686.38,1311.31c1.42,5.78-3.84,5.23-7.66,6.61-9.69,3.51-19.96,4.36-29.91,6.63,4.13-12.68,26.85-12.95,37.57-13.25Z"/>
  <path d="M1613.41,1282.57c3.47,3.1-19.74,17.13-22.28,18.61-5.24,3.06-11.45,7.05-17.51,7.89,2.06-7.01,37.05-28.95,39.79-26.5Z"/>
  <path d="M1292.8,1167.56c-1.42-1.29,18.83-33.38,26.47-21.01-1.74,4.75-22.77,24.36-26.47,21.01Z"/>
  <path d="M1308.27,1242.77c-12.98,10.55-34.87,9.54-50.86,13.22.69-4.17,4.66-3.61,7.47-4.67,13.74-5.15,28.63-8.34,43.38-8.56Z"/>
  <path d="M1394.54,1083.54c-4.25-5.44,3.28-30.14,9.89-28.73,8.84,1.89-4.42,26.95-9.89,28.73Z"/>
  <path d="M1511.71,1052.55c-.79-5.79.64-4.5,5.26-4.16,4.18.31,30,7,30.06,9.73-9.54,8.12-25.09-3.57-35.33-5.56Z"/>
  <path d="M1202.12,1271.47c-8.32,1.29-16.92,6.07-25.2,2.42l-1.36-5.71c1.03-3.29,27.97-7.81,26.56,3.29Z"/>
  <path d="M848.31,1364.37l22.12,42.01c-7.47-5.7-25.44-30.6-26.52-38.72-.58-4.33.82-3.5,4.4-3.28Z"/>
  <path d="M925.73,1158.69l-28.73,8.86c-4.95-4.57,29.24-24.85,28.73-8.86Z"/>
  <path d="M1241.93,1282.56c.82,8.96-27.54,13.38-28.72,7.69,3.85-9.73,20.51-7.24,28.72-7.69Z"/>
  <path d="M1681.96,1331.18l-39.78,8.86c-1.06-5.72,1.03-3.91,4.38-5.44,6.77-3.09,30.95-11.23,35.4-3.42Z"/>
  <path d="M1571.39,928.77c1.24,5.69-.95,5.59-3.66,8.48-2.79,2.99-19.5,16.23-22.87,13.6.3-5.6,23.63-25.22,26.52-22.08Z"/>
  <path d="M1799.14,1275.92c-11.02-9.19-24.1-21.67-28.71-35.37,5.73,1.31,11.67,9.89,15.41,14.42,4.78,5.8,11.23,13.68,13.31,20.94Z"/>
  <path d="M1224.25,1275.94c-1.44,7.51-27.71,7.7-28.76,6.6l.02-6.57c10.3-3.24,18.42-1.66,28.73-.03Z"/>
  <path d="M1502.86,1154.28c-8.07-3.79-19.81-8.77-26.35-14.53-2.52-2.22-5.47-3.38-4.59-7.54,5.13-4.48,27.51,16.8,30.95,22.08Z"/>
  <path d="M1841.17,1262.63c-2.52,2.32-19.84-16.04-22.21-18.73-3.46-3.93-9.75-9.03-8.73-14.42l30.93,33.15Z"/>
  <path d="M1761.56,1282.57c4.54,4.06-23.86,22.25-26.52,19.87-.15-6.63,23.31-22.75,26.52-19.87Z"/>
  <path d="M1264.04,1289.2c1.15,6.3-1.56,3.61-4.86,4.96-8.68,3.55-16.65,4.72-26.07,3.86-.9-5.33.58-4.17,4.39-5.43,8.14-2.7,17.96-3.71,26.54-3.39Z"/>
  <path d="M1394.5,1030.49c3.73,4.4-8.99,31.26-13.24,26.51-1.2-3.62,8.44-32.18,13.24-26.51Z"/>
  <path d="M1383.41,1116.73l13.31,28.71c-4.92,4.69-18.43-23.28-17.72-27.59l4.41-1.12Z"/>
  <path d="M861.32,1322.67l11.33,28.43c-3.85-2.82-8.14-8.52-10.64-12.55-2.98-4.79-12.85-19.84-.68-15.88Z"/>
  <path d="M1591.11,1242.96l.19,6.41c-2.32,2.37-23.65-3.14-22.1-11.03l21.91,4.62Z"/>
  <path d="M1381.22,1141.04c-6.83-6.06-19.38-24.79-12.13-33.16l12.13,33.16Z"/>
  <path d="M1633.31,1282.56c3.8,3.69-21.2,21.7-26.52,19.87,1.35-4.64,23.9-22.41,26.52-19.87Z"/>
  <path d="M1648.81,1145.45c-1.95-1.96,11.91-20.76,16.54-19.88,6.29,1.19-1.96,10.76-3.29,12.14-1.79,1.85-11.57,9.42-13.24,7.74Z"/>
  <path d="M1272.9,988.45c-3.95-3.63,22.36-24.79,22.06-14.36-2.71,3.04-18.58,17.56-22.06,14.36Z"/>
  <path d="M1250.77,1141.05c3.89,3.84-13.03,20.36-15.46,17.67.59-9.59,4.43-18.91,15.46-17.67Z"/>
  <path d="M1737.23,1284.78c4.8,5.35-18.03,18.66-22.08,19.89-3.32-3.42,19.75-22.48,22.08-19.89Z"/>
  <path d="M1582.45,1286.99c3.48,3.32-21.66,19.78-26.52,17.66.74-5.09,24.79-19.31,26.52-17.66Z"/>
  <path d="M1679.74,1344.48c1.8,4.73-6.12,7.15-8.77,7.75-5.3,1.19-10.15,1.52-15.54,1.06,4.48-8.81,15.73-9.21,24.31-8.81Z"/>
  <polygon points="1288.36 1238.35 1267.1 1244.69 1248.58 1244.94 1272.02 1238.56 1288.36 1238.35"/>
  <path d="M1792.51,1121.13c-8.26-5.97-14.64-16.08-13.22-26.53,8.92,4.91,10.57,17.47,13.22,26.53Z"/>
  <path d="M863.79,1302.46c-.82,5.63,14.03,20.8,5.55,24.31l-12.1-21.01,6.55-3.3Z"/>
  <path d="M1365.75,1174.22c4.3,3.97-16.88,16.43-17.66,15.47-.8-9.12,9.32-15.82,17.66-15.47Z"/>
  <path d="M1560.68,1231.39c-7.4-10.63,18.7-5.2,17.34,1.38-1.32,6.41-16.25.18-17.34-1.38Z"/>
  <path d="M1850.02,1251.57c-3.24,2.72-22.64-13.89-22.1-19.87,4.29-3.95,19.24,16.49,22.1,19.87Z"/>
  <path d="M1553.71,1072.52c3.06,3.12-.26,4.1-3.33,4.45-8.29.96-15.27-1.72-14.34-11.11l17.67,6.66Z"/>
  <path d="M689.12,1532.43c2.93,2.64-12.84,17.33-17.68,15.44-1.08-.95,11.2-19.01,17.68-15.44Z"/>
  <path d="M1306.06,1253.83c-5.47,9.06-18.29,4.56-26.51,8.82-1.03-5.69.9-3.97,4.41-5.41,6.76-2.76,14.8-3.81,22.1-3.41Z"/>
  <path d="M1684.17,1364.34c-5.71,1.29-14.29,5.65-17.67-2.16l14.14-4.23,3.53,6.39Z"/>
  <path d="M1651,1278.14c3.06,2.78-11.27,15.06-15.46,13.24-2.48-2.36,10.25-16.09,15.46-13.24Z"/>
  <path d="M1494.01,1158.7c-3.77,1.89-21.72-7.46-17.68-11.02,7.55-.59,14.19,4.77,17.68,11.02Z"/>
  <path d="M1332.6,1165.36l-13.24,6.63c-.75-7.59,6.02-14.14,13.24-13.27v6.63s6.62,3.28,6.62,3.28l-11.01,5.56,4.4-8.84Z"/>
  <path d="M1693.02,1298.05c-3.85,7.06-14.91,7.73-22.11,8.8,4.5-7.09,14.29-9.53,22.11-8.8Z"/>
  <path d="M1502.86,1174.18c-7.55.54-14.21-4.72-17.69-11.01,8.2-1.64,13.91,4.81,17.69,11.01Z"/>
  <path d="M1774.81,1110.08c-3.22-.19-15.26-13.92-7.68-15.47,5.71-1.16,8.72,11.62,7.68,15.47Z"/>
  <path d="M1396.71,1052.6c1.7,1.59-7.5,19.28-11.03,15.45,1.88-5.99,1.96-18.09,11.03-15.45Z"/>
  <path d="M1774.83,1291.41c3.83,3.4-13.67,12.74-15.46,11.03-1.79-6.1,12.86-13.34,15.46-11.03Z"/>
  <path d="M1825.68,1344.48c2.57,2.75-9.31,16.62-13.23,17.68-.97-3.76,10.13-21,13.23-17.68Z"/>
  <path d="M861.61,1412.99c-3.94,3.7-14.44-14.78-15.48-17.65,4.32-4.04,13.39,15.12,15.48,17.65Z"/>
  <path d="M1774.83,1260.43c-2.48,2.45-15.7-10.81-13.24-13.24,4.28-1.29,15.44,11.08,13.24,13.24Z"/>
  <path d="M1836.74,1344.48c1.83,1.92-5.87,15.08-11.03,13.24-1.83-1.92,5.87-15.08,11.03-13.24Z"/>
  <path d="M1591.3,935.41l-1.29,6.8-9.74,2.02c-.34-5.9,5.39-9.68,11.03-8.82Z"/>
  <path d="M1297.2,1262.66l.02,6.61h-13.27c-1.65-6.88,9.47-5.63,13.24-6.61Z"/>
  <path d="M1257.41,1233.93c-2.22,6.28-10.2,4.26-15.47,4.38,1.45-5.22,11.2-4.22,15.47-4.38Z"/>
  <path d="M1507.27,1187.46c-4.07,1.45-10.83-6.74-8.82-8.82,4.07-1.45,10.83,6.74,8.82,8.82Z"/>
  <path d="M1850.02,1342.28l-8.82,11.03c-.89-5.29,2.84-11.51,8.82-11.03Z"/>
  <path d="M1436.54,1116.71c.22-2.41-.57-5.5.08-7.64,2.36-7.81,11.23,1.92-.08,7.64Z"/>
  <path d="M1549.28,1298.05c-1.25,3.74-9.68,6.06-13.25,6.59,1.9-4.99,8.24-6.82,13.25-6.59Z"/>
  <path d="M1560.34,1216.23v6.61c-2.75,2.97-13.66-8.96,0-6.61Z"/>
  <polygon points="1863.29 1340.07 1856.67 1346.68 1856.66 1340.06 1863.29 1340.07"/>
  <path d="M1611.17,1508.13l.06,6.62,13.24-4.43c2.07,7.85-3.86,6.03-6.62,11l6.59,3.36c-3.62,5.63-13.88,5.81-17.61,8.96-6.13,5.19-5.17,20.08-19.94,16.45,1-4.26,8.67-7.81,9.89-10.92,1.41-3.59-4.97-10.06,3.37-8.98l-8.83-2.21c.1-4.25,7.93-5.86,8.64-6.96.9-1.4-6.08-15.4,11.22-12.89Z"/>
  <path d="M1746.08,1508.08l.03,6.66,13.24-6.63-2.2,8.81,8.83-2.19c4.16,4.81-17.24,25.53-11.06,6.63-5.53,4.04-6.9,6.44-12.16.09l-9.98,15.37-7.7-4.38c-15.11,21.22-11.97-15.08,5.41-6.68-1.37-4.73,12.97-20.88,15.59-17.69Z"/>
  <path d="M1095.97,1572.22c-9.74-9.73-13.73-28.23-17.04-41.53-2.09-8.4-8.62-22.5-1.73-29.18,4.18.14,21.27,61.92,18.77,70.71Z"/>
  <path d="M1602.35,1443.98c4.01,3.25-3.1,4.88-4.18,5.69-8.59,6.41-14.88,5.33-13.09,17.6.22,1.49,5.89.94,4.12,4.32l-8.94,11.09,4.4,4.39-11.04,5.53,4.4-8.82-6.6,2.2,4.39-11.05-6.59-1.08,11.04-12.17-11.04,1.1c2.99-5.26,29.31-21.9,33.15-18.79Z"/>
  <path d="M1531.59,1565.6c4.01,4.3-17.07,30.49-24.29,30.95l-3.31-8.83-7.75,6.61,4.76-12.85c6.43-3.79,6.27,4.42,7.37,4,7.94-6.47,11.33-19.02,23.22-19.88Z"/>
  <path d="M1073.87,1545.67c-5.72,1.14-3.86-1.23-5.53-4.31-6.95-12.8-10.78-32.09-12.13-46.53,4.84-.87,5.2,2.15,6.57,5.56,2.17,5.4,12.54,43.44,11.09,45.27Z"/>
  <path d="M1865.53,1523.57c-1.6-1.1-2.43-10.77-.04-13.24l-8.83,2.19c-1.38-9.93,10.23-12.37,16.58-17.63l1.98,22.28c-.19,4.2-6.4,8.67-9.7,6.4Z"/>
  <path d="M1297.23,1528.01l-1.31,6.82c-11.73,2.19-25.93,7.12-36.28-1.31,11.36-7.2,24.77-5.54,37.59-5.51Z"/>
  <path d="M1348.09,1567.79c-4.44-4.78,24.27-32.81,26.53-20.95,1.63,8.56-24.71,22.91-26.53,20.95Z"/>
  <path d="M1737.25,1448.37c-10.21-4.16-21.71-12.59-29.79-19.94-4.32-3.93-11.51-9.23-12.21-15.41,1.66-1.63,22.77,15.46,25.36,17.74,5.94,5.24,11.89,11.26,16.64,17.61Z"/>
  <path d="M1042.9,1497.05l11.08,37.57c-4.89,1.01-4.99-2.42-6.71-5.43-1.85-3.23-10.91-27.35-10.73-28.88.22-1.85,4.1-4.03,6.36-3.27Z"/>
  <path d="M1757.15,1443.95c-15.33-.33-25.94-7.34-35.38-18.77-2.06-2.49-5.37-3.57-4.41-7.73,3.15-3.18,21.6,17.33,24.45,18.73,3.68,1.8,12.84-1.27,15.34,7.77Z"/>
  <path d="M1812.43,1452.79c3.1-7.13,9.48-13.88,15.67-18.58,1.69-1.29,15.06-11.63,15.23-4.63.15,5.92-29.04,24.97-30.9,23.21Z"/>
  <path d="M1100.4,1536.84l8.86,39.79c-4.23,5.02-9.96-15.47-10.4-17.22-.48-1.9-6.26-31.05,1.54-22.57Z"/>
  <path d="M1337.03,1563.37c-3.45-3.6,16.22-22.85,20.61-24.73,2.59-1.11,5.77-1.67,5.85,1.51.12,4.37-23.65,26.17-26.47,23.22Z"/>
  <path d="M1527.19,1589.9c-1.88-1.87,17.57-29.82,23.17-28.72,5.26,3.27,1.52,6.32-1.09,9.93-1.88,2.6-19.74,21.12-22.08,18.8Z"/>
  <path d="M1863.27,1492.63c3.46,3.05-18.93,22.53-25.36,22.24l-2.42-4.67-9.8,2.3c3.54-8.39,12.24-18.9,16.57-6.62,2.41-3.27,17.37-16.46,21.01-13.25Z"/>
  <path d="M1359.12,1570l1.04,11.19-12.07,13.13,1.99-10.1-4.32-2.07.44-4.04c2.82-4.72,6.86-9.05,12.92-8.12Z"/>
  <path d="M1290.57,1550.09c-1.36,1.81-27.23,5.67-28.74-2.17,8.79,1.86,26.87-11.95,28.74,2.17Z"/>
  <path d="M1339.22,1545.7c-3.32,12.38-15.11,16.59-26.51,17.67l17.57-14.47,8.94-3.2Z"/>
  <path d="M1852.22,1435.14c4.74,4.73-17.33,19.6-22.09,19.88-2.51-2.41,18-23.96,22.09-19.88Z"/>
  <path d="M1852.21,1448.39l1.71,9.69-5.04,5.78-3.3-6.62-8.81,4.42c-2.48-2.39,10.35-16.14,15.45-13.26Z"/>
  <path d="M1819.05,1432.93c3.67,3.47-17.31,18.73-22.09,17.67-3.39-3.3,18.81-20.77,22.09-17.67Z"/>
  <path d="M1023,1539.05c-7.4-5.27-14.11-15.03-13.23-24.31,4.37-5.1,14.34,20.88,13.23,24.31Z"/>
  <path d="M1719.54,1448.39c-2.4-2.24-27.52-18.96-24.29-22.1,5.4-.96,27.21,19.05,24.29,22.1Z"/>
  <path d="M1036.28,1527.99c-3.9,4.37-13.7-15.78-11.03-19.88,3.99-4.67,12.85,17.85,11.03,19.88Z"/>
  <path d="M1120.31,1581.06c-7.06,2.32-9.63-18.93-8.82-19.88,8.96.32,8.85,13.49,8.82,19.88Z"/>
  <path d="M1288.36,1556.75l-1.39,6.79-11.87-.19c-2.97-6.4,12.42-7.45,13.26-6.6Z"/>
  <path d="M1796.94,1439.56c3.8,3.16-13.41,11.08-15.47,11.02.75-3.31,13.46-12.69,15.47-11.02Z"/>
  <path d="M1496.21,1581.08v3.27c-10.62,9.96-13.38-4.07,0-3.27Z"/>
  <path d="M1547.07,1583.29v3.28s-8.81,7.77-8.81,7.77c-1.23-3.98,6.09-13.86,8.81-11.04Z"/>
  <path d="M1491.79,1401.98l-26.5,5.53c-17.98,8.85-58.7,33.1-33.03,55.1,8.56,7.33,23.63,5.98,30.8,14.51-37.15-2.46-58.85-22.96-98.36-19.84-64.33,5.07-82.1,5.3-143.81-17.69-5.48-2.04-36.37-13.7-36.4-16.62l34.22-12.21,3.31,3.34-15.45,7.8c5.51,10.2,17.61-.16,26.53-.05,1.17-1.13-14.79-19.12-9.96-24.29,36.53,39.58,81.45,60.95,136.11,49.85,46.02-9.34,82.32-51.75,132.55-45.42ZM1239.7,1432.91c.73-3.26-.95-4.63-3.33-6.62l-5.48,3.32,8.81,3.31Z"/>
  <path d="M1319.32,1315.74l-27.68,13.19c-15.2,9.77-30.02,30.1-28.7,48.69,10.56-11.7,22.45-33.54,35.39-42.01,3.38-2.22,5.61-.75,5.48,1.11-11.25,11.02-19.51,24.7-29.78,36.51-11.3,12.99-15.13,5.48-13.13,24.18,1.25,11.66-6.35-.21-8.33-4.98-15.22-36.63,29.91-81.01,66.75-76.69Z"/>
  <path d="M1427.67,1395.35l-42.73,26.89c-23.81,14.66-53,22.54-78.87,7.35,9.23-.23,18.18,1.94,27.62,1.09,32.67-2.95,61.58-32.57,93.98-35.33Z"/>
  <path d="M1149.05,1373.22c1,4.87-2.41,5.01-5.43,6.71-6.26,3.54-56.31,26.34-58.68,24.22-1-4.57,2.36-5.03,5.02-7.12,6.56-5.16,54.97-27.29,59.08-23.81Z"/>
  <path d="M1390.07,1357.76c.5,3.96-4.96,2.13-7.43,1.91-13.02-1.18-23.34-4.24-35.36-8.89-7.01-2.71-17.84-7.97-23.53-12.93,24.08-2.36,44.05,13.84,66.32,19.91Z"/>
  <path d="M1164.53,1382.07c.8,5.35-4.4,6.64-8,8.56-15.75,8.37-36.55,16.02-53.9,20.16,15.48-15.54,41.4-21.14,61.9-28.71Z"/>
  <path d="M1454.22,1468.28c5.78-18.28,17.66-34.1,29.84-48.59,7.52-.2-4.5,18.07-5.95,20.54-3,5.09-7.06,11.2-10.71,15.83-3.17,4.02-7.83,11.85-13.18,12.23Z"/>
  <path d="M1184.43,1390.91c.97,6.02-.71,6.5-5.03,9.32-10.88,7.11-29.19,10.1-41.37,14.99-.98-4.59,2.21-5.14,5.07-7.07,4.33-2.91,39.78-18.87,41.33-17.25Z"/>
  <path d="M1319.32,1342.27c1.63,1.47-7.26,12.31-8.89,14.3-3.07,3.74-24.9,28.94-28.68,25.47,3.86-5.29,6.95-11.44,11.1-16.51,3.82-4.66,13.76-16.43,17.6-19.99,3.01-2.78,4.35-4.06,8.87-3.27Z"/>
  <path d="M1438.76,1463.87c4.92-17.4,17.82-34.21,30.91-46.43-5.74,17.08-17.67,34.52-30.91,46.43Z"/>
  <path d="M1199.91,1404.18c.95,4.54-2.25,5.13-5.09,7.05-8.73,5.9-20,8.83-30.26,10.62-1.29-5.67,1.56-3.86,4.15-5.71,8.85-6.32,20.34-10.58,31.2-11.96Z"/>
  <path d="M1334.8,1348.9c2.92,2.68-23.09,26.47-26.5,28.73-2.25-7.66,21.85-33,26.5-28.73Z"/>
  <path d="M1555.92,1371.01c-.55,8.71-2.93,18.21-5.51,26.52-.94,3.03-1.95,10.57-5.51,11.04.7-10.24-1.27-33.66,11.02-37.57Z"/>
  <path d="M1467.49,1474.92c3.05-12.26,11.92-23.8,22.08-30.95.72,6.44-3.79,11.31-6.99,16.2-2.8,4.28-9.64,13.84-15.09,14.74Z"/>
  <path d="M1126.94,1364.38c5.62,4.81-23.87,13.74-26.51,13.25-1.44-4.63,6.62-7.92,9.56-9.2,5.44-2.38,10.81-4.63,16.95-4.05Z"/>
  <path d="M1352.49,1355.53c2.63,2.31-17.4,22.46-19.88,19.88-1.48-5.86,15.4-23.8,19.88-19.88Z"/>
  <path d="M1445.36,1430.72c1.57,1.66-4.36,10.85-5.73,13.05-1.87,3.01-5.33,10.18-9.72,9.04-2.62-5.28,11.67-26.1,15.46-22.09Z"/>
  <path d="M1502.86,1452.84c-4.69,9.39-10.93,18.48-19.88,24.3-1.2-5.26,16.22-27.85,19.88-24.3Z"/>
  <path d="M1513.9,1457.25c3.89,3.9-11.81,17.97-15.45,19.89-1.22-4.45,9.98-25.36,15.45-19.89Z"/>
  <path d="M1529.38,1459.46c2.67,2.44-12.61,16.37-15.45,17.68-1.95-5.37,10.56-22.15,15.45-17.68Z"/>
  <path d="M1374.61,1362.18c-1.84,6.64-8.38,11.23-15.47,11.02-3.28-2.96,11.48-13,15.47-11.02Z"/>
  <path d="M1560.34,1397.55l-6.6,17.66c.56-4.3-1.15-18.86,6.6-17.66Z"/>
  <path d="M1511.68,1375.41c-.29.31-1.45-.11-2.16,0-.31-4.03-.7-9.64,4.38-11.05.16,2.27-1.3,10.05-2.22,11.04Z"/>
  <path d="M760.23,1790.08l-150.37-1.17c-2.65,0-4.8,2.96-4.8,6.61h0c0,3.65,2.15,6.61,4.8,6.61l150.37,1.17c2.65,0,4.8-2.96,4.8-6.61h0c0-3.65-2.15-6.61-4.8-6.61Z"/>
  <path d="M1885.78,1790.08l-150.37-1.17c-2.65,0-4.8,2.96-4.8,6.61h0c0,3.65,2.15,6.61,4.8,6.61l150.37,1.17c2.65,0,4.8-2.96,4.8-6.61h0c0-3.65-2.15-6.61-4.8-6.61Z"/>
</svg>
