<svg id="Layer_1" data-name="Layer 1"
    xmlns="http://www.w3.org/2000/svg" viewBox="0 0 57.37 91.96">
    <defs>
        <style>.cls-1symbol{fill:#23324E;}</style>
    </defs>
    <path class="cls-1symbol" d="M-8.19,45.24H11.92a2.15,2.15,0,0,0,2.15-2.15V32.62A28.72,28.72,0,0,0,40.68,4V-32a2.15,2.15,0,0,0-2.15-2.15H-1.22A2.15,2.15,0,0,0-3.38-32V4.77A15.4,15.4,0,0,0,9.93,20v8.45A24.57,24.57,0,0,1-12.54,4V-32.1a2.07,2.07,0,0,0-2.07-2.07h0a2.07,2.07,0,0,0-2.07,2.07V4A28.72,28.72,0,0,0,9.93,32.62v6.32a2.15,2.15,0,0,1-2.15,2.15H-8.09a8.51,8.51,0,0,0-8.55,7.54,8.35,8.35,0,0,0,8.31,9.15H32l5.9-5.9.51-.52a8.67,8.67,0,1,0-12.82,0q.26.29.55.55l1.72,1.72H-8.34a4.2,4.2,0,0,1-4.16-4.75A4.3,4.3,0,0,1-8.19,45.24Zm9-40.47V-27.87A2.15,2.15,0,0,1,2.92-30H34.38a2.15,2.15,0,0,1,2.15,2.15V4A24.57,24.57,0,0,1,14.07,28.46V20A15.4,15.4,0,0,0,27.38,4.77V-19.47a2.15,2.15,0,0,0-2.15-2.15H12.08a2.15,2.15,0,0,0-2.15,2.15V15.81A11.25,11.25,0,0,1,.77,4.77Zm13.31,11V-15.33a2.15,2.15,0,0,1,2.15-2.15h4.85a2.15,2.15,0,0,1,2.15,2.15V4.77A11.25,11.25,0,0,1,14.07,15.81ZM32,41a4.52,4.52,0,0,1,3.37,7.52L32,51.92l-3-3L29,48.89q-.16-.15-.31-.31A4.52,4.52,0,0,1,32,41Z" transform="translate(16.68 34.17)"/>
</svg>