<svg id="Layer_1" data-name="Layer 1" xmlns="http://www.w3.org/2000/svg" viewBox="0 0 47.91 47.91"><defs><style>.cls-1{fill:#23324E;}</style></defs><title>TikTok-Button</title><path class="cls-1" d="M12.6-3.53h3.5C16.5-.65,18,1.17,21,1.41V4.77A7.77,7.77,0,0,1,16.17,3.4c0,.19,0,.34,0,.48,0,2,0,4,0,6A7.81,7.81,0,0,1,14,15.47,6.16,6.16,0,0,1,7.6,17.31a6.19,6.19,0,0,1-4.54-5A6.65,6.65,0,0,1,9.12,4.09L10.22,4V7.53c-.6.17-1.22.31-1.8.52a2.85,2.85,0,0,0-2.09,2.22,3.21,3.21,0,0,0,2.41,3.64,2.81,2.81,0,0,0,3.53-2,8.11,8.11,0,0,0,.34-2.35c0-3.79,0-7.57,0-11.36C12.6-2.35,12.6-2.93,12.6-3.53Z" transform="translate(11.7 16.83)"/><path class="cls-1" d="M12.25,31.08a24,24,0,1,1,24-24A24,24,0,0,1,12.25,31.08Zm0-46.31A22.36,22.36,0,1,0,34.61,7.12,22.38,22.38,0,0,0,12.25-15.24Z" transform="translate(11.7 16.83)"/></svg>