<svg id="Layer_1" data-name="Layer 1" xmlns="http://www.w3.org/2000/svg" viewBox="0 0 47.91 47.91"><defs><style>.cls-1{fill:#23324E;}</style></defs><title>YouTube-Button.svg</title><path class="cls-1" d="M12.76,14.51c-2.47,0-4.95.06-7.42,0-2.19-.07-3.23-.87-3.35-3A77.91,77.91,0,0,1,2,2.31C2.14.47,3.18-.39,5-.41c5-.07,10-.09,15.07,0,2.14,0,3.12,1,3.23,3.17.14,2.81.14,5.64,0,8.45-.11,2.3-1.2,3.24-3.51,3.3s-4.72,0-7.07,0ZM10.48,9.75l5.71-3L10.48,3.85Z" transform="translate(11.2 16.83)"/><path class="cls-1" d="M12.75,31.08a24,24,0,1,1,24-24A24,24,0,0,1,12.75,31.08Zm0-46.31A22.36,22.36,0,1,0,35.11,7.12,22.38,22.38,0,0,0,12.75-15.24Z" transform="translate(11.2 16.83)"/></svg>