<svg data-name="" xmlns="http://www.w3.org/2000/svg" viewBox="0 0 790.52 795.45"><title>body-final</title><g><path id="" data-name="" d="M168.6,94.4Zm218.5,319h0C388.3,414.1,387.8,413.8,387.1,413.4ZM33.9,409.1c9.2,1.1,17.6-6.8,19.3-15.4a14.29,14.29,0,0,0-1.4,2c-3.8,6.3-11,10.9-17.9,13.4Zm318.4-3.4c-.4-.3-.4-.3-.2-.2a47.26,47.26,0,0,1-11.8-11.8c1.7,8.5,10.2,16.5,19.3,15.4a50.54,50.54,0,0,1-7.1-3.3c.3.1.3.1-.2-.1Zm33.9,13.5Zm-33.7-13.4a2.19,2.19,0,0,0-.5-.3c.1.1.2.1.2.2.2,0,.3,0,.3.1Zm34.6,7.6c-2.6-1.6-1.1-.7,0,0-8.2-5.1-13.5-14.5-20-21.5-3.1-3.3-6.5-6.6-11.1-7.6-1.4-.3-4.9.1-5.7-.7a17.72,17.72,0,0,1-1.5-3.1c-.6-1.3-1.1-2.7-1.6-4.1a126.84,126.84,0,0,1-7.1-30.4c-.7-6.3-1-12.5-2.2-18.7a169.6,169.6,0,0,0-9.3-31.2,61.63,61.63,0,0,0-5.5-12.3,26.8,26.8,0,0,1-4.5-8.3c-1.3-4.9-.7-10.6-1.1-15.7-.4-5.3-.9-10.7-1.6-16q-1.95-15.45-5.4-30.6a22.38,22.38,0,0,1,.2-7.3c.2-2.7.4-5.5.4-8.2a105.23,105.23,0,0,0-.8-15.9c-1.2-9.7-7-18.3-12.1-26.4-5.6-8.8-14.6-12.3-24.5-14.2a104.57,104.57,0,0,0-15.8-1.7c-2.6-.1-5.1-.1-7.7-.1a3.69,3.69,0,0,1-3.2-1c-1-.8-2.1-1.5-3.2-2.3-4.3-3-8.8-5.7-13.3-8.4-1.2-.7-2.4-1.5-3.6-2.2-.6-.4-2.1-.9-2.4-1.5a4.87,4.87,0,0,1-.1-1.2l-1.5-14-.7-6.1a4.87,4.87,0,0,1-.1-1.2c.1-.3.9-.6,1.2-.8a11.56,11.56,0,0,0,2.8-2.6,26.81,26.81,0,0,0,3.9-8.6q2.1-6.3,3.9-12.6c4.9-18.3,7.3-40.9-3.3-57.9A34.09,34.09,0,0,0,209.7,4a60.49,60.49,0,0,0-18.5-1c-8.6,1.1-17.5,4.2-23.6,10.5-6.6,6.9-9.7,16.1-11,25.4-2.5,18.5,2.1,36.6,8.3,53.9a17.71,17.71,0,0,0,2.7,5.3,14.46,14.46,0,0,0,2.2,2.1,11.27,11.27,0,0,1,1.8,1.2,13,13,0,0,1-.4,3.9c-.5,5-1.1,9.9-1.6,14.9a14.72,14.72,0,0,1-.4,3.6c-.3.6-1.8,1.1-2.4,1.5-1.2.7-2.4,1.4-3.6,2.2-2.3,1.4-4.6,2.8-6.8,4.2s-4.4,2.8-6.5,4.2c-.9.7-1.9,1.3-2.8,2a4.6,4.6,0,0,1-3.6,1.3,142.63,142.63,0,0,0-16,.6c-9.4,1-20.5,3-27.7,9.8-3.4,3.2-5.7,7.7-8,11.6A85.32,85.32,0,0,0,85,174.7a51.68,51.68,0,0,0-2.3,15.1,138.88,138.88,0,0,0,.3,15.8,25.54,25.54,0,0,1,.2,7.3c-.6,2.6-1.2,5.3-1.7,7.9q-1.5,7.65-2.7,15.3a261.28,261.28,0,0,0-3.1,31.8c-.2,5-.6,9.4-3.6,13.6a44.59,44.59,0,0,0-4.3,7.7,160.84,160.84,0,0,0-13.7,50.9,144.65,144.65,0,0,1-5.3,29.1c-.7,2.3-1.5,4.6-2.3,6.8-.5,1.2-.9,2.5-1.5,3.7a12.48,12.48,0,0,1-1.6,3.5c-.9.8-4.3.4-5.7.7a14.91,14.91,0,0,0-6.3,3.1c-7.8,6.1-12.8,15.1-19.8,22a38,38,0,0,1-4.9,4.1c-1.5,1-3.1,2.3-3.2,4.2-.1,3.4,3.5,4.2,6.1,4a22.34,22.34,0,0,0,9.1-2.7,23.26,23.26,0,0,0,4.5-3.8c1.1-1.1,2.6-3,4.2-3.4a45,45,0,0,1-4.5,10c-2.1,4-4.3,8-6.6,11.9-1.8,3.1-5.7,7.5-4.1,11.3,3,6.8,9.5-1.7,11.5-4.5,1.7-2.4,3.3-4.9,5-7.3a24.78,24.78,0,0,1,5-6.2,21.27,21.27,0,0,1-1.6,6.6c-.8,2.6-1.8,5.1-2.7,7.7-1.5,4-4.5,9.5-3.4,13.9a4,4,0,0,0,4.5,3.3,3.58,3.58,0,0,0,1.1-.4c2.5-1.4,3.8-4.9,4.9-7.5,2.6-6,4.5-12.3,7-18.3.3,5.3-.8,10.6-1,15.9-.1,2.6-.3,6.5,1.7,8.6a3.69,3.69,0,0,0,5.3-.3,2.07,2.07,0,0,0,.6-1c1.8-3.2,1.5-7.8,1.8-11.5.3-2.8.5-5.6.9-8.3.2-1.2.2-4.8,1.5-5.5,1.4,1.3.3,6.1.1,7.8a41.35,41.35,0,0,0-.2,9.3c.4,2.8,2.8,6.4,5.9,3.9,2-1.6,2.5-4.9,2.8-7.3.3-2.7.3-5.5.5-8.2.3-3.8.8-7.6,1.2-11.4a22.13,22.13,0,0,1,1.5-5c1.1-3,2.2-6.1,3.1-9.2a34.57,34.57,0,0,0,1.7-9.6,15.26,15.26,0,0,0-.3-3c-.1-.6-.8-1.6-.8-2.2a17.65,17.65,0,0,1,1.8-4.5c3.2-7.5,6.7-15,10.4-22.3,8.7-17.3,18.3-34.3,24.3-52.8,3.2-9.9,4.5-20.1,7.1-30.1a269,269,0,0,1,8.8-26.7L126,273a74.46,74.46,0,0,1,2.9,11.5c.4,4.3-.1,8.9-.1,13.2,0,6.9-.1,13.7-.1,20.6a91.36,91.36,0,0,0-.1,11.7,25.06,25.06,0,0,0,1.6,4.6c1,3-.8,7.5-1.4,10.6-1.2,6.8-2.4,13.6-3.4,20.5-4,27.6-2.3,56-.4,83.7a426,426,0,0,0,13.4,81.7c3.1,11.6,6.6,23,6.9,35.1.2,10.2-2.1,20.3-4.5,30.2a112.83,112.83,0,0,0-3.3,40.9c1.6,13.4,5.5,26.4,9.4,39.3,3.7,12.3,7.5,24.5,11.3,36.8,2.9,9.5,6,19.1,8.4,28.8.8,3.1,2.2,7.2,1.6,10.4-1,5.5-4.7,11.2-7.5,16a37.64,37.64,0,0,1-10.6,12.5,9.68,9.68,0,0,0-3.9,3.6c-1.2,2.8,1,5,3.4,6.1a34.35,34.35,0,0,0,7.2,1.7,64.08,64.08,0,0,0,10.8,1.8,32.69,32.69,0,0,0,4.4.1c1.5-.1,2.9-.8,4.3-.9a.6.6,0,0,0,.4-.1,1.21,1.21,0,0,0,.5.5c.6.5.9,1.2,1.6,1.7a12.3,12.3,0,0,0,4.6,1.8c6,1.3,11.3-.4,13.6-6.4a9.86,9.86,0,0,0,9.1,6.9c3.6.1,9.3-.9,10.7-4.8,5.1,2.6,12.2,1,17.6-.1a72.74,72.74,0,0,0,8.1-1.7c2.2-.6,5-2,5.5-4.5.8-4-5.2-6.3-7.5-8.7a61.72,61.72,0,0,1-10.4-15.3c-2.2-4.2-4.9-8.8-4.3-13.7a88.88,88.88,0,0,1,3-12.6c2.3-8.2,4.8-16.3,7.3-24.4,3.7-12.2,7.5-24.4,11.2-36.5,3.9-12.8,7.7-25.6,9.2-38.9a110.87,110.87,0,0,0-3.2-39.7c-2.5-10.1-4.9-20.4-4.7-30.9.3-11.5,3.4-22.4,6.4-33.4,3.6-12.9,6.5-25.9,8.8-39.1s3.6-26.5,4.7-39.8c1.2-13.7,1.7-27.5,2-41.2.2-13.3.6-26.6-1.3-39.8-.9-6.5-2.1-13-3.3-19.5l-2.1-10.2c-.3-1.5-.7-3.1-1-4.6a11,11,0,0,1-.1-5.1A98.78,98.78,0,0,0,263,318c-.1-10.2-.1-20.4-.2-30.6a25.88,25.88,0,0,1,1.7-8.7l5.5-18.2,1.1-3.8c2.8,7.1,5.3,14.4,7.6,21.7,2.8,9,4.1,18.1,6.3,27.2,4.7,19,13.5,36.8,22.6,54,4.3,8.1,8.3,16.3,12.1,24.7a56.71,56.71,0,0,1,4.2,9.8c.3,1.3-.5,2.5-.7,4a21.79,21.79,0,0,0,.2,5.7,88.65,88.65,0,0,0,5.4,17.5,30.79,30.79,0,0,1,1.1,7.4c.4,3.6.9,7.3,1,11a25.31,25.31,0,0,0,1.3,8.6c1.2,3,5,5.1,6.9,1.2,1.4-3,.9-7.3.6-10.5-.2-1.6-.3-3.3-.4-4.9-.1-.9-.5-3.3.3-4.1,1.3.6,1.4,4.3,1.6,5.4.4,2.8.6,5.5.9,8.3.3,3.6,0,8.3,1.8,11.5a3.85,3.85,0,0,0,5,1.9,4.35,4.35,0,0,0,.7-.4c2.2-1.8,2-5.8,1.9-8.4-.1-5.4-1.3-10.9-1-16.3,2.6,6,4.4,12.3,7,18.3,1.1,2.5,2.4,6.3,5.1,7.6a4,4,0,0,0,5.2-2.3c.1-.3.2-.7.3-1,.9-4.5-2.1-9.9-3.6-14s-4.2-9.4-4.2-13.9c3.7,2.7,6.2,7.9,8.7,11.7,2,3,6.9,11.4,11.4,8,4.1-3.1-.2-8.7-2-11.8-2.2-3.7-4.3-7.5-6.3-11.3s-4.6-7.7-5.5-11.8c2.9.7,5.2,4.8,7.6,6.5a19.6,19.6,0,0,0,8.4,3.2c2.2.4,4.7.7,6.5-.9,2.6-2.2.5-5.4-2-6.9ZM168.6,94.4c.2.4.6,1.3,0,0-.2-.2-.1-.2,0,0a68.21,68.21,0,0,1-3.1-9c-1.7-5.4-3.2-10.9-4.4-16.5a83.42,83.42,0,0,1-.9-31.5c1.6-9.1,5.2-18,12.6-23.9,6.8-5.3,15.4-7,23.9-7.2a38.43,38.43,0,0,1,23,6.4c7.8,5.6,11.8,14.6,13.5,23.8a81.47,81.47,0,0,1-.5,31.5,142.3,142.3,0,0,1-7.3,25.7c-2,4.9-7.8,7.5-12.1,10-4.6,2.7-10.2,6.4-15.7,6.8s-11.5-3.5-16-6.1c-4.4-2.4-10.7-5.2-13-10Zm28.2,632.7a361.89,361.89,0,0,1-2.6-42.9c.1-7.1,1-14.1,1.4-21.1.4-7.3.5-14.6.2-21.8-.5-11.7-.3-23.3-1.4-34.9-.4-4.1-.9-8.1-1.4-12.2a37.79,37.79,0,0,1-.1-12.1c.8-3.8,2.5-7.3,3-11.2a50.62,50.62,0,0,0,0-12.3c-1-9.3.1-18.2,1-27.5.8,7.1,2.1,14.4,1.7,21.5-.4,6.7-2,13-.8,19.7a37.78,37.78,0,0,0,2.4,7.9,22.88,22.88,0,0,1,1,10.4c-.4,6.9-1.5,13.7-2.1,20.5-.8,9.9-.7,19.8-1.1,29.8-.2,6.2-.2,12.3,0,18.5.3,6.9,1.1,13.8,1.5,20.7C200,695.7,198.3,711.5,196.8,727.1ZM386.3,419.2h0c-1.3.2-.4.1,0,0a14.83,14.83,0,0,1-7.2-1.2c-3.8-1.3-6-4.1-8.9-6.7-1.3-1.2-5.7-4-6.3-.5a8.31,8.31,0,0,0,1.1,4,154,154,0,0,0,11.6,22,14,14,0,0,1,2.8,5.9c.3,4.9-4.5,0-5.6-1.3-4-5.1-6.9-11.4-11.7-15.8-2-1.9-4.5-1.7-4.5,1.4a21.45,21.45,0,0,0,1.3,6.1c1.1,3.7,2.5,7.2,3.8,10.8a51,51,0,0,1,2.6,7.8c.4,2.2-.6,6.1-3.1,3.2a31.49,31.49,0,0,1-4.1-8.2c-1.5-3.6-2.7-7.4-4-11-.6-1.6-1.8-7.3-4.2-7.4-2.9-.1-2.2,5.9-2.2,7.5.1,3.7.6,7.3.9,10.9.1,1.8.9,7.1-.9,8.4-2.9,2-3.2-6.6-3.3-7.7-.2-2.2-.4-4.5-.6-6.7-.2-1.9-.9-15.7-5.9-12.4-2.4,1.6-1.4,6.7-1.2,9a56.31,56.31,0,0,1,.4,8.2c-.1,1.8-1.1,6.2-2.8,2.6-1.5-3.1-1.2-6.7-1.4-10-.3-4-.8-8.1-1.2-12.1a17.4,17.4,0,0,0-.6-4.5c-1.6-5-3.7-9.7-5-14.8-1-4.2-2.2-9.9,2.3-12.3.7-.4,1.9-.9,1.1-1.9-.9-1.3-3.3.2-4.1.9-9.4-27.2-25.6-51.5-34.6-78.9a204,204,0,0,1-5.4-21.8,162.65,162.65,0,0,0-6.5-21.6c-2.1-5.7-4.7-11.3-7-16.9a5.85,5.85,0,0,1,0-3.7,8.33,8.33,0,0,1,.3-2.2c.4-1,1.8-1.8,2.5-2.7,4.9-6.4,5.1-16.1,4.5-23.7a56.67,56.67,0,0,0-2.2-12.3,16.6,16.6,0,0,1-1.5-6.2c.2-2.2.3-4.4.4-6.7-.4,1.9-.8,3.8-1.1,5.8a9,9,0,0,0,.2,4.6,64.63,64.63,0,0,1,1.6,11.7c.4,7.3.3,16.4-3.5,22.9-3.9,6.7-12.1,8.4-19.2,9.6-4.1.7-8.2,1.2-12.4,1.5-1.9.2-3.7.3-5.6.4a35.4,35.4,0,0,1-6.5.3c-1.9-.3-4.1-2.3-5.8-3.3-1.9-1.2-3.8-2.4-5.8-3.5-4.1-2.5-8.2-5-12.4-7.3,4.9,3.8,9.9,7.5,14.9,11.2a39.64,39.64,0,0,0,7.5,5.4c1.9.8,4.7.3,6.8.3a142.56,142.56,0,0,0,18.5-1.3,44.64,44.64,0,0,0,16-4.6c-.3,1.9-.6,3.7-1,5.6l-.1-.2-8.4,25.9a12.66,12.66,0,0,1-.6,1.8,30.34,30.34,0,0,0-.6,4.2c0,5.6.1,11.2.1,16.7.1,7.3.4,14.6.4,21.8v3.3c0,2.1-.8,4.1-.9,6.1a24.06,24.06,0,0,0,1.2,6.5c.6,3,1.2,5.9,1.8,8.9a241.82,241.82,0,0,1,5,35c.5,11.7-.1,23.7-.5,35.4s-1,23.5-2.1,35.1a419.42,419.42,0,0,1-12,70.4c-3,11.1-6.6,22.2-7.6,33.8a83.22,83.22,0,0,0,.7,19.3c1.7,11.6,5.6,22.7,7.1,34.3a107,107,0,0,1-1.9,34.3c-3.2,15.8-8.4,31.2-13,46.7-3.5,11.6-7,23.1-10.3,34.7-1.4,4.8-2.8,9.6-3.8,14.5a22.88,22.88,0,0,0-.9,9,38.06,38.06,0,0,0,4.3,10.4,81.86,81.86,0,0,0,8.5,13.4,33,33,0,0,0,4.8,5.1c1.3,1.1,2.8,1.8,4.2,2.9,3.4,2.7-2.7,3.8-4.6,4.1-5.7,1-11.2,3.1-17.1,2.8a11.27,11.27,0,0,1-3.2-.5c-1.4-.5-1.5-.9-1.6-2.3a6.71,6.71,0,0,0-.6-2.8,8.21,8.21,0,0,0-1.6-2.5c-2.3-1.3-.6,3-.4,3.6.5,1.7,1.2,4.3.2,5.8-1.1,1.7-4,2.2-5.8,2.4a8.72,8.72,0,0,1-7.2-1.4c-4.6-4-3.5-12-3.5-17.6,0-8.1,0-16.2.1-24.3.2-19.5,3.6-38.9,4.4-58.4.5-11.7-.9-23.3-1.3-35-.3-8.2,0-16.3.4-24.5.5-10.3.5-20.6,1.5-30.8a145.7,145.7,0,0,0,1.4-17.5,28.8,28.8,0,0,0-.6-5.9c-.7-2.5-2.1-4.7-2.7-7.2a43.31,43.31,0,0,1,.1-17.2,64.46,64.46,0,0,0-.5-17c-1.3-11.2-2.3-22.3-2.5-33.6-.3-15.9,0-31.7-.2-47.6l-.2-17.5-.1-7.6a14.79,14.79,0,0,1-.1-4.2c.3-.7,1.4-.4,2.3-.5a16,16,0,0,0,7-2.5,11.28,11.28,0,0,0,4.6-11.5,12.64,12.64,0,0,1-4.6,7.9,16.1,16.1,0,0,1-9.8,2.6,16.4,16.4,0,0,1-9.9-2.6,13.6,13.6,0,0,1-4.6-7.9,11.44,11.44,0,0,0,2.5,9.7,13.46,13.46,0,0,0,5.1,3.4,11.56,11.56,0,0,0,3.2.8c.4.1,1.9,0,2.1.2a8.09,8.09,0,0,1,0,2.2c0,1.7,0,3.3-.1,5l-.3,26.7c-.2,14.2.2,28.5-.1,42.7-.2,9.2-.7,18.4-1.7,27.6-.5,4.7-1.1,9.4-1.4,14.1a107.75,107.75,0,0,0,.6,13.9,43.14,43.14,0,0,1-1,13.9c-.9,3.5-2.3,6.4-2.6,10.1-.7,9.6,1.7,19.5,2.3,29.1.4,7.5.3,14.9.7,22.4.3,6.6.6,13.2.4,19.9-.2,9.6-1.5,19.1-1.6,28.7a286.07,286.07,0,0,0,1.6,29.3c1,9.7,2.4,19.3,3,29,.3,4.1.1,8.3.1,12.4v20.9c0,3,.1,6,0,8.9-.1,3.5-1.2,8.1-4.5,10a11.5,11.5,0,0,1-11.2-1.1,3.83,3.83,0,0,1-.9-4.3c.2-1,1.1-4.9,2.2-4.8a1.91,1.91,0,0,0-2.2-1.2,1.46,1.46,0,0,0-.9.6c-1.2,1.7-.6,5-1.9,6.5-1.1,1.4-4.3,1.2-5.8,1.2a51.79,51.79,0,0,1-7.8-.9c-2.4-.4-4.7-1-7-1.6-1.1-.3-2.3-.3-3.4-.6-.9-.3-3.2-1-3.3-2.2s2.1-2.1,3-2.7c7-4.6,11.7-12.6,15.4-19.8a46.06,46.06,0,0,0,4.5-10.4,17,17,0,0,0-.4-7.1c-2.4-12.5-6.5-24.6-10.1-36.8-2.3-7.9-4.7-15.7-7-23.6-5.5-18.8-12.3-37.9-12.9-57.7a108.7,108.7,0,0,1,3.7-30,141.37,141.37,0,0,0,4.9-28.1c.5-16-4.4-31-8.5-46.3a378.18,378.18,0,0,1-10.7-60.7c-1.9-20.3-2.8-40.7-3.2-61.1a221.64,221.64,0,0,1,1.2-30.5c1.2-10.3,2.9-20.6,4.8-30.9a31,31,0,0,0,1-5.3,20.56,20.56,0,0,0-2.2-6.3,3,3,0,0,0,.4.8c0-12.1.1-24.1.1-36.2V286a22.11,22.11,0,0,0-.5-2.5,54.59,54.59,0,0,1-1.9-6.6l-3.2-11.2c-.9-3.1-1.9-6.3-2.7-9.5a50.52,50.52,0,0,1-.8-6.8,41.15,41.15,0,0,0,16,5.1,150.49,150.49,0,0,0,19,1.5,24.16,24.16,0,0,0,7.1-.2,17.19,17.19,0,0,0,3.2-2.3c1.3-.9,2.5-1.8,3.8-2.7q7.95-5.7,15.6-11.7c-7.1,4-14,8.2-20.9,12.5a12.35,12.35,0,0,1-2.7,1.7,13.13,13.13,0,0,1-2.8-.1c-2.2-.1-4.4-.2-6.5-.4-4.2-.3-8.4-.7-12.5-1.3-7.1-1-15.9-2.2-20.8-8-4.7-5.6-5.1-14.5-5.1-21.5a77.14,77.14,0,0,1,1.3-13.5,17.53,17.53,0,0,0,.8-5.1c-.3-2.4-.9-4.8-1.4-7.1.1,1.8.2,3.6.3,5.3a14.88,14.88,0,0,1-.9,5.9,55.1,55.1,0,0,0-2.3,10.7c-.9,7.2-1,15.6,1.7,22.4a17.19,17.19,0,0,0,2.3,4.2c.6.9,1.7,1.6,2,2.6a29.37,29.37,0,0,1,.5,5.1,8.33,8.33,0,0,1-1.1,5.1c-1.1,2.6-2.2,5.2-3.3,7.9a194.16,194.16,0,0,0-7.2,21.1c-2,7.1-3,14.5-5,21.6-4.2,14.9-10.8,29.1-17.7,42.9a358.06,358.06,0,0,0-18.7,42c-.8-.6-4.1-2.6-4.3-.3-.1,1.2,1,1.2,1.8,1.5,2.5,1.2,2.8,4.3,2.7,6.8-.4,6.5-3,13.1-5.4,19a13.67,13.67,0,0,0-.9,4c-.4,4.5-1,9.1-1.3,13.6a56.53,56.53,0,0,1-.4,5.9c-.2,1.3-.5,4.4-1.8,5.2-2.5,1.5-2.1-5.5-2.1-6.6.1-3.8,1.1-7.7.6-11.5-.4-2.6-2.9-4.6-4.8-2s-1.9,6.7-2.3,9.7-.6,5.7-.8,8.6c-.1.9-1.1,10.9-3.6,7.2a8.73,8.73,0,0,1-.7-4.5c0-2.3.2-4.6.4-6.9a68.86,68.86,0,0,0,.6-11.1c-.1-1.2-.2-3.1-1.5-3.7-2.8-1.2-4.3,5.9-4.9,7.3-1.5,4-2.8,8.2-4.5,12.1-.8,1.7-2.8,8.5-5.3,8.3-4.6-.3,3.4-18.2,4-20,.7-2.1,4.3-10,1.3-11.7-1.6-.9-3.2.8-4.2,1.9a82.88,82.88,0,0,0-7.4,10.2c-1,1.5-2.1,3-3.2,4.4-1,1.2-2.5,3.6-4.2,3.9-4.2.8.2-6.6.8-7.7,2-3.3,3.8-6.6,5.7-9.9a84.11,84.11,0,0,0,6.8-14.2c.6-2,.5-4.3-2.5-3.8-3.9.7-6.3,5.7-9.6,7.6a17,17,0,0,1-9.3,2.4c-5.6-.7,2.2-5.4,3.4-6.5,7.7-6.8,12.7-16,20.5-22.7a14.22,14.22,0,0,1,11.8-3.5,20.88,20.88,0,0,1,4.3,1.1,9.17,9.17,0,0,0,2.3.9c2,.1,1.5-1.8.3-2.5a17.19,17.19,0,0,0-5.4-1.8,110.7,110.7,0,0,0,10.5-34.7c1.2-8,1.6-16,3.3-24a161.3,161.3,0,0,1,11.7-34.5,32,32,0,0,1,3.4-6.3,23.85,23.85,0,0,0,4.1-7.5,20.31,20.31,0,0,0,1.4-5.9c0-3.1.1-6.2.3-9.4a309.78,309.78,0,0,1,4.6-37.2c.5-3.1,1.1-6.1,1.8-9.2a15.88,15.88,0,0,0,.6-6.1,124.56,124.56,0,0,1-.8-18.3,48.37,48.37,0,0,1,2.8-16.9A105,105,0,0,1,97.7,158a25.37,25.37,0,0,1,11.5-10.7,58.55,58.55,0,0,1,16.9-4.4c13.6-1.9,27.6-.9,41.3-.7l-18.2-2.5c3.3-2.5,6.8-4.7,10.2-7,2-1.3,4.1-2.6,6.2-3.9a26.37,26.37,0,0,0,5.5-3.4c.7-.7.6-1.2.7-2.3.6-6.9,1.2-13.8,1.9-20.7a127.12,127.12,0,0,0,11.9,6.9,27.25,27.25,0,0,0,11.1,3.5,27.1,27.1,0,0,0,11.7-3.6q6.15-3.15,12-6.9c.6,6.9,1.2,13.8,1.9,20.7.1,1.1,0,1.7.7,2.4a28.08,28.08,0,0,0,5.5,3.4c1.8,1.1,3.6,2.3,5.4,3.4,3.7,2.4,7.5,4.8,11,7.5l-18.2,2.5c10.8-.1,21.8-.7,32.6-.1s24.2,2,32.4,9.6c4.1,3.8,6.9,9.7,9.5,14.6a42.8,42.8,0,0,1,5.8,15.5,110.42,110.42,0,0,1,.6,18.2c-.1,3.1-.4,6.1-.7,9.1a17.62,17.62,0,0,0,.5,6.1,309.61,309.61,0,0,1,5.9,37c.6,6.2.9,12.5,1,18.7a24.1,24.1,0,0,0,5.4,13.3c3.2,4,5.1,9.9,7,14.7a173.51,173.51,0,0,1,6,17.6,173.77,173.77,0,0,1,4.8,27.8,113.4,113.4,0,0,0,11.2,39.4c-1.4.3-5.5.9-6.4,2.5-1.5,2.7,2.4,1.3,3.2,1a15.48,15.48,0,0,1,16,1.9c5.9,4.8,10.2,11.4,15.1,17a55.31,55.31,0,0,0,7.7,7.6c.7,1.3,6.2,4.7,2,5.5Zm-190.9-88c-.2-1-.3-3,1.1-3.4-2.3-1.5-3.6,2.4-3.4,4.2.5,4.6,6.8,3.2,4.9-.8.2.2-2,3.5-2.6,0ZM177.2,581.6Zm0,0c-.3.1-.2.1,0,0a15.83,15.83,0,0,1-18.6-4.3,18,18,0,0,1-2.8-17.7c-5.1,7.4-2.3,18,5,22.8s18.3,2.8,22.5-5.3a20.54,20.54,0,0,1-6.1,4.5c.5-.2,1.3-.6,0,0Zm33.1-4.5c4.2,8.1,15.1,10.2,22.5,5.3,7.2-4.8,10.1-15.5,5-22.8a17.72,17.72,0,0,1-7,21.3,16.56,16.56,0,0,1-20.5-3.8Z" transform="translate(-3.37 -2.58)" style="fill:#5b685a;stroke:#000;stroke-miterlimit:10;stroke-width:0.25px"/></g><g id="Gruppe_24" data-name="Gruppe 24"><path id="Pfad_2" data-name="Pfad 2" d="M535.65,300.1a6.89,6.89,0,0,1-1.5.7,7.49,7.49,0,0,1-1.6.5,9.85,9.85,0,0,1-1.7.2,9.7,9.7,0,0,1-1.7-.1c-.6-.1-1.1-.1-1.6-.2l-1.5-.3c-.9-.2-1.7-.5-2.3-.6a6.59,6.59,0,0,1-.9-.2s.2.2.7.6a14.29,14.29,0,0,0,2,1.4,9.5,9.5,0,0,0,3.3,1.3,7.47,7.47,0,0,0,2,.3,16.2,16.2,0,0,0,2.2-.1,17.23,17.23,0,0,0,2.1-.7,9.39,9.39,0,0,0,1.8-1.2,8.64,8.64,0,0,0,1.3-1.4c.3-.5.6-.9.9-1.5a9,9,0,0,0,.9-3.3,24.33,24.33,0,0,1-2,2.5A11.67,11.67,0,0,1,535.65,300.1ZM610,187.6s.1,1.1.2,3.1.2,4.8.3,8.1,0,7.3-.2,11.4a45.23,45.23,0,0,1-.8,6.3q-.75,3.15-1.8,6.3a66,66,0,0,1-5.4,11.8,42.8,42.8,0,0,1-6.8,8.9,18,18,0,0,1-6.6,4.3,14.16,14.16,0,0,1-2.2.7l-.8.2.8-.1a16.8,16.8,0,0,0,9.6-4.3,36.22,36.22,0,0,0,7.6-8.9,60.34,60.34,0,0,0,5.8-12,37.92,37.92,0,0,0,1.8-6.6,49.27,49.27,0,0,0,.7-6.6,90,90,0,0,0-.4-11.6C611.15,195,610.65,191.3,610,187.6Zm9.2,83.6c-.1-3.2-.3-6-.4-7.9s-.2-3-.2-3-.1,1.1-.2,3-.3,4.6-.4,7.9-.3,7-.4,11.1-.1,8.4-.1,12.7,0,8.7.1,12.7.3,7.9.4,11.1.3,6,.4,7.9.2,3,.2,3,.1-1.1.2-3,.3-4.6.4-7.9.3-7,.4-11.1.1-8.4.1-12.7,0-8.7-.1-12.7S619.25,274.5,619.15,271.2ZM604,572.6c-5.9-6.4-16.3-5.3-22.1.5.7-.2,1.4-.5,2.1-.7,6.1-2.8,13.8-2,20,.2Zm46.5-324.8a20.91,20.91,0,0,1-6.6-4.3,36.89,36.89,0,0,1-6.8-8.9,63,63,0,0,1-5.4-11.8,32.64,32.64,0,0,1-1.8-6.3,45.23,45.23,0,0,1-.8-6.3c-.2-4.1-.3-8.1-.2-11.4s.2-6.2.3-8.1.2-3.1.2-3.1a106,106,0,0,0-1.6,11.1,89.34,89.34,0,0,0-.4,11.6,49.27,49.27,0,0,0,.7,6.6,40.49,40.49,0,0,0,1.8,6.6,66.38,66.38,0,0,0,5.8,12,40.3,40.3,0,0,0,7.6,8.9,19.82,19.82,0,0,0,7.3,3.9,15.72,15.72,0,0,0,2.3.4l.8.1-.8-.2a22.35,22.35,0,0,1-2.4-.8Zm128.4,160.1a14.48,14.48,0,0,0,8.6,3.2,6.78,6.78,0,0,0,5.6-1.7c1.8-2.3-.1-4.9-2.2-6,.5.3.7.4,0,0-8.1-4.2-12.8-12.3-19.4-18.3a29.67,29.67,0,0,0-12.3-7.6c-1.5-.4-3.3,0-4.6-.4-1.7-.5-3-4.9-3.7-6.4-4.3-10.7-6.4-22.6-9.1-33.8-3.3-13.6-6.7-28.6-15.2-40.1a58.92,58.92,0,0,1-7.2-10.2,39.54,39.54,0,0,1-2.8-10.2c-1.5-9.7-3.6-19.2-5.6-28.8-1.9-9.1-4.2-18.2-5.7-27.4-.9-5.4-1.4-11-1.8-16.4-.3-3.5,0-7-.4-10.5a43.53,43.53,0,0,0-4.3-14.1c-4.9-9.3-13.3-15.9-22.6-20.5a84.35,84.35,0,0,0-14.5-5.4c-4.9-1.4-10.4-1.7-15-3.7a13.58,13.58,0,0,1-7.9-9.8,54.52,54.52,0,0,1-.1-7,18.19,18.19,0,0,1,0-3.3c.1-1.4.6-1.5,1.7-2.6a46.68,46.68,0,0,0,8-11.2,81.28,81.28,0,0,0,8.2-29.7c1-10.8,1-21.9-2.6-32.3a35.35,35.35,0,0,0-14.1-18.8c-8.7-5.6-20-6.8-30.1-4.9a33.73,33.73,0,0,0-20.2,11.7c-6.7,8.4-9.2,19.4-9.6,30a104.32,104.32,0,0,0,3.4,30.5,68.39,68.39,0,0,0,5.8,14.6,50.68,50.68,0,0,0,3.4,5.5c1.3,1.8,3.1,3.1,4.5,4.9,1.1,1.3.6,3.5.6,5.2,0,2.4.2,4.9,0,7.3a12.85,12.85,0,0,1-5.5,9c-4.2,2.9-10.1,3-15,4.3-19.6,5.2-39.1,16.7-43,38.2a98.68,98.68,0,0,0-.7,12.2c-.2,2.5-.5,5-.8,7.5-.5,5.3-1.3,10.6-2.3,15.8-2.2,10.5-4.5,20.9-6.6,31.4-1.1,5.3-2.2,10.7-3.1,16a56.09,56.09,0,0,1-2.3,10.8c-2.4,6.2-7.4,10.6-10.8,16.2-7.7,12.8-10.7,28.2-14.2,42.6-1.1,4.3-2.1,8.6-3.2,12.9a110,110,0,0,1-3.7,12.4,51.71,51.71,0,0,1-2.8,6.4c-.7,1.2-.9,1.7-2,1.9-.9.2-2,0-2.9.2-8.8,1.5-15.6,9.7-21.1,16.1a41.8,41.8,0,0,1-9.5,8.8c-1.8,1.1-4.1,1.9-4.9,4.1a3.14,3.14,0,0,0,1.2,3.7c2.8,2.1,7.8,1,10.7-.3a13.72,13.72,0,0,0,4.5-3.5c.6-.7,1.9-2.9,3-2.5a13,13,0,0,1-1.8,4.6c-1.2,2.6-2.6,5-4,7.5-3,5.3-6.8,10.3-9.6,15.7-1,1.9-2.2,5.4.4,6.6s4.8-2,6.1-3.7c3.2-4.1,6.3-8.4,9.2-12.7-2.3,5-5.1,9.8-7.3,14.9-1.1,2.5-2.8,5.9-2.3,8.7a3,3,0,0,0,3.4,2.6,3.36,3.36,0,0,0,1.4-.5c4-2.5,5.8-9.1,7.6-13.1s3.4-8.9,6.3-12.2a39.86,39.86,0,0,1-3.7,11.2c-1.1,2.6-2.2,5.3-3.1,8-.6,1.9-1.6,4.8-.6,6.7,1.2,2.2,3.9,1.7,5.5.2a18.46,18.46,0,0,0,3.5-5.9c2.1-5.1,4-10.3,6.4-15.2a62.73,62.73,0,0,0-2.4,12.2c-.1,2.6,1.6,6,4.7,3.8,1.9-1.3,2.7-4.1,3.5-6.2,1.4-4,2.4-8.1,3.6-12.2a67.89,67.89,0,0,1,5.2-11.3,67.2,67.2,0,0,0,6-16.2,15.06,15.06,0,0,0,.1-7,3,3,0,0,1-.3-1.6,5.67,5.67,0,0,1,1.2-1.8c1-1.5,2-3.1,3-4.6,4.6-7,9.1-14.1,13.5-21.2,5.1-8.2,10-16.4,14.7-24.9A91.13,91.13,0,0,0,543,311.2a49.43,49.43,0,0,1,4.5-14.1,136.49,136.49,0,0,0,7.1-13.7,278.7,278.7,0,0,0,9.5-26.5c1.4,7.2,3.4,14.2,5.3,21.3a52,52,0,0,1,.5,23.2c-1.9,10.6-6,20.4-10.4,30.1a188.63,188.63,0,0,0-10.6,30.1,166,166,0,0,0-3,65.1c3.1,21.7,9.4,42.9,15.2,64,5.7,20.7,11.4,41.9,11.6,63.6a246.21,246.21,0,0,1-1.1,25.8c-1,10.9-3.1,21.7-3.7,32.7A132.58,132.58,0,0,0,571,646c2.2,10.9,4.7,21.7,7.3,32.5,2.6,11,5.3,22,7.8,33.1a279.16,279.16,0,0,1,6.1,32.6,22.72,22.72,0,0,1,.2,7.8c-.2.8-2.9,10.3-3.8,12.1a25.22,25.22,0,0,1-4.1,5.6,84.91,84.91,0,0,0-5.6,6.8,19.48,19.48,0,0,0-2.4,4.5,9.75,9.75,0,0,0-.5,5.6,7.62,7.62,0,0,0,3.6,4.8,9.61,9.61,0,0,0,2.8,1.1l1.5.3,1.3.1a13.75,13.75,0,0,1,4.9.6,40.18,40.18,0,0,1,4.6,2.4,17.86,17.86,0,0,0,5.6,1.5,26.35,26.35,0,0,0,2.8.2,24.3,24.3,0,0,0,2.7,0,15.05,15.05,0,0,0,10.5-3.7,10.52,10.52,0,0,0,2-2.7,10.52,10.52,0,0,0,2,2.7,15.53,15.53,0,0,0,10.5,3.7h2.7c.9-.1,1.9-.1,2.8-.2a18.62,18.62,0,0,0,5.6-1.5,40.18,40.18,0,0,1,4.6-2.4,19.93,19.93,0,0,1,4.9-.6l1.3-.1a8,8,0,0,0,1.5-.3,9.61,9.61,0,0,0,2.8-1.1,7.89,7.89,0,0,0,3.6-4.8,9.75,9.75,0,0,0-.5-5.6,19.48,19.48,0,0,0-2.4-4.5c-1.9-2.6-3.9-4.7-5.6-6.8a27.76,27.76,0,0,1-4.1-5.6c-.9-1.8-3.7-11-3.9-11.7a23.15,23.15,0,0,1,.1-8.7c.6-5.5,1.6-10.9,2.7-16.3,2.2-10.9,4.7-21.8,7.3-32.6,5.2-21.6,11.4-43.4,13.9-65.4a137.52,137.52,0,0,0-1.3-33.3,280.82,280.82,0,0,1-2.9-33,206.14,206.14,0,0,1,7.2-56.3c10.8-42.4,26.6-85.1,19.6-129.6a176.39,176.39,0,0,0-8-31.2c-3.5-10-8.5-19.3-12-29.3s-6.2-21-5-31.7a74.57,74.57,0,0,1,2.9-12.2c1.4-5.2,2.7-10.6,3.7-15.9,2.4,7.8,5.1,15.6,8.2,23.1a99.46,99.46,0,0,0,6,12.8,48.23,48.23,0,0,1,5.5,11.7c1.2,4.2,1.8,8.6,3,12.8a69.59,69.59,0,0,0,5.2,12.6c4.3,8.6,9.3,16.9,14.3,25.1,4.6,7.6,9.4,15.2,14.2,22.6,2,3.1,4,6.2,6.1,9.2a9.06,9.06,0,0,1,1.1,1.6c.3.8.1.8-.1,1.6a9.63,9.63,0,0,0-.4,3.4c.2,9.9,6.3,18.9,10.5,27.5a69.5,69.5,0,0,1,3.5,11.8c.9,3.1,1.7,6.8,3.8,9.4a2.89,2.89,0,0,0,4.1,1.1,3,3,0,0,0,1.5-2.8c.4-4.4-1.4-9.1-2.3-13.3,2.4,4.9,4.2,10,6.4,15.1a20.6,20.6,0,0,0,3.5,6.1,3.38,3.38,0,0,0,4.8.5c.2-.2.5-.4.6-.7,1.1-1.9.1-4.8-.5-6.7-.8-2.6-1.9-5-2.9-7.5-1.5-3.6-3.5-7.7-3.9-11.6,3,3.4,4.7,8.5,6.5,12.6,1.8,3.9,3.6,10.6,7.6,12.9a3.08,3.08,0,0,0,4.2-1,2.3,2.3,0,0,0,.4-1.4c.4-2.8-1.2-6-2.3-8.5-2.2-5.1-5-9.9-7.3-14.9,2.8,4.3,5.9,8.4,9,12.5,1.3,1.6,3.6,4.9,6,4,2.9-1,1.7-4.8.7-6.7-2.7-5.3-6.4-10.2-9.4-15.4-1.5-2.6-2.9-5.2-4.2-7.9a13,13,0,0,1-1.8-4.6c1.8-.5,4.1,3.2,5,4ZM618.55,748.7c-.8-.2-2.2-3.6-2.8-4.5a7.19,7.19,0,0,1-1.2-2.1c-.7-2-.2-5.3-.2-7.4-.1-4.4-.2-8.7-.3-13.1-.2-9.9.1-19.8.7-29.7.6-10.5,2.2-21,2.9-31.5a442.31,442.31,0,0,0-.8-64.1c-.4-5.4-.9-10.8-1.4-16.2a31.44,31.44,0,0,1-.3-7.5c.4-2.5.7-5,1-7.5a272.46,272.46,0,0,0,2.1-31.2c.1-11.8-1.2-23.6-1-35.4.2-9.5,1.1-19,1.2-28.5.1,9.1,1,18.1,1.2,27.2.2,9.4-.7,18.8-.9,28.2a280,280,0,0,0,1.2,31.7c.5,4.9,1.1,9.9,1.8,14.8.8,5.2-.4,10.7-.9,16a507.92,507.92,0,0,0-2,64.1c.4,10.2,1.9,20.4,2.7,30.6.9,10.6,1.4,21.2,1.4,31.9q0,8.7-.3,17.4c-.1,2.1-.1,4.1-.2,6.2a11.58,11.58,0,0,1-.5,4.9C621.05,744.9,619.65,746.8,618.55,748.7Zm154.8-340.3a119.91,119.91,0,0,0,7.7,14.1c1.2,2,2.5,4.1,3.8,6.1,1.1,1.7,3.9,4.6,3.5,6.7-.3,1.9-2.5-1.1-3.1-1.8-2.3-2.8-4.4-5.7-6.5-8.7-1.2-1.7-6-11-8.5-7.2-1.3,2,2.1,7,3,8.6,2.6,5.3,6,10.6,7.5,16.4.3,1.3.7,4.2-1.3,2.6s-3.1-4.9-4.1-7c-2.5-5.5-4.5-11.6-8.1-16.5-.9-1.2-2.5-3.1-4.1-1.9a2.9,2.9,0,0,0-.8,2.8c.4,5.8,3.9,11.7,5.9,17,.6,1.7,2.3,4.9,1.9,6.8-.4,1.5-1.6.6-2.4-.3a32,32,0,0,1-3.8-7.9c-1.3-3.2-2.6-6.4-4-9.6-.8-1.7-2.1-5.9-4.2-6.6-3.9-1.3-1.1,7.5-.8,8.6a70.76,70.76,0,0,1,1.6,8c.2,1.9-.2,4.1-1.8,1.5-3.7-6-3.4-13.7-6.4-19.9-2.3-4.7-4.9-9.1-6.9-14-1.7-4.2-4.6-10.1-3.2-14.8a4.1,4.1,0,0,0-.4-4c-5.8-9.7-11.6-19.3-17.3-29-7.3-12.5-15.7-25.2-20.7-38.8-2.4-6.4-3-13.3-5.4-19.7s-6.8-12-9.6-18.2-5.3-12.5-7.7-18.8c-.8-2-1.5-4.1-2.3-6.1a18.16,18.16,0,0,1-1.4-3.9,25.18,25.18,0,0,1,.8-5.4c.3-1.7,6.2-31.1,4.2-31.8s-9.6,48.9-12.2,57.8a60.35,60.35,0,0,0-3,14.5,76.36,76.36,0,0,0,4.9,29.2c3.3,9.4,7.9,18.3,11.3,27.6a158.37,158.37,0,0,1,10.2,58.6c-.6,20.8-5.1,41.2-10.5,61.2-5.3,19.8-11.6,39.4-15.5,59.5a196.68,196.68,0,0,0-1.5,60.3c1.2,10.4,3.1,20.6,3.5,31.1a135,135,0,0,1-3.3,31c-4.1,20.5-9.3,40.7-13.9,61.1-2.2,9.8-4.4,19.6-5.9,29.5-.7,4.3-1.8,9.5-1.3,13.9a101.37,101.37,0,0,0,4.7,14.1,27.76,27.76,0,0,0,4.4,6.2c1.7,2,3.7,4.2,5.4,6.6a10.35,10.35,0,0,1,2.5,7.9c-.6,2.6-3.5,4.3-6.7,4.2a17.58,17.58,0,0,0-5.6.7,32.32,32.32,0,0,0-4.9,2.5,13.05,13.05,0,0,1-4.7,1.2c-.8.1-1.7.1-2.5.2a22.53,22.53,0,0,1-2.6,0,12.39,12.39,0,0,1-8.5-2.9c-1.4-1.4-4.1-6.5-2.5-16.8.2-1.3-.7-19.1,1.5-25.6a28.67,28.67,0,0,1,2.8-4.8,7.35,7.35,0,0,0,1-4.1c.1-4.6.3-9.2.5-13.8a391,391,0,0,0-.8-40.5c-.6-8-1.6-16-2.3-24-.7-8.3-.8-16.7-.8-25,.1-16.7,1.1-33.4,2.4-50,.3-4,1.2-8.3,1.1-12.4-.3-3-.7-5.9-1.3-8.9a243.69,243.69,0,0,1-2.1-24.3c-.7-15.1,1-30.1.5-45.2-.3-7.3-1-14.6-1.2-21.9-.2-8.2-1.9-55.2-1.9-57.3a62.16,62.16,0,0,0,5.8,4.3,34,34,0,0,0,5,2.6,40.56,40.56,0,0,0,5.9,1.9A50.48,50.48,0,0,0,643,427c1.1.1,2.2.2,3.3.2s2.1.1,3.4,0l3.4-.2c1.1-.1,2.3-.4,3.4-.5s2.2-.5,3.3-.8a28.27,28.27,0,0,0,3.1-1.1,15.5,15.5,0,0,0,2.9-1.4,22.61,22.61,0,0,0,2.6-1.6,21,21,0,0,0,4.2-3.7A23.84,23.84,0,0,0,677,411a14,14,0,0,0,.9-2.9,21.28,21.28,0,0,1-1.6,2.5,27.64,27.64,0,0,1-5.3,5.5,14.29,14.29,0,0,1-2,1.4,25.29,25.29,0,0,1-2.2,1.3,18.89,18.89,0,0,1-2.5,1.1,14.26,14.26,0,0,1-2.7.9,28.64,28.64,0,0,1-2.8.7,26.8,26.8,0,0,1-3,.5c-1,.1-2,.3-3,.3l-3.1.1q-3.15,0-6.3-.3c-2-.2-3.9-.5-5.9-.9a46.08,46.08,0,0,1-5.3-1.5,36.23,36.23,0,0,1-4.5-2,24.94,24.94,0,0,1-6-4.2c-.7-.6-1.2-8.8-1.2-12.3s-.3-7.3-.4-11c-.3-7.5-.5-14.8-.8-20.5s-.4-9.2-.4-9.2h-.4s-.2,3.6-.4,9.2-.5,13.1-.8,20.6c-.1,3.8-.4,7.5-.4,11s-.5,11.7-1.2,12.3a32.2,32.2,0,0,1-6,4.2c-1.5.7-3,1.4-4.5,2a52.59,52.59,0,0,1-5.3,1.5,55.83,55.83,0,0,1-5.9.9q-3.15.3-6.3.3l-3.1-.1c-1,0-2-.2-3-.3s-2-.3-3-.5a22.91,22.91,0,0,1-2.8-.7c-.9-.2-1.8-.6-2.7-.9a18.89,18.89,0,0,1-2.5-1.1,15.92,15.92,0,0,1-2.2-1.3,14.29,14.29,0,0,1-2-1.4,27.64,27.64,0,0,1-5.3-5.5c-.6-.8-1.1-1.7-1.6-2.5a14,14,0,0,0,.9,2.9,20.84,20.84,0,0,0,4.4,6.9,21.42,21.42,0,0,0,4.2,3.7,14,14,0,0,0,2.6,1.6,25.91,25.91,0,0,0,2.9,1.4c1,.4,2.1.8,3.1,1.1a19.81,19.81,0,0,0,3.3.8c1.1.2,2.2.4,3.4.5l3.4.2c1.3.1,2.2,0,3.4,0s2.2-.1,3.3-.2A50.48,50.48,0,0,0,601,426a40.56,40.56,0,0,0,5.9-1.9,34,34,0,0,0,5-2.6c1.9-1.3,3.7-2.7,5.5-4.1.1,6.1-1.1,52.5-2,69-.3,6-.9,11.8-.8,17.8.1,8.3.8,16.5.9,24.8s-.3,16.6-1.1,24.9c-.3,3.9-.8,7.8-1.3,11.6-.4,3.1-1.2,6.2-1.3,9.3a97.31,97.31,0,0,0,1.1,12c.3,4.1.6,8.2.9,12.4.6,8.4,1,16.8,1.3,25.2a351.35,351.35,0,0,1-1.7,49.2,372.45,372.45,0,0,0-2,48.4l.3,9.9c.1,2.8.2,5.5.3,8.3a7.86,7.86,0,0,0,1,4.5,19.42,19.42,0,0,1,2.8,4.8c1.9,7.9,1.9,24.9,2,26.2.2,10.5-1.4,14.9-2.8,16.2a12.56,12.56,0,0,1-8.5,2.9h-2.6c-.8-.1-1.7-.1-2.5-.2a15.5,15.5,0,0,1-4.7-1.2,45.15,45.15,0,0,0-4.9-2.5,17.58,17.58,0,0,0-5.6-.7c-3.3.1-6.2-1.5-6.7-4.2a10.35,10.35,0,0,1,2.5-7.9c1.7-2.4,3.7-4.6,5.4-6.6a26,26,0,0,0,4.4-6.2,88.88,88.88,0,0,0,4.5-14.1c.5-4.4-.6-9.6-1.3-13.9-.8-4.9-1.7-9.9-2.7-14.7-4.2-20.4-9.4-40.6-13.9-60.9-2.3-10.2-4.6-20.5-5.8-30.9a119.92,119.92,0,0,1,.8-31.1c2.8-20.1,5-40.5,2.7-60.8s-8.2-39.9-13.7-59.4c-5.6-19.9-11.1-40-13.4-60.6a158.45,158.45,0,0,1,4.7-60.1,191,191,0,0,1,10-27.4,125.62,125.62,0,0,0,9.5-28.5,55.4,55.4,0,0,0-.6-24.3c-1.5-5.8-3.3-11.5-4.7-17.4-1.1-4.8-7.1-45.7-8.9-45.2s3,25.9,3.6,27.4a30.79,30.79,0,0,1,.8,5.3,10.42,10.42,0,0,1,.2,5.8c-.6,1.7-1.2,3.4-1.9,5.1-2.2,5.9-4.5,11.8-7,17.7a170.86,170.86,0,0,1-9.6,18.5c-3.4,6.1-4.2,12.7-6,19.3-3.8,14-12.4,26.7-19.6,39.1-6.6,11.3-13.3,22.4-20,33.6-1.4,1.9-.4,3.4-.2,4.9a21.11,21.11,0,0,1-1.5,8.6,96.23,96.23,0,0,1-8.1,17.9,52.47,52.47,0,0,0-3.6,11c-.6,2.1-1.2,4.3-1.9,6.3a13.2,13.2,0,0,1-2.1,4.5c-2.3,2.4-1.1-3.8-1-4.7.6-3.5,1.7-6.9,2.3-10.4.2-1.3.6-3.9-1.4-3.8-.8,0-1.3.7-1.8,1.3a28.1,28.1,0,0,0-2.9,5.4c-1.8,3.9-3.3,7.9-4.9,11.9-.5,1.3-2.7,7.5-4.7,6.7-1.1-.4-.2-2.7-.1-3.4,1.9-7.1,6.4-13.6,7.3-20.9.1-1.2.2-2.7-1.1-3.3-2.3-1-4.1,2.6-5,4.1-3.7,6.4-5.6,13.9-9.8,20.1-1,1.4-3.1,3.4-2.8.2a30.38,30.38,0,0,1,3.2-8.7c1.7-3.7,3.7-7.1,5.4-10.8a17.19,17.19,0,0,0,2.3-5.8,1.81,1.81,0,0,0-1.6-2h-.3c-2.4-.1-4.6,4.9-5.8,6.7-2.2,3.2-4.6,6.4-7,9.5-.6.8-4.4,5.4-3.4,1.5a27.36,27.36,0,0,1,4.1-7c1.6-2.6,3.2-5.1,4.7-7.7,2.7-4.5,6.3-9.8,7.3-15,.6-3.1-2.8-3.9-5-2.1-1.3,1.1-2.2,2.5-3.4,3.6a11.38,11.38,0,0,1-6.3,2.6c-1.8.3-7.1-.2-3.5-2.8,1.8-1.3,3.9-2.2,5.6-3.7a50,50,0,0,0,4.7-4.5c5.7-6.2,11.2-14,19.4-17.2,2.6-1,6.7,0,8-2.9a44.64,44.64,0,0,0,5.8-13c1.9-5.9,3.5-12,5.1-18,3-11.5,5.7-23.2,10.3-34.3a59.67,59.67,0,0,1,6.2-11.7c1.8-2.6,4-4.8,5.8-7.4,5.8-8.2,6.3-18.3,8.2-27.9,2.5-12.5,5.3-24.9,7.9-37.3a204.12,204.12,0,0,0,2.9-22.2c.3-2.7.1-5.4.2-8.1a39.57,39.57,0,0,1,3.1-14.4c4.2-9.9,12.7-17,22.1-21.7a88.37,88.37,0,0,1,17.8-6.5c6.1-1.6,12.6-2.1,16.8-7.3,4.4-5.4,3.4-11.3,3.3-17.8-.1-2.4-.1-2.4-3.4-6.2-6.1-7-9.4-15.9-11.5-24.8a87.58,87.58,0,0,1-2-29.3c1-9.2,2.9-18,8.8-25.4a31.92,31.92,0,0,1,24.4-11.3c9.6-.3,19.3,1.7,26.4,8.7,6.4,6.3,9.7,15.3,10.8,24.1,2.1,18.3.2,39.8-10.8,55.2-2.9,4-6,5.9-6.1,9.5-.1,5.6-.9,10.6,2.2,15.5s7.6,6.7,13,7.9a117.33,117.33,0,0,1,16.6,4.9c9.8,3.8,19.3,9.7,25.3,18.6a39.05,39.05,0,0,1,5.7,14,96.11,96.11,0,0,1,.7,11.9c1,18.1,5.6,35.8,9.4,53.5,1.3,6.3,2.7,12.5,3.7,18.8A47.36,47.36,0,0,0,716,287c2.8,6.7,8.4,11.4,11.9,17.8,6.3,11.7,9.4,24.8,12.7,37.5,1.7,6.8,3.4,13.7,5.5,20.4,1.6,5.2,3.2,10.8,6.5,15.2,2.4,3,5.8,1.6,9.6,3.4,6.3,3.1,11.2,8.7,15.7,13.9a58.65,58.65,0,0,0,6.5,6.7,31.94,31.94,0,0,0,4.4,3.1c.8.5,3.6,1.5,3,2.9-.8,1.9-5,.9-6.2.6-3.8-.9-5.3-3.2-7.9-5.7-1.6-1.5-5.3-2-5.4,1A7.84,7.84,0,0,0,773.35,408.4ZM710.75,301l-1.5.3c-.5.1-1.1.1-1.6.2a9.7,9.7,0,0,1-1.7.1,9.13,9.13,0,0,1-3.3-.7,10.09,10.09,0,0,1-1.5-.7,11,11,0,0,1-2.3-2,24.33,24.33,0,0,1-2-2.5,6.56,6.56,0,0,0,.9,3.3,6,6,0,0,0,.9,1.5,8.64,8.64,0,0,0,1.3,1.4,5.67,5.67,0,0,0,1.8,1.2,8.64,8.64,0,0,0,2.1.7,7.94,7.94,0,0,0,2.2.1,6.45,6.45,0,0,0,2-.3,12,12,0,0,0,3.3-1.3,14.29,14.29,0,0,0,2-1.4c.5-.4.7-.6.7-.6a6.59,6.59,0,0,1-.9.2,12.89,12.89,0,0,0-2.4.5Zm-78.4,271.6c6.2-2.2,13.9-3,20.1-.2.7.2,1.4.5,2.1.7-5.9-5.8-16.2-6.9-22.2-.5Zm-3.5-448.1,1.3.3,1.1.2-1-.6a17.07,17.07,0,0,0-2.7-1.4,10.66,10.66,0,0,0-1.9-.7,14.13,14.13,0,0,0-2.2-.6,20,20,0,0,0-2.4-.4,21.05,21.05,0,0,0-2.5-.2,23,23,0,0,0-9,1.8A13.06,13.06,0,0,0,606,125a34,34,0,0,1,3.9-.9c1.2-.2,2.5-.4,4-.6a42.45,42.45,0,0,1,9.2.1l2.1.3c.7.1,1.3.2,1.9.3.8.1,1.3.2,1.8.3Z" transform="translate(-3.37 -2.58)" style="fill:#5b685a;stroke:#000;stroke-miterlimit:10;stroke-width:0.25px"/></g></svg>