<svg width="124" height="128" viewBox="0 0 124 128" fill="none" xmlns="http://www.w3.org/2000/svg">
<path d="M107.478 45.1463C105.227 28.5309 95.5957 16.6614 80.4413 9.3212C78.8036 8.52749 77.0308 8.006 75.3635 7.37628C74.3123 9.80333 73.36 12.0073 72.3451 14.3557C72.7669 14.5361 73.1689 14.7394 73.5907 14.8804C81.1069 17.3895 87.1766 21.9189 92.0403 28.0816C96.6667 33.9426 99.4972 40.5841 100.196 48.0161C100.749 53.9001 99.9454 59.6299 97.8167 65.2022C95.1707 72.1357 91.1572 78.0656 85.2127 82.5458C70.513 93.6216 51.6845 93.1001 37.8218 81.575C26.9181 72.5129 22.2851 60.4794 24.2622 46.4091C26.124 33.162 33.4722 23.4702 45.2392 17.1074C47.2756 16.0054 49.4965 15.2379 51.6285 14.313C50.6597 12.0926 49.681 9.85252 48.5739 7.31396C46.2244 8.3307 43.7498 9.20968 41.4563 10.4232C30.2297 16.3596 22.4202 25.2839 18.354 37.3011C15.5795 45.5006 15.3093 53.8542 17.2996 62.2964C22.0611 82.49 39.4463 97.0654 59.9685 98.092C69.4256 98.5643 78.2599 96.4357 86.1057 91.293C102.763 80.3778 110.127 64.6939 107.481 45.1431L107.478 45.1463Z" fill="#1a2531"/>
<path d="M80.1382 67.8065C81.8484 69.6333 83.5157 71.4142 85.1863 73.1984C94.4787 63.7789 97.843 45.4908 86.0892 31.4336C75.1328 18.3276 56.9831 16.1662 43.618 26.0679C29.0797 36.8387 26.292 56.6224 36.8036 70.7451C46.577 83.8774 64.4335 86.58 75.4063 80.1122C73.8708 78.4691 72.3847 76.944 70.9842 75.3467C70.3614 74.635 69.7782 74.4513 68.8556 74.7301C65.4648 75.7632 62.0082 75.9239 58.4923 75.4516C48.3366 74.0905 39.4957 65.2941 38.3325 55.1957C36.4213 38.5868 50.8047 25.5037 66.3578 28.426C82.9984 31.5549 91.8656 50.991 81.7923 65.4417C81.2618 66.2059 80.728 66.9668 80.1415 67.8065H80.1382Z" fill="#1a2531"/>
<path d="M70.681 56.8423C72.2528 58.6593 73.8773 60.4304 75.5019 62.2343C80.125 56.6455 80.6588 47.2916 74.8132 40.6631C69.4223 34.5496 59.7214 33.2246 52.673 37.7244C45.0414 42.5982 43.4565 52.0538 46.5869 59.0431C50.1193 66.9375 59.8433 69.9156 64.8948 68.3905C64.6081 68.0494 64.3675 67.7345 64.0973 67.4492C61.0328 64.1923 57.9486 60.9519 54.8973 57.6852C52.9465 55.5993 52.449 53.0312 52.9531 50.3582C53.6484 46.7012 55.8232 44.1167 59.4874 43.0902C63.3427 42.0078 66.6676 43.1098 69.2312 46.1404C71.696 49.0561 72.1177 52.3523 70.6613 55.8912C70.5492 56.1667 70.5229 56.6488 70.6843 56.8358L70.681 56.8423Z" fill="#1a2531"/>
<path d="M61.9621 12.2764C65.3627 12.2928 68.1306 9.61325 68.1603 6.2777C68.1899 2.82081 65.4154 0.0297058 61.9258 0.000187652C58.6801 -0.0260507 55.9254 2.70273 55.8562 6.01532C55.787 9.37383 58.5977 12.26 61.9588 12.2764H61.9621Z" fill="#1a2531"/>
<path d="M21.5404 124.862C21.2274 124.862 20.9308 124.8 20.6474 124.679C20.3674 124.554 20.0741 124.351 19.7742 124.065C19.7182 124.013 19.6622 123.954 19.6029 123.895C19.7281 123.856 19.8566 123.813 19.9785 123.764C20.888 123.419 21.6788 122.927 22.3609 122.291C23.0397 121.655 23.567 120.904 23.9393 120.038C24.3117 119.172 24.4995 118.234 24.4995 117.221C24.4995 116.207 24.3117 115.249 23.9393 114.393C23.567 113.534 23.0397 112.786 22.3609 112.15C21.6821 111.514 20.888 111.022 19.9785 110.677C19.0691 110.333 18.0739 110.159 16.9898 110.159C15.9057 110.159 14.9106 110.336 14.0011 110.687C13.0917 111.038 12.2975 111.533 11.6187 112.17C10.9399 112.806 10.4127 113.55 10.0403 114.403C9.66799 115.256 9.48016 116.194 9.48016 117.221C9.48016 118.247 9.66799 119.172 10.0403 120.031C10.4127 120.891 10.9399 121.638 11.6187 122.275C12.2975 122.911 13.0949 123.406 14.011 123.757C14.6008 123.983 15.2269 124.138 15.8827 124.216C16.3242 124.666 16.7328 125.056 17.1052 125.384C17.6027 125.82 18.0805 126.168 18.5451 126.427C19.0098 126.686 19.4777 126.88 19.9555 127.001C20.4333 127.126 20.9374 127.188 21.4745 127.188C23.0167 127.188 24.2523 126.627 25.1783 125.509L23.768 123.829C23.1155 124.518 22.3708 124.862 21.5338 124.862H21.5404ZM16.9931 121.606C16.3802 121.606 15.8102 121.497 15.2895 121.284C14.7656 121.071 14.3142 120.766 13.9286 120.376C13.5431 119.985 13.2432 119.52 13.0258 118.982C12.8116 118.444 12.7028 117.854 12.7028 117.217C12.7028 116.581 12.8116 115.974 13.0258 115.443C13.2399 114.908 13.5431 114.449 13.9286 114.059C14.3142 113.669 14.7689 113.367 15.2895 113.15C15.8135 112.937 16.3802 112.829 16.9931 112.829C17.606 112.829 18.1728 112.937 18.6868 113.15C19.2042 113.364 19.6556 113.669 20.0477 114.059C20.4399 114.449 20.743 114.912 20.9605 115.443C21.1747 115.978 21.2834 116.568 21.2834 117.217C21.2834 117.867 21.1747 118.444 20.9605 118.982C20.7463 119.523 20.4399 119.985 20.0477 120.376C19.6556 120.766 19.2009 121.068 18.6868 121.284C18.1695 121.497 17.606 121.606 16.9931 121.606Z" fill="#1a2531"/>
<path d="M48.0401 118.867L42.9029 110.389H40.2767V124.042H43.2357V115.991L47.2723 122.58H48.6826L52.7258 115.899L52.7587 124.042H55.7178V110.389H53.0718L48.0401 118.867Z" fill="#1a2531"/>
<path d="M66.0481 118.349H72.4177V115.869H66.0481V112.924H73.2612V110.389H62.8914V124.042H73.5149V121.507H66.0481V118.349Z" fill="#1a2531"/>
<path d="M90.1356 111.238C88.9988 110.671 87.6873 110.389 86.1946 110.389H79.9635V124.042H86.1946C87.684 124.042 88.9988 123.76 90.1356 123.193C91.2725 122.629 92.1622 121.835 92.8014 120.812C93.4407 119.792 93.7603 118.591 93.7603 117.214C93.7603 115.836 93.4407 114.636 92.8014 113.616C92.1622 112.596 91.2725 111.802 90.1356 111.235V111.238ZM89.9874 119.47C89.615 120.113 89.0911 120.608 88.4189 120.953C87.7467 121.297 86.9525 121.471 86.0365 121.471H83.1565V112.967H86.0365C86.9525 112.967 87.7434 113.14 88.4189 113.485C89.0911 113.829 89.615 114.321 89.9874 114.957C90.3597 115.594 90.5475 116.348 90.5475 117.22C90.5475 118.093 90.3597 118.831 89.9874 119.474V119.47Z" fill="#1a2531"/>
<path d="M117.848 110.389H114.711L108.615 124.042H111.867L113.09 121.117H119.446L120.669 124.042H124L117.845 110.389H117.848ZM114.095 118.719L116.27 113.514L118.444 118.719H114.095Z" fill="#1a2531"/>
<path d="M0 124.042H3.19301V110.389L0 112.845V124.042Z" fill="#1a2531"/>
<path d="M99.5895 120.904L102.786 118.972V110.156H99.5895V120.904Z" fill="#1a2531"/>
</svg>
