<svg id="Layer_1" xmlns="http://www.w3.org/2000/svg" viewBox="0 0 47.64 47.68"><defs><style>.clsinsta-1{fill:none;}.clsinsta-2{fill:#1a2531;fill-rule:evenodd;}</style></defs><g id="Social_Instagram"><path id="Path_34" class="clsinsta-2" d="m42.9,7.56c-1.58-2.18-3.86-3.75-6.46-4.46-.85-.27-1.81-.26-2.74-.47-.43-.1-.93,0-1.33-.09l-2.48-.04c-.45-.06-.91-.07-1.37-.04h-10.79c-.32.2-1.04-.05-1.46.04-.56.13-1.24-.04-1.85.09-.84.18-1.73.13-2.53.34-4.62,1.23-7.29,3.57-8.73,7.96-.31.94-.33,1.99-.56,3.04-.01.44-.03.88-.04,1.33-.16.73.08,1.73-.09,2.48-.06.48-.07.97-.04,1.45v8.9c-.04.6-.03,1.2.04,1.8.1.46-.04,1.05.04,1.45.01.61.03,1.23.04,1.84.24,1.11.19,2.25.51,3.25,1.14,3.54,3.09,6.09,6.34,7.49,1.11.41,2.26.73,3.42.94l1.58.17,3.3.09c.87.1,1.74.11,2.61.04h5.27c4.93,0,10.41.2,13.48-1.67,2.03-1.12,3.65-2.84,4.67-4.92,1.45-3.31,1.41-7.6,1.41-12.37,0-6.9.59-14.59-2.27-18.67m-2.48,29.02c-.64,1.47-1.74,2.7-3.12,3.51-2.41,1.46-7.75,1.24-11.65,1.24h-4.45c-.76.05-1.52.04-2.27-.04l-3.21-.04c-.81-.17-1.7-.03-2.48-.21-1.28-.23-2.5-.69-3.6-1.37-1.39-1.06-2.38-2.55-2.83-4.24-.26-.8-.19-1.73-.39-2.61v-.9c-.12-.89-.15-1.8-.09-2.7,0-1.26-.04-2.65-.04-3.98v-4.15c-.05-.71-.04-1.43.04-2.14v-2.14c.13-.6-.06-1.32.09-1.97.12-1.16.34-2.3.64-3.43.81-2.18,2.61-3.85,4.84-4.5.73-.24,1.55-.25,2.35-.43l3.25-.13c.47.07.95.05,1.41-.04h6.55c1.07-.08,2.14-.07,3.21.04h.98l3.12.09c.82.18,1.68.13,2.44.34,1.76.41,3.32,1.43,4.41,2.87.68,1.1,1.14,2.32,1.37,3.6.19.78.04,1.68.21,2.48.01,1.07.03,2.14.04,3.21.08.74.1,1.48.04,2.23v4.37c0,3.68.2,8.43-.9,11.05m-4.53-26.67c-.37-.06-.74-.08-1.11-.04-.25.16-.61.15-.86.3-.53.34-.93.83-1.16,1.41-.42,1.26.19,2.64,1.41,3.17.39.22.84.31,1.29.26.93-.12,1.73-.7,2.14-1.54.55-1.36-.1-2.92-1.47-3.47-.08-.03-.16-.06-.25-.09m-9.33,3.25c-1.21-.28-2.45-.38-3.68-.3l-1.2.17c-.76.17-1.5.4-2.23.68-2.81,1.26-4.99,3.61-6.04,6.51-.23.73-.4,1.47-.51,2.23v.43c-.17,1.43-.01,2.88.47,4.24.96,3.17,3.33,5.71,6.42,6.89,1.16.51,2.41.77,3.68.77h1.29c.9-.12,1.78-.3,2.65-.56,2.9-1.04,5.25-3.22,6.51-6.04.31-.79.55-1.61.73-2.44.31-1.75.18-3.54-.39-5.22-1.11-3.63-4.03-6.41-7.71-7.36m4.28,11.95c-.14.63-.34,1.25-.6,1.84-.81,1.63-2.2,2.9-3.9,3.55-.63.2-1.27.34-1.93.43-1.21.11-2.42-.11-3.51-.64-1.94-.87-3.39-2.57-3.94-4.62-.29-.91-.36-1.88-.21-2.83.09-.52.22-1.04.39-1.54.72-1.83,2.14-3.29,3.94-4.07.47-.18.96-.32,1.46-.43.23-.06.51.02.68-.09,3.66,0,5.91,1.6,7.02,4.11.64,1.33.85,2.83.6,4.28"/></g><rect class="clsinsta-1" width="47.68" height="47.68"/></svg>