<svg width="121" height="120" viewBox="0 0 121 120" fill="none" xmlns="http://www.w3.org/2000/svg">
<g id="&#195;&#145;&#195;&#171;&#195;&#174;&#195;&#169; 3">
<g id="Group">
<path id="Vector" d="M114.28 33.325C114.15 33.0661 114 32.7872 113.86 32.5183V33.325H114.28Z" fill="#FF66C4"/>
<path id="Vector_2" d="M113.86 39.9835H117.12C116.72 38.8587 116.3 37.7539 115.83 36.649H113.86V39.9835Z" fill="#FF66C4"/>
<path id="Vector_3" d="M117.21 43.3179H113.86V46.6523H117.21V43.3179Z" fill="#FF66C4"/>
<path id="Vector_4" d="M117.21 50.0066H113.86V53.341H117.21V50.0066Z" fill="#FF66C4"/>
<path id="Vector_5" d="M117.21 56.6655H113.86V60H117.21V56.6655Z" fill="#FF66C4"/>
<path id="Vector_6" d="M117.21 63.3345H113.86V66.659H117.21V63.3345Z" fill="#FF66C4"/>
<path id="Vector_7" d="M117.21 69.9934H113.86V73.3278H117.21V69.9934Z" fill="#FF66C4"/>
<path id="Vector_8" d="M113.86 76.6624V79.9968H117.12C117.15 79.8973 117.18 79.8176 117.21 79.7181V76.6624H113.86Z" fill="#FF66C4"/>
<path id="Vector_9" d="M113.86 86.6556H114.28C114.83 85.5707 115.35 84.4459 115.83 83.3212H113.86V86.6556Z" fill="#FF66C4"/>
<path id="Vector_10" d="M118.18 43.3179C117.89 42.2927 117.56 41.2675 117.21 40.2622V43.3179H118.18Z" fill="#FF66C4"/>
<path id="Vector_11" d="M117.21 50.0067H119.7C119.52 48.8819 119.29 47.7572 119.04 46.6523H117.2V50.0067H117.21Z" fill="#FF66C4"/>
<path id="Vector_12" d="M117.21 56.6656H120.46C120.39 55.5409 120.3 54.436 120.17 53.3312H117.2V56.6656H117.21Z" fill="#FF66C4"/>
<path id="Vector_13" d="M117.21 63.3346H120.46C120.52 62.2297 120.55 61.1249 120.55 60.0001H117.2V63.3346H117.21Z" fill="#FF66C4"/>
<path id="Vector_14" d="M117.21 69.9935H119.7C119.89 68.8887 120.05 67.7838 120.18 66.6591H117.21V69.9935Z" fill="#FF66C4"/>
<path id="Vector_15" d="M117.21 76.6623H118.18C118.5 75.5575 118.79 74.4526 119.05 73.3279H117.21V76.6623Z" fill="#FF66C4"/>
<path id="Vector_16" d="M3.34953 46.6523V43.3179H2.37953C2.05953 44.4227 1.76953 45.5475 1.51953 46.6523H3.34953Z" fill="#FF66C4"/>
<path id="Vector_17" d="M3.34988 53.3311V49.9967H0.849883C0.669883 51.1015 0.509883 52.2064 0.379883 53.3311H3.34988Z" fill="#FF66C4"/>
<path id="Vector_18" d="M3.35 60V56.6655H0.1C0.03 57.7704 0 58.8752 0 60H3.35Z" fill="#FF66C4"/>
<path id="Vector_19" d="M3.34961 66.659V63.3345H0.0996094C0.159609 64.4592 0.259609 65.5641 0.379609 66.659H3.34961Z" fill="#FF66C4"/>
<path id="Vector_20" d="M3.34961 73.3278V69.9934H0.849609C1.03961 71.1182 1.25961 72.223 1.51961 73.3278H3.34961Z" fill="#FF66C4"/>
<path id="Vector_21" d="M3.34988 76.6624H2.37988C2.67988 77.6876 2.99988 78.7128 3.34988 79.7181V76.6624Z" fill="#FF66C4"/>
<path id="Vector_22" d="M6.70047 36.6589V33.3245H6.28047C5.74047 34.4293 5.21047 35.5342 4.73047 36.6589H6.70047Z" fill="#FF66C4"/>
<path id="Vector_23" d="M3.34961 43.3178H6.69961V39.9834H3.44961C3.40961 40.0829 3.38961 40.1825 3.34961 40.2621V43.3178Z" fill="#FF66C4"/>
<path id="Vector_24" d="M6.69961 46.6523H3.34961V50.0067H6.69961V46.6523Z" fill="#FF66C4"/>
<path id="Vector_25" d="M6.69961 53.3312H3.34961V56.6656H6.69961V53.3312Z" fill="#FF66C4"/>
<path id="Vector_26" d="M6.69961 60.0001H3.34961V63.3346H6.69961V60.0001Z" fill="#FF66C4"/>
<path id="Vector_27" d="M6.69961 66.6591H3.34961V69.9935H6.69961V66.6591Z" fill="#FF66C4"/>
<path id="Vector_28" d="M6.69961 73.3279H3.34961V76.6623H6.69961V73.3279Z" fill="#FF66C4"/>
<path id="Vector_29" d="M6.7002 79.9967H3.4502C3.8502 81.1215 4.2602 82.2462 4.7402 83.3311H6.7102V79.9967H6.7002Z" fill="#FF66C4"/>
<path id="Vector_30" d="M6.28027 86.6556C6.41027 86.9445 6.56027 87.2034 6.70027 87.4823V86.6556H6.28027Z" fill="#FF66C4"/>
<path id="Vector_31" d="M6.7002 33.3246H10.0502V29.9901H8.0902C7.6102 30.8362 7.1502 31.6524 6.7002 32.5183V33.3246Z" fill="#FF66C4"/>
<path id="Vector_32" d="M10.0502 36.6591H6.7002V39.9935H10.0502V36.6591Z" fill="#FF66C4"/>
<path id="Vector_33" d="M10.0502 43.3179H6.7002V46.6523H10.0502V43.3179Z" fill="#FF66C4"/>
<path id="Vector_34" d="M10.0502 50.0066H6.7002V53.341H10.0502V50.0066Z" fill="#FF66C4"/>
<path id="Vector_35" d="M10.0502 56.6655H6.7002V60H10.0502V56.6655Z" fill="#FF66C4"/>
<path id="Vector_36" d="M10.0502 63.3345H6.7002V66.659H10.0502V63.3345Z" fill="#FF66C4"/>
<path id="Vector_37" d="M10.0502 69.9934H6.7002V73.3278H10.0502V69.9934Z" fill="#FF66C4"/>
<path id="Vector_38" d="M10.0502 76.6624H6.7002V79.9968H10.0502V76.6624Z" fill="#FF66C4"/>
<path id="Vector_39" d="M10.0502 83.3212H6.7002V86.6556H10.0502V83.3212Z" fill="#FF66C4"/>
<path id="Vector_40" d="M8.08008 89.9902C8.70008 91.0752 9.36008 92.1103 10.0401 93.1654V89.9902H8.08008Z" fill="#FF66C4"/>
<path id="Vector_41" d="M13.3901 23.3218V22.296C13.1201 22.6346 12.8501 22.9832 12.5801 23.3218H13.3901Z" fill="#FF66C4"/>
<path id="Vector_42" d="M10.0498 29.9901H13.3998V26.6556H10.1698C10.1298 26.7154 10.0998 26.7751 10.0598 26.8348V29.9901H10.0498Z" fill="#FF66C4"/>
<path id="Vector_43" d="M13.3998 33.3245H10.0498V36.6589H13.3998V33.3245Z" fill="#FF66C4"/>
<path id="Vector_44" d="M13.3998 39.9834H10.0498V43.3178H13.3998V39.9834Z" fill="#FF66C4"/>
<path id="Vector_45" d="M13.3998 46.6523H10.0498V50.0067H13.3998V46.6523Z" fill="#FF66C4"/>
<path id="Vector_46" d="M13.3998 53.3312H10.0498V56.6656H13.3998V53.3312Z" fill="#FF66C4"/>
<path id="Vector_47" d="M13.3998 60.0001H10.0498V63.3346H13.3998V60.0001Z" fill="#FF66C4"/>
<path id="Vector_48" d="M13.3998 66.6591H10.0498V69.9935H13.3998V66.6591Z" fill="#FF66C4"/>
<path id="Vector_49" d="M13.3998 73.3279H10.0498V76.6623H13.3998V73.3279Z" fill="#FF66C4"/>
<path id="Vector_50" d="M13.3998 79.9967H10.0498V83.3311H13.3998V79.9967Z" fill="#FF66C4"/>
<path id="Vector_51" d="M13.3998 86.6556H10.0498V89.9901H13.3998V86.6556Z" fill="#FF66C4"/>
<path id="Vector_52" d="M13.3902 93.3245H10.1602C10.9302 94.4691 11.7402 95.574 12.5802 96.6589H13.3902V93.3245Z" fill="#FF66C4"/>
<path id="Vector_53" d="M16.7404 19.9967V18.5336C16.2704 19.0113 15.8104 19.4991 15.3604 19.9967H16.7404Z" fill="#FF66C4"/>
<path id="Vector_54" d="M16.7396 23.3212H13.3896V26.6556H16.7396V23.3212Z" fill="#FF66C4"/>
<path id="Vector_55" d="M16.7396 29.9901H13.3896V33.3246H16.7396V29.9901Z" fill="#FF66C4"/>
<path id="Vector_56" d="M16.7396 36.6591H13.3896V39.9935H16.7396V36.6591Z" fill="#FF66C4"/>
<path id="Vector_57" d="M16.7396 43.3179H13.3896V46.6523H16.7396V43.3179Z" fill="#FF66C4"/>
<path id="Vector_58" d="M16.7396 50.0066H13.3896V53.341H16.7396V50.0066Z" fill="#FF66C4"/>
<path id="Vector_59" d="M16.7396 56.6655H13.3896V60H16.7396V56.6655Z" fill="#FF66C4"/>
<path id="Vector_60" d="M16.7396 63.3345H13.3896V66.659H16.7396V63.3345Z" fill="#FF66C4"/>
<path id="Vector_61" d="M16.7396 69.9934H13.3896V73.3278H16.7396V69.9934Z" fill="#FF66C4"/>
<path id="Vector_62" d="M16.7396 76.6624H13.3896V79.9968H16.7396V76.6624Z" fill="#FF66C4"/>
<path id="Vector_63" d="M16.7396 83.3212H13.3896V86.6556H16.7396V83.3212Z" fill="#FF66C4"/>
<path id="Vector_64" d="M16.7396 89.9902H13.3896V93.3247H16.7396V89.9902Z" fill="#FF66C4"/>
<path id="Vector_65" d="M16.7396 96.6589H13.3896V97.7041C14.0296 98.4904 14.6896 99.2469 15.3596 99.9934H16.7396V96.6589Z" fill="#FF66C4"/>
<path id="Vector_66" d="M20.0904 16.663V15.2787C19.5904 15.7368 19.1004 16.2049 18.6104 16.663H20.0904Z" fill="#FF66C4"/>
<path id="Vector_67" d="M20.0902 19.9968H16.7402V23.3313H20.0902V19.9968Z" fill="#FF66C4"/>
<path id="Vector_68" d="M20.0902 26.6556H16.7402V29.9901H20.0902V26.6556Z" fill="#FF66C4"/>
<path id="Vector_69" d="M20.0902 33.3245H16.7402V36.6589H20.0902V33.3245Z" fill="#FF66C4"/>
<path id="Vector_70" d="M20.0902 39.9834H16.7402V43.3178H20.0902V39.9834Z" fill="#FF66C4"/>
<path id="Vector_71" d="M20.0902 46.6523H16.7402V50.0067H20.0902V46.6523Z" fill="#FF66C4"/>
<path id="Vector_72" d="M20.0902 53.3312H16.7402V56.6656H20.0902V53.3312Z" fill="#FF66C4"/>
<path id="Vector_73" d="M20.0902 60.0001H16.7402V63.3346H20.0902V60.0001Z" fill="#FF66C4"/>
<path id="Vector_74" d="M20.0902 66.6591H16.7402V69.9935H20.0902V66.6591Z" fill="#FF66C4"/>
<path id="Vector_75" d="M20.0902 73.3279H16.7402V76.6623H20.0902V73.3279Z" fill="#FF66C4"/>
<path id="Vector_76" d="M20.0902 79.9967H16.7402V83.3311H20.0902V79.9967Z" fill="#FF66C4"/>
<path id="Vector_77" d="M20.0902 86.6556H16.7402V89.9901H20.0902V86.6556Z" fill="#FF66C4"/>
<path id="Vector_78" d="M20.0902 93.3245H16.7402V96.6589H20.0902V93.3245Z" fill="#FF66C4"/>
<path id="Vector_79" d="M20.0902 99.9834H16.7402V101.466C17.3502 102.094 17.9702 102.711 18.6102 103.318H20.0902V99.9834Z" fill="#FF66C4"/>
<path id="Vector_80" d="M23.4404 12.5017C23.1004 12.7905 22.7504 13.0495 22.4004 13.3283H23.4404V12.5017Z" fill="#FF66C4"/>
<path id="Vector_81" d="M23.4398 16.6622H20.0898V19.9967H23.4398V16.6622Z" fill="#FF66C4"/>
<path id="Vector_82" d="M23.4398 23.3212H20.0898V26.6556H23.4398V23.3212Z" fill="#FF66C4"/>
<path id="Vector_83" d="M23.4398 29.9901H20.0898V33.3246H23.4398V29.9901Z" fill="#FF66C4"/>
<path id="Vector_84" d="M23.4398 36.6591H20.0898V39.9935H23.4398V36.6591Z" fill="#FF66C4"/>
<path id="Vector_85" d="M23.4398 43.3179H20.0898V46.6523H23.4398V43.3179Z" fill="#FF66C4"/>
<path id="Vector_86" d="M23.4398 50.0066H20.0898V53.341H23.4398V50.0066Z" fill="#FF66C4"/>
<path id="Vector_87" d="M23.4398 56.6655H20.0898V60H23.4398V56.6655Z" fill="#FF66C4"/>
<path id="Vector_88" d="M23.4398 63.3345H20.0898V66.659H23.4398V63.3345Z" fill="#FF66C4"/>
<path id="Vector_89" d="M23.4398 69.9934H20.0898V73.3278H23.4398V69.9934Z" fill="#FF66C4"/>
<path id="Vector_90" d="M23.4398 76.6624H20.0898V79.9968H23.4398V76.6624Z" fill="#FF66C4"/>
<path id="Vector_91" d="M23.4398 83.3212H20.0898V86.6556H23.4398V83.3212Z" fill="#FF66C4"/>
<path id="Vector_92" d="M23.4398 89.9902H20.0898V93.3247H23.4398V89.9902Z" fill="#FF66C4"/>
<path id="Vector_93" d="M23.4398 96.6589H20.0898V99.9934H23.4398V96.6589Z" fill="#FF66C4"/>
<path id="Vector_94" d="M23.4398 103.318H20.0898V104.701C20.8398 105.358 21.6098 106.025 22.3998 106.652H23.4398V103.318Z" fill="#FF66C4"/>
<path id="Vector_95" d="M26.7904 13.3279H23.4404V16.6623H26.7904V13.3279Z" fill="#FF66C4"/>
<path id="Vector_96" d="M26.7904 19.9968H23.4404V23.3313H26.7904V19.9968Z" fill="#FF66C4"/>
<path id="Vector_97" d="M26.7904 26.6556H23.4404V29.9901H26.7904V26.6556Z" fill="#FF66C4"/>
<path id="Vector_98" d="M26.7904 33.3245H23.4404V36.6589H26.7904V33.3245Z" fill="#FF66C4"/>
<path id="Vector_99" d="M26.7904 39.9834H23.4404V43.3178H26.7904V39.9834Z" fill="#FF66C4"/>
<path id="Vector_100" d="M26.7904 46.6523H23.4404V50.0067H26.7904V46.6523Z" fill="#FF66C4"/>
<path id="Vector_101" d="M26.7904 53.3312H23.4404V56.6656H26.7904V53.3312Z" fill="#FF66C4"/>
<path id="Vector_102" d="M26.7904 60.0001H23.4404V63.3346H26.7904V60.0001Z" fill="#FF66C4"/>
<path id="Vector_103" d="M26.7904 66.6591H23.4404V69.9935H26.7904V66.6591Z" fill="#FF66C4"/>
<path id="Vector_104" d="M26.7904 73.3279H23.4404V76.6623H26.7904V73.3279Z" fill="#FF66C4"/>
<path id="Vector_105" d="M26.7904 79.9967H23.4404V83.3311H26.7904V79.9967Z" fill="#FF66C4"/>
<path id="Vector_106" d="M26.7904 86.6556H23.4404V89.9901H26.7904V86.6556Z" fill="#FF66C4"/>
<path id="Vector_107" d="M26.7904 93.3245H23.4404V96.6589H26.7904V93.3245Z" fill="#FF66C4"/>
<path id="Vector_108" d="M26.7904 99.9834H23.4404V103.318H26.7904V99.9834Z" fill="#FF66C4"/>
<path id="Vector_109" d="M23.4404 106.652V107.469C24.5404 108.315 25.6504 109.121 26.7904 109.877V106.652H23.4404Z" fill="#FF66C4"/>
<path id="Vector_110" d="M30.1398 13.3278V9.99341H26.9598C26.9098 10.0332 26.8498 10.073 26.7998 10.0929V13.3278H30.1498H30.1398Z" fill="#FF66C4"/>
<path id="Vector_111" d="M30.14 16.6622H26.79V19.9967H30.14V16.6622Z" fill="#FF66C4"/>
<path id="Vector_112" d="M30.14 23.3212H26.79V26.6556H30.14V23.3212Z" fill="#FF66C4"/>
<path id="Vector_113" d="M30.14 29.9901H26.79V33.3246H30.14V29.9901Z" fill="#FF66C4"/>
<path id="Vector_114" d="M30.14 36.6591H26.79V39.9935H30.14V36.6591Z" fill="#FF66C4"/>
<path id="Vector_115" d="M30.14 43.3179H26.79V46.6523H30.14V43.3179Z" fill="#FF66C4"/>
<path id="Vector_116" d="M30.14 50.0066H26.79V53.341H30.14V50.0066Z" fill="#FF66C4"/>
<path id="Vector_117" d="M30.14 56.6655H26.79V60H30.14V56.6655Z" fill="#FF66C4"/>
<path id="Vector_118" d="M30.14 63.3345H26.79V66.659H30.14V63.3345Z" fill="#FF66C4"/>
<path id="Vector_119" d="M30.14 69.9934H26.79V73.3278H30.14V69.9934Z" fill="#FF66C4"/>
<path id="Vector_120" d="M30.14 76.6624H26.79V79.9968H30.14V76.6624Z" fill="#FF66C4"/>
<path id="Vector_121" d="M30.14 83.3212H26.79V86.6556H30.14V83.3212Z" fill="#FF66C4"/>
<path id="Vector_122" d="M30.14 89.9902H26.79V93.3247H30.14V89.9902Z" fill="#FF66C4"/>
<path id="Vector_123" d="M30.14 96.6589H26.79V99.9934H30.14V96.6589Z" fill="#FF66C4"/>
<path id="Vector_124" d="M30.14 103.318H26.79V106.652H30.14V103.318Z" fill="#FF66C4"/>
<path id="Vector_125" d="M26.96 109.987C28 110.684 29.06 111.331 30.14 111.958V109.987H26.96Z" fill="#FF66C4"/>
<path id="Vector_126" d="M33.4897 9.99337V6.65894H32.6696C31.8196 7.09689 30.9696 7.56471 30.1396 8.02257V9.99337H33.4897Z" fill="#FF66C4"/>
<path id="Vector_127" d="M33.4897 13.3279H30.1396V16.6623H33.4897V13.3279Z" fill="#FF66C4"/>
<path id="Vector_128" d="M33.4897 19.9968H30.1396V23.3313H33.4897V19.9968Z" fill="#FF66C4"/>
<path id="Vector_129" d="M33.4897 26.6556H30.1396V29.9901H33.4897V26.6556Z" fill="#FF66C4"/>
<path id="Vector_130" d="M33.4897 33.3245H30.1396V36.6589H33.4897V33.3245Z" fill="#FF66C4"/>
<path id="Vector_131" d="M33.4897 39.9834H30.1396V43.3178H33.4897V39.9834Z" fill="#FF66C4"/>
<path id="Vector_132" d="M33.4897 46.6523H30.1396V50.0067H33.4897V46.6523Z" fill="#FF66C4"/>
<path id="Vector_133" d="M33.4897 53.3312H30.1396V56.6656H33.4897V53.3312Z" fill="#FF66C4"/>
<path id="Vector_134" d="M33.4897 60.0001H30.1396V63.3346H33.4897V60.0001Z" fill="#FF66C4"/>
<path id="Vector_135" d="M33.4897 66.6591H30.1396V69.9935H33.4897V66.6591Z" fill="#FF66C4"/>
<path id="Vector_136" d="M33.4897 73.3279H30.1396V76.6623H33.4897V73.3279Z" fill="#FF66C4"/>
<path id="Vector_137" d="M33.4897 79.9967H30.1396V83.3311H33.4897V79.9967Z" fill="#FF66C4"/>
<path id="Vector_138" d="M33.4897 86.6556H30.1396V89.9901H33.4897V86.6556Z" fill="#FF66C4"/>
<path id="Vector_139" d="M33.4897 93.3245H30.1396V96.6589H33.4897V93.3245Z" fill="#FF66C4"/>
<path id="Vector_140" d="M33.4897 99.9834H30.1396V103.318H33.4897V99.9834Z" fill="#FF66C4"/>
<path id="Vector_141" d="M33.4897 106.652H30.1396V109.987H33.4897V106.652Z" fill="#FF66C4"/>
<path id="Vector_142" d="M32.6797 113.331C32.9497 113.451 33.2197 113.59 33.4897 113.729V113.331H32.6797Z" fill="#FF66C4"/>
<path id="Vector_143" d="M36.8402 6.66892V4.69812C35.7102 5.18584 34.5902 5.70343 33.4902 6.25087V6.66892H36.8402Z" fill="#FF66C4"/>
<path id="Vector_144" d="M36.8402 9.99341H33.4902V13.3278H36.8402V9.99341Z" fill="#FF66C4"/>
<path id="Vector_145" d="M36.8402 16.6622H33.4902V19.9967H36.8402V16.6622Z" fill="#FF66C4"/>
<path id="Vector_146" d="M36.8402 23.3212H33.4902V26.6556H36.8402V23.3212Z" fill="#FF66C4"/>
<path id="Vector_147" d="M36.8402 29.9901H33.4902V33.3246H36.8402V29.9901Z" fill="#FF66C4"/>
<path id="Vector_148" d="M36.8402 36.6591H33.4902V39.9935H36.8402V36.6591Z" fill="#FF66C4"/>
<path id="Vector_149" d="M36.8402 43.3179H33.4902V46.6523H36.8402V43.3179Z" fill="#FF66C4"/>
<path id="Vector_150" d="M36.8402 50.0066H33.4902V53.341H36.8402V50.0066Z" fill="#FF66C4"/>
<path id="Vector_151" d="M36.8402 56.6655H33.4902V60H36.8402V56.6655Z" fill="#FF66C4"/>
<path id="Vector_152" d="M36.8402 63.3345H33.4902V66.659H36.8402V63.3345Z" fill="#FF66C4"/>
<path id="Vector_153" d="M36.8402 69.9934H33.4902V73.3278H36.8402V69.9934Z" fill="#FF66C4"/>
<path id="Vector_154" d="M36.8402 76.6624H33.4902V79.9968H36.8402V76.6624Z" fill="#FF66C4"/>
<path id="Vector_155" d="M36.8402 83.3212H33.4902V86.6556H36.8402V83.3212Z" fill="#FF66C4"/>
<path id="Vector_156" d="M36.8402 89.9902H33.4902V93.3247H36.8402V89.9902Z" fill="#FF66C4"/>
<path id="Vector_157" d="M36.8402 96.6589H33.4902V99.9934H36.8402V96.6589Z" fill="#FF66C4"/>
<path id="Vector_158" d="M36.8402 103.318H33.4902V106.652H36.8402V103.318Z" fill="#FF66C4"/>
<path id="Vector_159" d="M36.8402 109.987H33.4902V113.341H36.8402V109.987Z" fill="#FF66C4"/>
<path id="Vector_160" d="M40.1898 6.66895H36.8398V10.0034H40.1898V6.66895Z" fill="#FF66C4"/>
<path id="Vector_161" d="M40.1898 13.3279H36.8398V16.6623H40.1898V13.3279Z" fill="#FF66C4"/>
<path id="Vector_162" d="M40.1898 19.9968H36.8398V23.3313H40.1898V19.9968Z" fill="#FF66C4"/>
<path id="Vector_163" d="M40.1898 26.6556H36.8398V29.9901H40.1898V26.6556Z" fill="#FF66C4"/>
<path id="Vector_164" d="M40.1898 33.3245H36.8398V36.6589H40.1898V33.3245Z" fill="#FF66C4"/>
<path id="Vector_165" d="M40.1898 39.9834H36.8398V43.3178H40.1898V39.9834Z" fill="#FF66C4"/>
<path id="Vector_166" d="M40.1898 46.6523H36.8398V50.0067H40.1898V46.6523Z" fill="#FF66C4"/>
<path id="Vector_167" d="M40.1898 53.3312H36.8398V56.6656H40.1898V53.3312Z" fill="#FF66C4"/>
<path id="Vector_168" d="M40.1898 60.0001H36.8398V63.3346H40.1898V60.0001Z" fill="#FF66C4"/>
<path id="Vector_169" d="M40.1898 66.6591H36.8398V69.9935H40.1898V66.6591Z" fill="#FF66C4"/>
<path id="Vector_170" d="M40.1898 73.3279H36.8398V76.6623H40.1898V73.3279Z" fill="#FF66C4"/>
<path id="Vector_171" d="M40.1898 79.9967H36.8398V83.3311H40.1898V79.9967Z" fill="#FF66C4"/>
<path id="Vector_172" d="M40.1898 86.6556H36.8398V89.9901H40.1898V86.6556Z" fill="#FF66C4"/>
<path id="Vector_173" d="M40.1898 93.3245H36.8398V96.6589H40.1898V93.3245Z" fill="#FF66C4"/>
<path id="Vector_174" d="M40.1898 99.9834H36.8398V103.318H40.1898V99.9834Z" fill="#FF66C4"/>
<path id="Vector_175" d="M40.1898 106.652H36.8398V109.987H40.1898V106.652Z" fill="#FF66C4"/>
<path id="Vector_176" d="M36.8398 113.331V115.282C37.9398 115.75 39.0598 116.168 40.1898 116.566V113.331H36.8398Z" fill="#FF66C4"/>
<path id="Vector_177" d="M43.5304 6.66891V3.33447H40.4704C40.3704 3.35438 40.2804 3.39419 40.1904 3.4141V6.66891H43.5304Z" fill="#FF66C4"/>
<path id="Vector_178" d="M43.5304 9.99341H40.1904V13.3278H43.5304V9.99341Z" fill="#FF66C4"/>
<path id="Vector_179" d="M43.5304 16.6622H40.1904V19.9967H43.5304V16.6622Z" fill="#FF66C4"/>
<path id="Vector_180" d="M43.5304 23.3212H40.1904V26.6556H43.5304V23.3212Z" fill="#FF66C4"/>
<path id="Vector_181" d="M43.5304 29.9901H40.1904V33.3246H43.5304V29.9901Z" fill="#FF66C4"/>
<path id="Vector_182" d="M43.5304 36.6591H40.1904V39.9935H43.5304V36.6591Z" fill="#FF66C4"/>
<path id="Vector_183" d="M43.5304 43.3179H40.1904V46.6523H43.5304V43.3179Z" fill="#FF66C4"/>
<path id="Vector_184" d="M43.5304 50.0066H40.1904V53.341H43.5304V50.0066Z" fill="#FF66C4"/>
<path id="Vector_185" d="M43.5304 56.6655H40.1904V60H43.5304V56.6655Z" fill="#FF66C4"/>
<path id="Vector_186" d="M43.5304 63.3345H40.1904V66.659H43.5304V63.3345Z" fill="#FF66C4"/>
<path id="Vector_187" d="M43.5304 69.9934H40.1904V73.3278H43.5304V69.9934Z" fill="#FF66C4"/>
<path id="Vector_188" d="M43.5304 76.6624H40.1904V79.9968H43.5304V76.6624Z" fill="#FF66C4"/>
<path id="Vector_189" d="M43.5304 83.3212H40.1904V86.6556H43.5304V83.3212Z" fill="#FF66C4"/>
<path id="Vector_190" d="M43.5304 89.9902H40.1904V93.3247H43.5304V89.9902Z" fill="#FF66C4"/>
<path id="Vector_191" d="M43.5304 96.6589H40.1904V99.9934H43.5304V96.6589Z" fill="#FF66C4"/>
<path id="Vector_192" d="M43.5304 103.318H40.1904V106.652H43.5304V103.318Z" fill="#FF66C4"/>
<path id="Vector_193" d="M43.5304 109.987H40.1904V113.341H43.5304V109.987Z" fill="#FF66C4"/>
<path id="Vector_194" d="M46.8903 3.33456V1.51306C45.7703 1.75195 44.6503 2.05055 43.5303 2.35911V3.34451H46.8903V3.33456Z" fill="#FF66C4"/>
<path id="Vector_195" d="M46.8903 6.66895H43.5303V10.0034H46.8903V6.66895Z" fill="#FF66C4"/>
<path id="Vector_196" d="M46.8903 13.3279H43.5303V16.6623H46.8903V13.3279Z" fill="#FF66C4"/>
<path id="Vector_197" d="M46.8903 19.9968H43.5303V23.3313H46.8903V19.9968Z" fill="#FF66C4"/>
<path id="Vector_198" d="M46.8903 26.6556H43.5303V29.9901H46.8903V26.6556Z" fill="#FF66C4"/>
<path id="Vector_199" d="M46.8903 33.3245H43.5303V36.6589H46.8903V33.3245Z" fill="#FF66C4"/>
<path id="Vector_200" d="M46.8903 39.9834H43.5303V43.3178H46.8903V39.9834Z" fill="#FF66C4"/>
<path id="Vector_201" d="M46.8903 46.6523H43.5303V50.0067H46.8903V46.6523Z" fill="#FF66C4"/>
<path id="Vector_202" d="M46.8903 53.3312H43.5303V56.6656H46.8903V53.3312Z" fill="#FF66C4"/>
<path id="Vector_203" d="M46.8903 60.0001H43.5303V63.3346H46.8903V60.0001Z" fill="#FF66C4"/>
<path id="Vector_204" d="M46.8903 66.6591H43.5303V69.9935H46.8903V66.6591Z" fill="#FF66C4"/>
<path id="Vector_205" d="M46.8903 73.3279H43.5303V76.6623H46.8903V73.3279Z" fill="#FF66C4"/>
<path id="Vector_206" d="M46.8903 79.9967H43.5303V83.3311H46.8903V79.9967Z" fill="#FF66C4"/>
<path id="Vector_207" d="M46.8903 86.6556H43.5303V89.9901H46.8903V86.6556Z" fill="#FF66C4"/>
<path id="Vector_208" d="M46.8903 93.3245H43.5303V96.6589H46.8903V93.3245Z" fill="#FF66C4"/>
<path id="Vector_209" d="M46.8903 99.9834H43.5303V103.318H46.8903V99.9834Z" fill="#FF66C4"/>
<path id="Vector_210" d="M46.8903 106.652H43.5303V109.987H46.8903V106.652Z" fill="#FF66C4"/>
<path id="Vector_211" d="M46.8903 113.331H43.5303V116.665H46.8903V113.331Z" fill="#FF66C4"/>
<path id="Vector_212" d="M50.2397 3.33447H46.8896V6.66891H50.2397V3.33447Z" fill="#FF66C4"/>
<path id="Vector_213" d="M50.2397 9.99341H46.8896V13.3278H50.2397V9.99341Z" fill="#FF66C4"/>
<path id="Vector_214" d="M50.2397 16.6622H46.8896V19.9967H50.2397V16.6622Z" fill="#FF66C4"/>
<path id="Vector_215" d="M50.2397 23.3212H46.8896V26.6556H50.2397V23.3212Z" fill="#FF66C4"/>
<path id="Vector_216" d="M50.2397 29.9901H46.8896V33.3246H50.2397V29.9901Z" fill="#FF66C4"/>
<path id="Vector_217" d="M50.2397 36.6591H46.8896V39.9935H50.2397V36.6591Z" fill="#FF66C4"/>
<path id="Vector_218" d="M50.2397 43.3179H46.8896V46.6523H50.2397V43.3179Z" fill="#FF66C4"/>
<path id="Vector_219" d="M50.2397 50.0066H46.8896V53.341H50.2397V50.0066Z" fill="#FF66C4"/>
<path id="Vector_220" d="M50.2397 56.6655H46.8896V60H50.2397V56.6655Z" fill="#FF66C4"/>
<path id="Vector_221" d="M50.2397 63.3345H46.8896V66.659H50.2397V63.3345Z" fill="#FF66C4"/>
<path id="Vector_222" d="M50.2397 69.9934H46.8896V73.3278H50.2397V69.9934Z" fill="#FF66C4"/>
<path id="Vector_223" d="M50.2397 76.6624H46.8896V79.9968H50.2397V76.6624Z" fill="#FF66C4"/>
<path id="Vector_224" d="M50.2397 83.3212H46.8896V86.6556H50.2397V83.3212Z" fill="#FF66C4"/>
<path id="Vector_225" d="M50.2397 89.9902H46.8896V93.3247H50.2397V89.9902Z" fill="#FF66C4"/>
<path id="Vector_226" d="M50.2397 96.6589H46.8896V99.9934H50.2397V96.6589Z" fill="#FF66C4"/>
<path id="Vector_227" d="M50.2397 103.318H46.8896V106.652H50.2397V103.318Z" fill="#FF66C4"/>
<path id="Vector_228" d="M50.2397 109.987H46.8896V113.341H50.2397V109.987Z" fill="#FF66C4"/>
<path id="Vector_229" d="M53.5805 3.33451V0.358398C52.4505 0.497748 51.3405 0.657005 50.2305 0.836169V3.32456H53.5805V3.33451Z" fill="#FF66C4"/>
<path id="Vector_230" d="M53.5805 6.66895H50.2305V10.0034H53.5805V6.66895Z" fill="#FF66C4"/>
<path id="Vector_231" d="M53.5805 13.3279H50.2305V16.6623H53.5805V13.3279Z" fill="#FF66C4"/>
<path id="Vector_232" d="M53.5805 19.9968H50.2305V23.3313H53.5805V19.9968Z" fill="#FF66C4"/>
<path id="Vector_233" d="M53.5805 26.6556H50.2305V29.9901H53.5805V26.6556Z" fill="#FF66C4"/>
<path id="Vector_234" d="M53.5805 33.3245H50.2305V36.6589H53.5805V33.3245Z" fill="#FF66C4"/>
<path id="Vector_235" d="M53.5805 39.9834H50.2305V43.3178H53.5805V39.9834Z" fill="#FF66C4"/>
<path id="Vector_236" d="M53.5805 46.6523H50.2305V50.0067H53.5805V46.6523Z" fill="#FF66C4"/>
<path id="Vector_237" d="M53.5805 53.3312H50.2305V56.6656H53.5805V53.3312Z" fill="#FF66C4"/>
<path id="Vector_238" d="M53.5805 60.0001H50.2305V63.3346H53.5805V60.0001Z" fill="#FF66C4"/>
<path id="Vector_239" d="M53.5805 66.6591H50.2305V69.9935H53.5805V66.6591Z" fill="#FF66C4"/>
<path id="Vector_240" d="M53.5805 73.3279H50.2305V76.6623H53.5805V73.3279Z" fill="#FF66C4"/>
<path id="Vector_241" d="M53.5805 79.9967H50.2305V83.3311H53.5805V79.9967Z" fill="#FF66C4"/>
<path id="Vector_242" d="M53.5805 86.6556H50.2305V89.9901H53.5805V86.6556Z" fill="#FF66C4"/>
<path id="Vector_243" d="M53.5805 93.3245H50.2305V96.6589H53.5805V93.3245Z" fill="#FF66C4"/>
<path id="Vector_244" d="M53.5805 99.9834H50.2305V103.318H53.5805V99.9834Z" fill="#FF66C4"/>
<path id="Vector_245" d="M53.5805 106.652H50.2305V109.987H53.5805V106.652Z" fill="#FF66C4"/>
<path id="Vector_246" d="M53.5805 113.331H50.2305V116.665H53.5805V113.331Z" fill="#FF66C4"/>
<path id="Vector_247" d="M56.9301 3.33447H53.5801V6.66891H56.9301V3.33447Z" fill="#FF66C4"/>
<path id="Vector_248" d="M56.9301 9.99341H53.5801V13.3278H56.9301V9.99341Z" fill="#FF66C4"/>
<path id="Vector_249" d="M56.9301 16.6622H53.5801V19.9967H56.9301V16.6622Z" fill="#FF66C4"/>
<path id="Vector_250" d="M56.9301 23.3212H53.5801V26.6556H56.9301V23.3212Z" fill="#FF66C4"/>
<path id="Vector_251" d="M56.9301 29.9901H53.5801V33.3246H56.9301V29.9901Z" fill="#FF66C4"/>
<path id="Vector_252" d="M56.9301 36.6591H53.5801V39.9935H56.9301V36.6591Z" fill="#FF66C4"/>
<path id="Vector_253" d="M56.9301 43.3179H53.5801V46.6523H56.9301V43.3179Z" fill="#FF66C4"/>
<path id="Vector_254" d="M56.9301 50.0066H53.5801V53.341H56.9301V50.0066Z" fill="#FF66C4"/>
<path id="Vector_255" d="M56.9301 56.6655H53.5801V60H56.9301V56.6655Z" fill="#FF66C4"/>
<path id="Vector_256" d="M56.9301 63.3345H53.5801V66.659H56.9301V63.3345Z" fill="#FF66C4"/>
<path id="Vector_257" d="M56.9301 69.9934H53.5801V73.3278H56.9301V69.9934Z" fill="#FF66C4"/>
<path id="Vector_258" d="M56.9301 76.6624H53.5801V79.9968H56.9301V76.6624Z" fill="#FF66C4"/>
<path id="Vector_259" d="M56.9301 83.3212H53.5801V86.6556H56.9301V83.3212Z" fill="#FF66C4"/>
<path id="Vector_260" d="M56.9301 89.9902H53.5801V93.3247H56.9301V89.9902Z" fill="#FF66C4"/>
<path id="Vector_261" d="M56.9301 96.6589H53.5801V99.9934H56.9301V96.6589Z" fill="#FF66C4"/>
<path id="Vector_262" d="M56.9301 103.318H53.5801V106.652H56.9301V103.318Z" fill="#FF66C4"/>
<path id="Vector_263" d="M56.9301 109.987H53.5801V113.341H56.9301V109.987Z" fill="#FF66C4"/>
<path id="Vector_264" d="M60.2797 3.33444V0C59.1497 0 58.0397 0.0398142 56.9297 0.0796284V3.33444H60.2797Z" fill="#FF66C4"/>
<path id="Vector_265" d="M60.2904 6.66895H56.9404V10.0034H60.2904V6.66895Z" fill="#FF66C4"/>
<path id="Vector_266" d="M60.2904 13.3279H56.9404V16.6623H60.2904V13.3279Z" fill="#FF66C4"/>
<path id="Vector_267" d="M60.2904 19.9968H56.9404V23.3313H60.2904V19.9968Z" fill="#FF66C4"/>
<path id="Vector_268" d="M60.2904 26.6556H56.9404V29.9901H60.2904V26.6556Z" fill="#FF66C4"/>
<path id="Vector_269" d="M60.2904 33.3245H56.9404V36.6589H60.2904V33.3245Z" fill="#FF66C4"/>
<path id="Vector_270" d="M60.2904 39.9834H56.9404V43.3178H60.2904V39.9834Z" fill="#FF66C4"/>
<path id="Vector_271" d="M60.2904 46.6523H56.9404V50.0067H60.2904V46.6523Z" fill="#FF66C4"/>
<path id="Vector_272" d="M60.2904 53.3312H56.9404V56.6656H60.2904V53.3312Z" fill="#FF66C4"/>
<path id="Vector_273" d="M60.2904 60.0001H56.9404V63.3346H60.2904V60.0001Z" fill="#FF66C4"/>
<path id="Vector_274" d="M60.2904 66.6591H56.9404V69.9935H60.2904V66.6591Z" fill="#FF66C4"/>
<path id="Vector_275" d="M60.2904 73.3279H56.9404V76.6623H60.2904V73.3279Z" fill="#FF66C4"/>
<path id="Vector_276" d="M60.2904 79.9967H56.9404V83.3311H60.2904V79.9967Z" fill="#FF66C4"/>
<path id="Vector_277" d="M60.2904 86.6556H56.9404V89.9901H60.2904V86.6556Z" fill="#FF66C4"/>
<path id="Vector_278" d="M60.2904 93.3245H56.9404V96.6589H60.2904V93.3245Z" fill="#FF66C4"/>
<path id="Vector_279" d="M60.2904 99.9834H56.9404V103.318H60.2904V99.9834Z" fill="#FF66C4"/>
<path id="Vector_280" d="M60.2904 106.652H56.9404V109.987H60.2904V106.652Z" fill="#FF66C4"/>
<path id="Vector_281" d="M60.2904 113.331H56.9404V116.665H60.2904V113.331Z" fill="#FF66C4"/>
<path id="Vector_282" d="M63.6303 3.33447H60.2803V6.66891H63.6303V3.33447Z" fill="#FF66C4"/>
<path id="Vector_283" d="M63.6303 9.99341H60.2803V13.3278H63.6303V9.99341Z" fill="#FF66C4"/>
<path id="Vector_284" d="M63.6303 16.6622H60.2803V19.9967H63.6303V16.6622Z" fill="#FF66C4"/>
<path id="Vector_285" d="M63.6303 23.3212H60.2803V26.6556H63.6303V23.3212Z" fill="#FF66C4"/>
<path id="Vector_286" d="M63.6303 29.9901H60.2803V33.3246H63.6303V29.9901Z" fill="#FF66C4"/>
<path id="Vector_287" d="M63.6303 36.6591H60.2803V39.9935H63.6303V36.6591Z" fill="#FF66C4"/>
<path id="Vector_288" d="M63.6303 43.3179H60.2803V46.6523H63.6303V43.3179Z" fill="#FF66C4"/>
<path id="Vector_289" d="M63.6303 50.0066H60.2803V53.341H63.6303V50.0066Z" fill="#FF66C4"/>
<path id="Vector_290" d="M63.6303 56.6655H60.2803V60H63.6303V56.6655Z" fill="#FF66C4"/>
<path id="Vector_291" d="M63.6303 63.3345H60.2803V66.659H63.6303V63.3345Z" fill="#FF66C4"/>
<path id="Vector_292" d="M63.6303 69.9934H60.2803V73.3278H63.6303V69.9934Z" fill="#FF66C4"/>
<path id="Vector_293" d="M63.6303 76.6624H60.2803V79.9968H63.6303V76.6624Z" fill="#FF66C4"/>
<path id="Vector_294" d="M63.6303 83.3212H60.2803V86.6556H63.6303V83.3212Z" fill="#FF66C4"/>
<path id="Vector_295" d="M63.6303 89.9902H60.2803V93.3247H63.6303V89.9902Z" fill="#FF66C4"/>
<path id="Vector_296" d="M63.6303 96.6589H60.2803V99.9934H63.6303V96.6589Z" fill="#FF66C4"/>
<path id="Vector_297" d="M63.6303 103.318H60.2803V106.652H63.6303V103.318Z" fill="#FF66C4"/>
<path id="Vector_298" d="M63.6303 109.987H60.2803V113.341H63.6303V109.987Z" fill="#FF66C4"/>
<path id="Vector_299" d="M66.9797 3.33452V0.358411C65.8797 0.238969 64.7596 0.15934 63.6396 0.0797119V3.33452H66.9797Z" fill="#FF66C4"/>
<path id="Vector_300" d="M66.9699 6.66895H63.6299V10.0034H66.9699V6.66895Z" fill="#FF66C4"/>
<path id="Vector_301" d="M66.9699 13.3279H63.6299V16.6623H66.9699V13.3279Z" fill="#FF66C4"/>
<path id="Vector_302" d="M66.9699 19.9968H63.6299V23.3313H66.9699V19.9968Z" fill="#FF66C4"/>
<path id="Vector_303" d="M66.9699 26.6556H63.6299V29.9901H66.9699V26.6556Z" fill="#FF66C4"/>
<path id="Vector_304" d="M66.9699 33.3245H63.6299V36.6589H66.9699V33.3245Z" fill="#FF66C4"/>
<path id="Vector_305" d="M66.9699 39.9834H63.6299V43.3178H66.9699V39.9834Z" fill="#FF66C4"/>
<path id="Vector_306" d="M66.9699 46.6523H63.6299V50.0067H66.9699V46.6523Z" fill="#FF66C4"/>
<path id="Vector_307" d="M66.9699 53.3312H63.6299V56.6656H66.9699V53.3312Z" fill="#FF66C4"/>
<path id="Vector_308" d="M66.9699 60.0001H63.6299V63.3346H66.9699V60.0001Z" fill="#FF66C4"/>
<path id="Vector_309" d="M66.9699 66.6591H63.6299V69.9935H66.9699V66.6591Z" fill="#FF66C4"/>
<path id="Vector_310" d="M66.9699 73.3279H63.6299V76.6623H66.9699V73.3279Z" fill="#FF66C4"/>
<path id="Vector_311" d="M66.9699 79.9967H63.6299V83.3311H66.9699V79.9967Z" fill="#FF66C4"/>
<path id="Vector_312" d="M66.9699 86.6556H63.6299V89.9901H66.9699V86.6556Z" fill="#FF66C4"/>
<path id="Vector_313" d="M66.9699 93.3245H63.6299V96.6589H66.9699V93.3245Z" fill="#FF66C4"/>
<path id="Vector_314" d="M66.9699 99.9834H63.6299V103.318H66.9699V99.9834Z" fill="#FF66C4"/>
<path id="Vector_315" d="M66.9699 106.652H63.6299V109.987H66.9699V106.652Z" fill="#FF66C4"/>
<path id="Vector_316" d="M66.9699 113.331H63.6299V116.665H66.9699V113.331Z" fill="#FF66C4"/>
<path id="Vector_317" d="M70.3305 3.33447H66.9805V6.66891H70.3305V3.33447Z" fill="#FF66C4"/>
<path id="Vector_318" d="M70.3305 9.99341H66.9805V13.3278H70.3305V9.99341Z" fill="#FF66C4"/>
<path id="Vector_319" d="M70.3305 16.6622H66.9805V19.9967H70.3305V16.6622Z" fill="#FF66C4"/>
<path id="Vector_320" d="M70.3305 23.3212H66.9805V26.6556H70.3305V23.3212Z" fill="#FF66C4"/>
<path id="Vector_321" d="M70.3305 29.9901H66.9805V33.3246H70.3305V29.9901Z" fill="#FF66C4"/>
<path id="Vector_322" d="M70.3305 36.6591H66.9805V39.9935H70.3305V36.6591Z" fill="#FF66C4"/>
<path id="Vector_323" d="M70.3305 43.3179H66.9805V46.6523H70.3305V43.3179Z" fill="#FF66C4"/>
<path id="Vector_324" d="M70.3305 50.0066H66.9805V53.341H70.3305V50.0066Z" fill="#FF66C4"/>
<path id="Vector_325" d="M70.3305 56.6655H66.9805V60H70.3305V56.6655Z" fill="#FF66C4"/>
<path id="Vector_326" d="M70.3305 63.3345H66.9805V66.659H70.3305V63.3345Z" fill="#FF66C4"/>
<path id="Vector_327" d="M70.3305 69.9934H66.9805V73.3278H70.3305V69.9934Z" fill="#FF66C4"/>
<path id="Vector_328" d="M70.3305 76.6624H66.9805V79.9968H70.3305V76.6624Z" fill="#FF66C4"/>
<path id="Vector_329" d="M70.3305 83.3212H66.9805V86.6556H70.3305V83.3212Z" fill="#FF66C4"/>
<path id="Vector_330" d="M70.3305 89.9902H66.9805V93.3247H70.3305V89.9902Z" fill="#FF66C4"/>
<path id="Vector_331" d="M70.3305 96.6589H66.9805V99.9934H70.3305V96.6589Z" fill="#FF66C4"/>
<path id="Vector_332" d="M70.3305 103.318H66.9805V106.652H70.3305V103.318Z" fill="#FF66C4"/>
<path id="Vector_333" d="M70.3305 109.987H66.9805V113.341H70.3305V109.987Z" fill="#FF66C4"/>
<path id="Vector_334" d="M73.6701 3.33446V1.51296C72.5601 1.25416 71.4501 1.02523 70.3301 0.846069V3.33446H73.6701Z" fill="#FF66C4"/>
<path id="Vector_335" d="M73.6701 6.66895H70.3301V10.0034H73.6701V6.66895Z" fill="#FF66C4"/>
<path id="Vector_336" d="M73.6701 13.3279H70.3301V16.6623H73.6701V13.3279Z" fill="#FF66C4"/>
<path id="Vector_337" d="M73.6701 19.9968H70.3301V23.3313H73.6701V19.9968Z" fill="#FF66C4"/>
<path id="Vector_338" d="M73.6701 26.6556H70.3301V29.9901H73.6701V26.6556Z" fill="#FF66C4"/>
<path id="Vector_339" d="M73.6701 33.3245H70.3301V36.6589H73.6701V33.3245Z" fill="#FF66C4"/>
<path id="Vector_340" d="M73.6701 39.9834H70.3301V43.3178H73.6701V39.9834Z" fill="#FF66C4"/>
<path id="Vector_341" d="M73.6701 46.6523H70.3301V50.0067H73.6701V46.6523Z" fill="#FF66C4"/>
<path id="Vector_342" d="M73.6701 53.3312H70.3301V56.6656H73.6701V53.3312Z" fill="#FF66C4"/>
<path id="Vector_343" d="M73.6701 60.0001H70.3301V63.3346H73.6701V60.0001Z" fill="#FF66C4"/>
<path id="Vector_344" d="M73.6701 66.6591H70.3301V69.9935H73.6701V66.6591Z" fill="#FF66C4"/>
<path id="Vector_345" d="M73.6701 73.3279H70.3301V76.6623H73.6701V73.3279Z" fill="#FF66C4"/>
<path id="Vector_346" d="M73.6701 79.9967H70.3301V83.3311H73.6701V79.9967Z" fill="#FF66C4"/>
<path id="Vector_347" d="M73.6701 86.6556H70.3301V89.9901H73.6701V86.6556Z" fill="#FF66C4"/>
<path id="Vector_348" d="M73.6701 93.3245H70.3301V96.6589H73.6701V93.3245Z" fill="#FF66C4"/>
<path id="Vector_349" d="M73.6701 99.9834H70.3301V103.318H73.6701V99.9834Z" fill="#FF66C4"/>
<path id="Vector_350" d="M73.6701 106.652H70.3301V109.987H73.6701V106.652Z" fill="#FF66C4"/>
<path id="Vector_351" d="M73.6701 113.331H70.3301V116.665H73.6701V113.331Z" fill="#FF66C4"/>
<path id="Vector_352" d="M77.0199 3.33447H73.6699V6.66891H77.0199V3.33447Z" fill="#FF66C4"/>
<path id="Vector_353" d="M77.0199 9.99341H73.6699V13.3278H77.0199V9.99341Z" fill="#FF66C4"/>
<path id="Vector_354" d="M77.0199 16.6622H73.6699V19.9967H77.0199V16.6622Z" fill="#FF66C4"/>
<path id="Vector_355" d="M77.0199 23.3212H73.6699V26.6556H77.0199V23.3212Z" fill="#FF66C4"/>
<path id="Vector_356" d="M77.0199 29.9901H73.6699V33.3246H77.0199V29.9901Z" fill="#FF66C4"/>
<path id="Vector_357" d="M77.0199 36.6591H73.6699V39.9935H77.0199V36.6591Z" fill="#FF66C4"/>
<path id="Vector_358" d="M77.0199 43.3179H73.6699V46.6523H77.0199V43.3179Z" fill="#FF66C4"/>
<path id="Vector_359" d="M77.0199 50.0066H73.6699V53.341H77.0199V50.0066Z" fill="#FF66C4"/>
<path id="Vector_360" d="M77.0199 56.6655H73.6699V60H77.0199V56.6655Z" fill="#FF66C4"/>
<path id="Vector_361" d="M77.0199 63.3345H73.6699V66.659H77.0199V63.3345Z" fill="#FF66C4"/>
<path id="Vector_362" d="M77.0199 69.9934H73.6699V73.3278H77.0199V69.9934Z" fill="#FF66C4"/>
<path id="Vector_363" d="M77.0199 76.6624H73.6699V79.9968H77.0199V76.6624Z" fill="#FF66C4"/>
<path id="Vector_364" d="M77.0199 83.3212H73.6699V86.6556H77.0199V83.3212Z" fill="#FF66C4"/>
<path id="Vector_365" d="M77.0199 89.9902H73.6699V93.3247H77.0199V89.9902Z" fill="#FF66C4"/>
<path id="Vector_366" d="M77.0199 96.6589H73.6699V99.9934H77.0199V96.6589Z" fill="#FF66C4"/>
<path id="Vector_367" d="M77.0199 103.318H73.6699V106.652H77.0199V103.318Z" fill="#FF66C4"/>
<path id="Vector_368" d="M77.0199 109.987H73.6699V113.341H77.0199V109.987Z" fill="#FF66C4"/>
<path id="Vector_369" d="M80.1003 3.33509C79.0903 2.97656 78.0603 2.6479 77.0303 2.34912V3.33509H80.1003Z" fill="#FF66C4"/>
<path id="Vector_370" d="M80.3803 6.66895H77.0303V10.0034H80.3803V6.66895Z" fill="#FF66C4"/>
<path id="Vector_371" d="M80.3803 13.3279H77.0303V16.6623H80.3803V13.3279Z" fill="#FF66C4"/>
<path id="Vector_372" d="M80.3803 19.9968H77.0303V23.3313H80.3803V19.9968Z" fill="#FF66C4"/>
<path id="Vector_373" d="M80.3803 26.6556H77.0303V29.9901H80.3803V26.6556Z" fill="#FF66C4"/>
<path id="Vector_374" d="M80.3803 33.3245H77.0303V36.6589H80.3803V33.3245Z" fill="#FF66C4"/>
<path id="Vector_375" d="M80.3803 39.9834H77.0303V43.3178H80.3803V39.9834Z" fill="#FF66C4"/>
<path id="Vector_376" d="M80.3803 46.6523H77.0303V50.0067H80.3803V46.6523Z" fill="#FF66C4"/>
<path id="Vector_377" d="M80.3803 53.3312H77.0303V56.6656H80.3803V53.3312Z" fill="#FF66C4"/>
<path id="Vector_378" d="M80.3803 60.0001H77.0303V63.3346H80.3803V60.0001Z" fill="#FF66C4"/>
<path id="Vector_379" d="M80.3803 66.6591H77.0303V69.9935H80.3803V66.6591Z" fill="#FF66C4"/>
<path id="Vector_380" d="M80.3803 73.3279H77.0303V76.6623H80.3803V73.3279Z" fill="#FF66C4"/>
<path id="Vector_381" d="M80.3803 79.9967H77.0303V83.3311H80.3803V79.9967Z" fill="#FF66C4"/>
<path id="Vector_382" d="M80.3803 86.6556H77.0303V89.9901H80.3803V86.6556Z" fill="#FF66C4"/>
<path id="Vector_383" d="M80.3803 93.3245H77.0303V96.6589H80.3803V93.3245Z" fill="#FF66C4"/>
<path id="Vector_384" d="M80.3803 99.9834H77.0303V103.318H80.3803V99.9834Z" fill="#FF66C4"/>
<path id="Vector_385" d="M80.3803 106.652H77.0303V109.987H80.3803V106.652Z" fill="#FF66C4"/>
<path id="Vector_386" d="M77.0303 113.331V116.665H80.1003C80.1903 116.626 80.2903 116.606 80.3803 116.566V113.331H77.0303Z" fill="#FF66C4"/>
<path id="Vector_387" d="M83.7201 6.669V4.69819C82.6201 4.24033 81.5001 3.82228 80.3701 3.41418V6.669H83.7201Z" fill="#FF66C4"/>
<path id="Vector_388" d="M83.7201 9.99341H80.3701V13.3278H83.7201V9.99341Z" fill="#FF66C4"/>
<path id="Vector_389" d="M83.7201 16.6622H80.3701V19.9967H83.7201V16.6622Z" fill="#FF66C4"/>
<path id="Vector_390" d="M83.7201 23.3212H80.3701V26.6556H83.7201V23.3212Z" fill="#FF66C4"/>
<path id="Vector_391" d="M83.7201 29.9901H80.3701V33.3246H83.7201V29.9901Z" fill="#FF66C4"/>
<path id="Vector_392" d="M83.7201 36.6591H80.3701V39.9935H83.7201V36.6591Z" fill="#FF66C4"/>
<path id="Vector_393" d="M83.7201 43.3179H80.3701V46.6523H83.7201V43.3179Z" fill="#FF66C4"/>
<path id="Vector_394" d="M83.7201 50.0066H80.3701V53.341H83.7201V50.0066Z" fill="#FF66C4"/>
<path id="Vector_395" d="M83.7201 56.6655H80.3701V60H83.7201V56.6655Z" fill="#FF66C4"/>
<path id="Vector_396" d="M83.7201 63.3345H80.3701V66.659H83.7201V63.3345Z" fill="#FF66C4"/>
<path id="Vector_397" d="M83.7201 69.9934H80.3701V73.3278H83.7201V69.9934Z" fill="#FF66C4"/>
<path id="Vector_398" d="M83.7201 76.6624H80.3701V79.9968H83.7201V76.6624Z" fill="#FF66C4"/>
<path id="Vector_399" d="M83.7201 83.3212H80.3701V86.6556H83.7201V83.3212Z" fill="#FF66C4"/>
<path id="Vector_400" d="M83.7201 89.9902H80.3701V93.3247H83.7201V89.9902Z" fill="#FF66C4"/>
<path id="Vector_401" d="M83.7201 96.6589H80.3701V99.9934H83.7201V96.6589Z" fill="#FF66C4"/>
<path id="Vector_402" d="M83.7201 103.318H80.3701V106.652H83.7201V103.318Z" fill="#FF66C4"/>
<path id="Vector_403" d="M83.7201 109.987H80.3701V113.341H83.7201V109.987Z" fill="#FF66C4"/>
<path id="Vector_404" d="M87.0697 6.66895H83.7197V10.0034H87.0697V6.66895Z" fill="#FF66C4"/>
<path id="Vector_405" d="M87.0697 13.3279H83.7197V16.6623H87.0697V13.3279Z" fill="#FF66C4"/>
<path id="Vector_406" d="M87.0697 19.9968H83.7197V23.3313H87.0697V19.9968Z" fill="#FF66C4"/>
<path id="Vector_407" d="M87.0697 26.6556H83.7197V29.9901H87.0697V26.6556Z" fill="#FF66C4"/>
<path id="Vector_408" d="M87.0697 33.3245H83.7197V36.6589H87.0697V33.3245Z" fill="#FF66C4"/>
<path id="Vector_409" d="M87.0697 39.9834H83.7197V43.3178H87.0697V39.9834Z" fill="#FF66C4"/>
<path id="Vector_410" d="M87.0697 46.6523H83.7197V50.0067H87.0697V46.6523Z" fill="#FF66C4"/>
<path id="Vector_411" d="M87.0697 53.3312H83.7197V56.6656H87.0697V53.3312Z" fill="#FF66C4"/>
<path id="Vector_412" d="M87.0697 60.0001H83.7197V63.3346H87.0697V60.0001Z" fill="#FF66C4"/>
<path id="Vector_413" d="M87.0697 66.6591H83.7197V69.9935H87.0697V66.6591Z" fill="#FF66C4"/>
<path id="Vector_414" d="M87.0697 73.3279H83.7197V76.6623H87.0697V73.3279Z" fill="#FF66C4"/>
<path id="Vector_415" d="M87.0697 79.9967H83.7197V83.3311H87.0697V79.9967Z" fill="#FF66C4"/>
<path id="Vector_416" d="M87.0697 86.6556H83.7197V89.9901H87.0697V86.6556Z" fill="#FF66C4"/>
<path id="Vector_417" d="M87.0697 93.3245H83.7197V96.6589H87.0697V93.3245Z" fill="#FF66C4"/>
<path id="Vector_418" d="M87.0697 99.9834H83.7197V103.318H87.0697V99.9834Z" fill="#FF66C4"/>
<path id="Vector_419" d="M87.0697 106.652H83.7197V109.987H87.0697V106.652Z" fill="#FF66C4"/>
<path id="Vector_420" d="M83.7197 113.331V115.282C84.8597 114.804 85.9697 114.277 87.0697 113.739V113.341H83.7197V113.331Z" fill="#FF66C4"/>
<path id="Vector_421" d="M87.8903 6.66914C87.6203 6.52971 87.3503 6.38033 87.0703 6.25085V6.66914H87.8903Z" fill="#FF66C4"/>
<path id="Vector_422" d="M90.4203 9.99341H87.0703V13.3278H90.4203V9.99341Z" fill="#FF66C4"/>
<path id="Vector_423" d="M90.4203 16.6622H87.0703V19.9967H90.4203V16.6622Z" fill="#FF66C4"/>
<path id="Vector_424" d="M90.4203 23.3212H87.0703V26.6556H90.4203V23.3212Z" fill="#FF66C4"/>
<path id="Vector_425" d="M90.4203 29.9901H87.0703V33.3246H90.4203V29.9901Z" fill="#FF66C4"/>
<path id="Vector_426" d="M90.4203 36.6591H87.0703V39.9935H90.4203V36.6591Z" fill="#FF66C4"/>
<path id="Vector_427" d="M90.4203 43.3179H87.0703V46.6523H90.4203V43.3179Z" fill="#FF66C4"/>
<path id="Vector_428" d="M90.4203 50.0066H87.0703V53.341H90.4203V50.0066Z" fill="#FF66C4"/>
<path id="Vector_429" d="M90.4203 56.6655H87.0703V60H90.4203V56.6655Z" fill="#FF66C4"/>
<path id="Vector_430" d="M90.4203 63.3345H87.0703V66.659H90.4203V63.3345Z" fill="#FF66C4"/>
<path id="Vector_431" d="M90.4203 69.9934H87.0703V73.3278H90.4203V69.9934Z" fill="#FF66C4"/>
<path id="Vector_432" d="M90.4203 76.6624H87.0703V79.9968H90.4203V76.6624Z" fill="#FF66C4"/>
<path id="Vector_433" d="M90.4203 83.3212H87.0703V86.6556H90.4203V83.3212Z" fill="#FF66C4"/>
<path id="Vector_434" d="M90.4203 89.9902H87.0703V93.3247H90.4203V89.9902Z" fill="#FF66C4"/>
<path id="Vector_435" d="M90.4203 96.6589H87.0703V99.9934H90.4203V96.6589Z" fill="#FF66C4"/>
<path id="Vector_436" d="M90.4203 103.318H87.0703V106.652H90.4203V103.318Z" fill="#FF66C4"/>
<path id="Vector_437" d="M87.0703 109.987V113.341H87.8803C88.7403 112.903 89.5803 112.445 90.4203 111.958V109.987H87.0703Z" fill="#FF66C4"/>
<path id="Vector_438" d="M93.5999 9.99339C92.5699 9.31654 91.4999 8.64966 90.4199 8.02258V9.99339H93.5999Z" fill="#FF66C4"/>
<path id="Vector_439" d="M93.7699 13.3279H90.4199V16.6623H93.7699V13.3279Z" fill="#FF66C4"/>
<path id="Vector_440" d="M93.7699 19.9968H90.4199V23.3313H93.7699V19.9968Z" fill="#FF66C4"/>
<path id="Vector_441" d="M93.7699 26.6556H90.4199V29.9901H93.7699V26.6556Z" fill="#FF66C4"/>
<path id="Vector_442" d="M93.7699 33.3245H90.4199V36.6589H93.7699V33.3245Z" fill="#FF66C4"/>
<path id="Vector_443" d="M93.7699 39.9834H90.4199V43.3178H93.7699V39.9834Z" fill="#FF66C4"/>
<path id="Vector_444" d="M93.7699 46.6523H90.4199V50.0067H93.7699V46.6523Z" fill="#FF66C4"/>
<path id="Vector_445" d="M93.7699 53.3312H90.4199V56.6656H93.7699V53.3312Z" fill="#FF66C4"/>
<path id="Vector_446" d="M93.7699 60.0001H90.4199V63.3346H93.7699V60.0001Z" fill="#FF66C4"/>
<path id="Vector_447" d="M93.7699 66.6591H90.4199V69.9935H93.7699V66.6591Z" fill="#FF66C4"/>
<path id="Vector_448" d="M93.7699 73.3279H90.4199V76.6623H93.7699V73.3279Z" fill="#FF66C4"/>
<path id="Vector_449" d="M93.7699 79.9967H90.4199V83.3311H93.7699V79.9967Z" fill="#FF66C4"/>
<path id="Vector_450" d="M93.7699 86.6556H90.4199V89.9901H93.7699V86.6556Z" fill="#FF66C4"/>
<path id="Vector_451" d="M93.7699 93.3245H90.4199V96.6589H93.7699V93.3245Z" fill="#FF66C4"/>
<path id="Vector_452" d="M93.7699 99.9834H90.4199V103.318H93.7699V99.9834Z" fill="#FF66C4"/>
<path id="Vector_453" d="M90.4199 106.652V109.987H93.5999C93.6599 109.967 93.7199 109.927 93.7699 109.887V106.662H90.4199V106.652Z" fill="#FF66C4"/>
<path id="Vector_454" d="M97.1195 13.3279V12.5018C96.0295 11.6756 94.9095 10.8594 93.7695 10.093V13.3279H97.1195Z" fill="#FF66C4"/>
<path id="Vector_455" d="M97.1195 16.6622H93.7695V19.9967H97.1195V16.6622Z" fill="#FF66C4"/>
<path id="Vector_456" d="M97.1195 23.3212H93.7695V26.6556H97.1195V23.3212Z" fill="#FF66C4"/>
<path id="Vector_457" d="M97.1195 29.9901H93.7695V33.3246H97.1195V29.9901Z" fill="#FF66C4"/>
<path id="Vector_458" d="M97.1195 36.6591H93.7695V39.9935H97.1195V36.6591Z" fill="#FF66C4"/>
<path id="Vector_459" d="M97.1195 43.3179H93.7695V46.6523H97.1195V43.3179Z" fill="#FF66C4"/>
<path id="Vector_460" d="M97.1195 50.0066H93.7695V53.341H97.1195V50.0066Z" fill="#FF66C4"/>
<path id="Vector_461" d="M97.1195 56.6655H93.7695V60H97.1195V56.6655Z" fill="#FF66C4"/>
<path id="Vector_462" d="M97.1195 63.3345H93.7695V66.659H97.1195V63.3345Z" fill="#FF66C4"/>
<path id="Vector_463" d="M97.1195 69.9934H93.7695V73.3278H97.1195V69.9934Z" fill="#FF66C4"/>
<path id="Vector_464" d="M97.1195 76.6624H93.7695V79.9968H97.1195V76.6624Z" fill="#FF66C4"/>
<path id="Vector_465" d="M97.1195 83.3212H93.7695V86.6556H97.1195V83.3212Z" fill="#FF66C4"/>
<path id="Vector_466" d="M97.1195 89.9902H93.7695V93.3247H97.1195V89.9902Z" fill="#FF66C4"/>
<path id="Vector_467" d="M97.1195 96.6589H93.7695V99.9934H97.1195V96.6589Z" fill="#FF66C4"/>
<path id="Vector_468" d="M97.1195 103.318H93.7695V106.652H97.1195V103.318Z" fill="#FF66C4"/>
<path id="Vector_469" d="M97.1201 16.6623H100.47V15.2788C99.7101 14.6218 98.9401 13.955 98.1601 13.3279H97.1201V16.6623Z" fill="#FF66C4"/>
<path id="Vector_470" d="M100.47 19.9968H97.1201V23.3313H100.47V19.9968Z" fill="#FF66C4"/>
<path id="Vector_471" d="M100.47 26.6556H97.1201V29.9901H100.47V26.6556Z" fill="#FF66C4"/>
<path id="Vector_472" d="M100.47 33.3245H97.1201V36.6589H100.47V33.3245Z" fill="#FF66C4"/>
<path id="Vector_473" d="M100.47 39.9834H97.1201V43.3178H100.47V39.9834Z" fill="#FF66C4"/>
<path id="Vector_474" d="M100.47 46.6523H97.1201V50.0067H100.47V46.6523Z" fill="#FF66C4"/>
<path id="Vector_475" d="M100.47 53.3312H97.1201V56.6656H100.47V53.3312Z" fill="#FF66C4"/>
<path id="Vector_476" d="M100.47 60.0001H97.1201V63.3346H100.47V60.0001Z" fill="#FF66C4"/>
<path id="Vector_477" d="M100.47 66.6591H97.1201V69.9935H100.47V66.6591Z" fill="#FF66C4"/>
<path id="Vector_478" d="M100.47 73.3279H97.1201V76.6623H100.47V73.3279Z" fill="#FF66C4"/>
<path id="Vector_479" d="M100.47 79.9967H97.1201V83.3311H100.47V79.9967Z" fill="#FF66C4"/>
<path id="Vector_480" d="M100.47 86.6556H97.1201V89.9901H100.47V86.6556Z" fill="#FF66C4"/>
<path id="Vector_481" d="M100.47 93.3245H97.1201V96.6589H100.47V93.3245Z" fill="#FF66C4"/>
<path id="Vector_482" d="M100.47 99.9834H97.1201V103.318H100.47V99.9834Z" fill="#FF66C4"/>
<path id="Vector_483" d="M97.1201 107.469C97.4701 107.19 97.8201 106.931 98.1601 106.652H97.1201V107.469Z" fill="#FF66C4"/>
<path id="Vector_484" d="M100.47 19.9967H103.81V18.5335C103.2 17.8865 102.59 17.2694 101.95 16.6622H100.47V19.9967Z" fill="#FF66C4"/>
<path id="Vector_485" d="M103.81 23.3212H100.47V26.6556H103.81V23.3212Z" fill="#FF66C4"/>
<path id="Vector_486" d="M103.81 29.9901H100.47V33.3246H103.81V29.9901Z" fill="#FF66C4"/>
<path id="Vector_487" d="M103.81 36.6591H100.47V39.9935H103.81V36.6591Z" fill="#FF66C4"/>
<path id="Vector_488" d="M103.81 43.3179H100.47V46.6523H103.81V43.3179Z" fill="#FF66C4"/>
<path id="Vector_489" d="M103.81 50.0066H100.47V53.341H103.81V50.0066Z" fill="#FF66C4"/>
<path id="Vector_490" d="M103.81 56.6655H100.47V60H103.81V56.6655Z" fill="#FF66C4"/>
<path id="Vector_491" d="M103.81 63.3345H100.47V66.659H103.81V63.3345Z" fill="#FF66C4"/>
<path id="Vector_492" d="M103.81 69.9934H100.47V73.3278H103.81V69.9934Z" fill="#FF66C4"/>
<path id="Vector_493" d="M103.81 76.6624H100.47V79.9968H103.81V76.6624Z" fill="#FF66C4"/>
<path id="Vector_494" d="M103.81 83.3212H100.47V86.6556H103.81V83.3212Z" fill="#FF66C4"/>
<path id="Vector_495" d="M103.81 89.9902H100.47V93.3247H103.81V89.9902Z" fill="#FF66C4"/>
<path id="Vector_496" d="M103.81 96.6589H100.47V99.9934H103.81V96.6589Z" fill="#FF66C4"/>
<path id="Vector_497" d="M100.47 104.702C100.97 104.264 101.46 103.796 101.95 103.318H100.47V104.702Z" fill="#FF66C4"/>
<path id="Vector_498" d="M103.81 23.3213H107.16V22.296C106.52 21.5097 105.87 20.7532 105.2 19.9868H103.81V23.3213Z" fill="#FF66C4"/>
<path id="Vector_499" d="M107.16 26.6556H103.81V29.9901H107.16V26.6556Z" fill="#FF66C4"/>
<path id="Vector_500" d="M107.16 33.3245H103.81V36.6589H107.16V33.3245Z" fill="#FF66C4"/>
<path id="Vector_501" d="M107.16 39.9834H103.81V43.3178H107.16V39.9834Z" fill="#FF66C4"/>
<path id="Vector_502" d="M107.16 46.6523H103.81V50.0067H107.16V46.6523Z" fill="#FF66C4"/>
<path id="Vector_503" d="M107.16 53.3312H103.81V56.6656H107.16V53.3312Z" fill="#FF66C4"/>
<path id="Vector_504" d="M107.16 60.0001H103.81V63.3346H107.16V60.0001Z" fill="#FF66C4"/>
<path id="Vector_505" d="M107.16 66.6591H103.81V69.9935H107.16V66.6591Z" fill="#FF66C4"/>
<path id="Vector_506" d="M107.16 73.3279H103.81V76.6623H107.16V73.3279Z" fill="#FF66C4"/>
<path id="Vector_507" d="M107.16 79.9967H103.81V83.3311H107.16V79.9967Z" fill="#FF66C4"/>
<path id="Vector_508" d="M107.16 86.6556H103.81V89.9901H107.16V86.6556Z" fill="#FF66C4"/>
<path id="Vector_509" d="M107.16 93.3245H103.81V96.6589H107.16V93.3245Z" fill="#FF66C4"/>
<path id="Vector_510" d="M103.81 101.466C104.28 100.989 104.75 100.491 105.2 99.9834H103.81V101.466Z" fill="#FF66C4"/>
<path id="Vector_511" d="M107.17 26.6556H110.41C109.64 25.5109 108.83 24.4061 107.98 23.3212H107.17V26.6556Z" fill="#FF66C4"/>
<path id="Vector_512" d="M110.52 29.9901H107.17V33.3246H110.52V29.9901Z" fill="#FF66C4"/>
<path id="Vector_513" d="M110.52 36.6591H107.17V39.9935H110.52V36.6591Z" fill="#FF66C4"/>
<path id="Vector_514" d="M110.52 43.3179H107.17V46.6523H110.52V43.3179Z" fill="#FF66C4"/>
<path id="Vector_515" d="M110.52 50.0066H107.17V53.341H110.52V50.0066Z" fill="#FF66C4"/>
<path id="Vector_516" d="M110.52 56.6655H107.17V60H110.52V56.6655Z" fill="#FF66C4"/>
<path id="Vector_517" d="M110.52 63.3345H107.17V66.659H110.52V63.3345Z" fill="#FF66C4"/>
<path id="Vector_518" d="M110.52 69.9934H107.17V73.3278H110.52V69.9934Z" fill="#FF66C4"/>
<path id="Vector_519" d="M110.52 76.6624H107.17V79.9968H110.52V76.6624Z" fill="#FF66C4"/>
<path id="Vector_520" d="M110.52 83.3212H107.17V86.6556H110.52V83.3212Z" fill="#FF66C4"/>
<path id="Vector_521" d="M107.17 89.9902V93.3247H110.41C110.45 93.265 110.48 93.2052 110.52 93.1654V89.9902H107.17Z" fill="#FF66C4"/>
<path id="Vector_522" d="M107.17 97.6948C107.45 97.3562 107.71 97.0076 107.98 96.649H107.17V97.6948Z" fill="#FF66C4"/>
<path id="Vector_523" d="M112.47 29.99C111.85 28.925 111.2 27.8599 110.51 26.8347V29.99H112.47Z" fill="#FF66C4"/>
<path id="Vector_524" d="M113.86 33.3245H110.51V36.6589H113.86V33.3245Z" fill="#FF66C4"/>
<path id="Vector_525" d="M113.86 39.9834H110.51V43.3178H113.86V39.9834Z" fill="#FF66C4"/>
<path id="Vector_526" d="M113.86 46.6523H110.51V50.0067H113.86V46.6523Z" fill="#FF66C4"/>
<path id="Vector_527" d="M113.86 53.3312H110.51V56.6656H113.86V53.3312Z" fill="#FF66C4"/>
<path id="Vector_528" d="M113.86 60.0001H110.51V63.3346H113.86V60.0001Z" fill="#FF66C4"/>
<path id="Vector_529" d="M113.86 66.6591H110.51V69.9935H113.86V66.6591Z" fill="#FF66C4"/>
<path id="Vector_530" d="M113.86 73.3279H110.51V76.6623H113.86V73.3279Z" fill="#FF66C4"/>
<path id="Vector_531" d="M113.86 79.9967H110.51V83.3311H113.86V79.9967Z" fill="#FF66C4"/>
<path id="Vector_532" d="M110.51 86.6556V89.9901H112.47C112.96 89.1639 113.41 88.3278 113.86 87.4818V86.6556H110.51Z" fill="#FF66C4"/>
<path id="Vector_533" d="M40.4697 116.666C41.4697 117.004 42.4997 117.333 43.5297 117.632V116.666H40.4697Z" fill="#FF66C4"/>
<path id="Vector_534" d="M46.8896 116.666V118.487C47.9896 118.726 49.1097 118.955 50.2397 119.134V116.666H46.8896Z" fill="#FF66C4"/>
<path id="Vector_535" d="M53.5801 116.666V119.612C54.6901 119.731 55.8001 119.831 56.9301 119.891V116.656H53.5801V116.666Z" fill="#FF66C4"/>
<path id="Vector_536" d="M60.2803 116.666V120C61.4003 120 62.5203 119.96 63.6303 119.901V116.666H60.2803Z" fill="#FF66C4"/>
<path id="Vector_537" d="M66.9805 116.666V119.612C68.1105 119.492 69.2305 119.333 70.3305 119.154V116.666H66.9805Z" fill="#FF66C4"/>
<path id="Vector_538" d="M73.6699 116.666V118.487C74.7999 118.228 75.9199 117.95 77.0199 117.621V116.656H73.6699V116.666Z" fill="#FF66C4"/>
</g>
</g>
</svg>
