<svg version="1.1" id="Layer_1" xmlns="http://www.w3.org/2000/svg" xmlns:xlink="http://www.w3.org/1999/xlink" x="0px" y="0px"
	 viewBox="0 0 68.1 54.3" style="enable-background:new 0 0 68.1 54.3;" xml:space="preserve">
<style type="text/css">
	.kioesst0{fill:#FFFFFF;}
</style>
<rect id="XMLID_69_" x="21.3" y="10" class="kioesst0" width="2" height="44.4"/>
<rect id="XMLID_66_" x="21.3" y="10" class="kioesst0" width="8.8" height="1.7"/>
<rect id="XMLID_62_" x="29.2" y="10" class="kioesst0" width="2" height="44.4"/>
<rect id="XMLID_59_" x="36.9" y="10" class="kioesst0" width="2" height="44.4"/>
<rect id="XMLID_55_" x="36.9" y="10" class="kioesst0" width="9.8" height="1.7"/>
<rect id="XMLID_51_" x="44.8" y="10" class="kioesst0" width="2" height="44.4"/>
<rect id="XMLID_45_" x="33.1" y="-18.8" transform="matrix(-1.836970e-16 1 -1 -1.836970e-16 40.4613 -27.684)" class="kioesst0" width="2" height="50.4"/>
<rect id="XMLID_37_" x="33.1" y="-33.1" transform="matrix(-1.836970e-16 1 -1 -1.836970e-16 35.0563 -33.089)" class="kioesst0" width="2" height="68.1"/>
<rect id="XMLID_14_" x="25.3" y="30" transform="matrix(-1.836970e-16 1 -1 -1.836970e-16 61.1375 8.524)" class="kioesst0" width="2" height="9.6"/>
<rect id="XMLID_6_" x="40.9" y="30" transform="matrix(-1.836970e-16 1 -1 -1.836970e-16 76.7612 -7.0997)" class="kioesst0" width="2" height="9.6"/>
</svg>
