<svg id="Layer_1" xmlns="http://www.w3.org/2000/svg" viewBox="0 0 47.64 47.68"><defs><style>.clslinkedin-1{fill:none;}.clslinkedin-2{fill:#1a2531;fill-rule:evenodd;}</style></defs><g id="Social_LinkedIn"><path id="Path_31" class="clslinkedin-2" d="m45.34,35.15V11.3c0-3.22.6-7.31-1.37-8.62-.84-.56-2.22-.48-3.62-.48H4.99c-.24.16-.6.12-.89.24-.63.3-1.16.78-1.53,1.36-.33.96-.44,1.98-.32,2.98v33.75c0,1.16-.12,2.48.32,3.22,1.37,2.31,5.99,1.61,9.59,1.61h23.04c3,0,7.42.53,9.18-.81,1.53-1.16.97-6.67.97-9.42m-30.37,3.78h-6.36v-20.54h6.36v20.54Zm.32-25.7c-.54,1.23-1.66,2.1-2.98,2.34-2.53.6-4.92-2.5-4.03-4.91.4-1.01,1.18-1.81,2.18-2.25.3-.13.7-.08.97-.24,2.63-.04,5.02,2.31,3.87,5.07m23.69,16.11v9.59h-6.36v-9.18c0-1.92.05-3.91-.73-5.07-.55-.66-1.32-1.09-2.17-1.21-1.3-.25-2.62.29-3.38,1.37-.9,1.3-.89,3.2-.89,5.48v8.62h-6.36v-20.54h6.04v2.82h.16c.95-1.66,2.56-2.83,4.43-3.22,2.58-.69,6.3.6,7.25,1.85.63.8,1.12,1.7,1.45,2.66.62,1.91.56,4.38.56,6.85"/></g><rect class="clslinkedin-1" width="47.68" height="47.68"/></svg>