<svg version="1.1"  xmlns="http://www.w3.org/2000/svg" xmlns:xlink="http://www.w3.org/1999/xlink" x="0px" y="0px"
	 viewBox="0 0 1366 768" style="enable-background:new 0 0 1366 768;" xml:space="preserve">
<style type="text/css">
	.logost0{fill:#FFFFFF;}
</style>
<g id="XMLID_96_">
	<g>
		<path id="XMLID_185_" class="logost0" d="M616.5,415.8h-8.8l-3.4,7.5h-1.9l0.6-0.4c0.2-0.1,0.3-0.4,0.4-0.5l8.1-17.7l-1-1.8
			c-0.2-0.3-0.4-0.6-0.6-0.8l0,0h2.5c0.4,0,0.9,0.3,1,0.7l9.7,19.6c0.1,0.2,0.3,0.4,0.4,0.5l0.5,0.4h-3.4c-0.2,0-0.4-0.2-0.5-0.3
			L616.5,415.8z M616,414.7l-4-8.3l-3.8,8.3H616z"/>
		<path id="XMLID_183_" class="logost0" d="M647.7,404c-2.6-0.7-3.9-0.9-5.9-0.9v18.7c0,0.6,0.2,1,0.5,1.4h-3.9c0.3-0.4,0.5-0.9,0.5-1.5
			v-18.7c-2,0-3.3,0.2-5.9,0.9l-1.2-2h17.2L647.7,404z"/>
		<path id="XMLID_181_" class="logost0" d="M658.9,423.3c0.3-0.4,0.4-0.9,0.4-1.4v-18.4c0-0.6-0.2-1-0.4-1.4h3.9
			c-0.2,0.4-0.4,0.8-0.4,1.4v8.1h10.7v-8c0-0.6-0.2-1-0.5-1.4h3.9c-0.2,0.4-0.4,0.8-0.4,1.4v18.5c0,0.5,0.2,1,0.4,1.4h-3.9
			c0.3-0.4,0.5-0.9,0.5-1.4v-9.2h-10.7v9.3c0,0.5,0.2,1,0.4,1.4H658.9z"/>
		<path id="XMLID_179_" class="logost0" d="M701.6,423.3h-13c0.3-0.4,0.5-0.9,0.5-1.4v-18.4c0-0.6-0.2-1-0.5-1.4h11.5l-1.3,2
			c-3.3-0.9-4.8-0.9-6.8-0.9v7.4h6.2l-1,1.9c-2.7-0.8-3.2-0.8-5.2-0.8v10c0,0.2,0,0.4,0.1,0.5c2.6,0,5,0,8.3-0.9L701.6,423.3z"/>
		<path id="XMLID_177_" class="logost0" d="M730.7,418.1v-14.2c0-0.8-0.1-1.5-0.5-2h2.3c-0.4,0.5-0.5,1.1-0.5,2v19.3l-0.4-0.1
			c-0.5-0.1-0.9-0.4-1.2-0.7l-15.4-17.2v16c0,0.8,0.1,1.5,0.5,2h-2.3c0.4-0.5,0.5-1.1,0.5-2v-17.5l-1.6-1.8h2.7
			c0.6,0,1.3,0.3,1.6,0.7L730.7,418.1z"/>
		<path id="XMLID_174_" class="logost0" d="M756.5,415.8h-8.8l-3.5,7.5h-1.9l0.6-0.4c0.2-0.1,0.3-0.4,0.4-0.5l8.1-17.7l-1-1.8
			c-0.2-0.3-0.4-0.6-0.6-0.8l0,0h2.5c0.4,0,0.9,0.3,1,0.7l9.7,19.6c0.1,0.2,0.3,0.4,0.4,0.5l0.5,0.4h-3.4c-0.2,0-0.4-0.2-0.5-0.3
			L756.5,415.8z M756,414.7l-4-8.3l-3.8,8.3H756z"/>
	</g>
</g>
<g id="XMLID_8_">
	<g>
		<path id="XMLID_265_" class="logost0" d="M608.1,453.8c-3.5,0-6.1-2.6-6.1-6.3c0-3.7,2.6-6.3,6.1-6.3s6.1,2.6,6.1,6.3
			C614.2,451.2,611.6,453.8,608.1,453.8z M608.1,441.6c-3.4,0-5.7,2.6-5.7,5.9c0,3.3,2.3,5.9,5.7,5.9c3.4,0,5.7-2.6,5.7-5.9
			C613.8,444.2,611.5,441.6,608.1,441.6z"/>
		<path id="XMLID_263_" class="logost0" d="M628.5,453.8c-1.5,0-2.7-0.6-3.5-1.5l0.3-0.3c0.9,0.9,2,1.4,3.2,1.4c1.7,0,3.3-1,3.3-2.9
			c0-1.8-1.6-2.4-3.2-2.9c-2-0.6-3.3-1.3-3.3-3.3c0-2,1.7-3.1,3.7-3.1c1.2,0,2.4,0.5,3.1,1.3l-0.3,0.3c-0.6-0.8-1.6-1.2-2.8-1.2
			c-1.6,0-3.3,0.9-3.3,2.8c0,1.8,1.5,2.4,3,2.9c2,0.7,3.6,1.3,3.6,3.3C632.1,452.7,630.5,453.8,628.5,453.8z"/>
		<path id="XMLID_261_" class="logost0" d="M646,442v11.5h-0.4V442h-4v-0.3h8.5v0.3H646z"/>
		<path id="XMLID_259_" class="logost0" d="M660.1,453.5v-11.9h6.9v0.3h-6.6v5.2h6.2v0.3h-6.2v5.7h6.8v0.3H660.1z"/>
		<path id="XMLID_256_" class="logost0" d="M683.9,453.8c-3.5,0-6.1-2.6-6.1-6.3c0-3.7,2.6-6.3,6.1-6.3s6.1,2.6,6.1,6.3
			C690,451.2,687.4,453.8,683.9,453.8z M683.9,441.6c-3.4,0-5.7,2.6-5.7,5.9c0,3.3,2.3,5.9,5.7,5.9c3.4,0,5.7-2.6,5.7-5.9
			C689.7,444.2,687.3,441.6,683.9,441.6z"/>
		<path id="XMLID_253_" class="logost0" d="M704.8,447.7h-3.1v5.8h-0.4v-11.9h3.2c1.7,0,3.7,0.7,3.7,3
			C708.3,446.6,706.7,447.7,704.8,447.7z M704.8,441.9h-3v5.4h3.1c1.5,0,3.1-0.8,3.1-2.8C707.9,442.6,706.2,441.9,704.8,441.9z"/>
		<path id="XMLID_250_" class="logost0" d="M727.8,453.5l-1.4-3.4h-6.9l-1.5,3.4h-0.4l5.1-11.9h0.5l4.9,11.9H727.8z M723,441.9l-3.4,7.9
			h6.6L723,441.9z"/>
		<path id="XMLID_248_" class="logost0" d="M740.8,442v11.5h-0.4V442h-4v-0.3h8.5v0.3H740.8z"/>
		<path id="XMLID_246_" class="logost0" d="M763.3,453.5v-6h-8v6h-0.4v-11.9h0.4v5.6h8v-5.6h0.4v11.9H763.3z"/>
	</g>
</g>
<g id="XMLID_2_">
	<g>
		<path id="XMLID_56_" class="logost0" d="M700,396.7h-11.6v-1.5H700V396.7z"/>
	</g>
</g>
<rect id="XMLID_69_" x="670.4" y="324" class="logost0" width="2" height="44.4"/>
<rect id="XMLID_66_" x="670.4" y="324" class="logost0" width="8.8" height="1.7"/>
<rect id="XMLID_62_" x="678.2" y="324" class="logost0" width="2" height="44.4"/>
<rect id="XMLID_59_" x="686" y="324" class="logost0" width="2" height="44.4"/>
<rect id="XMLID_55_" x="686" y="324" class="logost0" width="9.8" height="1.7"/>
<rect id="XMLID_51_" x="693.8" y="324" class="logost0" width="2" height="44.4"/>
<rect id="XMLID_45_" x="682.1" y="295.2" transform="matrix(-1.836970e-16 1 -1 -1.836970e-16 1003.4987 -362.7214)" class="logost0" width="2" height="50.4"/>
<rect id="XMLID_37_" x="682.1" y="280.9" transform="matrix(-1.836970e-16 1 -1 -1.836970e-16 998.0937 -368.1264)" class="logost0" width="2" height="68.1"/>
<rect id="XMLID_14_" x="674.4" y="344" transform="matrix(-1.836970e-16 1 -1 -1.836970e-16 1024.1749 -326.5134)" class="logost0" width="2" height="9.6"/>
<rect id="XMLID_6_" x="690" y="344" transform="matrix(-1.836970e-16 1 -1 -1.836970e-16 1039.7986 -342.1371)" class="logost0" width="2" height="9.6"/>
</svg>
