<svg xmlns="http://www.w3.org/2000/svg" width="687" height="248" viewBox="0 0 687 248"><defs><linearGradient id="qtieb" x1="0" x2="34.45" y1="190.14" y2="224.59" gradientUnits="userSpaceOnUse"><stop offset="0" stop-color="#0058fe"/><stop offset="1" stop-color="#e76f18"/></linearGradient><clipPath id="qtiea"><path d="M0 248.088V.332h686.566v247.756z"/></clipPath></defs><g><g><g><g><g><path d="M0 248.088V.332h686.566v247.756z"/></g><g clip-path="url(#qtiea)"><path d="M56.37 93.399l7.96-17.658c8.539 6.223 21.277 10.566 33.434 10.566 13.895 0 19.54-4.632 19.54-10.856 0-18.96-58.909-5.934-58.909-43.566 0-17.224 13.896-31.554 42.698-31.554 12.737 0 25.764 3.04 35.172 8.975l-7.237 17.803c-9.408-5.356-19.106-7.962-28.08-7.962-13.894 0-19.25 5.211-19.25 11.58 0 18.671 58.909 5.79 58.909 42.987 0 16.935-14.04 31.409-42.988 31.409-16.065 0-32.276-4.776-41.25-11.724"/></g><g clip-path="url(#qtiea)"><path d="M237.437 52.727c0-19.25-13.605-32.422-31.698-32.422-18.092 0-31.697 13.171-31.697 32.422 0 19.25 13.605 32.422 31.697 32.422 18.093 0 31.698-13.171 31.698-32.422m-87.132 0c0-30.105 23.447-52.396 55.434-52.396 31.843 0 55.435 22.146 55.435 52.396s-23.592 52.396-55.435 52.396c-31.987 0-55.434-22.29-55.434-52.396"/></g><g clip-path="url(#qtiea)"><path d="M278.834 2.069h23.448V84.28h50.804v19.105h-74.252z"/></g><g clip-path="url(#qtiea)"><path d="M394.335 63.873l16.065-38.79 16.068 38.79zm48.489 39.513h24.604L422.125 2.07h-23.158l-45.158 101.317h24.026l8.974-21.71h47.04z"/></g><g clip-path="url(#qtiea)"><path d="M542.55 103.386l-19.54-28.224h-21.566v28.224h-23.447V2.07h43.856c27.065 0 44 14.04 44 36.764 0 15.197-7.672 26.342-20.843 31.987l22.725 32.566zm-22-82.211h-19.106V56.49h19.105c14.329 0 21.566-6.658 21.566-17.658 0-11.145-7.237-17.658-21.566-17.658"/></g><g clip-path="url(#qtiea)"><path d="M56.37 214.799l7.96-17.66c8.539 6.224 21.277 10.567 33.434 10.567 13.895 0 19.54-4.632 19.54-10.855 0-18.96-58.909-5.934-58.909-43.568 0-17.223 13.896-31.552 42.698-31.552 12.737 0 25.764 3.04 35.172 8.974l-7.237 17.803c-9.408-5.355-19.106-7.961-28.08-7.961-13.894 0-19.25 5.21-19.25 11.579 0 18.671 58.909 5.79 58.909 42.987 0 16.935-14.04 31.41-42.988 31.41-16.065 0-32.276-4.777-41.25-11.724"/></g><g clip-path="url(#qtiea)"><path d="M266.24 235.64c-6.657 8.106-16.21 12.448-27.355 12.448-15.052 0-25.619-5.5-41.25-22-27.79-3.473-47.33-24.462-47.33-51.962 0-30.106 23.448-52.395 55.435-52.395 31.843 0 55.435 22.145 55.435 52.395 0 23.738-14.619 42.554-36.184 49.502 4.92 5.21 9.263 7.091 14.328 7.091 6.224 0 11.724-2.46 16.5-7.526zm-60.5-29.092c18.093 0 31.698-13.17 31.698-32.422 0-19.25-13.605-32.42-31.698-32.42-18.092 0-31.698 13.17-31.698 32.42 0 19.252 13.606 32.422 31.698 32.422"/></g><g clip-path="url(#qtiea)"><path d="M277.966 180.206v-56.738h23.448v55.87c0 19.25 8.395 27.21 22.58 27.21 14.328 0 22.578-7.96 22.578-27.21v-55.87h23.158v56.738c0 29.816-17.08 46.317-45.882 46.317s-45.882-16.501-45.882-46.317"/></g><g clip-path="url(#qtiea)"><path d="M418.074 185.271l16.065-38.79 16.067 38.79zm48.488 39.514h24.605l-45.304-101.318h-23.157l-45.159 101.318h24.027l8.974-21.712h47.04z"/></g><g clip-path="url(#qtiea)"><path d="M566.288 224.785l-19.539-28.224h-21.567v28.224h-23.446V123.468h43.856c27.065 0 44 14.04 44 36.764 0 15.197-7.672 26.342-20.843 31.987l22.725 32.566zm-22-82.212h-19.105v35.317h19.105c14.329 0 21.566-6.659 21.566-17.658 0-11.145-7.237-17.659-21.566-17.659"/></g><g clip-path="url(#qtiea)"><path d="M686.566 205.968v18.817h-78.448V123.467h76.567v18.817H631.42v22h47.04v18.236h-47.04v23.448z"/></g></g></g><g><g><path fill="url(#qtieb)" d="M0 190.14h34.452v34.453H0z"/></g></g></g></g></svg>