<svg version="1.1" id="Layer_1" xmlns="http://www.w3.org/2000/svg" xmlns:xlink="http://www.w3.org/1999/xlink" x="0px" y="0px"
	 viewBox="0 0 1043.4 1043.4" style="enable-background:new 0 0 1043.4 1043.4;" xml:space="preserve">
<path d="M505.5,505.5l-489.4,1.1c-8.9,0-16.2,7.3-16.2,16.2c0,8.9,7.3,16.2,16.2,16.2l489.2-1.1l-1.1,489.2
	c0,8.9,7.2,16.2,16.2,16.2c8.9,0,16.2-7.2,16.2-16.2l1.1-489.4l489.4-1.1c8.9,0,16.2-7.3,16.2-16.2c0-4.5-1.8-8.5-4.7-11.4
	c-2.9-2.9-7-4.8-11.5-4.7l-489.2,1.1L539,16.2c0-4.5-1.8-8.5-4.7-11.5c-2.9-2.9-7-4.7-11.4-4.7c-8.9,0-16.2,7.2-16.2,16.2
	L505.5,505.5L505.5,505.5z"/>
</svg>
