<svg class="portfolio-solar" xmlns="http://www.w3.org/2000/svg" width="61" height="61" viewBox="0 0 61 61"><g><g><path fill="#fff" d="M60.16.865l.002 59.995h-.156l-.001-7.717h-1.912v7.717h-.157v-7.717h-1.912v7.717h-.156v-7.717h-.054L53.954 55v5.86h-.156v-5.703l-1.435 1.436v4.27h-.628v-.003h-.006v-4.273l-1.913-1.912.001 6.185h-.157v-6.342l-1.376-1.376h-.536v7.718h-.157v-7.718h-1.912v7.718h-.157v-7.718H43.61v7.718h-.156l-.001-7.718h-1.912v7.718h-.156v-7.718h-1.913v7.718h-.157v-7.718h-1.594v7.72h-.628v-7.72h-1.76v7.718h-.156v-7.718h-1.912v7.718h-.156v-7.718h-1.913v7.718h-.157v-7.718h-1.912v7.719h-.156l-.001-7.719h-1.912v7.719h-.156v-7.719h-1.913v7.719h-.156l-.001-7.719-1.754.001v7.72h-.627v-7.72h-1.6v7.718h-.156v-7.718h-1.913v7.718h-.156v-7.718h-1.913v7.718h-.157v-7.718h-1.912v7.719h-.156v-7.719h-1.912v7.719h-.157v-7.719h-.531l-1.382 1.382v6.337h-.156v-6.18l-1.913 1.912.001 4.268h-.001v.002h-.628v-4.27l-1.44-1.44v5.708h-.157v-5.864l-1.854-1.854h-.059l.001 7.718h-.157v-7.718H2.23v7.718h-.157v-7.718H.161v7.718H.005L.002.868H.16v7.723h1.913V.868h.157v7.723H4.14V.868h.156V8.59h.059L6.21 6.736V.868h.156v5.711l1.44-1.44V.87h.472V.869h.157V5.14l1.913 1.913-.001-6.185h.157v6.341l1.381 1.381h.532V.867h.156V8.59h1.913L14.485.867h.157V8.59h1.912V.867h.157V8.59h1.912V.867h.157V8.59h1.913V.867h.157V8.59h1.598V.87h.313V.866h.157V.87h.158v7.72h1.755V.868h.156V8.59H26.9L26.899.867h.157V8.59h1.912V.867h.157V8.59h1.913L31.037.867h.157V8.59h1.912V.867h.156l.001 7.723h1.912V.867h.157V8.59l1.76-.001-.001-7.72h.153V.866h.156v.001h.318V8.59h1.595V.867h.157v7.722h1.912V.867h.157v7.722h1.912V.866h.157v7.723h1.913L45.52.866h.157v7.723h1.912V.866h.157v7.723h.535l1.377-1.377V.866h.156l.001 6.19 1.912-1.913V.866h.156v.002h.478v4.27l1.435 1.434V.866h.157v5.863l1.859 1.86h.053V.865h.156v7.722h1.913V.865h.157v7.723h1.912V.865zm-2.067 51.65h1.912l-.002-43.299h-1.912zm-2.07 0h1.913l-.002-43.299h-1.912zm-.21 0h.054l-.002-43.299h-.053l-1.858 1.86v39.58zm-8.065 0h.536l1.376-1.376-.002-40.546-1.377-1.376h-.535zm-2.069 0h1.912l-.002-43.298h-1.912zm-2.07 0h1.913L45.52 9.217h-1.913zm-2.068 0h1.912l-.002-43.298H41.54zm-2.07 0h1.914l-.003-43.298h-1.911zm-1.75.001h1.594l-.002-43.299h-1.595zm-2.387 0h1.759l-.001-43.299h-1.76zm-2.069 0h1.912l-.002-43.299h-1.912zm-2.069 0h1.912l-.002-43.299h-1.912zm-2.069 0h1.912l-.001-43.298h-1.913zm-2.069 0h1.912l-.002-43.298h-1.912zm-2.069 0h1.913L26.9 9.218h-1.913zm-1.91 0h1.753l-.001-43.298h-1.755zm-2.228 0h1.6L22.45 9.218h-1.6zm-2.069 0h1.912l-.001-43.298H18.78zm-2.069 0h1.912l-.002-43.298h-1.911zm-2.069 0h1.912l-.002-43.298h-1.912zm-2.068 0h1.911l-.001-43.298h-1.913zm-.688 0h.53l-.001-43.298h-.532l-1.38 1.381.001 40.536zm-7.588 0h.058l1.853-1.854-.001-39.59-1.854-1.854h-.058zm-2.07 0h1.913L4.14 9.219H2.229zm-2.068 0h1.911L2.072 9.219H.16zm49.654-1.534l1.913-1.912-.002-36.409-1.912-1.911zm-39.466-.003l-.002-40.224-1.913 1.914.002 36.397zm-3.982-.473l1.44-1.441-.002-36.395-1.439-1.44zm47.43-.007l-.002-39.267-1.435 1.436.002 36.396z"/></g></g></svg>