<svg class="portfolio-wind"  xmlns="http://www.w3.org/2000/svg" width="69" height="60" viewBox="0 0 69 60"><defs><clipPath id="idvxa"><path d="M0 59.865v-60h69.053v60z"/></clipPath></defs><g><g clip-path="url(#clip-d27e8518-57b3-451a-a9dd-3a14355a156d)"><g><g><g/><g clip-path="url(#idvxa)" transform="rotate(-22.14 34.5 39.5)"><path fill="none" stroke="#fff" stroke-miterlimit="20" stroke-width=".97" d="M33.704 42.502a2 2 0 0 1-2-2v-1.66a2 2 0 0 1 2-2h1.66a2 2 0 0 1 2 2v1.66a2 2 0 0 1-2 2z"/></g><g clip-path="url(#idvxa)"><path fill="none" stroke="#fff" stroke-miterlimit="20" stroke-width=".97" d="M36.027 39.816v0l-.612 1.097v0l.452.426v0l.76-1.362v0z"/></g><g clip-path="url(#idvxa)"><path d="M44.327 43.954L37.064 39.9a.344.344 0 0 0-.468.132l-.73 1.308a.344.344 0 0 0 .133.468l25.336 14.147c.166.093 7.41 3.633 7.41 3.443-.019-2.48-25.488-17.898-26.334-18.37-.798-.444-2.718-.244-3.65-.181"/></g><g clip-path="url(#idvxa)"><path fill="none" stroke="#fff" stroke-miterlimit="20" stroke-width=".97" d="M44.327 43.954v0L37.064 39.9a.344.344 0 0 0-.468.132l-.73 1.308a.344.344 0 0 0 .133.468l25.336 14.147c.166.093 7.41 3.633 7.41 3.443-.019-2.48-25.488-17.898-26.334-18.37-.798-.444-2.718-.244-3.65-.181"/></g><g clip-path="url(#idvxa)"><path fill="none" stroke="#fff" stroke-miterlimit="20" stroke-width=".97" d="M33.856 38.3v0l1.255-.018v0l.144-.605v0l-1.56.023v0z"/></g><g clip-path="url(#idvxa)"><path d="M33.289 29.043l.12 8.317c.002.19.158.342.348.338l1.497-.02a.344.344 0 0 0 .34-.35l-.417-29.015c-.002-.19-.559-8.234-.723-8.138-2.138 1.256-2.757 31.021-2.742 31.99.014.913 1.148 2.477 1.668 3.252"/></g><g clip-path="url(#idvxa)"><path fill="none" stroke="#fff" stroke-miterlimit="20" stroke-width=".97" d="M33.289 29.043v0l.12 8.317c.002.19.158.342.348.338l1.497-.02a.344.344 0 0 0 .34-.35l-.417-29.015c-.002-.19-.559-8.234-.723-8.138-2.138 1.256-2.757 31.021-2.742 31.99.014.913 1.148 2.477 1.668 3.252"/></g><g clip-path="url(#idvxa)"><path fill="none" stroke="#fff" stroke-miterlimit="20" stroke-width=".97" d="M33.628 40.938v0l-.643-1.078v0l-.595.178v0l.799 1.34v0z"/></g><g clip-path="url(#idvxa)"><path d="M25.895 46.057l7.143-4.262a.343.343 0 0 0 .119-.47l-.767-1.287a.345.345 0 0 0-.472-.12l-24.92 14.87c-.163.096-6.851 4.6-6.686 4.694 2.156 1.224 28.244-13.123 29.075-13.62.784-.47 1.57-2.232 1.983-3.071"/></g><g clip-path="url(#idvxa)"><path fill="none" stroke="#fff" stroke-miterlimit="20" stroke-width=".97" d="M25.895 46.057v0l7.143-4.262a.343.343 0 0 0 .119-.47l-.767-1.287a.345.345 0 0 0-.472-.12l-24.92 14.87c-.163.096-6.851 4.6-6.686 4.694 2.156 1.224 28.244-13.123 29.075-13.62.784-.47 1.57-2.232 1.983-3.071"/></g><g clip-path="url(#idvxa)"><path d="M35.938 39.101a1.517 1.517 0 1 1-2.81 1.142 1.517 1.517 0 0 1 2.81-1.142"/></g><g clip-path="url(#idvxa)"><path fill="none" stroke="#fff" stroke-miterlimit="20" stroke-width=".97" d="M35.938 39.101a1.517 1.517 0 1 1-2.81 1.142 1.517 1.517 0 0 1 2.81-1.142z"/></g></g></g></g></g></svg>