<svg class="portfolio-storage"  xmlns="http://www.w3.org/2000/svg" width="57" height="60" viewBox="0 0 57 60"><defs><clipPath id="1ms7a"><path d="M-.002 59.865v-60h56.598v60z"/></clipPath></defs><g><g clip-path="url(#clip-9f3ab267-65ff-4e14-ae29-7c759f17ff5c)"><g><g><g/><g clip-path="url(#1ms7a)"><path d="M.424 7.12L.39 28.213l16.471 7.814.074-22.344z"/></g><g clip-path="url(#1ms7a)"><path fill="none" stroke="#fff" stroke-miterlimit="20" stroke-width="1.23" d="M.424 7.12v0L.39 28.213v0l16.471 7.814v0l.074-22.344v0z"/></g><g clip-path="url(#1ms7a)"><path d="M16.934.227L33.464 7.1l-.11 21.111"/></g><g clip-path="url(#1ms7a)"><path fill="none" stroke="#fff" stroke-miterlimit="20" stroke-width="1.23" d="M16.934.227v0L33.464 7.1v0l-.11 21.111v0"/></g><g clip-path="url(#1ms7a)"/><g clip-path="url(#1ms7a)"><path fill="none" stroke="#fff" stroke-miterlimit="20" stroke-width="1.23" d="M16.862 22.42v0"/></g><g clip-path="url(#1ms7a)"><path d="M33.353 28.212L33.464 7.1l-16.53 6.582-.072 22.343z"/></g><g clip-path="url(#1ms7a)"><path fill="none" stroke="#fff" stroke-miterlimit="20" stroke-width="1.23" d="M33.353 28.212v0L33.464 7.1v0l-16.53 6.582v0l-.072 22.343v0z"/></g><g clip-path="url(#1ms7a)"><path d="M.39 28.212L.424 7.12 16.934.227"/></g><g clip-path="url(#1ms7a)"><path fill="none" stroke="#fff" stroke-miterlimit="20" stroke-width="1.23" d="M.39 28.212v0L.424 7.12v0L16.934.227v0"/></g><g clip-path="url(#1ms7a)"><path d="M16.934.227L.424 7.12l16.51 6.561 16.53-6.581z"/></g><g clip-path="url(#1ms7a)"><path fill="none" stroke="#fff" stroke-miterlimit="20" stroke-width="1.23" d="M16.934.227v0L.424 7.12v0l16.51 6.561v0l16.53-6.581v0z"/></g><g clip-path="url(#1ms7a)"><path d="M20.966 24.35v9.387"/></g><g clip-path="url(#1ms7a)"><path fill="none" stroke="#fff" stroke-miterlimit="20" stroke-width=".31" d="M20.966 24.35v9.387"/></g><g clip-path="url(#1ms7a)"><path d="M22.362 23.69v9.387"/></g><g clip-path="url(#1ms7a)"><path fill="none" stroke="#fff" stroke-miterlimit="20" stroke-width=".31" d="M22.362 23.69v9.387"/></g><g clip-path="url(#1ms7a)"><path d="M23.758 23.03v9.387"/></g><g clip-path="url(#1ms7a)"><path fill="none" stroke="#fff" stroke-miterlimit="20" stroke-width=".31" d="M23.758 23.03v9.387"/></g><g clip-path="url(#1ms7a)"><path d="M25.153 22.37v9.387"/></g><g clip-path="url(#1ms7a)"><path fill="none" stroke="#fff" stroke-miterlimit="20" stroke-width=".31" d="M25.153 22.37v9.387"/></g><g clip-path="url(#1ms7a)"><path d="M26.55 21.71v9.387"/></g><g clip-path="url(#1ms7a)"><path fill="none" stroke="#fff" stroke-miterlimit="20" stroke-width=".31" d="M26.55 21.71v9.387"/></g><g clip-path="url(#1ms7a)"><path d="M27.945 21.05v9.387"/></g><g clip-path="url(#1ms7a)"><path fill="none" stroke="#fff" stroke-miterlimit="20" stroke-width=".31" d="M27.945 21.05v9.387"/></g><g clip-path="url(#1ms7a)"><path d="M29.34 20.39v9.388"/></g><g clip-path="url(#1ms7a)"><path fill="none" stroke="#fff" stroke-miterlimit="20" stroke-width=".31" d="M29.34 20.39v9.388"/></g><g clip-path="url(#1ms7a)"><path d="M12.85 24.35v9.387"/></g><g clip-path="url(#1ms7a)"><path fill="none" stroke="#fff" stroke-miterlimit="20" stroke-width=".31" d="M12.85 24.35v9.387"/></g><g clip-path="url(#1ms7a)"><path d="M11.454 23.69v9.387"/></g><g clip-path="url(#1ms7a)"><path fill="none" stroke="#fff" stroke-miterlimit="20" stroke-width=".31" d="M11.454 23.69v9.387"/></g><g clip-path="url(#1ms7a)"><path d="M10.058 23.03v9.387"/></g><g clip-path="url(#1ms7a)"><path fill="none" stroke="#fff" stroke-miterlimit="20" stroke-width=".31" d="M10.058 23.03v9.387"/></g><g clip-path="url(#1ms7a)"><path d="M8.662 22.37v9.387"/></g><g clip-path="url(#1ms7a)"><path fill="none" stroke="#fff" stroke-miterlimit="20" stroke-width=".31" d="M8.662 22.37v9.387"/></g><g clip-path="url(#1ms7a)"><path d="M7.266 21.71v9.387"/></g><g clip-path="url(#1ms7a)"><path fill="none" stroke="#fff" stroke-miterlimit="20" stroke-width=".31" d="M7.266 21.71v9.387"/></g><g clip-path="url(#1ms7a)"><path d="M5.87 21.05v9.387"/></g><g clip-path="url(#1ms7a)"><path fill="none" stroke="#fff" stroke-miterlimit="20" stroke-width=".31" d="M5.87 21.05v9.387"/></g><g clip-path="url(#1ms7a)"><path d="M4.475 20.39v9.388"/></g><g clip-path="url(#1ms7a)"><path fill="none" stroke="#fff" stroke-miterlimit="20" stroke-width=".31" d="M4.475 20.39v9.388"/></g><g clip-path="url(#1ms7a)"><path fill="none" stroke="#fff" stroke-miterlimit="20" stroke-width=".31" d="M12.554 5.342v0l3.457-1.446v0l.836 2.39v0L19.75 5.07v0l-.082 5.23v0l-2.41-2.796v0l-2.516 1.052v0z"/></g><g clip-path="url(#1ms7a)"><path d="M23.164 19.434l-.034 21.092 16.472 7.814.073-22.344z"/></g><g clip-path="url(#1ms7a)"><path fill="none" stroke="#fff" stroke-miterlimit="20" stroke-width="1.23" d="M23.164 19.434v0l-.034 21.092v0l16.472 7.814v0l.073-22.344v0z"/></g><g clip-path="url(#1ms7a)"><path d="M39.675 12.54l16.53 6.875-.111 21.11"/></g><g clip-path="url(#1ms7a)"><path fill="none" stroke="#fff" stroke-miterlimit="20" stroke-width="1.23" d="M39.675 12.54v0l16.53 6.875v0l-.111 21.11v0"/></g><g clip-path="url(#1ms7a)"/><g clip-path="url(#1ms7a)"><path fill="none" stroke="#fff" stroke-miterlimit="20" stroke-width="1.23" d="M39.602 34.733v0"/></g><g clip-path="url(#1ms7a)"><path d="M56.094 40.526l.11-21.112-16.53 6.582-.072 22.343z"/></g><g clip-path="url(#1ms7a)"><path fill="none" stroke="#fff" stroke-miterlimit="20" stroke-width="1.23" d="M56.094 40.526v0l.11-21.112v0l-16.53 6.582v0l-.072 22.343v0z"/></g><g clip-path="url(#1ms7a)"><path d="M23.13 40.526l.034-21.092 16.511-6.894"/></g><g clip-path="url(#1ms7a)"><path fill="none" stroke="#fff" stroke-miterlimit="20" stroke-width="1.23" d="M23.13 40.526v0l.034-21.092v0l16.511-6.894v0"/></g><g clip-path="url(#1ms7a)"><path d="M39.675 12.54l-16.51 6.894 16.51 6.562 16.53-6.581z"/></g><g clip-path="url(#1ms7a)"><path fill="none" stroke="#fff" stroke-miterlimit="20" stroke-width="1.23" d="M39.675 12.54v0l-16.51 6.894v0l16.51 6.562v0l16.53-6.581v0z"/></g><g clip-path="url(#1ms7a)"><path d="M43.707 36.663v9.387"/></g><g clip-path="url(#1ms7a)"><path fill="none" stroke="#fff" stroke-miterlimit="20" stroke-width=".31" d="M43.707 36.663v9.387"/></g><g clip-path="url(#1ms7a)"><path d="M45.102 36.004v9.386"/></g><g clip-path="url(#1ms7a)"><path fill="none" stroke="#fff" stroke-miterlimit="20" stroke-width=".31" d="M45.102 36.004v9.386"/></g><g clip-path="url(#1ms7a)"><path d="M46.498 35.344v9.387"/></g><g clip-path="url(#1ms7a)"><path fill="none" stroke="#fff" stroke-miterlimit="20" stroke-width=".31" d="M46.498 35.344v9.387"/></g><g clip-path="url(#1ms7a)"><path d="M47.894 34.684v9.387"/></g><g clip-path="url(#1ms7a)"><path fill="none" stroke="#fff" stroke-miterlimit="20" stroke-width=".31" d="M47.894 34.684v9.387"/></g><g clip-path="url(#1ms7a)"><path d="M49.29 34.024v9.387"/></g><g clip-path="url(#1ms7a)"><path fill="none" stroke="#fff" stroke-miterlimit="20" stroke-width=".31" d="M49.29 34.024v9.387"/></g><g clip-path="url(#1ms7a)"><path d="M50.685 33.364v9.387"/></g><g clip-path="url(#1ms7a)"><path fill="none" stroke="#fff" stroke-miterlimit="20" stroke-width=".31" d="M50.685 33.364v9.387"/></g><g clip-path="url(#1ms7a)"><path d="M52.081 32.704v9.387"/></g><g clip-path="url(#1ms7a)"><path fill="none" stroke="#fff" stroke-miterlimit="20" stroke-width=".31" d="M52.081 32.704v9.387"/></g><g clip-path="url(#1ms7a)"><path d="M35.59 36.663v9.387"/></g><g clip-path="url(#1ms7a)"><path fill="none" stroke="#fff" stroke-miterlimit="20" stroke-width=".31" d="M35.59 36.663v9.387"/></g><g clip-path="url(#1ms7a)"><path d="M34.194 36.004v9.386"/></g><g clip-path="url(#1ms7a)"><path fill="none" stroke="#fff" stroke-miterlimit="20" stroke-width=".31" d="M34.194 36.004v9.386"/></g><g clip-path="url(#1ms7a)"><path d="M32.798 35.344v9.387"/></g><g clip-path="url(#1ms7a)"><path fill="none" stroke="#fff" stroke-miterlimit="20" stroke-width=".31" d="M32.798 35.344v9.387"/></g><g clip-path="url(#1ms7a)"><path d="M31.402 34.684v9.387"/></g><g clip-path="url(#1ms7a)"><path fill="none" stroke="#fff" stroke-miterlimit="20" stroke-width=".31" d="M31.402 34.684v9.387"/></g><g clip-path="url(#1ms7a)"><path d="M30.007 34.024v9.387"/></g><g clip-path="url(#1ms7a)"><path fill="none" stroke="#fff" stroke-miterlimit="20" stroke-width=".31" d="M30.007 34.024v9.387"/></g><g clip-path="url(#1ms7a)"><path d="M28.611 33.364v9.387"/></g><g clip-path="url(#1ms7a)"><path fill="none" stroke="#fff" stroke-miterlimit="20" stroke-width=".31" d="M28.611 33.364v9.387"/></g><g clip-path="url(#1ms7a)"><path d="M27.215 32.704v9.387"/></g><g clip-path="url(#1ms7a)"><path fill="none" stroke="#fff" stroke-miterlimit="20" stroke-width=".31" d="M27.215 32.704v9.387"/></g><g clip-path="url(#1ms7a)"><path fill="none" stroke="#fff" stroke-miterlimit="20" stroke-width=".31" d="M35.294 17.656v0l3.458-1.446v0l.835 2.389v0l2.903-1.214v0l-.082 5.23v0l-2.41-2.797v0l-2.515 1.053v0z"/></g><g clip-path="url(#1ms7a)"><path d="M2.588 30.606l-.035 21.092 16.472 7.813.073-22.344z"/></g><g clip-path="url(#1ms7a)"><path fill="none" stroke="#fff" stroke-miterlimit="20" stroke-width="1.23" d="M2.588 30.606v0l-.035 21.092v0l16.472 7.813v0l.073-22.344v0z"/></g><g clip-path="url(#1ms7a)"><path d="M19.098 23.712l16.53 6.874-.11 21.112"/></g><g clip-path="url(#1ms7a)"><path fill="none" stroke="#fff" stroke-miterlimit="20" stroke-width="1.23" d="M19.098 23.712v0l16.53 6.874v0l-.11 21.112v0"/></g><g clip-path="url(#1ms7a)"/><g clip-path="url(#1ms7a)"><path fill="none" stroke="#fff" stroke-miterlimit="20" stroke-width="1.23" d="M19.026 45.905v0"/></g><g clip-path="url(#1ms7a)"><path d="M35.517 51.697l.11-21.11-16.529 6.58-.073 22.344z"/></g><g clip-path="url(#1ms7a)"><path fill="none" stroke="#fff" stroke-miterlimit="20" stroke-width="1.23" d="M35.517 51.697v0l.11-21.11v0l-16.529 6.58v0l-.073 22.344v0z"/></g><g clip-path="url(#1ms7a)"><path d="M2.553 51.697l.035-21.091 16.51-6.894"/></g><g clip-path="url(#1ms7a)"><path fill="none" stroke="#fff" stroke-miterlimit="20" stroke-width="1.23" d="M2.553 51.697v0l.035-21.091v0l16.51-6.894v0"/></g><g clip-path="url(#1ms7a)"><path d="M19.098 23.712l-16.51 6.894 16.51 6.561 16.53-6.58z"/></g><g clip-path="url(#1ms7a)"><path fill="none" stroke="#fff" stroke-miterlimit="20" stroke-width="1.23" d="M19.098 23.712v0l-16.51 6.894v0l16.51 6.561v0l16.53-6.58v0z"/></g><g clip-path="url(#1ms7a)"><path d="M23.13 47.835v9.387"/></g><g clip-path="url(#1ms7a)"><path fill="none" stroke="#fff" stroke-miterlimit="20" stroke-width=".31" d="M23.13 47.835v9.387"/></g><g clip-path="url(#1ms7a)"><path d="M24.526 47.175v9.387"/></g><g clip-path="url(#1ms7a)"><path fill="none" stroke="#fff" stroke-miterlimit="20" stroke-width=".31" d="M24.526 47.175v9.387"/></g><g clip-path="url(#1ms7a)"><path d="M25.921 46.516v9.386"/></g><g clip-path="url(#1ms7a)"><path fill="none" stroke="#fff" stroke-miterlimit="20" stroke-width=".31" d="M25.921 46.516v9.386"/></g><g clip-path="url(#1ms7a)"><path d="M27.317 45.856v9.387"/></g><g clip-path="url(#1ms7a)"><path fill="none" stroke="#fff" stroke-miterlimit="20" stroke-width=".31" d="M27.317 45.856v9.387"/></g><g clip-path="url(#1ms7a)"><path d="M28.713 45.196v9.387"/></g><g clip-path="url(#1ms7a)"><path fill="none" stroke="#fff" stroke-miterlimit="20" stroke-width=".31" d="M28.713 45.196v9.387"/></g><g clip-path="url(#1ms7a)"><path d="M30.109 44.536v9.387"/></g><g clip-path="url(#1ms7a)"><path fill="none" stroke="#fff" stroke-miterlimit="20" stroke-width=".31" d="M30.109 44.536v9.387"/></g><g clip-path="url(#1ms7a)"><path d="M31.504 43.876v9.387"/></g><g clip-path="url(#1ms7a)"><path fill="none" stroke="#fff" stroke-miterlimit="20" stroke-width=".31" d="M31.504 43.876v9.387"/></g><g clip-path="url(#1ms7a)"><path d="M15.013 47.835v9.387"/></g><g clip-path="url(#1ms7a)"><path fill="none" stroke="#fff" stroke-miterlimit="20" stroke-width=".31" d="M15.013 47.835v9.387"/></g><g clip-path="url(#1ms7a)"><path d="M13.617 47.175v9.387"/></g><g clip-path="url(#1ms7a)"><path fill="none" stroke="#fff" stroke-miterlimit="20" stroke-width=".31" d="M13.617 47.175v9.387"/></g><g clip-path="url(#1ms7a)"><path d="M12.222 46.516v9.386"/></g><g clip-path="url(#1ms7a)"><path fill="none" stroke="#fff" stroke-miterlimit="20" stroke-width=".31" d="M12.222 46.516v9.386"/></g><g clip-path="url(#1ms7a)"><path d="M10.826 45.856v9.387"/></g><g clip-path="url(#1ms7a)"><path fill="none" stroke="#fff" stroke-miterlimit="20" stroke-width=".31" d="M10.826 45.856v9.387"/></g><g clip-path="url(#1ms7a)"><path d="M9.43 45.196v9.387"/></g><g clip-path="url(#1ms7a)"><path fill="none" stroke="#fff" stroke-miterlimit="20" stroke-width=".31" d="M9.43 45.196v9.387"/></g><g clip-path="url(#1ms7a)"><path d="M8.034 44.536v9.387"/></g><g clip-path="url(#1ms7a)"><path fill="none" stroke="#fff" stroke-miterlimit="20" stroke-width=".31" d="M8.034 44.536v9.387"/></g><g clip-path="url(#1ms7a)"><path d="M6.639 43.876v9.387"/></g><g clip-path="url(#1ms7a)"><path fill="none" stroke="#fff" stroke-miterlimit="20" stroke-width=".31" d="M6.639 43.876v9.387"/></g><g clip-path="url(#1ms7a)"><path fill="none" stroke="#fff" stroke-miterlimit="20" stroke-width=".31" d="M14.718 28.828v0l3.457-1.446v0l.835 2.389v0l2.904-1.214v0l-.083 5.23v0l-2.41-2.797v0l-2.515 1.053v0z"/></g></g></g></g></g></svg>