<?xml version="1.0" encoding="UTF-8" standalone="no"?>
<!-- Created with Inkscape (http://www.inkscape.org/) -->

<svg
   version="1.1"
   id="svg1"
   width="504.52148"
   height="379.30902"
   viewBox="0 0 504.52148 379.30902"
   xmlns="http://www.w3.org/2000/svg"
   xmlns:svg="http://www.w3.org/2000/svg">
  <defs
     id="defs1">
    <clipPath
       clipPathUnits="userSpaceOnUse"
       id="clipPath6">
      <path
         d="M 0,595.276 H 841.89 V 0 H 0 Z"
         transform="translate(-434.92601,-315.14671)"
         id="path6" />
    </clipPath>
    <clipPath
       clipPathUnits="userSpaceOnUse"
       id="clipPath8">
      <path
         d="M 0,595.276 H 841.89 V 0 H 0 Z"
         transform="translate(-608.48722,-310.53851)"
         id="path8" />
    </clipPath>
    <clipPath
       clipPathUnits="userSpaceOnUse"
       id="clipPath10">
      <path
         d="M 0,595.276 H 841.89 V 0 H 0 Z"
         transform="translate(-448.36811,-325.00171)"
         id="path10" />
    </clipPath>
    <clipPath
       clipPathUnits="userSpaceOnUse"
       id="clipPath12">
      <path
         d="M 0,595.276 H 841.89 V 0 H 0 Z"
         transform="translate(-496.04901,-357.13961)"
         id="path12" />
    </clipPath>
    <clipPath
       clipPathUnits="userSpaceOnUse"
       id="clipPath14">
      <path
         d="M 0,595.276 H 841.89 V 0 H 0 Z"
         transform="translate(-416.08371,-362.62491)"
         id="path14" />
    </clipPath>
    <clipPath
       clipPathUnits="userSpaceOnUse"
       id="clipPath16">
      <path
         d="M 0,595.276 H 841.89 V 0 H 0 Z"
         transform="translate(-242.6935,-339.58131)"
         id="path16" />
    </clipPath>
    <clipPath
       clipPathUnits="userSpaceOnUse"
       id="clipPath18">
      <path
         d="M 0,595.276 H 841.89 V 0 H 0 Z"
         transform="translate(-239.01471,-333.13061)"
         id="path18" />
    </clipPath>
    <clipPath
       clipPathUnits="userSpaceOnUse"
       id="clipPath20">
      <path
         d="M 0,595.276 H 841.89 V 0 H 0 Z"
         transform="translate(-239.95881,-334.43061)"
         id="path20" />
    </clipPath>
    <clipPath
       clipPathUnits="userSpaceOnUse"
       id="clipPath22">
      <path
         d="M 0,595.276 H 841.89 V 0 H 0 Z"
         transform="translate(-239.39011,-331.05511)"
         id="path22" />
    </clipPath>
    <clipPath
       clipPathUnits="userSpaceOnUse"
       id="clipPath24">
      <path
         d="M 0,595.276 H 841.89 V 0 H 0 Z"
         transform="translate(-281.70451,-339.70651)"
         id="path24" />
    </clipPath>
    <clipPath
       clipPathUnits="userSpaceOnUse"
       id="clipPath26">
      <path
         d="M 0,595.276 H 841.89 V 0 H 0 Z"
         transform="translate(-277.7656,-332.77531)"
         id="path26" />
    </clipPath>
    <clipPath
       clipPathUnits="userSpaceOnUse"
       id="clipPath28">
      <path
         d="M 0,595.276 H 841.89 V 0 H 0 Z"
         transform="translate(-278.6881,-334.09071)"
         id="path28" />
    </clipPath>
    <clipPath
       clipPathUnits="userSpaceOnUse"
       id="clipPath30">
      <path
         d="M 0,595.276 H 841.89 V 0 H 0 Z"
         transform="translate(-278.17531,-330.70641)"
         id="path30" />
    </clipPath>
    <clipPath
       clipPathUnits="userSpaceOnUse"
       id="clipPath32">
      <path
         d="M 0,595.276 H 841.89 V 0 H 0 Z"
         transform="translate(-314.84041,-340.06191)"
         id="path32" />
    </clipPath>
    <clipPath
       clipPathUnits="userSpaceOnUse"
       id="clipPath34">
      <path
         d="M 0,595.276 H 841.89 V 0 H 0 Z"
         transform="translate(-310.83251,-333.50151)"
         id="path34" />
    </clipPath>
    <clipPath
       clipPathUnits="userSpaceOnUse"
       id="clipPath36">
      <path
         d="M 0,595.276 H 841.89 V 0 H 0 Z"
         transform="translate(-311.75311,-334.81821)"
         id="path36" />
    </clipPath>
    <clipPath
       clipPathUnits="userSpaceOnUse"
       id="clipPath38">
      <path
         d="M 0,595.276 H 841.89 V 0 H 0 Z"
         transform="translate(-311.24511,-331.43311)"
         id="path38" />
    </clipPath>
    <clipPath
       clipPathUnits="userSpaceOnUse"
       id="clipPath40">
      <path
         d="M 0,595.276 H 841.89 V 0 H 0 Z"
         transform="translate(-346.61101,-340.25341)"
         id="path40" />
    </clipPath>
    <clipPath
       clipPathUnits="userSpaceOnUse"
       id="clipPath42">
      <path
         d="M 0,595.276 H 841.89 V 0 H 0 Z"
         transform="translate(-343.13121,-332.99001)"
         id="path42" />
    </clipPath>
    <clipPath
       clipPathUnits="userSpaceOnUse"
       id="clipPath44">
      <path
         d="M 0,595.276 H 841.89 V 0 H 0 Z"
         transform="translate(-344.05191,-334.30671)"
         id="path44" />
    </clipPath>
    <clipPath
       clipPathUnits="userSpaceOnUse"
       id="clipPath46">
      <path
         d="M 0,595.276 H 841.89 V 0 H 0 Z"
         transform="translate(-343.54371,-330.92161)"
         id="path46" />
    </clipPath>
    <clipPath
       clipPathUnits="userSpaceOnUse"
       id="clipPath48">
      <path
         d="M 0,595.276 H 841.89 V 0 H 0 Z"
         transform="translate(-380.83341,-340.42651)"
         id="path48" />
    </clipPath>
    <clipPath
       clipPathUnits="userSpaceOnUse"
       id="clipPath50">
      <path
         d="M 0,595.276 H 841.89 V 0 H 0 Z"
         transform="translate(-377.01551,-333.64851)"
         id="path50" />
    </clipPath>
    <clipPath
       clipPathUnits="userSpaceOnUse"
       id="clipPath52">
      <path
         d="M 0,595.276 H 841.89 V 0 H 0 Z"
         transform="translate(-377.94311,-334.96041)"
         id="path52" />
    </clipPath>
    <clipPath
       clipPathUnits="userSpaceOnUse"
       id="clipPath54">
      <path
         d="M 0,595.276 H 841.89 V 0 H 0 Z"
         transform="translate(-377.41721,-331.57801)"
         id="path54" />
    </clipPath>
    <clipPath
       clipPathUnits="userSpaceOnUse"
       id="clipPath56">
      <path
         d="M 0,595.276 H 841.89 V 0 H 0 Z"
         transform="translate(-252.96661,-339.41141)"
         id="path56" />
    </clipPath>
    <clipPath
       clipPathUnits="userSpaceOnUse"
       id="clipPath58">
      <path
         d="M 0,595.276 H 841.89 V 0 H 0 Z"
         transform="translate(-258.30501,-341.97271)"
         id="path58" />
    </clipPath>
    <clipPath
       clipPathUnits="userSpaceOnUse"
       id="clipPath60">
      <path
         d="M 0,595.276 H 841.89 V 0 H 0 Z"
         transform="translate(-258.13621,-346.99021)"
         id="path60" />
    </clipPath>
    <clipPath
       clipPathUnits="userSpaceOnUse"
       id="clipPath62">
      <path
         d="M 0,595.276 H 841.89 V 0 H 0 Z"
         transform="translate(-559.78171,-283.6334)"
         id="path62" />
    </clipPath>
    <clipPath
       clipPathUnits="userSpaceOnUse"
       id="clipPath64">
      <path
         d="M 0,595.276 H 841.89 V 0 H 0 Z"
         transform="translate(-270.90171,-369.44141)"
         id="path64" />
    </clipPath>
    <clipPath
       clipPathUnits="userSpaceOnUse"
       id="clipPath66">
      <path
         d="M 0,595.276 H 841.89 V 0 H 0 Z"
         transform="translate(-276.20031,-372.00291)"
         id="path66" />
    </clipPath>
    <clipPath
       clipPathUnits="userSpaceOnUse"
       id="clipPath68">
      <path
         d="M 0,595.276 H 841.89 V 0 H 0 Z"
         transform="translate(-275.26071,-377.21441)"
         id="path68" />
    </clipPath>
    <clipPath
       clipPathUnits="userSpaceOnUse"
       id="clipPath70">
      <path
         d="M 0,595.276 H 841.89 V 0 H 0 Z"
         transform="translate(-442.00561,-342.32171)"
         id="path70" />
    </clipPath>
    <clipPath
       clipPathUnits="userSpaceOnUse"
       id="clipPath72">
      <path
         d="M 0,595.276 H 841.89 V 0 H 0 Z"
         transform="translate(-415.45911,-421.79281)"
         id="path72" />
    </clipPath>
    <clipPath
       clipPathUnits="userSpaceOnUse"
       id="clipPath74">
      <path
         d="M 0,595.276 H 841.89 V 0 H 0 Z"
         transform="translate(-414.35511,-424.27931)"
         id="path74" />
    </clipPath>
    <clipPath
       clipPathUnits="userSpaceOnUse"
       id="clipPath76">
      <path
         d="M 0,595.276 H 841.89 V 0 H 0 Z"
         transform="translate(-415.45911,-399.13611)"
         id="path76" />
    </clipPath>
    <clipPath
       clipPathUnits="userSpaceOnUse"
       id="clipPath78">
      <path
         d="M 0,595.276 H 841.89 V 0 H 0 Z"
         transform="translate(-414.35511,-401.62261)"
         id="path78" />
    </clipPath>
  </defs>
  <g
     id="g1"
     transform="translate(-306.79481,-198.01109)">
    <g
       id="group-MC0">
      <path
         id="path2"
         d="m 0,0 -181.394,-0.691 17.742,25.13 162.999,1.377 z"
         style="fill:#cbd5dc;fill-opacity:1;fill-rule:nonzero;stroke:none"
         transform="matrix(1.3333333,0,0,-1.3333333,552.63613,333.50107)" />
      <path
         id="path3"
         d="m 0,0 0.033,5.499 -163.99,-1.554 -0.003,0.003 -0.003,-0.003 h -0.003 V 3.94 l -22.172,-30.048 -0.033,-5.499 172.39,1.324 0.033,5.499 -165.327,-1.27 17.375,24.521 z"
         style="fill:#1a2531;fill-opacity:1;fill-rule:nonzero;stroke:none"
         transform="matrix(1.3333333,0,0,-1.3333333,555.0228,299.21667)" />
      <path
         id="path4"
         d="m 4.0795828,-5.9049281 c 0.1552735,1.2421875 0.6445313,2.1796875 1.4648438,2.8125 0.8203125,0.6328125 1.8515625,0.9492187 3.09375,0.9492187 0.4599609,0 0.9492187,-0.041016 1.4648434,-0.1289062 0.515625,-0.09375 0.984375,-0.2519532 1.40625,-0.4804688 0.427735,-0.234375 0.779297,-0.5449219 1.054688,-0.9375 0.28125,-0.3896484 0.421875,-0.8730469 0.421875,-1.453125 0,-0.4130859 -0.08203,-0.7558594 -0.246094,-1.03125 -0.158203,-0.28125 -0.369141,-0.5097656 -0.632812,-0.6914062 -0.266602,-0.1875 -0.559571,-0.3398438 -0.878907,-0.4570313 -0.322265,-0.1171875 -0.65625,-0.2050781 -1.007812,-0.2695312 L 6.7748953,-8.4244594 c -0.6738281,-0.140625 -1.321289,-0.3427734 -1.9453125,-0.609375 -0.618164,-0.2636719 -1.1689453,-0.5976562 -1.6523437,-0.9960936 -0.4863282,-0.404297 -0.8730469,-0.893555 -1.1601563,-1.464844 -0.28125,-0.577148 -0.421875,-1.245117 -0.421875,-2.003906 0,-0.94336 0.1992188,-1.757813 0.5976563,-2.4375 0.4042968,-0.679688 0.9375,-1.236328 1.59375,-1.675781 0.65625,-0.436524 1.3857422,-0.75293 2.1914062,-0.949219 0.8027344,-0.19336 1.6201172,-0.292969 2.4492188,-0.292969 0.8730468,0 1.7285159,0.111328 2.5664059,0.328125 0.84375,0.219727 1.59668,0.568359 2.261719,1.042969 0.670899,0.46875 1.21875,1.060547 1.640625,1.769531 0.427734,0.711914 0.65625,1.552734 0.679688,2.519531 h -3 c -0.07031,-0.568359 -0.234375,-1.048828 -0.492188,-1.441406 -0.251953,-0.398437 -0.571289,-0.717773 -0.960937,-0.960937 -0.392579,-0.240235 -0.837891,-0.413086 -1.3359379,-0.515625 -0.4921875,-0.09961 -1.0048828,-0.152344 -1.5351563,-0.152344 -0.3691406,0 -0.7675781,0.04395 -1.1953125,0.128906 -0.421875,0.0791 -0.8173828,0.210938 -1.1835937,0.398438 -0.3691407,0.18164 -0.6679688,0.427734 -0.9023438,0.738281 -0.2285156,0.304687 -0.3398437,0.688476 -0.3398437,1.148437 0,0.767578 0.28125,1.341797 0.84375,1.722657 0.5625,0.375 1.2685547,0.673828 2.1210937,0.890625 0.8496094,0.219726 1.772461,0.421875 2.7656252,0.609375 0.990234,0.18164 1.913086,0.454101 2.765625,0.8203121 0.849609,0.3691406 1.558594,0.890625 2.121094,1.5703125 0.5625,0.6796875 0.84375,1.6289063 0.84375,2.8476563 0,1.0634765 -0.228516,1.96875 -0.679688,2.71875 -0.445312,0.7441406 -1.03125,1.3535156 -1.757812,1.82812497 -0.720704,0.46875 -1.535157,0.81445313 -2.449219,1.03125 -0.908203,0.21679688 -1.8222658,0.328125 -2.7421877,0.328125 -1.040039,0 -2.0039062,-0.12890625 -2.8945312,-0.38671875 C 4.6830984,-0.11879531 3.9155203,-0.50551406 3.2592703,-1.0299281 2.6088797,-1.5602016 2.0932547,-2.2281703 1.7123953,-3.0338344 1.3286063,-3.8365688 1.1147391,-4.7945766 1.0678641,-5.9049281 Z M 31.9497,-11.295553 c 0,-0.591797 -0.03223,-1.166016 -0.09375,-1.722656 -0.05566,-0.553711 -0.199219,-1.042969 -0.433594,-1.464844 -0.228515,-0.427735 -0.55664,-0.779297 -0.984375,-1.054688 -0.421875,-0.28125 -1.001953,-0.451172 -1.734375,-0.515625 -1.664062,0 -3.041015,0.445313 -4.125,1.335938 -1.078125,0.884765 -1.672851,2.176758 -1.78125,3.878906 V 0.00132187 H 19.750481 V -25.170553 h 3.046875 v 9.421875 c 0.591797,-1.078125 1.429688,-1.851563 2.507813,-2.320313 1.083984,-0.474609 2.217773,-0.714843 3.398437,-0.714843 0.685547,0 1.374024,0.08203 2.0625,0.246093 0.694336,0.158203 1.327149,0.407227 1.898438,0.75 0.577148,0.345703 1.066406,0.791016 1.464844,1.335938 0.404296,0.539062 0.667968,1.189453 0.785156,1.945312 0.07031,0.580078 0.108398,1.160157 0.117187,1.746094 0.01465,0.585938 0.02344,1.168945 0.02344,1.746094 V 0.00132187 H 31.9497 Z M 44.447747,0.55210312 c -0.829102,0 -1.602539,-0.12890625 -2.320313,-0.38671875 C 41.41552,-0.08363906 40.794427,-0.43813125 40.264153,-0.90102188 39.739739,-1.3609828 39.320794,-1.9234828 39.010247,-2.5885219 38.69677,-3.2506313 38.541497,-4.01235 38.541497,-4.8736781 c 0,-1.350586 0.304687,-2.4140625 0.914062,-3.1875 0.609375,-0.7734375 1.385743,-1.359375 2.332032,-1.7578125 0.943359,-0.4042974 1.980468,-0.6826174 3.105468,-0.8320314 1.13086,-0.146484 2.214844,-0.28125 3.246094,-0.398437 0.1875,0 0.413086,-0.01465 0.679688,-0.04687 0.263672,-0.03809 0.518554,-0.09375 0.761718,-0.164063 0.240235,-0.07031 0.462891,-0.166992 0.667969,-0.292969 0.210938,-0.123047 0.351563,-0.292968 0.421875,-0.503906 0.06152,-0.451172 0.09375,-0.896484 0.09375,-1.335937 0,-0.577149 -0.125976,-1.042969 -0.375,-1.394532 -0.251953,-0.357422 -0.580078,-0.644531 -0.984375,-0.855468 -0.407226,-0.210938 -0.852539,-0.345704 -1.335937,-0.410157 -0.477539,-0.07031 -0.946289,-0.105468 -1.40625,-0.105468 -0.626953,0 -1.189453,0.04687 -1.6875,0.140625 -0.492188,0.08789 -0.919922,0.251953 -1.277344,0.492187 -0.351563,0.243164 -0.644531,0.583008 -0.878906,1.019531 -0.228516,0.439453 -0.386719,1.004883 -0.480469,1.699219 h -2.964844 c 0,-0.966797 0.181641,-1.828125 0.550781,-2.578125 0.366211,-0.75 0.867188,-1.382812 1.5,-1.898437 0.632813,-0.515625 1.362305,-0.905274 2.191407,-1.171875 0.826172,-0.263672 1.690429,-0.410157 2.589843,-0.433594 0.966797,0 1.913086,0.07617 2.835938,0.222656 0.919922,0.149414 1.737305,0.430664 2.449219,0.84375 0.717773,0.416016 1.294922,0.984375 1.734375,1.710938 0.436523,0.726562 0.65625,1.675781 0.65625,2.847656 v 9.2226561 c 0,0.2109375 0.0029,0.4160156 0.01172,0.609375 0.01465,0.1962891 0.05273,0.3808594 0.117188,0.5507813 0.07031,0.1728515 0.166992,0.3222656 0.292969,0.4453125 0.131836,0.1259765 0.322265,0.1992187 0.574218,0.2226562 0.319336,0 0.66211,-0.029297 1.03125,-0.09375 v 2.34375002 c -0.251953,0.09375 -0.515625,0.16699219 -0.796875,0.22265625 -0.27539,0.0527344 -0.547851,0.0820313 -0.820312,0.0820313 -0.533203,0 -0.990234,-0.0351563 -1.371094,-0.10546875 -0.375,-0.0644531 -0.697265,-0.19335937 -0.960937,-0.38671875 -0.266602,-0.19335937 -0.47461,-0.47460937 -0.621094,-0.84375 -0.149414,-0.37499997 -0.269531,-0.84667967 -0.363281,-1.41796867 -0.852539,0.946289 -1.845703,1.67578117 -2.976563,2.19140617 -1.125,0.515625 -2.308594,0.7734375 -3.550781,0.7734375 z M 41.717278,-5.0377406 c 0,0.805664 0.275391,1.4882812 0.832031,2.0507812 0.553711,0.5625 1.233399,0.84375 2.039063,0.84375 0.662109,0 1.359375,-0.076172 2.085937,-0.234375 0.726563,-0.1640625 1.385743,-0.4160156 1.980469,-0.7617187 0.600586,-0.3427735 1.095703,-0.796875 1.488281,-1.359375 0.389649,-0.5683594 0.585938,-1.256836 0.585938,-2.0625 v -2.7304688 c -0.416016,0.1875 -0.925781,0.328125 -1.535156,0.421875 -0.609375,0.087891 -1.250977,0.1845703 -1.921875,0.2929688 -0.665039,0.102539 -1.333008,0.2226562 -2.003907,0.3632812 -0.665039,0.1347656 -1.253906,0.328125 -1.769531,0.5859375 -0.515625,0.2519531 -0.943359,0.5830078 -1.277344,0.9960938 -0.336914,0.4160156 -0.503906,0.946289 -0.503906,1.59375 z M 71.799309,0.00132187 V -2.3072719 c -0.758789,0.9140625 -1.646484,1.6230469 -2.660156,2.12109377 -1.007812,0.4921875 -2.121094,0.73828125 -3.339844,0.73828125 -1.3125,0 -2.466796,-0.27539062 -3.457031,-0.8203125 -0.993164,-0.55371093 -1.828125,-1.28320312 -2.507812,-2.19140622 -0.679688,-0.9140625 -1.192383,-1.9453125 -1.535157,-3.09375 -0.345703,-1.1542969 -0.515625,-2.3320313 -0.515625,-3.5273438 0,-1.2421876 0.169922,-2.4492186 0.515625,-3.6210936 0.342774,-1.177735 0.858399,-2.229492 1.546875,-3.152344 0.694336,-0.919922 1.552735,-1.655273 2.578125,-2.203125 1.022461,-0.553711 2.214844,-0.832031 3.574219,-0.832031 1.107422,0 2.185547,0.228515 3.234375,0.679687 1.045899,0.445313 1.901367,1.154297 2.566406,2.121094 v -9.082031 h 2.976563 V 0.00132187 Z M 66.420403,-16.158834 c -0.969726,0 -1.801758,0.216796 -2.496094,0.644531 -0.688476,0.421875 -1.250976,0.972656 -1.6875,1.652344 -0.439453,0.679687 -0.755859,1.441406 -0.949218,2.285156 -0.196289,0.83789 -0.292969,1.6816405 -0.292969,2.5312499 0,0.8291015 0.09961,1.6523437 0.304687,2.4726562 0.210938,0.8144531 0.539063,1.546875 0.984375,2.203125 0.451172,0.65625 1.019532,1.1894531 1.699219,1.59375 0.679688,0.3984375 1.491211,0.5976563 2.4375,0.5976563 1.007813,0 1.854492,-0.2050782 2.542969,-0.6210938 0.694336,-0.4130859 1.253906,-0.9609375 1.675781,-1.640625 0.427735,-0.6796875 0.741211,-1.4443359 0.9375,-2.296875 0.19336,-0.8496094 0.292969,-1.7021484 0.292969,-2.5546875 0,-0.8496091 -0.09961,-1.6904301 -0.292969,-2.5195311 -0.196289,-0.826172 -0.512695,-1.561524 -0.949219,-2.203125 -0.439453,-0.647461 -1.004882,-1.166016 -1.699218,-1.558594 -0.688477,-0.389648 -1.523438,-0.585937 -2.507813,-0.585937 z m 28.558594,10.2539059 c -0.164063,0.9697265 -0.489258,1.8515625 -0.972656,2.6484375 -0.486328,0.7910156 -1.072266,1.4707031 -1.757813,2.0390625 -0.688476,0.56249997 -1.476562,0.99609372 -2.367187,1.30078122 -0.884766,0.31054688 -1.810547,0.46875 -2.777344,0.46875 -1.40625,0 -2.642578,-0.26367187 -3.703125,-0.78515625 -1.054688,-0.53027343 -1.933594,-1.24511717 -2.636719,-2.14453127 -0.703125,-0.8964844 -1.227539,-1.9394531 -1.570312,-3.1289062 -0.345703,-1.1865235 -0.515625,-2.4257813 -0.515625,-3.7148438 0,-1.2187496 0.175781,-2.4082036 0.527343,-3.5742186 0.357422,-1.163086 0.890625,-2.197266 1.59375,-3.105469 0.703125,-0.914062 1.570313,-1.643555 2.601563,-2.191406 1.037109,-0.553711 2.238281,-0.832031 3.597656,-0.832031 1.335938,0 2.513672,0.231445 3.539063,0.691406 1.022461,0.46289 1.877929,1.095703 2.566406,1.898437 0.694336,0.805664 1.21875,1.754883 1.570312,2.847657 0.357422,1.095703 0.539063,2.273437 0.539063,3.5390621 v 1.6640625 H 81.889153 c 0.07031,0.8291016 0.213867,1.6113281 0.433594,2.34375 0.216797,0.7353516 0.533203,1.3886719 0.949219,1.9570313 0.413086,0.5625 0.949218,1.0048828 1.605468,1.3242187 0.65625,0.3222656 1.456055,0.4804688 2.402344,0.4804688 1.195313,0 2.185547,-0.3427735 2.976563,-1.03125 0.796875,-0.6855469 1.341797,-1.584961 1.640625,-2.6953125 z m -3.046875,-4.9335939 c 0,-0.741211 -0.111328,-1.432617 -0.328125,-2.074219 -0.219727,-0.647461 -0.544922,-1.209961 -0.972656,-1.6875 -0.421875,-0.483398 -0.9375,-0.861328 -1.546875,-1.136718 -0.609375,-0.28125 -1.294922,-0.421875 -2.050782,-0.421875 -0.805664,0 -1.508789,0.140625 -2.109375,0.421875 -0.594726,0.27539 -1.101562,0.65332 -1.523437,1.136718 -0.416016,0.477539 -0.74707,1.040039 -0.996094,1.6875 -0.251953,0.641602 -0.421875,1.333008 -0.515625,2.074219 z M 4.0795828,24.244486 c 0.1552735,1.242187 0.6445313,2.179687 1.4648438,2.8125 0.8203125,0.632812 1.8515625,0.949219 3.09375,0.949219 0.4599609,0 0.9492187,-0.04102 1.4648434,-0.128907 0.515625,-0.09375 0.984375,-0.251953 1.40625,-0.480468 0.427735,-0.234375 0.779297,-0.544922 1.054688,-0.9375 0.28125,-0.389649 0.421875,-0.873047 0.421875,-1.453125 0,-0.413086 -0.08203,-0.75586 -0.246094,-1.03125 -0.158203,-0.28125 -0.369141,-0.509766 -0.632812,-0.691407 -0.266602,-0.1875 -0.559571,-0.339843 -0.878907,-0.457031 -0.322265,-0.117187 -0.65625,-0.205078 -1.007812,-0.269531 L 6.7748953,21.724955 C 6.1010672,21.58433 5.4536063,21.382181 4.8295828,21.11558 4.2114188,20.851908 3.6606375,20.517923 3.1772391,20.119486 2.6909109,19.715189 2.3041922,19.225931 2.0170828,18.654642 c -0.28125,-0.577148 -0.421875,-1.245117 -0.421875,-2.003906 0,-0.943359 0.1992188,-1.757813 0.5976563,-2.4375 0.4042968,-0.679688 0.9375,-1.236328 1.59375,-1.675781 0.65625,-0.436524 1.3857422,-0.75293 2.1914062,-0.949219 0.8027344,-0.193359 1.6201172,-0.292969 2.4492188,-0.292969 0.8730468,0 1.7285159,0.111328 2.5664059,0.328125 0.84375,0.219727 1.59668,0.56836 2.261719,1.042969 0.670899,0.46875 1.21875,1.060547 1.640625,1.769531 0.427734,0.711914 0.65625,1.552735 0.679688,2.519531 h -3 C 12.505364,16.387064 12.341302,15.906595 12.083489,15.514017 11.831536,15.11558 11.5122,14.796244 11.122552,14.55308 10.729973,14.312845 10.284661,14.139994 9.7866141,14.037455 9.2944266,13.937845 8.7817313,13.885111 8.2514578,13.885111 c -0.3691406,0 -0.7675781,0.04394 -1.1953125,0.128906 -0.421875,0.0791 -0.8173828,0.210938 -1.1835937,0.398438 -0.3691407,0.18164 -0.6679688,0.427734 -0.9023438,0.738281 -0.2285156,0.304687 -0.3398437,0.688476 -0.3398437,1.148437 0,0.767579 0.28125,1.341797 0.84375,1.722657 0.5625,0.375 1.2685547,0.673828 2.1210937,0.890625 0.8496094,0.219726 1.772461,0.421875 2.7656252,0.609375 0.990234,0.18164 1.913086,0.454101 2.765625,0.820312 0.849609,0.369141 1.558594,0.890625 2.121094,1.570313 0.5625,0.679687 0.84375,1.628906 0.84375,2.847656 0,1.063476 -0.228516,1.96875 -0.679688,2.71875 -0.445312,0.744141 -1.03125,1.353516 -1.757812,1.828125 -0.720704,0.46875 -1.535157,0.814453 -2.449219,1.03125 -0.908203,0.216797 -1.8222658,0.328125 -2.7421877,0.328125 -1.040039,0 -2.0039062,-0.128906 -2.8945312,-0.386719 C 4.6830984,30.030619 3.9155203,29.6439 3.2592703,29.119486 2.6088797,28.589212 2.0932547,27.921244 1.7123953,27.11558 1.3286063,26.312845 1.1147391,25.354837 1.0678641,24.244486 Z m 22.9599612,8.742187 c -0.228516,0.66211 -0.498047,1.289063 -0.808594,1.875 -0.313477,0.585938 -0.685547,1.095704 -1.113281,1.535157 -0.421875,0.436523 -0.914063,0.779297 -1.476563,1.03125 -0.5625,0.257812 -1.227539,0.386718 -1.992187,0.386718 -0.322266,0 -0.629883,-0.02051 -0.925781,-0.05859 -0.298829,-0.03223 -0.609375,-0.102539 -0.9375,-0.210938 v -2.941406 c 0.304687,0.07031 0.597656,0.128906 0.878906,0.175781 0.287109,0.04687 0.585937,0.07031 0.890625,0.07031 0.544922,0 0.978515,-0.117188 1.300781,-0.351563 0.328125,-0.228515 0.591797,-0.515625 0.796875,-0.867187 0.210938,-0.345703 0.380859,-0.735352 0.515625,-1.171875 0.140625,-0.439453 0.292969,-0.864258 0.457031,-1.277344 L 17.711419,11.810892 h 3.421875 l 5.074219,14.847656 5.15625,-14.847656 h 3.375 z m 12.164062,-8.742187 c 0.155274,1.242187 0.644532,2.179687 1.464844,2.8125 0.820313,0.632812 1.851563,0.949219 3.09375,0.949219 0.459961,0 0.949219,-0.04102 1.464844,-0.128907 0.515625,-0.09375 0.984375,-0.251953 1.40625,-0.480468 0.427734,-0.234375 0.779297,-0.544922 1.054687,-0.9375 0.28125,-0.389649 0.421875,-0.873047 0.421875,-1.453125 0,-0.413086 -0.08203,-0.75586 -0.246093,-1.03125 -0.158204,-0.28125 -0.369141,-0.509766 -0.632813,-0.691407 -0.266602,-0.1875 -0.55957,-0.339843 -0.878906,-0.457031 -0.322266,-0.117187 -0.65625,-0.205078 -1.007813,-0.269531 L 41.898919,21.724955 C 41.225091,21.58433 40.57763,21.382181 39.953606,21.11558 c -0.618164,-0.263672 -1.168945,-0.597657 -1.652343,-0.996094 -0.486329,-0.404297 -0.873047,-0.893555 -1.160157,-1.464844 -0.28125,-0.577148 -0.421875,-1.245117 -0.421875,-2.003906 0,-0.943359 0.199219,-1.757813 0.597657,-2.4375 0.404296,-0.679688 0.9375,-1.236328 1.59375,-1.675781 0.65625,-0.436524 1.385742,-0.75293 2.191406,-0.949219 0.802734,-0.193359 1.620117,-0.292969 2.449219,-0.292969 0.873046,0 1.728515,0.111328 2.566406,0.328125 0.84375,0.219727 1.596679,0.56836 2.261719,1.042969 0.670898,0.46875 1.21875,1.060547 1.640625,1.769531 0.427734,0.711914 0.65625,1.552735 0.679687,2.519531 h -3 c -0.07031,-0.568359 -0.234375,-1.048828 -0.492187,-1.441406 -0.251954,-0.398437 -0.57129,-0.717773 -0.960938,-0.960937 -0.392578,-0.240235 -0.837891,-0.413086 -1.335937,-0.515625 -0.492188,-0.09961 -1.004883,-0.152344 -1.535157,-0.152344 -0.36914,0 -0.767578,0.04394 -1.195312,0.128906 -0.421875,0.0791 -0.817383,0.210938 -1.183594,0.398438 -0.369141,0.18164 -0.667969,0.427734 -0.902344,0.738281 -0.228515,0.304687 -0.339843,0.688476 -0.339843,1.148437 0,0.767579 0.28125,1.341797 0.84375,1.722657 0.5625,0.375 1.268554,0.673828 2.121093,0.890625 0.84961,0.219726 1.772461,0.421875 2.765625,0.609375 0.990235,0.18164 1.913086,0.454101 2.765625,0.820312 0.84961,0.369141 1.558594,0.890625 2.121094,1.570313 0.5625,0.679687 0.84375,1.628906 0.84375,2.847656 0,1.063476 -0.228516,1.96875 -0.679687,2.71875 -0.445313,0.744141 -1.03125,1.353516 -1.757813,1.828125 -0.720703,0.46875 -1.535156,0.814453 -2.449219,1.03125 -0.908203,0.216797 -1.822265,0.328125 -2.742187,0.328125 -1.040039,0 -2.003906,-0.128906 -2.894531,-0.386719 C 39.807122,30.030619 39.039544,29.6439 38.383294,29.119486 37.732903,28.589212 37.217278,27.921244 36.836419,27.11558 36.45263,26.312845 36.238763,25.354837 36.191888,24.244486 Z m 20.756836,3.351562 c 0.615235,0 1.212891,-0.03516 1.792969,-0.105468 v 2.660156 c -0.416016,0.04687 -0.826172,0.09375 -1.230469,0.140625 -0.398437,0.04687 -0.817383,0.07031 -1.253906,0.07031 -1.335938,0 -2.329102,-0.269531 -2.976563,-0.808593 -0.641601,-0.544922 -0.960937,-1.535157 -0.960937,-2.964844 V 14.295267 h -2.695313 v -2.484375 h 2.695313 V 6.6663609 h 3.070312 v 5.1445311 h 3.351563 v 2.484375 h -3.351563 v 11.261719 c 0,0.533203 0.09961,1.004883 0.304688,1.417969 0.210937,0.416015 0.626953,0.621093 1.253906,0.621093 z m 20.167969,-3.351562 c -0.164063,0.969726 -0.489258,1.851562 -0.972656,2.648437 -0.486328,0.791016 -1.072266,1.470704 -1.757813,2.039063 -0.688476,0.5625 -1.476562,0.996094 -2.367187,1.300781 -0.884766,0.310547 -1.810547,0.46875 -2.777344,0.46875 -1.40625,0 -2.642578,-0.263672 -3.703125,-0.785156 C 67.495598,29.386087 66.616692,28.671244 65.913567,27.77183 65.210442,26.875345 64.686028,25.832377 64.343255,24.642923 63.997552,23.4564 63.82763,22.217142 63.82763,20.92808 c 0,-1.21875 0.175781,-2.408203 0.527343,-3.574219 0.357422,-1.163086 0.890625,-2.197266 1.59375,-3.105469 0.703125,-0.914062 1.570313,-1.643555 2.601563,-2.191406 1.037109,-0.553711 2.238281,-0.832031 3.597656,-0.832031 1.335938,0 2.513672,0.231445 3.539063,0.691406 1.022461,0.462891 1.877929,1.095703 2.566406,1.898437 0.694336,0.805664 1.21875,1.754883 1.570312,2.847657 0.357422,1.095703 0.539063,2.273437 0.539063,3.539062 V 21.86558 H 67.038567 c 0.07031,0.829101 0.213867,1.611328 0.433594,2.34375 0.216797,0.735351 0.533203,1.388672 0.949219,1.957031 0.413086,0.5625 0.949218,1.004883 1.605468,1.324219 0.65625,0.322265 1.456055,0.480468 2.402344,0.480468 1.195313,0 2.185547,-0.342773 2.976563,-1.03125 0.796875,-0.685546 1.341797,-1.584961 1.640625,-2.695312 z m -3.046875,-4.933594 c 0,-0.741211 -0.111328,-1.432617 -0.328125,-2.074219 -0.219727,-0.647461 -0.544922,-1.209961 -0.972656,-1.6875 -0.421875,-0.483398 -0.9375,-0.861328 -1.546875,-1.136718 -0.609375,-0.28125 -1.294922,-0.421875 -2.050782,-0.421875 -0.805664,0 -1.508789,0.140625 -2.109375,0.421875 -0.594726,0.27539 -1.101562,0.65332 -1.523437,1.136718 -0.416016,0.477539 -0.74707,1.040039 -0.996094,1.6875 -0.251953,0.641602 -0.421875,1.333008 -0.515625,2.074219 z m 29.188474,-0.457031 c 0,-0.568359 -0.0234,-1.119141 -0.0703,-1.652344 -0.0469,-0.530273 -0.16406,-1.013672 -0.35156,-1.453125 -0.18164,-0.436523 -0.46582,-0.802734 -0.85547,-1.101562 -0.39258,-0.304688 -0.93164,-0.498047 -1.61719,-0.585938 -1.57031,0 -2.82422,0.477539 -3.761717,1.429688 -0.931641,0.955078 -1.394532,2.226562 -1.394532,3.820312 V 30.150736 H 95.078606 V 18.853861 c 0,-0.544922 -0.0293,-1.083984 -0.08203,-1.617188 -0.05566,-0.530273 -0.1875,-1.013671 -0.398437,-1.453125 -0.210938,-0.436523 -0.509766,-0.811523 -0.890625,-1.125 -0.375,-0.310546 -0.884766,-0.509765 -1.523438,-0.597656 -1.59375,0 -2.856445,0.477539 -3.785156,1.429688 -0.931641,0.955078 -1.394531,2.226562 -1.394531,3.820312 V 30.150736 H 83.957513 V 11.810892 h 2.90625 v 2.589844 c 1.359375,-2.021484 3.257812,-3.035156 5.695312,-3.035156 1.148438,0 2.112305,0.251953 2.894531,0.75 0.788086,0.492187 1.514649,1.183593 2.179688,2.074218 0.741211,-0.9375 1.617187,-1.646484 2.624996,-2.132812 1.01368,-0.483399 2.1211,-0.726563 3.31641,-0.726563 0.89648,0 1.70215,0.152344 2.41406,0.457032 0.71778,0.298828 1.32422,0.714843 1.81641,1.253906 0.49805,0.539062 0.87305,1.183594 1.125,1.933594 0.24902,0.75 0.375,1.564453 0.375,2.4375 v 12.738281 h -3.03516 z m 9.46875,5.390625 c 0.15528,1.242187 0.64453,2.179687 1.46485,2.8125 0.82031,0.632812 1.85156,0.949219 3.09375,0.949219 0.45996,0 0.94922,-0.04102 1.46484,-0.128907 0.51563,-0.09375 0.98438,-0.251953 1.40625,-0.480468 0.42773,-0.234375 0.7793,-0.544922 1.05469,-0.9375 0.28125,-0.389649 0.42187,-0.873047 0.42187,-1.453125 0,-0.413086 -0.082,-0.75586 -0.24609,-1.03125 -0.1582,-0.28125 -0.36914,-0.509766 -0.63281,-0.691407 -0.26661,-0.1875 -0.55957,-0.339843 -0.87891,-0.457031 -0.32227,-0.117187 -0.65625,-0.205078 -1.00781,-0.269531 l -3.44531,-0.832031 c -0.67383,-0.140625 -1.32129,-0.342774 -1.94532,-0.609375 -0.61816,-0.263672 -1.16894,-0.597657 -1.65234,-0.996094 -0.48633,-0.404297 -0.87305,-0.893555 -1.16016,-1.464844 -0.28125,-0.577148 -0.42187,-1.245117 -0.42187,-2.003906 0,-0.943359 0.19922,-1.757813 0.59765,-2.4375 0.4043,-0.679688 0.9375,-1.236328 1.59375,-1.675781 0.65625,-0.436524 1.38575,-0.75293 2.19141,-0.949219 0.80273,-0.193359 1.62012,-0.292969 2.44922,-0.292969 0.87305,0 1.72851,0.111328 2.56641,0.328125 0.84375,0.219727 1.59667,0.56836 2.26171,1.042969 0.6709,0.46875 1.21875,1.060547 1.64063,1.769531 0.42773,0.711914 0.65625,1.552735 0.67969,2.519531 h -3 c -0.0703,-0.568359 -0.23438,-1.048828 -0.49219,-1.441406 -0.25195,-0.398437 -0.57129,-0.717773 -0.96094,-0.960937 -0.39258,-0.240235 -0.83789,-0.413086 -1.33594,-0.515625 -0.49218,-0.09961 -1.00488,-0.152344 -1.53515,-0.152344 -0.36914,0 -0.76758,0.04394 -1.19531,0.128906 -0.42188,0.0791 -0.81739,0.210938 -1.1836,0.398438 -0.36914,0.18164 -0.66797,0.427734 -0.90234,0.738281 -0.22852,0.304687 -0.33985,0.688476 -0.33985,1.148437 0,0.767579 0.28125,1.341797 0.84375,1.722657 0.5625,0.375 1.26856,0.673828 2.1211,0.890625 0.84961,0.219726 1.77246,0.421875 2.76562,0.609375 0.99024,0.18164 1.91309,0.454101 2.76563,0.820312 0.84961,0.369141 1.55859,0.890625 2.12109,1.570313 0.5625,0.679687 0.84375,1.628906 0.84375,2.847656 0,1.063476 -0.22851,1.96875 -0.67969,2.71875 -0.44531,0.744141 -1.03125,1.353516 -1.75781,1.828125 -0.7207,0.46875 -1.53515,0.814453 -2.44922,1.03125 -0.9082,0.216797 -1.82226,0.328125 -2.74218,0.328125 -1.04004,0 -2.00391,-0.128906 -2.89454,-0.386719 -0.88476,-0.249023 -1.65234,-0.635742 -2.30859,-1.160156 -0.65039,-0.530274 -1.16602,-1.198242 -1.54687,-2.003906 -0.38379,-0.802735 -0.59766,-1.760743 -0.64454,-2.871094 z m 0,0"
         style="fill:#1a2531;fill-opacity:1;fill-rule:nonzero;stroke:none"
         aria-label="shade &#10;systems"
         transform="matrix(1.3333333,0,0,1.3333333,626.9004,483.2248)" />
      <path
         id="path5"
         d="m 0,0 3.139,-70.289 18.817,15.363 c 0,0 33.967,14.087 36.205,15.683 2.239,1.595 37.934,6.616 37.934,6.616 l 21.852,1.281 -105.87,37.911 z"
         style="fill:#7294b1;fill-opacity:1;fill-rule:nonzero;stroke:none"
         transform="matrix(1.3333333,0,0,-1.3333333,579.90133,373.50573)"
         clip-path="url(#clipPath6)" />
      <path
         id="path7"
         d="m 0,0 -48.502,-31.91 -0.51,7.719 48.909,31.633"
         style="fill:#7294b1;fill-opacity:1;fill-rule:nonzero;stroke:none"
         transform="matrix(1.3333333,0,0,-1.3333333,811.31627,379.65)"
         clip-path="url(#clipPath8)" />
      <path
         id="path9"
         d="m 0,0 111.128,-38.679 0.509,-7.719 -111.128,38.68 z"
         style="fill:#1a2531;fill-opacity:1;fill-rule:nonzero;stroke:none"
         transform="matrix(1.3333333,0,0,-1.3333333,597.82413,360.36573)"
         clip-path="url(#clipPath10)" />
      <path
         id="path11"
         d="M 0,0 112.421,-39.129 63.427,-70.793 -48.995,-31.663 Z"
         style="fill:#cbd5dc;fill-opacity:1;fill-rule:nonzero;stroke:none"
         transform="matrix(1.3333333,0,0,-1.3333333,661.39867,317.5152)"
         clip-path="url(#clipPath12)" />
      <path
         id="path13"
         d="m 0,0 -168.99,-200.339 342.356,0.291 13.696,25.504 -300.858,-0.291 115.103,138.643 z"
         style="fill:#1a2531;fill-opacity:1;fill-rule:nonzero;stroke:none"
         transform="matrix(1.3333333,0,0,-1.3333333,554.77827,310.20147)"
         clip-path="url(#clipPath14)" />
      <path
         id="path15"
         d="m 0,0 c 0.157,-2.285 -1.557,-4.121 -3.828,-4.101 -2.271,0.021 -4.239,1.89 -4.396,4.176 z"
         style="fill:#1a2531;fill-opacity:1;fill-rule:nonzero;stroke:none"
         transform="matrix(1.3333333,0,0,-1.3333333,323.59133,340.92627)"
         clip-path="url(#clipPath16)" />
      <path
         id="path17"
         d="m 0,0 -5.995,-6.277 4.376,-0.045 z"
         style="fill:#1a2531;fill-opacity:1;fill-rule:nonzero;stroke:none"
         transform="matrix(1.3333333,0,0,-1.3333333,318.68627,349.5272)"
         clip-path="url(#clipPath18)" />
      <path
         id="path19"
         d="M 0,0 4.606,-5.672 1.2,-5.132 Z"
         style="fill:#1a2531;fill-opacity:1;fill-rule:nonzero;stroke:none"
         transform="matrix(1.3333333,0,0,-1.3333333,319.94507,347.79387)"
         clip-path="url(#clipPath20)" />
      <path
         id="path21"
         d="M 0,0 1.467,-6.803 -0.481,-5.07 Z"
         style="fill:#1a2531;fill-opacity:1;fill-rule:nonzero;stroke:none"
         transform="matrix(1.3333333,0,0,-1.3333333,319.1868,352.29453)"
         clip-path="url(#clipPath22)" />
      <path
         id="path23"
         d="m 0,0 c 0.194,-2.282 -1.489,-4.146 -3.76,-4.163 -2.271,-0.017 -4.269,1.819 -4.464,4.102 z"
         style="fill:#1a2531;fill-opacity:1;fill-rule:nonzero;stroke:none"
         transform="matrix(1.3333333,0,0,-1.3333333,375.606,340.75933)"
         clip-path="url(#clipPath24)" />
      <path
         id="path25"
         d="m 0,0 -5.89,-6.375 4.376,0.028 z"
         style="fill:#1a2531;fill-opacity:1;fill-rule:nonzero;stroke:none"
         transform="matrix(1.3333333,0,0,-1.3333333,370.35413,350.00093)"
         clip-path="url(#clipPath26)" />
      <path
         id="path27"
         d="M 0,0 4.699,-5.595 1.285,-5.112 Z"
         style="fill:#1a2531;fill-opacity:1;fill-rule:nonzero;stroke:none"
         transform="matrix(1.3333333,0,0,-1.3333333,371.58413,348.24707)"
         clip-path="url(#clipPath28)" />
      <path
         id="path29"
         d="m 0,0 1.579,-6.777 -1.976,1.7 z"
         style="fill:#1a2531;fill-opacity:1;fill-rule:nonzero;stroke:none"
         transform="matrix(1.3333333,0,0,-1.3333333,370.9004,352.75947)"
         clip-path="url(#clipPath30)" />
      <path
         id="path31"
         d="m 0,0 c 0.198,-2.282 -1.483,-4.148 -3.754,-4.169 -2.271,-0.02 -4.272,1.814 -4.47,4.096 z"
         style="fill:#1a2531;fill-opacity:1;fill-rule:nonzero;stroke:none"
         transform="matrix(1.3333333,0,0,-1.3333333,419.7872,340.28547)"
         clip-path="url(#clipPath32)" />
      <path
         id="path33"
         d="m 0,0 -5.882,-6.384 4.376,0.034 z"
         style="fill:#1a2531;fill-opacity:1;fill-rule:nonzero;stroke:none"
         transform="matrix(1.3333333,0,0,-1.3333333,414.44333,349.03267)"
         clip-path="url(#clipPath34)" />
      <path
         id="path35"
         d="M 0,0 4.707,-5.588 1.292,-5.11 Z"
         style="fill:#1a2531;fill-opacity:1;fill-rule:nonzero;stroke:none"
         transform="matrix(1.3333333,0,0,-1.3333333,415.6708,347.27707)"
         clip-path="url(#clipPath36)" />
      <path
         id="path37"
         d="M 0,0 1.589,-6.775 -0.39,-5.078 Z"
         style="fill:#1a2531;fill-opacity:1;fill-rule:nonzero;stroke:none"
         transform="matrix(1.3333333,0,0,-1.3333333,414.99347,351.79053)"
         clip-path="url(#clipPath38)" />
      <path
         id="path39"
         d="m 0,0 c 0.198,-2.282 -1.483,-4.148 -3.754,-4.168 -2.271,-0.02 -4.272,1.814 -4.47,4.096 z"
         style="fill:#1a2531;fill-opacity:1;fill-rule:nonzero;stroke:none"
         transform="matrix(1.3333333,0,0,-1.3333333,462.148,340.03013)"
         clip-path="url(#clipPath40)" />
      <path
         id="path41"
         d="m 0,0 -5.882,-6.383 4.376,0.033 z"
         style="fill:#1a2531;fill-opacity:1;fill-rule:nonzero;stroke:none"
         transform="matrix(1.3333333,0,0,-1.3333333,457.50827,349.71467)"
         clip-path="url(#clipPath42)" />
      <path
         id="path43"
         d="M 0,0 4.707,-5.589 1.292,-5.11 Z"
         style="fill:#1a2531;fill-opacity:1;fill-rule:nonzero;stroke:none"
         transform="matrix(1.3333333,0,0,-1.3333333,458.73587,347.95907)"
         clip-path="url(#clipPath44)" />
      <path
         id="path45"
         d="M 0,0 1.589,-6.775 -0.39,-5.078 Z"
         style="fill:#1a2531;fill-opacity:1;fill-rule:nonzero;stroke:none"
         transform="matrix(1.3333333,0,0,-1.3333333,458.05827,352.47253)"
         clip-path="url(#clipPath46)" />
      <path
         id="path47"
         d="m 0,0 c 0.186,-2.283 -1.505,-4.141 -3.776,-4.149 -2.271,-0.008 -4.262,1.837 -4.448,4.12 z"
         style="fill:#1a2531;fill-opacity:1;fill-rule:nonzero;stroke:none"
         transform="matrix(1.3333333,0,0,-1.3333333,507.77787,339.79933)"
         clip-path="url(#clipPath48)" />
      <path
         id="path49"
         d="m 0,0 -5.915,-6.353 4.376,0.011 z"
         style="fill:#1a2531;fill-opacity:1;fill-rule:nonzero;stroke:none"
         transform="matrix(1.3333333,0,0,-1.3333333,502.68733,348.83667)"
         clip-path="url(#clipPath50)" />
      <path
         id="path51"
         d="M 0,0 4.678,-5.613 1.265,-5.117 Z"
         style="fill:#1a2531;fill-opacity:1;fill-rule:nonzero;stroke:none"
         transform="matrix(1.3333333,0,0,-1.3333333,503.92413,347.08747)"
         clip-path="url(#clipPath52)" />
      <path
         id="path53"
         d="m 0,0 1.553,-6.783 -1.97,1.707 z"
         style="fill:#1a2531;fill-opacity:1;fill-rule:nonzero;stroke:none"
         transform="matrix(1.3333333,0,0,-1.3333333,503.22293,351.59733)"
         clip-path="url(#clipPath54)" />
      <path
         id="path55"
         d="M 0,0 0.029,5.556 10.111,5.663 10.082,0.107 Z"
         style="fill:#1a2531;fill-opacity:1;fill-rule:nonzero;stroke:none"
         transform="matrix(1.3333333,0,0,-1.3333333,337.2888,341.1528)"
         clip-path="url(#clipPath56)" />
      <path
         id="path57"
         d="M 0,0 C -2.042,-0.022 -3.844,1.629 -4.025,3.686 -4.206,5.744 -2.698,7.43 -0.656,7.452 1.386,7.473 3.188,5.823 3.369,3.765 3.55,1.708 2.042,0.022 0,0"
         style="fill:#1a2531;fill-opacity:1;fill-rule:nonzero;stroke:none"
         transform="matrix(1.3333333,0,0,-1.3333333,344.40667,337.73773)"
         clip-path="url(#clipPath58)" />
      <path
         id="path59"
         d="M 0,0 153.166,54.377"
         style="fill:none;stroke:#1a2531;stroke-width:1.275;stroke-linecap:butt;stroke-linejoin:miter;stroke-miterlimit:10;stroke-dasharray:none;stroke-opacity:1"
         transform="matrix(1.3333333,0,0,-1.3333333,344.1816,331.04773)"
         clip-path="url(#clipPath60)" />
      <path
         id="path61"
         d="m 0,0 c -12.512,1.678 -25.955,1.93 -39.749,0.506 -34.483,-3.561 -63.965,-17.39 -79.121,-34.547 l -0.039,-6.46 c 14.781,17.939 44.96,32.481 80.507,36.151 13.29,1.373 26.531,0.914 38.651,-0.602 z"
         style="fill:#1a2531;fill-opacity:1;fill-rule:nonzero;stroke:none"
         transform="matrix(1.3333333,0,0,-1.3333333,746.3756,415.52347)"
         clip-path="url(#clipPath62)" />
      <path
         id="path63"
         d="M 0,0 -0.011,5.556 10.071,5.664 10.082,0.107 Z"
         style="fill:#1a2531;fill-opacity:1;fill-rule:nonzero;stroke:none"
         transform="matrix(1.3333333,0,0,-1.3333333,361.20227,301.1128)"
         clip-path="url(#clipPath64)" />
      <path
         id="path65"
         d="M 0,0 C -2.042,-0.022 -3.844,1.629 -4.025,3.686 -4.206,5.744 -2.698,7.43 -0.656,7.452 1.386,7.473 3.188,5.823 3.369,3.765 3.55,1.708 2.042,0.022 0,0"
         style="fill:#1a2531;fill-opacity:1;fill-rule:nonzero;stroke:none"
         transform="matrix(1.3333333,0,0,-1.3333333,368.26707,297.69747)"
         clip-path="url(#clipPath66)" />
      <path
         id="path67"
         d="M 0,0 137.469,47.008"
         style="fill:none;stroke:#1a2531;stroke-width:1.275;stroke-linecap:butt;stroke-linejoin:miter;stroke-miterlimit:10;stroke-dasharray:none;stroke-opacity:1"
         transform="matrix(1.3333333,0,0,-1.3333333,367.01427,290.7488)"
         clip-path="url(#clipPath68)" />
      <path
         id="path69"
         d="M 0,0 C 0,0.027 0.679,76.723 0.679,76.723 0.671,77.318 15.038,77.061 15.815,77.052 28.572,76.9 43.456,75.957 52.054,63.908 56.315,57.935 56.874,51.938 54.895,46.527 51.016,35.926 40.251,28.887 31.423,22.704 Z m 75.921,75.39 c -18.982,26.602 -51.843,28.684 -80.006,29.019 -1.715,0.02 -24.544,0.294 -24.525,-1.019 10e-4,-0.054 -1.572,-258.147 -1.572,-258.147 l 28.74,-0.181 0.749,123.108 c 19.837,13.378 34.966,22.284 53.958,36.852 12.137,9.311 25.83,17.35 29.901,31.646 3.6,12.64 0.839,27.392 -7.245,38.722"
         style="fill:#3f516b;fill-opacity:1;fill-rule:nonzero;stroke:none"
         transform="matrix(1.3333333,0,0,-1.3333333,589.3408,337.2724)"
         clip-path="url(#clipPath70)" />
      <path
         id="path71"
         d="M 0,0 -2.204,0.202 -2.175,5.011 0.029,4.809 Z"
         style="fill:#1a2531;fill-opacity:1;fill-rule:nonzero;stroke:none"
         transform="matrix(1.3333333,0,0,-1.3333333,553.94547,231.31093)"
         clip-path="url(#clipPath72)" />
      <path
         id="path73"
         d="m 0,0 c -0.006,-0.974 -0.8,-1.697 -1.773,-1.615 -0.974,0.082 -1.758,0.938 -1.752,1.912 0.006,0.974 0.8,1.697 1.773,1.615 C -0.778,1.83 0.006,0.974 0,0"
         style="fill:#1a2531;fill-opacity:1;fill-rule:nonzero;stroke:none"
         transform="matrix(1.3333333,0,0,-1.3333333,552.47347,227.9956)"
         clip-path="url(#clipPath74)" />
      <path
         id="path75"
         d="m 0,0 -2.33,0.202 0.029,4.809 2.33,-0.202 z"
         style="fill:#1a2531;fill-opacity:1;fill-rule:nonzero;stroke:none"
         transform="matrix(1.3333333,0,0,-1.3333333,553.94547,261.51987)"
         clip-path="url(#clipPath76)" />
      <path
         id="path77"
         d="m 0,0 c -0.006,-0.974 -0.8,-1.697 -1.773,-1.615 -0.974,0.082 -1.758,0.938 -1.752,1.912 0.006,0.974 0.8,1.697 1.773,1.615 C -0.778,1.83 0.006,0.974 0,0"
         style="fill:#1a2531;fill-opacity:1;fill-rule:nonzero;stroke:none"
         transform="matrix(1.3333333,0,0,-1.3333333,552.47347,258.20453)"
         clip-path="url(#clipPath78)" />
    </g>
  </g>
</svg>
