
<svg xmlns="http://www.w3.org/2000/svg" width="482" height="251" viewBox="0 0 482 251"><defs><clipPath id="vqf7a"><path d="M0 251V0h496v251z"/></clipPath></defs><g><g><g><g/><g clip-path="url(#vqf7a)"><g><g><path fill="none" stroke="#fff" stroke-miterlimit="20" stroke-width=".53" d="M326.39 301.9L194.46 146.83"/></g><g><path fill="none" stroke="#fff" stroke-miterlimit="20" stroke-width=".53" d="M331.74 297.35L199.8 142.28"/></g><g><path fill="none" stroke="#fff" stroke-miterlimit="20" stroke-width=".53" d="M337.09 292.8L205.15 137.73"/></g><g><path fill="none" stroke="#fff" stroke-miterlimit="20" stroke-width=".53" d="M342.44 288.25L210.5 133.18"/></g><g><path fill="none" stroke="#fff" stroke-miterlimit="20" stroke-width=".53" d="M347.78 283.7L215.85 128.63"/></g><g><path fill="none" stroke="#fff" stroke-miterlimit="20" stroke-width=".53" d="M353.13 279.15L221.19 124.08"/></g><g><path fill="none" stroke="#fff" stroke-miterlimit="20" stroke-width=".53" d="M358.48 274.6L226.54 119.53"/></g><g><path fill="none" stroke="#fff" stroke-miterlimit="20" stroke-width=".53" d="M363.83 270.05L231.89 114.98"/></g><g><path fill="none" stroke="#fff" stroke-miterlimit="20" stroke-width=".53" d="M369.17 265.5L237.24 110.43"/></g><g><path fill="none" stroke="#fff" stroke-miterlimit="20" stroke-width=".53" d="M374.52 260.95L242.58 105.88"/></g><g><path fill="none" stroke="#fff" stroke-miterlimit="20" stroke-width=".53" d="M379.87 256.4L247.93 101.33"/></g><g><path fill="none" stroke="#fff" stroke-miterlimit="20" stroke-width=".53" d="M385.22 251.85L253.28 96.78"/></g><g><path fill="none" stroke="#fff" stroke-miterlimit="20" stroke-width=".53" d="M390.56 247.3L258.63 92.23"/></g><g><path fill="none" stroke="#fff" stroke-miterlimit="20" stroke-width=".53" d="M395.91 242.75L263.97 87.68"/></g><g><path fill="none" stroke="#fff" stroke-miterlimit="20" stroke-width=".53" d="M401.26 238.2L269.32 83.13"/></g><g><path fill="none" stroke="#fff" stroke-miterlimit="20" stroke-width=".53" d="M406.61 233.65L274.67 78.58"/></g><g><path fill="none" stroke="#fff" stroke-miterlimit="20" stroke-width=".53" d="M411.95 229.1L280.02 74.03"/></g><g><path fill="none" stroke="#fff" stroke-miterlimit="20" stroke-width=".53" d="M417.3 224.55L285.36 69.48"/></g><g><path fill="none" stroke="#fff" stroke-miterlimit="20" stroke-width=".53" d="M422.65 220L290.71 64.93"/></g><g><path fill="none" stroke="#fff" stroke-miterlimit="20" stroke-width=".53" d="M428 215.45L296.06 60.38"/></g><g><path fill="none" stroke="#fff" stroke-miterlimit="20" stroke-width=".53" d="M433.34 210.9L301.41 55.83"/></g><g><path fill="none" stroke="#fff" stroke-miterlimit="20" stroke-width=".53" d="M438.69 206.35L306.75 51.28"/></g><g><path fill="none" stroke="#fff" stroke-miterlimit="20" stroke-width=".53" d="M444.04 201.8L312.1 46.73"/></g><g><path fill="none" stroke="#fff" stroke-miterlimit="20" stroke-width=".53" d="M449.39 197.25L317.45 42.18"/></g><g><path fill="none" stroke="#fff" stroke-miterlimit="20" stroke-width=".53" d="M454.73 192.7L322.8 37.63"/></g><g><path fill="none" stroke="#fff" stroke-miterlimit="20" stroke-width=".53" d="M460.08 188.15L328.15 33.08"/></g><g><path fill="none" stroke="#fff" stroke-miterlimit="20" stroke-width=".53" d="M465.43 183.6L333.49 28.53"/></g><g><path fill="none" stroke="#fff" stroke-miterlimit="20" stroke-width=".53" d="M470.78 179.05L338.84 23.98"/></g><g><path fill="none" stroke="#fff" stroke-miterlimit="20" stroke-width=".53" d="M476.12 174.5L344.19 19.43"/></g><g><path fill="none" stroke="#fff" stroke-miterlimit="20" stroke-width=".53" d="M481.47 169.95L349.54 14.88"/></g></g><g transform="rotate(-85.39 233 150)"><path fill="#fff" d="M224.193 158.664v-17.45h17.45v17.45z"/><path fill="none" stroke="#fff" stroke-miterlimit="20" stroke-width="2.13" d="M224.193 158.664v0-17.45 0h17.45v17.45z"/></g><g transform="rotate(-85.39 329.5 263.5)"><path fill="#fff" d="M320.809 272.202v-17.45h17.45v17.45z"/><path fill="none" stroke="#fff" stroke-miterlimit="20" stroke-width="2.13" d="M320.809 272.202v0-17.45 0h17.45v17.45z"/></g><g transform="rotate(-85.39 346.5 53)"><path fill="#fff" d="M337.73 62.058v-17.45h17.45v17.45z"/><path fill="none" stroke="#fff" stroke-miterlimit="20" stroke-width="2.13" d="M337.73 62.058v0-17.45 0h17.45v17.45z"/></g><g transform="rotate(-85.39 443 167)"><path fill="#fff" d="M434.346 175.596v-17.45h17.45v17.45z"/><path fill="none" stroke="#fff" stroke-miterlimit="20" stroke-width="2.13" d="M434.346 175.596v0-17.45 0h17.45v17.45z"/></g><g><path fill="none" stroke="#fff" stroke-miterlimit="20" stroke-width="2.13" d="M321.51 254.06l-80.61-94.74"/></g><g><path fill="none" stroke="#fff" stroke-miterlimit="20" stroke-width="2.13" d="M433.65 174.85l-94.75 80.62"/></g><g><path fill="none" stroke="#fff" stroke-miterlimit="20" stroke-width="2.13" d="M354.44 62.72l80.61 94.74"/></g><g><path fill="none" stroke="#fff" stroke-miterlimit="20" stroke-width="2.13" d="M242.3 141.93l94.75-80.61"/></g><g><path fill="none" stroke="#fff" stroke-miterlimit="20" stroke-width="2.13" d="M212.14 167.59l11.37-9.67"/></g><g><path fill="none" stroke="#fff" stroke-miterlimit="20" stroke-width="2.13" d="M308.74 281.13l11.37-9.68"/></g><g><path fill="none" stroke="#fff" stroke-miterlimit="20" stroke-width="2.13" d="M355.84 45.33l11.37-9.67"/></g><g><path fill="none" stroke="#fff" stroke-miterlimit="20" stroke-width="2.13" d="M452.44 158.87l11.37-9.68"/></g><g><path fill="none" stroke="#fff" stroke-miterlimit="20" stroke-width="2.13" d="M224.91 140.53l-9.67-11.37"/></g><g><path fill="none" stroke="#fff" stroke-miterlimit="20" stroke-width="2.13" d="M385.02 252.03L253.08 96.96"/></g><g><path fill="none" stroke="#fff" stroke-miterlimit="20" stroke-width="2.13" d="M422.87 219.83L290.93 64.76"/></g><g><path fill="none" stroke="#fff" stroke-miterlimit="20" stroke-width="2.13" d="M338.45 43.93l-9.68-11.37"/></g><g><path fill="none" stroke="#fff" stroke-miterlimit="20" stroke-width="2.13" d="M347.18 284.23l-9.68-11.38"/></g><g><path fill="none" stroke="#fff" stroke-miterlimit="20" stroke-width="2.13" d="M460.71 187.63l-9.67-11.38"/></g></g><g clip-path="url(#vqf7a)"><g><g><path fill="none" stroke="#fff" stroke-miterlimit="20" stroke-width=".53" d="M189.93 141.06L57.99-14.01"/></g><g><path fill="none" stroke="#fff" stroke-miterlimit="20" stroke-width=".53" d="M195.28 136.51L63.34-18.56"/></g><g><path fill="none" stroke="#fff" stroke-miterlimit="20" stroke-width=".53" d="M200.62 131.96L68.69-23.11"/></g><g><path fill="none" stroke="#fff" stroke-miterlimit="20" stroke-width=".53" d="M205.97 127.41L74.03-27.66"/></g><g><path fill="none" stroke="#fff" stroke-miterlimit="20" stroke-width=".53" d="M211.32 122.86L79.38-32.21"/></g><g><path fill="none" stroke="#fff" stroke-miterlimit="20" stroke-width=".53" d="M216.67 118.31L84.73-36.76"/></g><g><path fill="none" stroke="#fff" stroke-miterlimit="20" stroke-width=".53" d="M222.01 113.76L90.08-41.31"/></g><g><path fill="none" stroke="#fff" stroke-miterlimit="20" stroke-width=".53" d="M227.36 109.21L95.42-45.86"/></g><g><path fill="none" stroke="#fff" stroke-miterlimit="20" stroke-width=".53" d="M232.71 104.66L100.77-50.41"/></g><g><path fill="none" stroke="#fff" stroke-miterlimit="20" stroke-width=".53" d="M238.06 100.11L106.12-54.96"/></g><g><path fill="none" stroke="#fff" stroke-miterlimit="20" stroke-width=".53" d="M243.4 95.56L111.47-59.51"/></g><g><path fill="none" stroke="#fff" stroke-miterlimit="20" stroke-width=".53" d="M248.75 91.01L116.81-64.06"/></g><g><path fill="none" stroke="#fff" stroke-miterlimit="20" stroke-width=".53" d="M254.1 86.46L122.16-68.61"/></g><g><path fill="none" stroke="#fff" stroke-miterlimit="20" stroke-width=".53" d="M259.45 81.91L127.51-73.16"/></g><g><path fill="none" stroke="#fff" stroke-miterlimit="20" stroke-width=".53" d="M264.79 77.36L132.86-77.71"/></g><g><path fill="none" stroke="#fff" stroke-miterlimit="20" stroke-width=".53" d="M270.14 72.81L138.2-82.26"/></g><g><path fill="none" stroke="#fff" stroke-miterlimit="20" stroke-width=".53" d="M275.49 68.26L143.55-86.81"/></g><g><path fill="none" stroke="#fff" stroke-miterlimit="20" stroke-width=".53" d="M280.84 63.71L148.9-91.36"/></g><g><path fill="none" stroke="#fff" stroke-miterlimit="20" stroke-width=".53" d="M286.18 59.16L154.25-95.91"/></g><g><path fill="none" stroke="#fff" stroke-miterlimit="20" stroke-width=".53" d="M291.53 54.61L159.59-100.46"/></g><g><path fill="none" stroke="#fff" stroke-miterlimit="20" stroke-width=".53" d="M296.88 50.06L164.94-105.01"/></g><g><path fill="none" stroke="#fff" stroke-miterlimit="20" stroke-width=".53" d="M302.23 45.51L170.29-109.56"/></g><g><path fill="none" stroke="#fff" stroke-miterlimit="20" stroke-width=".53" d="M307.57 40.96L175.64-114.11"/></g><g><path fill="none" stroke="#fff" stroke-miterlimit="20" stroke-width=".53" d="M312.92 36.41L180.98-118.66"/></g><g><path fill="none" stroke="#fff" stroke-miterlimit="20" stroke-width=".53" d="M318.27 31.86L186.33-123.21"/></g><g><path fill="none" stroke="#fff" stroke-miterlimit="20" stroke-width=".53" d="M323.62 27.31L191.68-127.76"/></g><g><path fill="none" stroke="#fff" stroke-miterlimit="20" stroke-width=".53" d="M328.96 22.76L197.03-132.31"/></g><g><path fill="none" stroke="#fff" stroke-miterlimit="20" stroke-width=".53" d="M334.31 18.21L202.37-136.86"/></g><g><path fill="none" stroke="#fff" stroke-miterlimit="20" stroke-width=".53" d="M339.66 13.66L207.72-141.41"/></g><g><path fill="none" stroke="#fff" stroke-miterlimit="20" stroke-width=".53" d="M345.01 9.11L213.07-145.96"/></g></g><g transform="rotate(-85.39 96.5 -11)"><path fill="#fff" d="M87.726-2.185v-17.45h17.45v17.45z"/><path fill="none" stroke="#fff" stroke-miterlimit="20" stroke-width="2.13" d="M87.726-2.185v0-17.45 0h17.45v17.45z"/></g><g transform="rotate(-85.39 193 102.5)"><path fill="#fff" d="M184.322 111.352v-17.45h17.45v17.45z"/><path fill="none" stroke="#fff" stroke-miterlimit="20" stroke-width="2.13" d="M184.322 111.352v0-17.45 0h17.45v17.45z"/></g><g transform="rotate(-85.39 209.985 -107.505)"><path fill="#fff" d="M201.263-98.781v-17.45h17.45v17.45z"/><path fill="none" stroke="#fff" stroke-miterlimit="20" stroke-width="2.13" d="M201.263-98.781v0-17.45 0h17.45v17.45z"/></g><g transform="rotate(-85.39 306.5 6)"><path fill="#fff" d="M297.87 14.756v-17.45h17.45v17.45z"/><path fill="none" stroke="#fff" stroke-miterlimit="20" stroke-width="2.13" d="M297.87 14.756v0-17.45 0h17.45v17.45z"/></g><g><path fill="none" stroke="#fff" stroke-miterlimit="20" stroke-width="2.13" d="M185.05 93.22L104.44-1.52"/></g><g><path fill="none" stroke="#fff" stroke-miterlimit="20" stroke-width="2.13" d="M297.18 14.01l-94.74 80.61"/></g><g><path fill="none" stroke="#fff" stroke-miterlimit="20" stroke-width="2.13" d="M217.97-98.12l80.61 94.74"/></g><g><path fill="none" stroke="#fff" stroke-miterlimit="20" stroke-width="2.13" d="M105.84-18.91l94.74-80.61"/></g><g><path fill="none" stroke="#fff" stroke-miterlimit="20" stroke-width="2.13" d="M75.68 6.75l11.37-9.67"/></g><g><path fill="none" stroke="#fff" stroke-miterlimit="20" stroke-width="2.13" d="M172.28 120.29l11.37-9.68"/></g><g><path fill="none" stroke="#fff" stroke-miterlimit="20" stroke-width="2.13" d="M219.37-115.51l11.37-9.68"/></g><g><path fill="none" stroke="#fff" stroke-miterlimit="20" stroke-width="2.13" d="M315.97-1.98l11.37-9.67"/></g><g><path fill="none" stroke="#fff" stroke-miterlimit="20" stroke-width="2.13" d="M88.45-20.31l-9.68-11.37"/></g><g><path fill="none" stroke="#fff" stroke-miterlimit="20" stroke-width="2.13" d="M248.56 91.18L116.62-63.88"/></g><g><path fill="none" stroke="#fff" stroke-miterlimit="20" stroke-width="2.13" d="M286.4 58.98L154.46-96.08"/></g><g><path fill="none" stroke="#fff" stroke-miterlimit="20" stroke-width="2.13" d="M201.98-116.91l-9.67-11.37"/></g><g><path fill="none" stroke="#fff" stroke-miterlimit="20" stroke-width="2.13" d="M210.71 123.38l-9.67-11.37"/></g><g><path fill="none" stroke="#fff" stroke-miterlimit="20" stroke-width="2.13" d="M324.25 26.78l-9.68-11.37"/></g></g><g clip-path="url(#vqf7a)"><g><g><path fill="none" stroke="#fff" stroke-miterlimit="20" stroke-width=".53" d="M165.18 439L33.24 283.93"/></g><g><path fill="none" stroke="#fff" stroke-miterlimit="20" stroke-width=".53" d="M170.52 434.45L38.59 279.38"/></g><g><path fill="none" stroke="#fff" stroke-miterlimit="20" stroke-width=".53" d="M175.87 429.9L43.93 274.84"/></g><g><path fill="none" stroke="#fff" stroke-miterlimit="20" stroke-width=".53" d="M181.22 425.35L49.28 270.29"/></g><g><path fill="none" stroke="#fff" stroke-miterlimit="20" stroke-width=".53" d="M186.57 420.8L54.63 265.74"/></g><g><path fill="none" stroke="#fff" stroke-miterlimit="20" stroke-width=".53" d="M191.91 416.25L59.98 261.19"/></g><g><path fill="none" stroke="#fff" stroke-miterlimit="20" stroke-width=".53" d="M197.26 411.7L65.32 256.64"/></g><g><path fill="none" stroke="#fff" stroke-miterlimit="20" stroke-width=".53" d="M202.61 407.15L70.67 252.09"/></g><g><path fill="none" stroke="#fff" stroke-miterlimit="20" stroke-width=".53" d="M207.96 402.6L76.02 247.54"/></g><g><path fill="none" stroke="#fff" stroke-miterlimit="20" stroke-width=".53" d="M213.3 398.05L81.37 242.99"/></g><g><path fill="none" stroke="#fff" stroke-miterlimit="20" stroke-width=".53" d="M218.65 393.5L86.71 238.44"/></g><g><path fill="none" stroke="#fff" stroke-miterlimit="20" stroke-width=".53" d="M224 388.95L92.06 233.89"/></g><g><path fill="none" stroke="#fff" stroke-miterlimit="20" stroke-width=".53" d="M229.35 384.4L97.41 229.34"/></g><g><path fill="none" stroke="#fff" stroke-miterlimit="20" stroke-width=".53" d="M234.69 379.85L102.76 224.79"/></g><g><path fill="none" stroke="#fff" stroke-miterlimit="20" stroke-width=".53" d="M240.04 375.3L108.1 220.24"/></g><g><path fill="none" stroke="#fff" stroke-miterlimit="20" stroke-width=".53" d="M245.39 370.75L113.45 215.69"/></g><g><path fill="none" stroke="#fff" stroke-miterlimit="20" stroke-width=".53" d="M250.74 366.2L118.8 211.14"/></g><g><path fill="none" stroke="#fff" stroke-miterlimit="20" stroke-width=".53" d="M256.08 361.65L124.15 206.59"/></g><g><path fill="none" stroke="#fff" stroke-miterlimit="20" stroke-width=".53" d="M261.43 357.1L129.49 202.04"/></g><g><path fill="none" stroke="#fff" stroke-miterlimit="20" stroke-width=".53" d="M266.78 352.55L134.84 197.49"/></g><g><path fill="none" stroke="#fff" stroke-miterlimit="20" stroke-width=".53" d="M272.13 348L140.19 192.94"/></g><g><path fill="none" stroke="#fff" stroke-miterlimit="20" stroke-width=".53" d="M277.47 343.45L145.54 188.39"/></g><g><path fill="none" stroke="#fff" stroke-miterlimit="20" stroke-width=".53" d="M282.82 338.9L150.88 183.84"/></g><g><path fill="none" stroke="#fff" stroke-miterlimit="20" stroke-width=".53" d="M288.17 334.35L156.23 179.29"/></g><g><path fill="none" stroke="#fff" stroke-miterlimit="20" stroke-width=".53" d="M293.52 329.8L161.58 174.74"/></g><g><path fill="none" stroke="#fff" stroke-miterlimit="20" stroke-width=".53" d="M298.86 325.25L166.93 170.19"/></g><g><path fill="none" stroke="#fff" stroke-miterlimit="20" stroke-width=".53" d="M304.21 320.7L172.27 165.64"/></g><g><path fill="none" stroke="#fff" stroke-miterlimit="20" stroke-width=".53" d="M309.56 316.15L177.62 161.09"/></g><g><path fill="none" stroke="#fff" stroke-miterlimit="20" stroke-width=".53" d="M314.91 311.6L182.97 156.54"/></g><g><path fill="none" stroke="#fff" stroke-miterlimit="20" stroke-width=".53" d="M320.25 307.05L188.32 151.99"/></g></g><g transform="rotate(-85.39 71.695 287.045)"><path fill="#fff" d="M62.971 295.77v-17.45h17.45v17.45z"/><path fill="none" stroke="#fff" stroke-miterlimit="20" stroke-width="2.13" d="M62.971 295.77v0-17.45 0h17.45v17.45z"/></g><g transform="rotate(-85.39 168.305 400.585)"><path fill="#fff" d="M159.577 409.308v-17.45h17.45v17.45z"/><path fill="none" stroke="#fff" stroke-miterlimit="20" stroke-width="2.13" d="M159.577 409.308v0-17.45 0h17.45v17.45z"/></g><g transform="rotate(-85.39 185 190.5)"><path fill="#fff" d="M176.519 199.165v-17.45h17.45v17.45z"/><path fill="none" stroke="#fff" stroke-miterlimit="20" stroke-width="2.13" d="M176.519 199.165v0-17.45 0h17.45v17.45z"/></g><g transform="rotate(-85.39 281.835 303.985)"><path fill="#fff" d="M273.115 312.712v-17.45h17.45v17.45z"/><path fill="none" stroke="#fff" stroke-miterlimit="20" stroke-width="2.13" d="M273.115 312.712v0-17.45 0h17.45v17.45z"/></g><g><path fill="none" stroke="#fff" stroke-miterlimit="20" stroke-width="2.13" d="M160.3 391.17l-80.62-94.75"/></g><g><path fill="none" stroke="#fff" stroke-miterlimit="20" stroke-width="2.13" d="M272.43 311.96l-94.74 80.61"/></g><g><path fill="none" stroke="#fff" stroke-miterlimit="20" stroke-width="2.13" d="M193.22 199.82l80.61 94.75"/></g><g><path fill="none" stroke="#fff" stroke-miterlimit="20" stroke-width="2.13" d="M81.09 279.03l94.74-80.61"/></g><g><path fill="none" stroke="#fff" stroke-miterlimit="20" stroke-width="2.13" d="M50.92 304.7l11.38-9.68"/></g><g><path fill="none" stroke="#fff" stroke-miterlimit="20" stroke-width="2.13" d="M147.52 418.23l11.38-9.67"/></g><g><path fill="none" stroke="#fff" stroke-miterlimit="20" stroke-width="2.13" d="M194.62 182.43l11.37-9.67"/></g><g><path fill="none" stroke="#fff" stroke-miterlimit="20" stroke-width="2.13" d="M291.22 295.97l11.37-9.68"/></g><g><path fill="none" stroke="#fff" stroke-miterlimit="20" stroke-width="2.13" d="M63.7 277.63l-9.68-11.37"/></g><g><path fill="none" stroke="#fff" stroke-miterlimit="20" stroke-width="2.13" d="M223.8 389.13L91.87 234.06"/></g><g><path fill="none" stroke="#fff" stroke-miterlimit="20" stroke-width="2.13" d="M261.65 356.93L129.71 201.86"/></g><g><path fill="none" stroke="#fff" stroke-miterlimit="20" stroke-width="2.13" d="M177.23 181.03l-9.67-11.37"/></g><g><path fill="none" stroke="#fff" stroke-miterlimit="20" stroke-width="2.13" d="M185.96 421.33l-9.68-11.37"/></g><g><path fill="none" stroke="#fff" stroke-miterlimit="20" stroke-width="2.13" d="M299.49 324.73l-9.67-11.37"/></g></g><g clip-path="url(#vqf7a)"><g><g><path fill="none" stroke="#fff" stroke-miterlimit="20" stroke-width=".53" d="M28.71 278.16l-131.94-155.07"/></g><g><path fill="none" stroke="#fff" stroke-miterlimit="20" stroke-width=".53" d="M34.06 273.61L-97.88 118.54"/></g><g><path fill="none" stroke="#fff" stroke-miterlimit="20" stroke-width=".53" d="M39.41 269.06L-92.53 113.99"/></g><g><path fill="none" stroke="#fff" stroke-miterlimit="20" stroke-width=".53" d="M44.75 264.51L-87.18 109.44"/></g><g><path fill="none" stroke="#fff" stroke-miterlimit="20" stroke-width=".53" d="M50.1 259.96L-81.84 104.89"/></g><g><path fill="none" stroke="#fff" stroke-miterlimit="20" stroke-width=".53" d="M55.45 255.41L-76.49 100.34"/></g><g><path fill="none" stroke="#fff" stroke-miterlimit="20" stroke-width=".53" d="M60.8 250.86L-71.14 95.79"/></g><g><path fill="none" stroke="#fff" stroke-miterlimit="20" stroke-width=".53" d="M66.14 246.31L-65.79 91.24"/></g><g><path fill="none" stroke="#fff" stroke-miterlimit="20" stroke-width=".53" d="M71.49 241.76L-60.45 86.69"/></g><g><path fill="none" stroke="#fff" stroke-miterlimit="20" stroke-width=".53" d="M76.84 237.21L-55.1 82.14"/></g><g><path fill="none" stroke="#fff" stroke-miterlimit="20" stroke-width=".53" d="M82.19 232.66L-49.75 77.59"/></g><g><path fill="none" stroke="#fff" stroke-miterlimit="20" stroke-width=".53" d="M87.53 228.11L-44.4 73.04"/></g><g><path fill="none" stroke="#fff" stroke-miterlimit="20" stroke-width=".53" d="M92.88 223.56L-39.06 68.49"/></g><g><path fill="none" stroke="#fff" stroke-miterlimit="20" stroke-width=".53" d="M98.23 219.01L-33.71 63.94"/></g><g><path fill="none" stroke="#fff" stroke-miterlimit="20" stroke-width=".53" d="M103.58 214.46L-28.36 59.39"/></g><g><path fill="none" stroke="#fff" stroke-miterlimit="20" stroke-width=".53" d="M108.92 209.91L-23.01 54.84"/></g><g><path fill="none" stroke="#fff" stroke-miterlimit="20" stroke-width=".53" d="M114.27 205.36L-17.67 50.29"/></g><g><path fill="none" stroke="#fff" stroke-miterlimit="20" stroke-width=".53" d="M119.62 200.81L-12.32 45.74"/></g><g><path fill="none" stroke="#fff" stroke-miterlimit="20" stroke-width=".53" d="M124.97 196.26L-6.97 41.19"/></g><g><path fill="none" stroke="#fff" stroke-miterlimit="20" stroke-width=".53" d="M130.31 191.71L-1.62 36.64"/></g><g><path fill="none" stroke="#fff" stroke-miterlimit="20" stroke-width=".53" d="M135.66 187.16L3.72 32.09"/></g><g><path fill="none" stroke="#fff" stroke-miterlimit="20" stroke-width=".53" d="M141.01 182.61L9.07 27.54"/></g><g><path fill="none" stroke="#fff" stroke-miterlimit="20" stroke-width=".53" d="M146.36 178.06L14.42 22.99"/></g><g><path fill="none" stroke="#fff" stroke-miterlimit="20" stroke-width=".53" d="M151.7 173.51L19.77 18.44"/></g><g><path fill="none" stroke="#fff" stroke-miterlimit="20" stroke-width=".53" d="M157.05 168.96L25.11 13.89"/></g><g><path fill="none" stroke="#fff" stroke-miterlimit="20" stroke-width=".53" d="M162.4 164.41L30.46 9.34"/></g><g><path fill="none" stroke="#fff" stroke-miterlimit="20" stroke-width=".53" d="M167.75 159.86L35.81 4.79"/></g><g><path fill="none" stroke="#fff" stroke-miterlimit="20" stroke-width=".53" d="M173.09 155.31L41.16.24"/></g><g><path fill="none" stroke="#fff" stroke-miterlimit="20" stroke-width=".53" d="M178.44 150.76L46.5-4.31"/></g><g><path fill="none" stroke="#fff" stroke-miterlimit="20" stroke-width=".53" d="M183.79 146.21L51.85-8.86"/></g></g><g transform="rotate(-85.39 -64.775 126.195)"><path fill="#fff" d="M-73.495 134.921v-17.45h17.45v17.45z"/><path fill="none" stroke="#fff" stroke-miterlimit="20" stroke-width="2.13" d="M-73.495 134.921v0-17.45 0h17.45v17.45z"/></g><g transform="rotate(-85.39 32 240)"><path fill="#fff" d="M23.11 248.46v-17.45h17.45v17.45z"/><path fill="none" stroke="#fff" stroke-miterlimit="20" stroke-width="2.13" d="M23.11 248.46v0-17.45 0h17.45v17.45z"/></g><g transform="rotate(-85.39 49 29.5)"><path fill="#fff" d="M40.043 38.315v-17.45h17.45v17.45z"/><path fill="none" stroke="#fff" stroke-miterlimit="20" stroke-width="2.13" d="M40.043 38.315v0-17.45 0h17.45v17.45z"/></g><g transform="rotate(-85.39 145.5 143)"><path fill="#fff" d="M136.649 151.853v-17.45h17.45v17.45z"/><path fill="none" stroke="#fff" stroke-miterlimit="20" stroke-width="2.13" d="M136.649 151.853v0-17.45 0h17.45v17.45z"/></g><g><path fill="none" stroke="#fff" stroke-miterlimit="20" stroke-width="2.13" d="M23.83 230.32l-80.61-94.74"/></g><g><path fill="none" stroke="#fff" stroke-miterlimit="20" stroke-width="2.13" d="M135.96 151.11l-94.74 80.62"/></g><g><path fill="none" stroke="#fff" stroke-miterlimit="20" stroke-width="2.13" d="M56.75 38.98l80.62 94.74"/></g><g><path fill="none" stroke="#fff" stroke-miterlimit="20" stroke-width="2.13" d="M-55.38 118.19l94.74-80.61"/></g><g><path fill="none" stroke="#fff" stroke-miterlimit="20" stroke-width="2.13" d="M-85.54 143.85l11.37-9.67"/></g><g><path fill="none" stroke="#fff" stroke-miterlimit="20" stroke-width="2.13" d="M11.06 257.39l11.37-9.68"/></g><g><path fill="none" stroke="#fff" stroke-miterlimit="20" stroke-width="2.13" d="M58.15 21.59l11.38-9.67"/></g><g><path fill="none" stroke="#fff" stroke-miterlimit="20" stroke-width="2.13" d="M154.75 135.13l11.38-9.68"/></g><g><path fill="none" stroke="#fff" stroke-miterlimit="20" stroke-width="2.13" d="M-72.77 116.79l-9.67-11.37"/></g><g><path fill="none" stroke="#fff" stroke-miterlimit="20" stroke-width="2.13" d="M87.34 228.29L-44.6 73.22"/></g><g><path fill="none" stroke="#fff" stroke-miterlimit="20" stroke-width="2.13" d="M125.18 196.09L-6.75 41.02"/></g><g><path fill="none" stroke="#fff" stroke-miterlimit="20" stroke-width="2.13" d="M40.77 20.19L31.09 8.82"/></g><g><path fill="none" stroke="#fff" stroke-miterlimit="20" stroke-width="2.13" d="M49.49 260.49l-9.67-11.38"/></g><g><path fill="none" stroke="#fff" stroke-miterlimit="20" stroke-width="2.13" d="M163.03 163.89l-9.68-11.38"/></g></g></g></g></g></svg>