<svg xmlns="http://www.w3.org/2000/svg" width="451" height="238" viewBox="0 0 451 238"><defs><clipPath id="e7hoa"><path d="M-22 251V0h496v251z"/></clipPath></defs><g><g><g><g><g><g><g/><g clip-path="url(#e7hoa)"><g><g><g><path d="M172.26-34.71l-.09 57.39 44.82 21.26.2-60.79z"/><path fill="none" stroke="#fff" stroke-miterlimit="20" stroke-width="2.13" d="M172.26-34.71v0l-.09 57.39v0l44.82 21.26v0l.2-60.79v0z"/></g><g><path d="M217.19-53.47l44.98 18.71-.31 57.44"/><path fill="none" stroke="#fff" stroke-miterlimit="20" stroke-width="2.13" d="M217.19-53.47v0l44.98 18.71v0l-.31 57.44v0"/></g><g><path d="M261.86 22.68l.31-57.44-44.98 17.91-.2 60.79z"/><path fill="none" stroke="#fff" stroke-miterlimit="20" stroke-width="2.13" d="M261.86 22.68v0l.31-57.44v0l-44.98 17.91v0l-.2 60.79v0z"/></g><g><path d="M172.17 22.68l.09-57.39 44.93-18.76"/><path fill="none" stroke="#fff" stroke-miterlimit="20" stroke-width="2.13" d="M172.17 22.68v0l.09-57.39v0l44.93-18.76v0"/></g><g><path d="M217.19-53.47l-44.93 18.76 44.93 17.86 44.98-17.91z"/><path fill="none" stroke="#fff" stroke-miterlimit="20" stroke-width="2.13" d="M217.19-53.47v0l-44.93 18.76v0l44.93 17.86v0l44.98-17.91v0z"/></g></g><g><g><path d="M228.16 12.17v25.54"/><path fill="none" stroke="#fff" stroke-miterlimit="20" stroke-width=".53" d="M228.16 12.17v25.54"/></g><g><path d="M231.96 10.38v25.54"/><path fill="none" stroke="#fff" stroke-miterlimit="20" stroke-width=".53" d="M231.96 10.38v25.54"/></g><g><path d="M235.75 8.58v25.54"/><path fill="none" stroke="#fff" stroke-miterlimit="20" stroke-width=".53" d="M235.75 8.58v25.54"/></g><g><path d="M239.55 6.79v25.54"/><path fill="none" stroke="#fff" stroke-miterlimit="20" stroke-width=".53" d="M239.55 6.79v25.54"/></g><g><path d="M243.35 4.99v25.54"/><path fill="none" stroke="#fff" stroke-miterlimit="20" stroke-width=".53" d="M243.35 4.99v25.54"/></g><g><path d="M247.15 3.2v25.54"/><path fill="none" stroke="#fff" stroke-miterlimit="20" stroke-width=".53" d="M247.15 3.2v25.54"/></g><g><path d="M250.95 1.4v25.54"/><path fill="none" stroke="#fff" stroke-miterlimit="20" stroke-width=".53" d="M250.95 1.4v25.54"/></g></g><g><g><path d="M206.07 12.17v25.54"/><path fill="none" stroke="#fff" stroke-miterlimit="20" stroke-width=".53" d="M206.07 12.17v25.54"/></g><g><path d="M202.27 10.38v25.54"/><path fill="none" stroke="#fff" stroke-miterlimit="20" stroke-width=".53" d="M202.27 10.38v25.54"/></g><g><path d="M198.48 8.58v25.54"/><path fill="none" stroke="#fff" stroke-miterlimit="20" stroke-width=".53" d="M198.48 8.58v25.54"/></g><g><path d="M194.68 6.79v25.54"/><path fill="none" stroke="#fff" stroke-miterlimit="20" stroke-width=".53" d="M194.68 6.79v25.54"/></g><g><path d="M190.88 4.99v25.54"/><path fill="none" stroke="#fff" stroke-miterlimit="20" stroke-width=".53" d="M190.88 4.99v25.54"/></g><g><path d="M187.08 3.2v25.54"/><path fill="none" stroke="#fff" stroke-miterlimit="20" stroke-width=".53" d="M187.08 3.2v25.54"/></g><g><path d="M183.29 1.4v25.54"/><path fill="none" stroke="#fff" stroke-miterlimit="20" stroke-width=".53" d="M183.29 1.4v25.54"/></g></g><g><path fill="none" stroke="#fff" stroke-miterlimit="20" stroke-width=".53" d="M205.27-39.55v0l9.41-3.93v0l2.27 6.5v0l7.9-3.3v0l-.22 14.23v0l-6.56-7.61v0l-6.85 2.86v0z"/></g></g><g><g><g><path d="M116.27-4.31l-.09 57.39L161 74.34l.2-60.8-44.93-17.85z"/><path fill="none" stroke="#fff" stroke-miterlimit="20" stroke-width="2.13" d="M116.27-4.31v0l-.09 57.39v0L161 74.34v0l.2-60.8v0L116.27-4.31v0z"/></g><g><path d="M161.2-23.07l44.98 18.71-.3 57.44"/><path fill="none" stroke="#fff" stroke-miterlimit="20" stroke-width="2.13" d="M161.2-23.07v0l44.98 18.71v0l-.3 57.44v0"/></g><g><path d="M205.88 53.08l.3-57.44-44.98 17.9-.2 60.8 44.88-21.26z"/><path fill="none" stroke="#fff" stroke-miterlimit="20" stroke-width="2.13" d="M205.88 53.08v0l.3-57.44v0l-44.98 17.9v0l-.2 60.8v0l44.88-21.26v0z"/></g><g><path d="M116.18 53.08l.09-57.39 44.93-18.76"/><path fill="none" stroke="#fff" stroke-miterlimit="20" stroke-width="2.13" d="M116.18 53.08v0l.09-57.39v0l44.93-18.76v0"/></g><g><path d="M161.2-23.07L116.27-4.31l44.93 17.85 44.98-17.9z"/><path fill="none" stroke="#fff" stroke-miterlimit="20" stroke-width="2.13" d="M161.2-23.07v0L116.27-4.31v0l44.93 17.85v0l44.98-17.9v0z"/></g></g><g><g><path d="M172.17 42.57v25.54"/><path fill="none" stroke="#fff" stroke-miterlimit="20" stroke-width=".53" d="M172.17 42.57v25.54"/></g><g><path d="M175.97 40.78v25.54"/><path fill="none" stroke="#fff" stroke-miterlimit="20" stroke-width=".53" d="M175.97 40.78v25.54"/></g><g><path d="M179.77 38.98v25.54"/><path fill="none" stroke="#fff" stroke-miterlimit="20" stroke-width=".53" d="M179.77 38.98v25.54"/></g><g><path d="M183.56 37.18v25.55"/><path fill="none" stroke="#fff" stroke-miterlimit="20" stroke-width=".53" d="M183.56 37.18v25.55"/></g><g><path d="M187.36 35.39v25.54"/><path fill="none" stroke="#fff" stroke-miterlimit="20" stroke-width=".53" d="M187.36 35.39v25.54"/></g><g><path d="M191.16 33.59v25.54"/><path fill="none" stroke="#fff" stroke-miterlimit="20" stroke-width=".53" d="M191.16 33.59v25.54"/></g><g><path d="M194.96 31.8v25.54"/><path fill="none" stroke="#fff" stroke-miterlimit="20" stroke-width=".53" d="M194.96 31.8v25.54"/></g></g><g><g><path d="M150.08 42.57v25.54"/><path fill="none" stroke="#fff" stroke-miterlimit="20" stroke-width=".53" d="M150.08 42.57v25.54"/></g><g><path d="M146.29 40.78v25.54"/><path fill="none" stroke="#fff" stroke-miterlimit="20" stroke-width=".53" d="M146.29 40.78v25.54"/></g><g><path d="M142.49 38.98v25.54"/><path fill="none" stroke="#fff" stroke-miterlimit="20" stroke-width=".53" d="M142.49 38.98v25.54"/></g><g><path d="M138.69 37.18v25.55"/><path fill="none" stroke="#fff" stroke-miterlimit="20" stroke-width=".53" d="M138.69 37.18v25.55"/></g><g><path d="M134.89 35.39v25.54"/><path fill="none" stroke="#fff" stroke-miterlimit="20" stroke-width=".53" d="M134.89 35.39v25.54"/></g><g><path d="M131.1 33.59v25.54"/><path fill="none" stroke="#fff" stroke-miterlimit="20" stroke-width=".53" d="M131.1 33.59v25.54"/></g><g><path d="M127.3 31.8v25.54"/><path fill="none" stroke="#fff" stroke-miterlimit="20" stroke-width=".53" d="M127.3 31.8v25.54"/></g></g><g><path fill="none" stroke="#fff" stroke-miterlimit="20" stroke-width=".53" d="M149.28-9.15v0l9.41-3.93v0l2.27 6.5v0l7.9-3.31v0l-.22 14.24v0l-6.56-7.61v0L155.23-.4v0z"/></g></g><g><g><g><path d="M60.29 26.09l-.1 57.39 44.82 21.26.2-60.8z"/><path fill="none" stroke="#fff" stroke-miterlimit="20" stroke-width="2.13" d="M60.29 26.09v0l-.1 57.39v0l44.82 21.26v0l.2-60.8v0z"/></g><g><path d="M105.21 7.33l44.98 18.71-.3 57.44"/><path fill="none" stroke="#fff" stroke-miterlimit="20" stroke-width="2.13" d="M105.21 7.33v0l44.98 18.71v0l-.3 57.44v0"/></g><g><path d="M149.89 83.48l.3-57.44-44.98 17.9-.2 60.8z"/><path fill="none" stroke="#fff" stroke-miterlimit="20" stroke-width="2.13" d="M149.89 83.48v0l.3-57.44v0l-44.98 17.9v0l-.2 60.8v0z"/></g><g><path d="M60.19 83.48l.1-57.39 44.92-18.76"/><path fill="none" stroke="#fff" stroke-miterlimit="20" stroke-width="2.13" d="M60.19 83.48v0l.1-57.39v0l44.92-18.76v0"/></g><g><path d="M105.21 7.33L60.29 26.09l44.92 17.85 44.98-17.9z"/><path fill="none" stroke="#fff" stroke-miterlimit="20" stroke-width="2.13" d="M105.21 7.33v0L60.29 26.09v0l44.92 17.85v0l44.98-17.9v0z"/></g></g><g><g><path d="M116.18 72.97v25.54"/><path fill="none" stroke="#fff" stroke-miterlimit="20" stroke-width=".53" d="M116.18 72.97v25.54"/></g><g><path d="M119.98 71.17v25.54"/><path fill="none" stroke="#fff" stroke-miterlimit="20" stroke-width=".53" d="M119.98 71.17v25.54"/></g><g><path d="M123.78 69.38v25.54"/><path fill="none" stroke="#fff" stroke-miterlimit="20" stroke-width=".53" d="M123.78 69.38v25.54"/></g><g><path d="M127.57 67.58v25.54"/><path fill="none" stroke="#fff" stroke-miterlimit="20" stroke-width=".53" d="M127.57 67.58v25.54"/></g><g><path d="M131.37 65.79v25.54"/><path fill="none" stroke="#fff" stroke-miterlimit="20" stroke-width=".53" d="M131.37 65.79v25.54"/></g><g><path d="M135.17 63.99v25.54"/><path fill="none" stroke="#fff" stroke-miterlimit="20" stroke-width=".53" d="M135.17 63.99v25.54"/></g><g><path d="M138.97 62.2v25.54"/><path fill="none" stroke="#fff" stroke-miterlimit="20" stroke-width=".53" d="M138.97 62.2v25.54"/></g></g><g><g><path d="M94.1 72.97v25.54"/><path fill="none" stroke="#fff" stroke-miterlimit="20" stroke-width=".53" d="M94.1 72.97v25.54"/></g><g><path d="M90.3 71.17v25.54"/><path fill="none" stroke="#fff" stroke-miterlimit="20" stroke-width=".53" d="M90.3 71.17v25.54"/></g><g><path d="M86.5 69.38v25.54"/><path fill="none" stroke="#fff" stroke-miterlimit="20" stroke-width=".53" d="M86.5 69.38v25.54"/></g><g><path d="M82.7 67.58v25.54"/><path fill="none" stroke="#fff" stroke-miterlimit="20" stroke-width=".53" d="M82.7 67.58v25.54"/></g><g><path d="M78.9 65.79v25.54"/><path fill="none" stroke="#fff" stroke-miterlimit="20" stroke-width=".53" d="M78.9 65.79v25.54"/></g><g><path d="M75.11 63.99v25.54"/><path fill="none" stroke="#fff" stroke-miterlimit="20" stroke-width=".53" d="M75.11 63.99v25.54"/></g><g><path d="M71.31 62.2v25.54"/><path fill="none" stroke="#fff" stroke-miterlimit="20" stroke-width=".53" d="M71.31 62.2v25.54"/></g></g><g><path fill="none" stroke="#fff" stroke-miterlimit="20" stroke-width=".53" d="M93.29 21.25v0l9.41-3.93v0l2.27 6.5v0l7.9-3.31v0l-.22 14.23v0l-6.56-7.61v0L99.25 30v0z"/></g></g><g><g><g><path d="M4.3 56.49l-.1 57.39 44.82 21.26.2-60.8z"/><path fill="none" stroke="#fff" stroke-miterlimit="20" stroke-width="2.13" d="M4.3 56.49v0l-.1 57.39v0l44.82 21.26v0l.2-60.8v0z"/></g><g><path d="M49.22 37.73l44.98 18.7-.3 57.45"/><path fill="none" stroke="#fff" stroke-miterlimit="20" stroke-width="2.13" d="M49.22 37.73v0l44.98 18.7v0l-.3 57.45v0"/></g><g><path d="M93.9 113.88l.3-57.45-44.98 17.91-.2 60.8 44.88-21.26z"/><path fill="none" stroke="#fff" stroke-miterlimit="20" stroke-width="2.13" d="M93.9 113.88v0l.3-57.45v0L49.22 74.34v0l-.2 60.8v0l44.88-21.26v0z"/></g><g><path d="M4.2 113.88l.1-57.39 44.92-18.76"/><path fill="none" stroke="#fff" stroke-miterlimit="20" stroke-width="2.13" d="M4.2 113.88v0l.1-57.39v0l44.92-18.76v0"/></g><g><path d="M49.22 37.73L4.3 56.49l44.92 17.85L94.2 56.43l-44.98-18.7z"/><path fill="none" stroke="#fff" stroke-miterlimit="20" stroke-width="2.13" d="M49.22 37.73v0L4.3 56.49v0l44.92 17.85v0L94.2 56.43v0l-44.98-18.7v0z"/></g></g><g><g><path d="M60.19 103.37v25.54"/><path fill="none" stroke="#fff" stroke-miterlimit="20" stroke-width=".53" d="M60.19 103.37v25.54"/></g><g><path d="M63.99 101.57v25.54"/><path fill="none" stroke="#fff" stroke-miterlimit="20" stroke-width=".53" d="M63.99 101.57v25.54"/></g><g><path d="M67.79 99.78v25.54"/><path fill="none" stroke="#fff" stroke-miterlimit="20" stroke-width=".53" d="M67.79 99.78v25.54"/></g><g><path d="M71.59 97.98v25.54"/><path fill="none" stroke="#fff" stroke-miterlimit="20" stroke-width=".53" d="M71.59 97.98v25.54"/></g><g><path d="M75.38 96.19v25.54"/><path fill="none" stroke="#fff" stroke-miterlimit="20" stroke-width=".53" d="M75.38 96.19v25.54"/></g><g><path d="M79.18 94.39v25.54"/><path fill="none" stroke="#fff" stroke-miterlimit="20" stroke-width=".53" d="M79.18 94.39v25.54"/></g><g><path d="M82.98 92.59v25.55"/><path fill="none" stroke="#fff" stroke-miterlimit="20" stroke-width=".53" d="M82.98 92.59v25.55"/></g></g><g><g><path d="M38.11 103.37v25.54"/><path fill="none" stroke="#fff" stroke-miterlimit="20" stroke-width=".53" d="M38.11 103.37v25.54"/></g><g><path d="M34.31 101.57v25.54"/><path fill="none" stroke="#fff" stroke-miterlimit="20" stroke-width=".53" d="M34.31 101.57v25.54"/></g><g><path d="M30.51 99.78v25.54"/><path fill="none" stroke="#fff" stroke-miterlimit="20" stroke-width=".53" d="M30.51 99.78v25.54"/></g><g><path d="M26.71 97.98v25.54"/><path fill="none" stroke="#fff" stroke-miterlimit="20" stroke-width=".53" d="M26.71 97.98v25.54"/></g><g><path d="M22.92 96.19v25.54"/><path fill="none" stroke="#fff" stroke-miterlimit="20" stroke-width=".53" d="M22.92 96.19v25.54"/></g><g><path d="M19.12 94.39v25.54"/><path fill="none" stroke="#fff" stroke-miterlimit="20" stroke-width=".53" d="M19.12 94.39v25.54"/></g><g><path d="M15.32 92.59v25.55"/><path fill="none" stroke="#fff" stroke-miterlimit="20" stroke-width=".53" d="M15.32 92.59v25.55"/></g></g><g><path fill="none" stroke="#fff" stroke-miterlimit="20" stroke-width=".53" d="M37.3 51.65v0l9.41-3.94v0l2.27 6.5v0l7.9-3.3v0l-.22 14.23v0l-6.56-7.61v0l-6.84 2.87v0z"/></g></g><g><g><g><path d="M234.14-1.2l-.09 57.39 44.82 21.26.2-60.8L234.14-1.2z"/><path fill="none" stroke="#fff" stroke-miterlimit="20" stroke-width="2.13" d="M234.14-1.2v0l-.09 57.39v0l44.82 21.26v0l.2-60.8v0L234.14-1.2v0z"/></g><g><path d="M279.07-19.96l44.97 18.7-.3 57.45"/><path fill="none" stroke="#fff" stroke-miterlimit="20" stroke-width="2.13" d="M279.07-19.96v0l44.97 18.7v0l-.3 57.45v0"/></g><g><path d="M323.74 56.19l.3-57.45-44.97 17.91-.2 60.8 44.87-21.26z"/><path fill="none" stroke="#fff" stroke-miterlimit="20" stroke-width="2.13" d="M323.74 56.19v0l.3-57.45v0l-44.97 17.91v0l-.2 60.8v0l44.87-21.26v0z"/></g><g><path d="M234.05 56.19l.09-57.39 44.93-18.76"/><path fill="none" stroke="#fff" stroke-miterlimit="20" stroke-width="2.13" d="M234.05 56.19v0l.09-57.39v0l44.93-18.76v0"/></g><g><path d="M279.07-19.96L234.14-1.2l44.93 17.85 44.97-17.91z"/><path fill="none" stroke="#fff" stroke-miterlimit="20" stroke-width="2.13" d="M279.07-19.96v0L234.14-1.2v0l44.93 17.85v0l44.97-17.91v0z"/></g></g><g><g><path d="M290.04 45.68v25.54"/><path fill="none" stroke="#fff" stroke-miterlimit="20" stroke-width=".53" d="M290.04 45.68v25.54"/></g><g><path d="M293.83 43.88v25.54"/><path fill="none" stroke="#fff" stroke-miterlimit="20" stroke-width=".53" d="M293.83 43.88v25.54"/></g><g><path d="M297.63 42.09v25.54"/><path fill="none" stroke="#fff" stroke-miterlimit="20" stroke-width=".53" d="M297.63 42.09v25.54"/></g><g><path d="M301.43 40.29v25.54"/><path fill="none" stroke="#fff" stroke-miterlimit="20" stroke-width=".53" d="M301.43 40.29v25.54"/></g><g><path d="M305.23 38.5v25.54"/><path fill="none" stroke="#fff" stroke-miterlimit="20" stroke-width=".53" d="M305.23 38.5v25.54"/></g><g><path d="M309.02 36.7v25.54"/><path fill="none" stroke="#fff" stroke-miterlimit="20" stroke-width=".53" d="M309.02 36.7v25.54"/></g><g><path d="M312.82 34.9v25.55"/><path fill="none" stroke="#fff" stroke-miterlimit="20" stroke-width=".53" d="M312.82 34.9v25.55"/></g></g><g><g><path d="M267.95 45.68v25.54"/><path fill="none" stroke="#fff" stroke-miterlimit="20" stroke-width=".53" d="M267.95 45.68v25.54"/></g><g><path d="M264.15 43.88v25.54"/><path fill="none" stroke="#fff" stroke-miterlimit="20" stroke-width=".53" d="M264.15 43.88v25.54"/></g><g><path d="M260.35 42.09v25.54"/><path fill="none" stroke="#fff" stroke-miterlimit="20" stroke-width=".53" d="M260.35 42.09v25.54"/></g><g><path d="M256.56 40.29v25.54"/><path fill="none" stroke="#fff" stroke-miterlimit="20" stroke-width=".53" d="M256.56 40.29v25.54"/></g><g><path d="M252.76 38.5v25.54"/><path fill="none" stroke="#fff" stroke-miterlimit="20" stroke-width=".53" d="M252.76 38.5v25.54"/></g><g><path d="M248.96 36.7v25.54"/><path fill="none" stroke="#fff" stroke-miterlimit="20" stroke-width=".53" d="M248.96 36.7v25.54"/></g><g><path d="M245.16 34.9v25.55"/><path fill="none" stroke="#fff" stroke-miterlimit="20" stroke-width=".53" d="M245.16 34.9v25.55"/></g></g><g><path fill="none" stroke="#fff" stroke-miterlimit="20" stroke-width=".53" d="M267.15-6.04v0l9.4-3.94v0l2.28 6.5v0l7.9-3.3v0l-.23 14.23v0l-6.55-7.61v0l-6.85 2.87v0z"/></g></g><g><g><g><path d="M178.15 29.2l-.09 57.38 44.82 21.27.2-60.8z"/><path fill="none" stroke="#fff" stroke-miterlimit="20" stroke-width="2.13" d="M178.15 29.2v0l-.09 57.38v0l44.82 21.27v0l.2-60.8v0z"/></g><g><path d="M223.08 10.44l44.97 18.7-.3 57.44"/><path fill="none" stroke="#fff" stroke-miterlimit="20" stroke-width="2.13" d="M223.08 10.44v0l44.97 18.7v0l-.3 57.44v0"/></g><g><path d="M267.75 86.58l.3-57.44-44.97 17.91-.2 60.8z"/><path fill="none" stroke="#fff" stroke-miterlimit="20" stroke-width="2.13" d="M267.75 86.58v0l.3-57.44v0l-44.97 17.91v0l-.2 60.8v0z"/></g><g><path d="M178.06 86.58l.09-57.38 44.93-18.76"/><path fill="none" stroke="#fff" stroke-miterlimit="20" stroke-width="2.13" d="M178.06 86.58v0l.09-57.38v0l44.93-18.76v0"/></g><g><path d="M223.08 10.44L178.15 29.2l44.93 17.85 44.97-17.91z"/><path fill="none" stroke="#fff" stroke-miterlimit="20" stroke-width="2.13" d="M223.08 10.44v0L178.15 29.2v0l44.93 17.85v0l44.97-17.91v0z"/></g></g><g><g><path d="M234.05 76.08v25.54"/><path fill="none" stroke="#fff" stroke-miterlimit="20" stroke-width=".53" d="M234.05 76.08v25.54"/></g><g><path d="M237.84 74.28v25.54"/><path fill="none" stroke="#fff" stroke-miterlimit="20" stroke-width=".53" d="M237.84 74.28v25.54"/></g><g><path d="M241.64 72.49v25.54"/><path fill="none" stroke="#fff" stroke-miterlimit="20" stroke-width=".53" d="M241.64 72.49v25.54"/></g><g><path d="M245.44 70.69v25.54"/><path fill="none" stroke="#fff" stroke-miterlimit="20" stroke-width=".53" d="M245.44 70.69v25.54"/></g><g><path d="M249.24 68.89v25.55"/><path fill="none" stroke="#fff" stroke-miterlimit="20" stroke-width=".53" d="M249.24 68.89v25.55"/></g><g><path d="M253.04 67.1v25.54"/><path fill="none" stroke="#fff" stroke-miterlimit="20" stroke-width=".53" d="M253.04 67.1v25.54"/></g><g><path d="M256.83 65.3v25.54"/><path fill="none" stroke="#fff" stroke-miterlimit="20" stroke-width=".53" d="M256.83 65.3v25.54"/></g></g><g><g><path d="M211.96 76.08v25.54"/><path fill="none" stroke="#fff" stroke-miterlimit="20" stroke-width=".53" d="M211.96 76.08v25.54"/></g><g><path d="M208.16 74.28v25.54"/><path fill="none" stroke="#fff" stroke-miterlimit="20" stroke-width=".53" d="M208.16 74.28v25.54"/></g><g><path d="M204.37 72.49v25.54"/><path fill="none" stroke="#fff" stroke-miterlimit="20" stroke-width=".53" d="M204.37 72.49v25.54"/></g><g><path d="M200.57 70.69v25.54"/><path fill="none" stroke="#fff" stroke-miterlimit="20" stroke-width=".53" d="M200.57 70.69v25.54"/></g><g><path d="M196.77 68.89v25.55"/><path fill="none" stroke="#fff" stroke-miterlimit="20" stroke-width=".53" d="M196.77 68.89v25.55"/></g><g><path d="M192.97 67.1v25.54"/><path fill="none" stroke="#fff" stroke-miterlimit="20" stroke-width=".53" d="M192.97 67.1v25.54"/></g><g><path d="M189.17 65.3v25.54"/><path fill="none" stroke="#fff" stroke-miterlimit="20" stroke-width=".53" d="M189.17 65.3v25.54"/></g></g><g><path fill="none" stroke="#fff" stroke-miterlimit="20" stroke-width=".53" d="M211.16 24.36v0l9.4-3.94v0l2.28 6.5v0l7.9-3.3v0l-.23 14.23v0l-6.55-7.61v0l-6.85 2.86v0z"/></g></g><g><g><g><path d="M122.16 59.59l-.09 57.39 44.82 21.26.2-60.79z"/><path fill="none" stroke="#fff" stroke-miterlimit="20" stroke-width="2.13" d="M122.16 59.59v0l-.09 57.39v0l44.82 21.26v0l.2-60.79v0z"/></g><g><path d="M167.09 40.84l44.98 18.7-.31 57.44"/><path fill="none" stroke="#fff" stroke-miterlimit="20" stroke-width="2.13" d="M167.09 40.84v0l44.98 18.7v0l-.31 57.44v0"/></g><g><path d="M211.76 116.98l.31-57.44-44.98 17.91-.2 60.79 44.87-21.26z"/><path fill="none" stroke="#fff" stroke-miterlimit="20" stroke-width="2.13" d="M211.76 116.98v0l.31-57.44v0l-44.98 17.91v0l-.2 60.79v0l44.87-21.26v0z"/></g><g><path d="M122.07 116.98l.09-57.39 44.93-18.75"/><path fill="none" stroke="#fff" stroke-miterlimit="20" stroke-width="2.13" d="M122.07 116.98v0l.09-57.39v0l44.93-18.75v0"/></g><g><path d="M167.09 40.84l-44.93 18.75 44.93 17.86 44.98-17.91-44.98-18.7z"/><path fill="none" stroke="#fff" stroke-miterlimit="20" stroke-width="2.13" d="M167.09 40.84v0l-44.93 18.75v0l44.93 17.86v0l44.98-17.91v0l-44.98-18.7v0z"/></g></g><g><g><path d="M178.06 106.47v25.55"/><path fill="none" stroke="#fff" stroke-miterlimit="20" stroke-width=".53" d="M178.06 106.47v25.55"/></g><g><path d="M181.86 104.68v25.54"/><path fill="none" stroke="#fff" stroke-miterlimit="20" stroke-width=".53" d="M181.86 104.68v25.54"/></g><g><path d="M185.65 102.88v25.54"/><path fill="none" stroke="#fff" stroke-miterlimit="20" stroke-width=".53" d="M185.65 102.88v25.54"/></g><g><path d="M189.45 101.09v25.54"/><path fill="none" stroke="#fff" stroke-miterlimit="20" stroke-width=".53" d="M189.45 101.09v25.54"/></g><g><path d="M193.25 99.29v25.54"/><path fill="none" stroke="#fff" stroke-miterlimit="20" stroke-width=".53" d="M193.25 99.29v25.54"/></g><g><path d="M197.05 97.5v25.54"/><path fill="none" stroke="#fff" stroke-miterlimit="20" stroke-width=".53" d="M197.05 97.5v25.54"/></g><g><path d="M200.84 95.7v25.54"/><path fill="none" stroke="#fff" stroke-miterlimit="20" stroke-width=".53" d="M200.84 95.7v25.54"/></g></g><g><g><path d="M155.97 106.47v25.55"/><path fill="none" stroke="#fff" stroke-miterlimit="20" stroke-width=".53" d="M155.97 106.47v25.55"/></g><g><path d="M152.17 104.68v25.54"/><path fill="none" stroke="#fff" stroke-miterlimit="20" stroke-width=".53" d="M152.17 104.68v25.54"/></g><g><path d="M148.38 102.88v25.54"/><path fill="none" stroke="#fff" stroke-miterlimit="20" stroke-width=".53" d="M148.38 102.88v25.54"/></g><g><path d="M144.58 101.09v25.54"/><path fill="none" stroke="#fff" stroke-miterlimit="20" stroke-width=".53" d="M144.58 101.09v25.54"/></g><g><path d="M140.78 99.29v25.54"/><path fill="none" stroke="#fff" stroke-miterlimit="20" stroke-width=".53" d="M140.78 99.29v25.54"/></g><g><path d="M136.98 97.5v25.54"/><path fill="none" stroke="#fff" stroke-miterlimit="20" stroke-width=".53" d="M136.98 97.5v25.54"/></g><g><path d="M133.19 95.7v25.54"/><path fill="none" stroke="#fff" stroke-miterlimit="20" stroke-width=".53" d="M133.19 95.7v25.54"/></g></g><g><path fill="none" stroke="#fff" stroke-miterlimit="20" stroke-width=".53" d="M155.17 54.76v0l9.41-3.94v0l2.27 6.5v0l7.9-3.3v0l-.23 14.23v0l-6.55-7.61v0l-6.85 2.86v0z"/></g></g><g><g><g><path d="M66.17 89.99l-.09 57.39 44.82 21.26.2-60.79-44.93-17.86z"/><path fill="none" stroke="#fff" stroke-miterlimit="20" stroke-width="2.13" d="M66.17 89.99v0l-.09 57.39v0l44.82 21.26v0l.2-60.79v0L66.17 89.99v0z"/></g><g><path d="M111.1 71.23l44.98 18.71-.31 57.44"/><path fill="none" stroke="#fff" stroke-miterlimit="20" stroke-width="2.13" d="M111.1 71.23v0l44.98 18.71v0l-.31 57.44v0"/></g><g><path d="M155.77 147.38l.31-57.44-44.98 17.91-.2 60.79z"/><path fill="none" stroke="#fff" stroke-miterlimit="20" stroke-width="2.13" d="M155.77 147.38v0l.31-57.44v0l-44.98 17.91v0l-.2 60.79v0z"/></g><g><path d="M66.08 147.38l.09-57.39 44.93-18.76"/><path fill="none" stroke="#fff" stroke-miterlimit="20" stroke-width="2.13" d="M66.08 147.38v0l.09-57.39v0l44.93-18.76v0"/></g><g><path d="M111.1 71.23L66.17 89.99l44.93 17.86 44.98-17.91z"/><path fill="none" stroke="#fff" stroke-miterlimit="20" stroke-width="2.13" d="M111.1 71.23v0L66.17 89.99v0l44.93 17.86v0l44.98-17.91v0z"/></g></g><g><g><path d="M122.07 136.87v25.54"/><path fill="none" stroke="#fff" stroke-miterlimit="20" stroke-width=".53" d="M122.07 136.87v25.54"/></g><g><path d="M125.87 135.08v25.54"/><path fill="none" stroke="#fff" stroke-miterlimit="20" stroke-width=".53" d="M125.87 135.08v25.54"/></g><g><path d="M129.66 133.28v25.54"/><path fill="none" stroke="#fff" stroke-miterlimit="20" stroke-width=".53" d="M129.66 133.28v25.54"/></g><g><path d="M133.46 131.49v25.54"/><path fill="none" stroke="#fff" stroke-miterlimit="20" stroke-width=".53" d="M133.46 131.49v25.54"/></g><g><path d="M137.26 129.69v25.54"/><path fill="none" stroke="#fff" stroke-miterlimit="20" stroke-width=".53" d="M137.26 129.69v25.54"/></g><g><path d="M141.06 127.9v25.54"/><path fill="none" stroke="#fff" stroke-miterlimit="20" stroke-width=".53" d="M141.06 127.9v25.54"/></g><g><path d="M144.86 126.1v25.54"/><path fill="none" stroke="#fff" stroke-miterlimit="20" stroke-width=".53" d="M144.86 126.1v25.54"/></g></g><g><g><path d="M99.98 136.87v25.54"/><path fill="none" stroke="#fff" stroke-miterlimit="20" stroke-width=".53" d="M99.98 136.87v25.54"/></g><g><path d="M96.19 135.08v25.54"/><path fill="none" stroke="#fff" stroke-miterlimit="20" stroke-width=".53" d="M96.19 135.08v25.54"/></g><g><path d="M92.39 133.28v25.54"/><path fill="none" stroke="#fff" stroke-miterlimit="20" stroke-width=".53" d="M92.39 133.28v25.54"/></g><g><path d="M88.59 131.49v25.54"/><path fill="none" stroke="#fff" stroke-miterlimit="20" stroke-width=".53" d="M88.59 131.49v25.54"/></g><g><path d="M84.79 129.69v25.54"/><path fill="none" stroke="#fff" stroke-miterlimit="20" stroke-width=".53" d="M84.79 129.69v25.54"/></g><g><path d="M80.99 127.9v25.54"/><path fill="none" stroke="#fff" stroke-miterlimit="20" stroke-width=".53" d="M80.99 127.9v25.54"/></g><g><path d="M77.2 126.1v25.54"/><path fill="none" stroke="#fff" stroke-miterlimit="20" stroke-width=".53" d="M77.2 126.1v25.54"/></g></g><g><path fill="none" stroke="#fff" stroke-miterlimit="20" stroke-width=".53" d="M99.18 85.15v0l9.41-3.93v0l2.27 6.5v0l7.9-3.3v0l-.22 14.23v0l-6.56-7.61v0l-6.85 2.86v0z"/></g></g><g><g><g><path d="M296.02 32.3l-.1 57.39 44.82 21.26.2-60.79z"/><path fill="none" stroke="#fff" stroke-miterlimit="20" stroke-width="2.13" d="M296.02 32.3v0l-.1 57.39v0l44.82 21.26v0l.2-60.79v0z"/></g><g><path d="M340.94 13.54l44.98 18.71-.3 57.44"/><path fill="none" stroke="#fff" stroke-miterlimit="20" stroke-width="2.13" d="M340.94 13.54v0l44.98 18.71v0l-.3 57.44v0"/></g><g><path d="M385.62 89.69l.3-57.44-44.98 17.91-.2 60.79z"/><path fill="none" stroke="#fff" stroke-miterlimit="20" stroke-width="2.13" d="M385.62 89.69v0l.3-57.44v0l-44.98 17.91v0l-.2 60.79v0z"/></g><g><path d="M295.92 89.69l.1-57.39 44.92-18.76"/><path fill="none" stroke="#fff" stroke-miterlimit="20" stroke-width="2.13" d="M295.92 89.69v0l.1-57.39v0l44.92-18.76v0"/></g><g><path d="M340.94 13.54L296.02 32.3l44.92 17.86 44.98-17.91z"/><path fill="none" stroke="#fff" stroke-miterlimit="20" stroke-width="2.13" d="M340.94 13.54v0L296.02 32.3v0l44.92 17.86v0l44.98-17.91v0z"/></g></g><g><g><path d="M351.91 79.18v25.54"/><path fill="none" stroke="#fff" stroke-miterlimit="20" stroke-width=".53" d="M351.91 79.18v25.54"/></g><g><path d="M355.71 77.39v25.54"/><path fill="none" stroke="#fff" stroke-miterlimit="20" stroke-width=".53" d="M355.71 77.39v25.54"/></g><g><path d="M359.51 75.59v25.54"/><path fill="none" stroke="#fff" stroke-miterlimit="20" stroke-width=".53" d="M359.51 75.59v25.54"/></g><g><path d="M363.31 73.8v25.54"/><path fill="none" stroke="#fff" stroke-miterlimit="20" stroke-width=".53" d="M363.31 73.8v25.54"/></g><g><path d="M367.1 72v25.54"/><path fill="none" stroke="#fff" stroke-miterlimit="20" stroke-width=".53" d="M367.1 72v25.54"/></g><g><path d="M370.9 70.21v25.54"/><path fill="none" stroke="#fff" stroke-miterlimit="20" stroke-width=".53" d="M370.9 70.21v25.54"/></g><g><path d="M374.7 68.41v25.54"/><path fill="none" stroke="#fff" stroke-miterlimit="20" stroke-width=".53" d="M374.7 68.41v25.54"/></g></g><g><g><path d="M329.83 79.18v25.54"/><path fill="none" stroke="#fff" stroke-miterlimit="20" stroke-width=".53" d="M329.83 79.18v25.54"/></g><g><path d="M326.03 77.39v25.54"/><path fill="none" stroke="#fff" stroke-miterlimit="20" stroke-width=".53" d="M326.03 77.39v25.54"/></g><g><path d="M322.23 75.59v25.54"/><path fill="none" stroke="#fff" stroke-miterlimit="20" stroke-width=".53" d="M322.23 75.59v25.54"/></g><g><path d="M318.43 73.8v25.54"/><path fill="none" stroke="#fff" stroke-miterlimit="20" stroke-width=".53" d="M318.43 73.8v25.54"/></g><g><path d="M314.63 72v25.54"/><path fill="none" stroke="#fff" stroke-miterlimit="20" stroke-width=".53" d="M314.63 72v25.54"/></g><g><path d="M310.84 70.21v25.54"/><path fill="none" stroke="#fff" stroke-miterlimit="20" stroke-width=".53" d="M310.84 70.21v25.54"/></g><g><path d="M307.04 68.41v25.54"/><path fill="none" stroke="#fff" stroke-miterlimit="20" stroke-width=".53" d="M307.04 68.41v25.54"/></g></g><g><path fill="none" stroke="#fff" stroke-miterlimit="20" stroke-width=".53" d="M329.02 27.46v0l9.41-3.93v0l2.27 6.5v0l7.9-3.3v0l-.22 14.23v0l-6.56-7.61v0l-6.84 2.86v0z"/></g></g><g><g><g><path d="M240.03 62.7l-.1 57.39 44.82 21.26.2-60.79z"/><path fill="none" stroke="#fff" stroke-miterlimit="20" stroke-width="2.13" d="M240.03 62.7v0l-.1 57.39v0l44.82 21.26v0l.2-60.79v0z"/></g><g><path d="M284.95 43.94l44.98 18.71-.3 57.44"/><path fill="none" stroke="#fff" stroke-miterlimit="20" stroke-width="2.13" d="M284.95 43.94v0l44.98 18.71v0l-.3 57.44v0"/></g><g><path d="M329.63 120.09l.3-57.44-44.98 17.91-.2 60.79 44.88-21.26z"/><path fill="none" stroke="#fff" stroke-miterlimit="20" stroke-width="2.13" d="M329.63 120.09v0l.3-57.44v0l-44.98 17.91v0l-.2 60.79v0l44.88-21.26v0z"/></g><g><path d="M239.93 120.09l.1-57.39 44.92-18.76"/><path fill="none" stroke="#fff" stroke-miterlimit="20" stroke-width="2.13" d="M239.93 120.09v0l.1-57.39v0l44.92-18.76v0"/></g><g><path d="M284.95 43.94L240.03 62.7l44.92 17.86 44.98-17.91-44.98-18.71z"/><path fill="none" stroke="#fff" stroke-miterlimit="20" stroke-width="2.13" d="M284.95 43.94v0L240.03 62.7v0l44.92 17.86v0l44.98-17.91v0l-44.98-18.71v0z"/></g></g><g><g><path d="M295.92 109.58v25.54"/><path fill="none" stroke="#fff" stroke-miterlimit="20" stroke-width=".53" d="M295.92 109.58v25.54"/></g><g><path d="M299.72 107.79v25.54"/><path fill="none" stroke="#fff" stroke-miterlimit="20" stroke-width=".53" d="M299.72 107.79v25.54"/></g><g><path d="M303.52 105.99v25.54"/><path fill="none" stroke="#fff" stroke-miterlimit="20" stroke-width=".53" d="M303.52 105.99v25.54"/></g><g><path d="M307.32 104.19v25.55"/><path fill="none" stroke="#fff" stroke-miterlimit="20" stroke-width=".53" d="M307.32 104.19v25.55"/></g><g><path d="M311.11 102.4v25.54"/><path fill="none" stroke="#fff" stroke-miterlimit="20" stroke-width=".53" d="M311.11 102.4v25.54"/></g><g><path d="M314.91 100.6v25.55"/><path fill="none" stroke="#fff" stroke-miterlimit="20" stroke-width=".53" d="M314.91 100.6v25.55"/></g><g><path d="M318.71 98.81v25.54"/><path fill="none" stroke="#fff" stroke-miterlimit="20" stroke-width=".53" d="M318.71 98.81v25.54"/></g></g><g><g><path d="M273.84 109.58v25.54"/><path fill="none" stroke="#fff" stroke-miterlimit="20" stroke-width=".53" d="M273.84 109.58v25.54"/></g><g><path d="M270.04 107.79v25.54"/><path fill="none" stroke="#fff" stroke-miterlimit="20" stroke-width=".53" d="M270.04 107.79v25.54"/></g><g><path d="M266.24 105.99v25.54"/><path fill="none" stroke="#fff" stroke-miterlimit="20" stroke-width=".53" d="M266.24 105.99v25.54"/></g><g><path d="M262.44 104.19v25.55"/><path fill="none" stroke="#fff" stroke-miterlimit="20" stroke-width=".53" d="M262.44 104.19v25.55"/></g><g><path d="M258.65 102.4v25.54"/><path fill="none" stroke="#fff" stroke-miterlimit="20" stroke-width=".53" d="M258.65 102.4v25.54"/></g><g><path d="M254.85 100.6v25.55"/><path fill="none" stroke="#fff" stroke-miterlimit="20" stroke-width=".53" d="M254.85 100.6v25.55"/></g><g><path d="M251.05 98.81v25.54"/><path fill="none" stroke="#fff" stroke-miterlimit="20" stroke-width=".53" d="M251.05 98.81v25.54"/></g></g><g><path fill="none" stroke="#fff" stroke-miterlimit="20" stroke-width=".53" d="M273.03 57.86v0l9.41-3.93v0l2.27 6.5v0l7.9-3.31v0l-.22 14.24v0l-6.56-7.61v0l-6.84 2.86v0z"/></g></g><g><g><g><path d="M184.04 93.1l-.09 57.39 44.82 21.26.19-60.8z"/><path fill="none" stroke="#fff" stroke-miterlimit="20" stroke-width="2.13" d="M184.04 93.1v0l-.09 57.39v0l44.82 21.26v0l.19-60.8v0z"/></g><g><path d="M228.96 74.34l44.98 18.71-.3 57.44"/><path fill="none" stroke="#fff" stroke-miterlimit="20" stroke-width="2.13" d="M228.96 74.34v0l44.98 18.71v0l-.3 57.44v0"/></g><g><path d="M273.64 150.49l.3-57.44-44.98 17.9-.19 60.8z"/><path fill="none" stroke="#fff" stroke-miterlimit="20" stroke-width="2.13" d="M273.64 150.49v0l.3-57.44v0l-44.98 17.9v0l-.19 60.8v0z"/></g><g><path d="M183.95 150.49l.09-57.39 44.92-18.76"/><path fill="none" stroke="#fff" stroke-miterlimit="20" stroke-width="2.13" d="M183.95 150.49v0l.09-57.39v0l44.92-18.76v0"/></g><g><path d="M228.96 74.34L184.04 93.1l44.92 17.85 44.98-17.9z"/><path fill="none" stroke="#fff" stroke-miterlimit="20" stroke-width="2.13" d="M228.96 74.34v0L184.04 93.1v0l44.92 17.85v0l44.98-17.9v0z"/></g></g><g><g><path d="M239.93 139.98v25.54"/><path fill="none" stroke="#fff" stroke-miterlimit="20" stroke-width=".53" d="M239.93 139.98v25.54"/></g><g><path d="M243.73 138.18v25.55"/><path fill="none" stroke="#fff" stroke-miterlimit="20" stroke-width=".53" d="M243.73 138.18v25.55"/></g><g><path d="M247.53 136.39v25.54"/><path fill="none" stroke="#fff" stroke-miterlimit="20" stroke-width=".53" d="M247.53 136.39v25.54"/></g><g><path d="M251.33 134.59v25.54"/><path fill="none" stroke="#fff" stroke-miterlimit="20" stroke-width=".53" d="M251.33 134.59v25.54"/></g><g><path d="M255.13 132.8v25.54"/><path fill="none" stroke="#fff" stroke-miterlimit="20" stroke-width=".53" d="M255.13 132.8v25.54"/></g><g><path d="M258.92 131v25.54"/><path fill="none" stroke="#fff" stroke-miterlimit="20" stroke-width=".53" d="M258.92 131v25.54"/></g><g><path d="M262.72 129.21v25.54"/><path fill="none" stroke="#fff" stroke-miterlimit="20" stroke-width=".53" d="M262.72 129.21v25.54"/></g></g><g><g><path d="M217.85 139.98v25.54"/><path fill="none" stroke="#fff" stroke-miterlimit="20" stroke-width=".53" d="M217.85 139.98v25.54"/></g><g><path d="M214.05 138.18v25.55"/><path fill="none" stroke="#fff" stroke-miterlimit="20" stroke-width=".53" d="M214.05 138.18v25.55"/></g><g><path d="M210.25 136.39v25.54"/><path fill="none" stroke="#fff" stroke-miterlimit="20" stroke-width=".53" d="M210.25 136.39v25.54"/></g><g><path d="M206.46 134.59v25.54"/><path fill="none" stroke="#fff" stroke-miterlimit="20" stroke-width=".53" d="M206.46 134.59v25.54"/></g><g><path d="M202.66 132.8v25.54"/><path fill="none" stroke="#fff" stroke-miterlimit="20" stroke-width=".53" d="M202.66 132.8v25.54"/></g><g><path d="M198.86 131v25.54"/><path fill="none" stroke="#fff" stroke-miterlimit="20" stroke-width=".53" d="M198.86 131v25.54"/></g><g><path d="M195.06 129.21v25.54"/><path fill="none" stroke="#fff" stroke-miterlimit="20" stroke-width=".53" d="M195.06 129.21v25.54"/></g></g><g><path fill="none" stroke="#fff" stroke-miterlimit="20" stroke-width=".53" d="M217.04 88.26v0l9.41-3.93v0l2.28 6.5v0l7.89-3.31v0l-.22 14.23v0l-6.55-7.61v0L223 97.01v0z"/></g></g><g><g><g><path d="M128.05 123.5l-.09 57.39 44.82 21.26.2-60.8z"/><path fill="none" stroke="#fff" stroke-miterlimit="20" stroke-width="2.13" d="M128.05 123.5v0l-.09 57.39v0l44.82 21.26v0l.2-60.8v0z"/></g><g><path d="M172.98 104.74l44.97 18.7-.3 57.45"/><path fill="none" stroke="#fff" stroke-miterlimit="20" stroke-width="2.13" d="M172.98 104.74v0l44.97 18.7v0l-.3 57.45v0"/></g><g><path d="M217.65 180.89l.3-57.45-44.97 17.91-.2 60.8 44.87-21.26z"/><path fill="none" stroke="#fff" stroke-miterlimit="20" stroke-width="2.13" d="M217.65 180.89v0l.3-57.45v0l-44.97 17.91v0l-.2 60.8v0l44.87-21.26v0z"/></g><g><path d="M127.96 180.89l.09-57.39 44.93-18.76"/><path fill="none" stroke="#fff" stroke-miterlimit="20" stroke-width="2.13" d="M127.96 180.89v0l.09-57.39v0l44.93-18.76v0"/></g><g><path d="M172.98 104.74l-44.93 18.76 44.93 17.85 44.97-17.91z"/><path fill="none" stroke="#fff" stroke-miterlimit="20" stroke-width="2.13" d="M172.98 104.74v0l-44.93 18.76v0l44.93 17.85v0l44.97-17.91v0z"/></g></g><g><g><path d="M183.95 170.38v25.54"/><path fill="none" stroke="#fff" stroke-miterlimit="20" stroke-width=".53" d="M183.95 170.38v25.54"/></g><g><path d="M187.74 168.58v25.54"/><path fill="none" stroke="#fff" stroke-miterlimit="20" stroke-width=".53" d="M187.74 168.58v25.54"/></g><g><path d="M191.54 166.79v25.54"/><path fill="none" stroke="#fff" stroke-miterlimit="20" stroke-width=".53" d="M191.54 166.79v25.54"/></g><g><path d="M195.34 164.99v25.54"/><path fill="none" stroke="#fff" stroke-miterlimit="20" stroke-width=".53" d="M195.34 164.99v25.54"/></g><g><path d="M199.14 163.2v25.54"/><path fill="none" stroke="#fff" stroke-miterlimit="20" stroke-width=".53" d="M199.14 163.2v25.54"/></g><g><path d="M202.93 161.4v25.54"/><path fill="none" stroke="#fff" stroke-miterlimit="20" stroke-width=".53" d="M202.93 161.4v25.54"/></g><g><path d="M206.73 159.61v25.54"/><path fill="none" stroke="#fff" stroke-miterlimit="20" stroke-width=".53" d="M206.73 159.61v25.54"/></g></g><g><g><path d="M161.86 170.38v25.54"/><path fill="none" stroke="#fff" stroke-miterlimit="20" stroke-width=".53" d="M161.86 170.38v25.54"/></g><g><path d="M158.06 168.58v25.54"/><path fill="none" stroke="#fff" stroke-miterlimit="20" stroke-width=".53" d="M158.06 168.58v25.54"/></g><g><path d="M154.26 166.79v25.54"/><path fill="none" stroke="#fff" stroke-miterlimit="20" stroke-width=".53" d="M154.26 166.79v25.54"/></g><g><path d="M150.47 164.99v25.54"/><path fill="none" stroke="#fff" stroke-miterlimit="20" stroke-width=".53" d="M150.47 164.99v25.54"/></g><g><path d="M146.67 163.2v25.54"/><path fill="none" stroke="#fff" stroke-miterlimit="20" stroke-width=".53" d="M146.67 163.2v25.54"/></g><g><path d="M142.87 161.4v25.54"/><path fill="none" stroke="#fff" stroke-miterlimit="20" stroke-width=".53" d="M142.87 161.4v25.54"/></g><g><path d="M139.07 159.61v25.54"/><path fill="none" stroke="#fff" stroke-miterlimit="20" stroke-width=".53" d="M139.07 159.61v25.54"/></g></g><g><path fill="none" stroke="#fff" stroke-miterlimit="20" stroke-width=".53" d="M161.06 118.66v0l9.4-3.93v0l2.28 6.49v0l7.9-3.3v0l-.23 14.23v0l-6.55-7.61v0l-6.85 2.87v0z"/></g></g><g><g><g><path d="M357.89 65.81l-.09 57.39 44.82 21.26.2-60.8z"/><path fill="none" stroke="#fff" stroke-miterlimit="20" stroke-width="2.13" d="M357.89 65.81v0l-.09 57.39v0l44.82 21.26v0l.2-60.8v0z"/></g><g><path d="M402.82 47.05l44.98 18.7-.31 57.45"/><path fill="none" stroke="#fff" stroke-miterlimit="20" stroke-width="2.13" d="M402.82 47.05v0l44.98 18.7v0l-.31 57.45v0"/></g><g><path d="M447.49 123.2l.31-57.45-44.98 17.91-.2 60.8 44.87-21.26z"/><path fill="none" stroke="#fff" stroke-miterlimit="20" stroke-width="2.13" d="M447.49 123.2v0l.31-57.45v0l-44.98 17.91v0l-.2 60.8v0l44.87-21.26v0z"/></g><g><path d="M357.8 123.2l.09-57.39 44.93-18.76"/><path fill="none" stroke="#fff" stroke-miterlimit="20" stroke-width="2.13" d="M357.8 123.2v0l.09-57.39v0l44.93-18.76v0"/></g><g><path d="M402.82 47.05l-44.93 18.76 44.93 17.85 44.98-17.91z"/><path fill="none" stroke="#fff" stroke-miterlimit="20" stroke-width="2.13" d="M402.82 47.05v0l-44.93 18.76v0l44.93 17.85v0l44.98-17.91v0z"/></g></g><g><g><path d="M413.79 112.69v25.54"/><path fill="none" stroke="#fff" stroke-miterlimit="20" stroke-width=".53" d="M413.79 112.69v25.54"/></g><g><path d="M417.59 110.89v25.54"/><path fill="none" stroke="#fff" stroke-miterlimit="20" stroke-width=".53" d="M417.59 110.89v25.54"/></g><g><path d="M421.38 109.1v25.54"/><path fill="none" stroke="#fff" stroke-miterlimit="20" stroke-width=".53" d="M421.38 109.1v25.54"/></g><g><path d="M425.18 107.3v25.54"/><path fill="none" stroke="#fff" stroke-miterlimit="20" stroke-width=".53" d="M425.18 107.3v25.54"/></g><g><path d="M428.98 105.51v25.54"/><path fill="none" stroke="#fff" stroke-miterlimit="20" stroke-width=".53" d="M428.98 105.51v25.54"/></g><g><path d="M432.78 103.71v25.54"/><path fill="none" stroke="#fff" stroke-miterlimit="20" stroke-width=".53" d="M432.78 103.71v25.54"/></g><g><path d="M436.57 101.92v25.54"/><path fill="none" stroke="#fff" stroke-miterlimit="20" stroke-width=".53" d="M436.57 101.92v25.54"/></g></g><g><g><path d="M391.7 112.69v25.54"/><path fill="none" stroke="#fff" stroke-miterlimit="20" stroke-width=".53" d="M391.7 112.69v25.54"/></g><g><path d="M387.9 110.89v25.54"/><path fill="none" stroke="#fff" stroke-miterlimit="20" stroke-width=".53" d="M387.9 110.89v25.54"/></g><g><path d="M384.11 109.1v25.54"/><path fill="none" stroke="#fff" stroke-miterlimit="20" stroke-width=".53" d="M384.11 109.1v25.54"/></g><g><path d="M380.31 107.3v25.54"/><path fill="none" stroke="#fff" stroke-miterlimit="20" stroke-width=".53" d="M380.31 107.3v25.54"/></g><g><path d="M376.51 105.51v25.54"/><path fill="none" stroke="#fff" stroke-miterlimit="20" stroke-width=".53" d="M376.51 105.51v25.54"/></g><g><path d="M372.71 103.71v25.54"/><path fill="none" stroke="#fff" stroke-miterlimit="20" stroke-width=".53" d="M372.71 103.71v25.54"/></g><g><path d="M368.92 101.92v25.54"/><path fill="none" stroke="#fff" stroke-miterlimit="20" stroke-width=".53" d="M368.92 101.92v25.54"/></g></g><g><path fill="none" stroke="#fff" stroke-miterlimit="20" stroke-width=".53" d="M390.9 60.97v0l9.41-3.93v0l2.27 6.5v0l7.9-3.31v0l-.23 14.23v0l-6.55-7.61v0l-6.85 2.87v0z"/></g></g><g><g><g><path d="M301.9 96.21l-.09 57.39 44.82 21.26.2-60.8z"/><path fill="none" stroke="#fff" stroke-miterlimit="20" stroke-width="2.13" d="M301.9 96.21v0l-.09 57.39v0l44.82 21.26v0l.2-60.8v0z"/></g><g><path d="M346.83 77.45l44.98 18.7-.31 57.45"/><path fill="none" stroke="#fff" stroke-miterlimit="20" stroke-width="2.13" d="M346.83 77.45v0l44.98 18.7v0l-.31 57.45v0"/></g><g><path d="M391.5 153.6l.31-57.45-44.98 17.91-.2 60.8 44.87-21.26z"/><path fill="none" stroke="#fff" stroke-miterlimit="20" stroke-width="2.13" d="M391.5 153.6v0l.31-57.45v0l-44.98 17.91v0l-.2 60.8v0l44.87-21.26v0z"/></g><g><path d="M301.81 153.6l.09-57.39 44.93-18.76"/><path fill="none" stroke="#fff" stroke-miterlimit="20" stroke-width="2.13" d="M301.81 153.6v0l.09-57.39v0l44.93-18.76v0"/></g><g><path d="M346.83 77.45L301.9 96.21l44.93 17.85 44.98-17.91z"/><path fill="none" stroke="#fff" stroke-miterlimit="20" stroke-width="2.13" d="M346.83 77.45v0L301.9 96.21v0l44.93 17.85v0l44.98-17.91v0z"/></g></g><g><g><path d="M357.8 143.09v25.54"/><path fill="none" stroke="#fff" stroke-miterlimit="20" stroke-width=".53" d="M357.8 143.09v25.54"/></g><g><path d="M361.6 141.29v25.54"/><path fill="none" stroke="#fff" stroke-miterlimit="20" stroke-width=".53" d="M361.6 141.29v25.54"/></g><g><path d="M365.4 139.5v25.54"/><path fill="none" stroke="#fff" stroke-miterlimit="20" stroke-width=".53" d="M365.4 139.5v25.54"/></g><g><path d="M369.19 137.7v25.54"/><path fill="none" stroke="#fff" stroke-miterlimit="20" stroke-width=".53" d="M369.19 137.7v25.54"/></g><g><path d="M372.99 135.9v25.55"/><path fill="none" stroke="#fff" stroke-miterlimit="20" stroke-width=".53" d="M372.99 135.9v25.55"/></g><g><path d="M376.79 134.11v25.54"/><path fill="none" stroke="#fff" stroke-miterlimit="20" stroke-width=".53" d="M376.79 134.11v25.54"/></g><g><path d="M380.59 132.31v25.55"/><path fill="none" stroke="#fff" stroke-miterlimit="20" stroke-width=".53" d="M380.59 132.31v25.55"/></g></g><g><g><path d="M335.71 143.09v25.54"/><path fill="none" stroke="#fff" stroke-miterlimit="20" stroke-width=".53" d="M335.71 143.09v25.54"/></g><g><path d="M331.92 141.29v25.54"/><path fill="none" stroke="#fff" stroke-miterlimit="20" stroke-width=".53" d="M331.92 141.29v25.54"/></g><g><path d="M328.12 139.5v25.54"/><path fill="none" stroke="#fff" stroke-miterlimit="20" stroke-width=".53" d="M328.12 139.5v25.54"/></g><g><path d="M324.32 137.7v25.54"/><path fill="none" stroke="#fff" stroke-miterlimit="20" stroke-width=".53" d="M324.32 137.7v25.54"/></g><g><path d="M320.52 135.9v25.55"/><path fill="none" stroke="#fff" stroke-miterlimit="20" stroke-width=".53" d="M320.52 135.9v25.55"/></g><g><path d="M316.72 134.11v25.54"/><path fill="none" stroke="#fff" stroke-miterlimit="20" stroke-width=".53" d="M316.72 134.11v25.54"/></g><g><path d="M312.93 132.31v25.55"/><path fill="none" stroke="#fff" stroke-miterlimit="20" stroke-width=".53" d="M312.93 132.31v25.55"/></g></g><g><path fill="none" stroke="#fff" stroke-miterlimit="20" stroke-width=".53" d="M334.91 91.37v0l9.41-3.94v0l2.27 6.5v0l7.9-3.3v0l-.22 14.23v0l-6.56-7.61v0l-6.85 2.86v0z"/></g></g><g><g><g><path d="M245.92 126.6l-.1 57.39 44.82 21.27.2-60.8z"/><path fill="none" stroke="#fff" stroke-miterlimit="20" stroke-width="2.13" d="M245.92 126.6v0l-.1 57.39v0l44.82 21.27v0l.2-60.8v0z"/></g><g><path d="M290.84 107.85l44.98 18.7-.3 57.44"/><path fill="none" stroke="#fff" stroke-miterlimit="20" stroke-width="2.13" d="M290.84 107.85v0l44.98 18.7v0l-.3 57.44v0"/></g><g><path d="M335.52 183.99l.3-57.44-44.98 17.91-.2 60.8z"/><path fill="none" stroke="#fff" stroke-miterlimit="20" stroke-width="2.13" d="M335.52 183.99v0l.3-57.44v0l-44.98 17.91v0l-.2 60.8v0z"/></g><g><path d="M245.82 183.99l.1-57.39 44.92-18.75"/><path fill="none" stroke="#fff" stroke-miterlimit="20" stroke-width="2.13" d="M245.82 183.99v0l.1-57.39v0l44.92-18.75v0"/></g><g><path d="M290.84 107.85l-44.92 18.75 44.92 17.86 44.98-17.91z"/><path fill="none" stroke="#fff" stroke-miterlimit="20" stroke-width="2.13" d="M290.84 107.85v0l-44.92 18.75v0l44.92 17.86v0l44.98-17.91v0z"/></g></g><g><g><path d="M301.81 173.48v25.55"/><path fill="none" stroke="#fff" stroke-miterlimit="20" stroke-width=".53" d="M301.81 173.48v25.55"/></g><g><path d="M305.61 171.69v25.54"/><path fill="none" stroke="#fff" stroke-miterlimit="20" stroke-width=".53" d="M305.61 171.69v25.54"/></g><g><path d="M309.41 169.89v25.55"/><path fill="none" stroke="#fff" stroke-miterlimit="20" stroke-width=".53" d="M309.41 169.89v25.55"/></g><g><path d="M313.2 168.1v25.54"/><path fill="none" stroke="#fff" stroke-miterlimit="20" stroke-width=".53" d="M313.2 168.1v25.54"/></g><g><path d="M317 166.3v25.54"/><path fill="none" stroke="#fff" stroke-miterlimit="20" stroke-width=".53" d="M317 166.3v25.54"/></g><g><path d="M320.8 164.51v25.54"/><path fill="none" stroke="#fff" stroke-miterlimit="20" stroke-width=".53" d="M320.8 164.51v25.54"/></g><g><path d="M324.6 162.71v25.54"/><path fill="none" stroke="#fff" stroke-miterlimit="20" stroke-width=".53" d="M324.6 162.71v25.54"/></g></g><g><g><path d="M279.72 173.48v25.55"/><path fill="none" stroke="#fff" stroke-miterlimit="20" stroke-width=".53" d="M279.72 173.48v25.55"/></g><g><path d="M275.93 171.69v25.54"/><path fill="none" stroke="#fff" stroke-miterlimit="20" stroke-width=".53" d="M275.93 171.69v25.54"/></g><g><path d="M272.13 169.89v25.55"/><path fill="none" stroke="#fff" stroke-miterlimit="20" stroke-width=".53" d="M272.13 169.89v25.55"/></g><g><path d="M268.33 168.1v25.54"/><path fill="none" stroke="#fff" stroke-miterlimit="20" stroke-width=".53" d="M268.33 168.1v25.54"/></g><g><path d="M264.53 166.3v25.54"/><path fill="none" stroke="#fff" stroke-miterlimit="20" stroke-width=".53" d="M264.53 166.3v25.54"/></g><g><path d="M260.74 164.51v25.54"/><path fill="none" stroke="#fff" stroke-miterlimit="20" stroke-width=".53" d="M260.74 164.51v25.54"/></g><g><path d="M256.94 162.71v25.54"/><path fill="none" stroke="#fff" stroke-miterlimit="20" stroke-width=".53" d="M256.94 162.71v25.54"/></g></g><g><path fill="none" stroke="#fff" stroke-miterlimit="20" stroke-width=".53" d="M278.92 121.77v0l9.41-3.94v0l2.27 6.5v0l7.9-3.3v0l-.22 14.23v0l-6.56-7.61v0l-6.84 2.86v0z"/></g></g><g><g><g><path d="M189.93 157l-.1 57.39 44.82 21.26.2-60.79z"/><path fill="none" stroke="#fff" stroke-miterlimit="20" stroke-width="2.13" d="M189.93 157v0l-.1 57.39v0l44.82 21.26v0l.2-60.79v0z"/></g><g><path d="M234.85 138.24l44.98 18.71-.3 57.44"/><path fill="none" stroke="#fff" stroke-miterlimit="20" stroke-width="2.13" d="M234.85 138.24v0l44.98 18.71v0l-.3 57.44v0"/></g><g><path d="M279.53 214.39l.3-57.44-44.98 17.91-.2 60.79z"/><path fill="none" stroke="#fff" stroke-miterlimit="20" stroke-width="2.13" d="M279.53 214.39v0l.3-57.44v0l-44.98 17.91v0l-.2 60.79v0z"/></g><g><path d="M189.83 214.39l.1-57.39 44.92-18.76"/><path fill="none" stroke="#fff" stroke-miterlimit="20" stroke-width="2.13" d="M189.83 214.39v0l.1-57.39v0l44.92-18.76v0"/></g><g><path d="M234.85 138.24L189.93 157l44.92 17.86 44.98-17.91z"/><path fill="none" stroke="#fff" stroke-miterlimit="20" stroke-width="2.13" d="M234.85 138.24v0L189.93 157v0l44.92 17.86v0l44.98-17.91v0z"/></g></g><g><g><path d="M245.82 203.88v25.54"/><path fill="none" stroke="#fff" stroke-miterlimit="20" stroke-width=".53" d="M245.82 203.88v25.54"/></g><g><path d="M249.62 202.09v25.54"/><path fill="none" stroke="#fff" stroke-miterlimit="20" stroke-width=".53" d="M249.62 202.09v25.54"/></g><g><path d="M253.42 200.29v25.54"/><path fill="none" stroke="#fff" stroke-miterlimit="20" stroke-width=".53" d="M253.42 200.29v25.54"/></g><g><path d="M257.22 198.5v25.54"/><path fill="none" stroke="#fff" stroke-miterlimit="20" stroke-width=".53" d="M257.22 198.5v25.54"/></g><g><path d="M261.01 196.7v25.54"/><path fill="none" stroke="#fff" stroke-miterlimit="20" stroke-width=".53" d="M261.01 196.7v25.54"/></g><g><path d="M264.81 194.91v25.54"/><path fill="none" stroke="#fff" stroke-miterlimit="20" stroke-width=".53" d="M264.81 194.91v25.54"/></g><g><path d="M268.61 193.11v25.54"/><path fill="none" stroke="#fff" stroke-miterlimit="20" stroke-width=".53" d="M268.61 193.11v25.54"/></g></g><g><g><path d="M223.74 203.88v25.54"/><path fill="none" stroke="#fff" stroke-miterlimit="20" stroke-width=".53" d="M223.74 203.88v25.54"/></g><g><path d="M219.94 202.09v25.54"/><path fill="none" stroke="#fff" stroke-miterlimit="20" stroke-width=".53" d="M219.94 202.09v25.54"/></g><g><path d="M216.14 200.29v25.54"/><path fill="none" stroke="#fff" stroke-miterlimit="20" stroke-width=".53" d="M216.14 200.29v25.54"/></g><g><path d="M212.34 198.5v25.54"/><path fill="none" stroke="#fff" stroke-miterlimit="20" stroke-width=".53" d="M212.34 198.5v25.54"/></g><g><path d="M208.55 196.7v25.54"/><path fill="none" stroke="#fff" stroke-miterlimit="20" stroke-width=".53" d="M208.55 196.7v25.54"/></g><g><path d="M204.75 194.91v25.54"/><path fill="none" stroke="#fff" stroke-miterlimit="20" stroke-width=".53" d="M204.75 194.91v25.54"/></g><g><path d="M200.95 193.11v25.54"/><path fill="none" stroke="#fff" stroke-miterlimit="20" stroke-width=".53" d="M200.95 193.11v25.54"/></g></g><g><path fill="none" stroke="#fff" stroke-miterlimit="20" stroke-width=".53" d="M222.93 152.16v0l9.41-3.93v0l2.27 6.5v0l7.9-3.3v0l-.22 14.23v0l-6.56-7.61v0l-6.84 2.86v0z"/></g></g></g></g></g></g></g></g></g></svg>