<svg xmlns="http://www.w3.org/2000/svg" width="407" height="251" viewBox="0 0 407 251"><defs><clipPath id="ggl9a"><path d="M-33 251V0h496v251z"/></clipPath></defs><g><g><g><g><g><g><g/><g clip-path="url(#ggl9a)"><g><path fill="none" stroke="#fff" stroke-miterlimit="20" stroke-width="2.52" d="M276.43 358.62v0l1.12-209.14v0h25.98v0l1.12 209.14v0"/></g><g><path fill="none" stroke="#fff" stroke-miterlimit="20" stroke-width="2.52" d="M272.99 149.48a3.34 3.34 0 0 1-3.34-3.34v-35.09a3.34 3.34 0 0 1 3.34-3.34h35.09a3.34 3.34 0 0 1 3.34 3.34v35.09a3.34 3.34 0 0 1-3.34 3.34z"/></g><g><g><path fill="none" stroke="#fff" stroke-miterlimit="20" stroke-width=".63" d="M300.35 133.73v0l-7.24 5.8v0l1.91 4.17v0l8.98-7.2v0z"/></g><g><path d="M345.58 185.1l-38.37-47.92a2.54 2.54 0 0 0-3.57-.39l-8.63 6.91a2.54 2.54 0 0 0-.39 3.57l133.85 167.18c.88 1.09 40.56 45.45 41.08 44.14 6.77-17-124.45-193.25-128.92-198.82-4.22-5.26-17.9-9.23-24.45-11.4"/><path fill="none" stroke="#fff" stroke-miterlimit="20" stroke-width=".63" d="M345.58 185.1v0l-38.37-47.92a2.54 2.54 0 0 0-3.57-.39l-8.63 6.91a2.54 2.54 0 0 0-.39 3.57l133.85 167.18c.88 1.09 40.56 45.45 41.08 44.14 6.77-17-124.45-193.25-128.92-198.82-4.22-5.26-17.9-9.23-24.45-11.4"/></g></g><g><g><path fill="none" stroke="#fff" stroke-miterlimit="20" stroke-width=".63" d="M289.72 117.33v0l8.64 3.36v0l2.66-3.73v0l-10.72-4.18v0z"/></g><g><path d="M311.6 52.47l-22.32 57.19c-.51 1.31.14 2.78 1.44 3.29l10.3 4.02c1.31.51 2.78-.14 3.29-1.44l77.85-199.52c.51-1.31 19.08-57.85 17.69-57.65C381.74-139 294.72 62.76 292.13 69.42c-2.45 6.29.95 20.12 2.36 26.87"/><path fill="none" stroke="#fff" stroke-miterlimit="20" stroke-width=".63" d="M311.6 52.47v0l-22.32 57.19c-.51 1.31.14 2.78 1.44 3.29l10.3 4.02c1.31.51 2.78-.14 3.29-1.44l77.85-199.52c.51-1.31 19.08-57.85 17.69-57.65C381.74-139 294.72 62.76 292.13 69.42c-2.45 6.29.95 20.12 2.36 26.87"/></g></g><g><g><path fill="none" stroke="#fff" stroke-miterlimit="20" stroke-width=".63" d="M280.83 134.73v0l-1.4-9.16v0l-4.56-.44v0l1.73 11.38v0z"/></g><g><path d="M213.72 148.22l60.69-9.27a2.54 2.54 0 0 0 2.13-2.89l-1.67-10.93a2.54 2.54 0 0 0-2.89-2.13L60.27 155.33c-1.39.21-59.64 12.4-58.77 13.5 11.34 14.36 229.58-11.15 236.65-12.24 6.67-1.03 16.95-10.89 22.1-15.48"/><path fill="none" stroke="#fff" stroke-linecap="round" stroke-linejoin="round" stroke-miterlimit="20" stroke-width=".63" d="M213.72 148.22v0l60.69-9.27a2.54 2.54 0 0 0 2.13-2.89l-1.67-10.93a2.54 2.54 0 0 0-2.89-2.13L60.27 155.33c-1.39.21-59.64 12.4-58.77 13.5 11.34 14.36 229.58-11.15 236.65-12.24 6.67-1.03 16.95-10.89 22.1-15.48"/></g></g><g><path d="M279.35 128.6c0-6.18 5.01-11.19 11.19-11.19s11.19 5.01 11.19 11.19-5.01 11.19-11.19 11.19-11.19-5.01-11.19-11.19z"/><path fill="none" stroke="#fff" stroke-miterlimit="20" stroke-width="3.15" d="M279.35 128.6c0-6.18 5.01-11.19 11.19-11.19s11.19 5.01 11.19 11.19-5.01 11.19-11.19 11.19-11.19-5.01-11.19-11.19z"/></g></g></g></g></g></g></g></g></svg>